<svg xmlns="http://www.w3.org/2000/svg" viewBox="0 0 159.33 72.5"><defs><style>.cls-1{fill:#999;}.cls-2{fill:#ffce00;}.cls-3{fill:#cd163f;}.cls-4,.cls-5,.cls-6{fill:none;stroke-linecap:round;stroke-miterlimit:10;stroke-width:3px;}.cls-4{stroke:#afafaf;}.cls-5{stroke:#eba2b2;}.cls-6{stroke:#ffeb99;}</style></defs><title>base</title><g id="Layer_2" data-name="Layer 2"><g id="Welcome_Screen" data-name="Welcome Screen"><path class="cls-1" d="M159.33,36.25c0,20-35.67,36.25-79.67,36.25S0,56.26,0,36.25,35.67,0,79.66,0,159.33,16.22,159.33,36.25Z"/><ellipse class="cls-2" cx="79.66" cy="37.52" rx="59.03" ry="28.12"/><ellipse class="cls-3" cx="39.37" cy="37.52" rx="9.89" ry="9.34"/><ellipse class="cls-3" cx="119.96" cy="37.52" rx="9.89" ry="9.34"/><path class="cls-4" d="M136.26,15.62S173.2,32,140.9,54.84"/><path class="cls-5" d="M121.81,31.08a6.48,6.48,0,0,1,4.65,6.44c0,5.27-5.39,5.89-5.39,5.89"/><path class="cls-6" d="M120,21s14.92,6.52,15.41,16.48c.46,9.35-13.24,15.63-15,16.17"/></g></g></svg>