<?xml version="1.0" encoding="utf-8"?>
<!-- Generator: Adobe Illustrator 21.0.2, SVG Export Plug-In . SVG Version: 6.00 Build 0)  -->
<svg version="1.1" xmlns="http://www.w3.org/2000/svg" xmlns:xlink="http://www.w3.org/1999/xlink" x="0px" y="0px"
	 viewBox="0 0 273.4 337.3" style="enable-background:new 0 0 273.4 337.3;" xml:space="preserve">
<style type="text/css">
	.st0{fill:#999999;}
	.st1{fill:#FFCE00;}
	.st2{fill:#CD163F;}
	.st3{fill:none;stroke:#AFAFAF;stroke-width:5.1487;stroke-linecap:round;stroke-miterlimit:10;}
	.st4{fill:none;stroke:#EBA2B2;stroke-width:5.1487;stroke-linecap:round;stroke-miterlimit:10;}
	.st5{fill:none;stroke:#FFEB99;stroke-width:5.1487;stroke-linecap:round;stroke-miterlimit:10;}
	.st6{fill:#AFAFAF;}
	.st7{fill:#00FFD2;}
	.st8{fill:#FFCE00;stroke:#00FFD2;stroke-width:1.9729;stroke-miterlimit:10;}
</style>
<g id="base">
	<g>
		<path class="st0" d="M273.4,260.5c0,34.3-61.2,62.2-136.7,62.2C61.2,322.8,0,294.9,0,260.5c0-34.4,61.2-62.2,136.7-62.2
			C212.2,198.3,273.4,226.2,273.4,260.5z"/>
		<g>
			<g>
				<ellipse class="st1" cx="136.7" cy="262.7" rx="101.3" ry="48.3"/>
				<g>
					<ellipse class="st2" cx="67.6" cy="262.7" rx="17" ry="16"/>
					<ellipse class="st2" cx="205.9" cy="262.7" rx="17" ry="16"/>
				</g>
			</g>
		</g>
		<path class="st3" d="M233.9,225.1c0,0,63.4,28.1,8,67.3"/>
		<path class="st4" d="M209.1,251.7c0,0,8,2,8,11c0,9.1-9.2,10.1-9.2,10.1"/>
		<path class="st5" d="M205.9,234.4c0,0,25.6,11.2,26.5,28.3c0.8,16-22.7,26.8-25.8,27.7"/>
	</g>
</g>
<g id="cannon">
	<g>
		<path class="st6" d="M172.4,275.4l-27.1,57.2c-3,6.4-13.4,6.3-16.3-0.2l-25.6-58.1c-7.1-16.1-9.8-33.5-7.8-50.7l19.8-149.3
			c1.2-8.7-0.8-17.6-5.5-25.4l-6.6-10.8c-4.9-8.1,1.8-17.8,12.3-17.8h45.7c10.5,0,17.2,9.7,12.3,17.8L167,48.9
			c-4.8,7.8-6.7,16.7-5.5,25.4l19.8,147.8C183.4,240.2,180.4,258.6,172.4,275.4z"/>
		<path class="st7" d="M175.2,15.3h-75.1c-4.8,0,3.8-3.4,3.8-7.7v0c0-4.2,3.9-7.7,8.8-7.7l7.2,2c11.6,3.3,24.1,3.2,35.7-0.1l6.7-1.9
			c4.8,0,8.8,3.4,8.8,7.7v0C171,11.9,180,15.3,175.2,15.3z"/>
		<g>
			<path class="st7" d="M166.1,148.4h-56.9c-4.4,0-7.9-3.3-7.9-7.3v0c0-4,3.5-7.3,7.9-7.3h56.9c4.4,0,7.9,3.3,7.9,7.3v0
				C173.9,145.1,170.4,148.4,166.1,148.4z"/>
			<path class="st7" d="M165,128.5h-54.8c-4.2,0-7.6-3.3-7.6-7.3v0c0-4,3.4-7.3,7.6-7.3H165c4.2,0,7.6,3.3,7.6,7.3v0
				C172.6,125.3,169.2,128.5,165,128.5z"/>
			<path class="st7" d="M161.9,108.1h-48.6c-3.7,0-6.7-3.3-6.7-7.3v0c0-4,3-7.3,6.7-7.3h48.6c3.7,0,6.7,3.3,6.7,7.3v0
				C168.7,104.9,165.7,108.1,161.9,108.1z"/>
			<path class="st7" d="M158.9,88.9h-42.5c-3.3,0-5.9-3.3-5.9-7.3v0c0-4,2.6-7.3,5.9-7.3h42.5c3.3,0,5.9,3.3,5.9,7.3v0
				C164.8,85.6,162.1,88.9,158.9,88.9z"/>
			<path class="st7" d="M158.4,69.9h-41.5c-3.2,0-5.7-3.3-5.7-7.3v0c0-4,2.6-7.3,5.7-7.3h41.5c3.2,0,5.7,3.3,5.7,7.3v0
				C164.1,66.6,161.6,69.9,158.4,69.9z"/>
			<path class="st7" d="M168.6,50.6h-58.3c-4.5,0-8.1-3.3-8.1-7.3v0c0-4,3.6-7.3,8.1-7.3h58.3c4.5,0,8.1,3.3,8.1,7.3v0
				C176.6,47.3,173,50.6,168.6,50.6z"/>
			<path class="st7" d="M156.8,330h-38.3c-2.9,0-5.3-3.3-5.3-7.3l0,0c0-4,2.4-7.3,5.3-7.3h38.3c2.9,0,5.3,3.3,5.3,7.3l0,0
				C162.1,326.8,159.7,330,156.8,330z"/>
			<path class="st7" d="M167.7,168.5h-60.1c-4.6,0-8.3-3.3-8.3-7.3v0c0-4,3.7-7.3,8.3-7.3h60.1c4.6,0,8.3,3.3,8.3,7.3v0
				C176,165.3,172.3,168.5,167.7,168.5z"/>
			<path class="st7" d="M163.5,310.1h-51.8c-4,0-7.2-3.3-7.2-7.3l0,0c0-4,3.2-7.3,7.2-7.3h51.8c4,0,7.2,3.3,7.2,7.3l0,0
				C170.7,306.8,167.5,310.1,163.5,310.1z"/>
			<path class="st7" d="M170.2,188.7h-65.1c-5,0-9-3.3-9-7.3v0c0-4,4-7.3,9-7.3h65.1c5,0,9,3.3,9,7.3v0
				C179.2,185.4,175.2,188.7,170.2,188.7z"/>
			<path class="st7" d="M170.2,269.6h-65.1c-5,0-9-3.3-9-7.3v0c0-4,4-7.3,9-7.3h65.1c5,0,9,3.3,9,7.3v0
				C179.2,266.3,175.2,269.6,170.2,269.6z"/>
			<path class="st7" d="M174.8,208.8h-74.3c-5.7,0-10.3-3.3-10.3-7.3v0c0-4,4.6-7.3,10.3-7.3h74.3c5.7,0,10.3,3.3,10.3,7.3v0
				C185.1,205.6,180.5,208.8,174.8,208.8z"/>
			<path class="st7" d="M174.8,249h-74.3c-5.7,0-10.3-3.3-10.3-7.3l0,0c0-4,4.6-7.3,10.3-7.3h74.3c5.7,0,10.3,3.3,10.3,7.3v0
				C185.1,245.7,180.5,249,174.8,249z"/>
			<path class="st7" d="M176.6,229h-78c-6,0-10.8-3.3-10.8-7.3l0,0c0-4,4.8-7.3,10.8-7.3h78c6,0,10.8,3.3,10.8,7.3l0,0
				C187.4,225.7,182.6,229,176.6,229z"/>
			<path class="st7" d="M167.7,289.4h-60.1c-4.6,0-8.3-3.3-8.3-7.3l0,0c0-4,3.7-7.3,8.3-7.3h60.1c4.6,0,8.3,3.3,8.3,7.3l0,0
				C176,286.2,172.3,289.4,167.7,289.4z"/>
		</g>
		<g>
			<path class="st1" d="M96.5,28c-1.4,0-2.5-1.1-2.5-2.5v-3.7c0-1.4,1.1-2.5,2.5-2.5h84c1.4,0,2.5,1.1,2.5,2.5v3.7
				c0,1.4-1.1,2.5-2.5,2.5H96.5z"/>
			<path class="st7" d="M180.5,20.3c0.8,0,1.5,0.7,1.5,1.5v3.7c0,0.8-0.7,1.5-1.5,1.5h-84c-0.8,0-1.5-0.7-1.5-1.5v-3.7
				c0-0.8,0.7-1.5,1.5-1.5H180.5 M180.5,18.4h-84c-1.9,0-3.4,1.5-3.4,3.4v3.7c0,1.9,1.5,3.4,3.4,3.4h84c1.9,0,3.4-1.5,3.4-3.4v-3.7
				C184,19.9,182.4,18.4,180.5,18.4L180.5,18.4z"/>
		</g>
		<path class="st8" d="M180.5,20.3h-84c-0.8,0-1.5-0.7-1.5-1.5v-3.7c0-0.8,0.7-1.5,1.5-1.5h84c0.8,0,1.5,0.7,1.5,1.5v3.7
			C182,19.6,181.3,20.3,180.5,20.3z"/>
	</g>
</g>
</svg>
