<svg xmlns="http://www.w3.org/2000/svg" viewBox="0 0 58.04 196.53"><defs><style>.cls-1{fill:#afafaf;}.cls-2{fill:#00ffd2;}.cls-3,.cls-4{fill:#ffce00;}.cls-4{stroke:#00ffd2;stroke-miterlimit:10;stroke-width:1.15px;}</style></defs><title>cannon</title><g id="Layer_2" data-name="Layer 2"><g id="Welcome_Screen" data-name="Welcome Screen"><path class="cls-1" d="M49.28,160.47,33.51,193.78c-1.76,3.72-7.82,3.65-9.48-.1L9.12,159.82a57,57,0,0,1-4.55-29.57l11.55-87a22.58,22.58,0,0,0-3.19-14.78L9.1,22.21c-2.87-4.7,1-10.37,7.14-10.37H42.85c6.1,0,10,5.67,7.14,10.37l-3.82,6.26A22.58,22.58,0,0,0,43,43.29l11.54,86.12A57.07,57.07,0,0,1,49.28,160.47Z"/><path class="cls-2" d="M50.91,8.92H7.16c-2.81,0,2.21-2,2.21-4.46h0C9.36,2,11.66,0,14.48,0l4.2,1.18a38.38,38.38,0,0,0,20.81-.06L43.38,0c2.81,0,5.11,2,5.11,4.46h0C48.49,6.92,53.73,8.92,50.91,8.92Z"/><path class="cls-2" d="M45.6,86.46H12.45a4.42,4.42,0,0,1-4.59-4.23h0A4.42,4.42,0,0,1,12.45,78H45.6a4.42,4.42,0,0,1,4.59,4.23h0A4.42,4.42,0,0,1,45.6,86.46Z"/><path class="cls-2" d="M45,74.9H13.07a4.33,4.33,0,0,1-4.42-4.23h0a4.33,4.33,0,0,1,4.42-4.23H45a4.33,4.33,0,0,1,4.42,4.23h0A4.33,4.33,0,0,1,45,74.9Z"/><path class="cls-2" d="M43.2,63H14.85a4.09,4.09,0,0,1-3.92-4.23h0a4.09,4.09,0,0,1,3.92-4.23H43.2a4.09,4.09,0,0,1,3.92,4.23h0A4.09,4.09,0,0,1,43.2,63Z"/><path class="cls-2" d="M41.42,51.77H16.63c-1.9,0-3.43-1.9-3.43-4.23h0c0-2.34,1.54-4.23,3.43-4.23H41.42c1.9,0,3.43,1.9,3.43,4.23h0C44.85,49.88,43.31,51.77,41.42,51.77Z"/><path class="cls-2" d="M41.12,40.72H16.92c-1.85,0-3.35-1.9-3.35-4.23h0c0-2.34,1.5-4.23,3.35-4.23h24.2c1.85,0,3.35,1.9,3.35,4.23h0C44.47,38.82,43,40.72,41.12,40.72Z"/><path class="cls-2" d="M47.05,29.47h-34a4.49,4.49,0,0,1-4.7-4.23h0A4.49,4.49,0,0,1,13.07,21h34a4.49,4.49,0,0,1,4.7,4.23h0A4.49,4.49,0,0,1,47.05,29.47Z"/><path class="cls-2" d="M40.18,192.29H17.87c-1.71,0-3.09-1.9-3.09-4.23h0c0-2.34,1.38-4.23,3.09-4.23H40.18c1.71,0,3.09,1.9,3.09,4.23h0C43.27,190.4,41.89,192.29,40.18,192.29Z"/><path class="cls-2" d="M46.54,98.2h-35c-2.68,0-4.85-1.9-4.85-4.23h0c0-2.34,2.17-4.23,4.85-4.23h35c2.68,0,4.85,1.9,4.85,4.23h0C51.39,96.31,49.22,98.2,46.54,98.2Z"/><path class="cls-2" d="M44.1,180.68H13.94a4.2,4.2,0,0,1-4.18-4.23h0a4.2,4.2,0,0,1,4.18-4.23H44.1a4.2,4.2,0,0,1,4.18,4.23h0A4.2,4.2,0,0,1,44.1,180.68Z"/><path class="cls-2" d="M48,109.94H10c-2.9,0-5.25-1.9-5.25-4.23h0c0-2.34,2.35-4.23,5.25-4.23H48c2.9,0,5.25,1.9,5.25,4.23h0C53.25,108,50.9,109.94,48,109.94Z"/><path class="cls-2" d="M48,157.07H10c-2.9,0-5.25-1.9-5.25-4.23h0c0-2.34,2.35-4.23,5.25-4.23H48c2.9,0,5.25,1.9,5.25,4.23h0C53.25,155.17,50.9,157.07,48,157.07Z"/><path class="cls-2" d="M50.67,121.68H7.37c-3.31,0-6-1.9-6-4.23h0c0-2.34,2.68-4.23,6-4.23h43.3c3.31,0,6,1.9,6,4.23h0C56.67,119.79,54,121.68,50.67,121.68Z"/><path class="cls-2" d="M50.67,145.06H7.37c-3.31,0-6-1.9-6-4.23h0c0-2.34,2.68-4.23,6-4.23h43.3c3.31,0,6,1.9,6,4.23h0C56.67,143.17,54,145.06,50.67,145.06Z"/><path class="cls-2" d="M51.75,133.42H6.29c-3.48,0-6.29-1.9-6.29-4.23H0C0,126.85,2.82,125,6.29,125H51.75c3.48,0,6.29,1.9,6.29,4.23h0C58,131.53,55.23,133.42,51.75,133.42Z"/><path class="cls-2" d="M46.54,168.64h-35c-2.68,0-4.85-1.9-4.85-4.23h0c0-2.34,2.17-4.23,4.85-4.23h35c2.68,0,4.85,1.9,4.85,4.23h0C51.39,166.75,49.22,168.64,46.54,168.64Z"/><rect class="cls-3" x="3.63" y="11.28" width="51.82" height="5.02" rx="2.05" ry="2.05"/><path class="cls-2" d="M53.4,11.85a1.47,1.47,0,0,1,1.47,1.47v.92a1.47,1.47,0,0,1-1.47,1.47H5.68a1.47,1.47,0,0,1-1.47-1.47v-.92a1.47,1.47,0,0,1,1.47-1.47H53.4m0-1.15H5.68a2.63,2.63,0,0,0-2.62,2.62v.92a2.63,2.63,0,0,0,2.62,2.62H53.4A2.63,2.63,0,0,0,56,14.25v-.92A2.63,2.63,0,0,0,53.4,10.7Z"/><rect class="cls-4" x="4.21" y="7.96" width="50.67" height="3.87" rx="1.47" ry="1.47"/></g></g></svg>