<?xml version="1.0" encoding="utf-8"?>
<!-- Generator: Adobe Illustrator 21.0.2, SVG Export Plug-In . SVG Version: 6.00 Build 0)  -->
<svg version="1.1" id="Layer_1" xmlns="http://www.w3.org/2000/svg" xmlns:xlink="http://www.w3.org/1999/xlink" x="0px" y="0px"
	 viewBox="0 0 887.8 610" style="enable-background:new 0 0 887.8 610;" xml:space="preserve">
<style type="text/css">
	.st0{opacity:0.85;stroke:#CD163F;stroke-width:2;stroke-miterlimit:10;enable-background:new    ;}
	.st1{enable-background:new    ;}
	.st2{fill:#CD163F;}
	.st3{clip-path:url(#SVGID_2_);}
	.st4{fill:#FCB977;}
	.st5{fill:#C9C9C9;}
	.st6{fill:#FFBA76;stroke:#FCB977;stroke-width:1.56;stroke-miterlimit:10;}
	.st7{fill:#FFFFFF;stroke:#FFEF81;stroke-width:5.2;stroke-miterlimit:10;}
	.st8{fill:#686868;}
	.st9{fill:#8DE4FF;}
	.st10{fill:#E5E5E5;}
	.st11{fill:#999999;}
	.st12{fill:#AFAFAF;}
	.st13{fill:none;stroke:#BCBCBC;stroke-width:6.36;stroke-linecap:round;stroke-miterlimit:10;}
	.st14{fill:#0AE5BB;}
	.st15{fill:#00FFD2;}
	.st16{fill:#EE3623;}
	.st17{fill:#F2EE63;}
	.st18{fill:#A8E500;}
	.st19{fill:none;stroke:#999999;stroke-width:10.43;stroke-linecap:round;stroke-miterlimit:10;}
	.st20{fill:none;stroke:#657EEA;stroke-width:9.8;stroke-linecap:round;stroke-miterlimit:10;}
	.st21{fill:#E82E2E;}
	.st22{fill:#B7B7B7;}
	.st23{fill:#1E1E1E;}
	.st24{fill:#73737B;}
	.st25{fill:#4D4D4D;}
	.st26{fill:#FCD0D0;}
	.st27{fill:#FF9F9F;}
	.st28{fill:#FFB361;stroke:#FFB361;stroke-width:0.66;stroke-miterlimit:10;}
	.st29{fill:#FFFFFF;}
	.st30{fill:#1E1A1A;}
	.st31{fill:#FFB361;stroke:#FFB361;stroke-width:0.7;stroke-miterlimit:10;}
	.st32{opacity:0.36;}
	.st33{fill:#DDDDDD;}
</style>
<title>endScreen</title>
<g id="Layer_2">
	<g id="Welcome_Screen">
		<path class="st0" d="M78.6,1h727.6c42.8,0,77.6,34.7,77.6,77.6v452.9c0,42.8-34.7,77.6-77.6,77.6H78.6C35.7,609,1,574.3,1,531.4
			V78.6C1,35.7,35.7,1,78.6,1z"/>
		<g class="st1">
			<path class="st2" d="M186.1,135.6c0,22.4-17.4,40.6-39.8,40.6s-39.8-18.2-39.8-40.6c0-22.4,18.1-40.5,40.5-40.5
				c10.1,0,19.3,3.7,26.3,9.7l-16,16c-2.9-2.2-6.5-3.6-10.3-3.6c-9.2,0-17.4,8.1-17.4,18.4c0,11.1,7.5,18.4,16.7,18.4
				c5.3,0,10.9-2.4,14.2-6.5h-12.4v-19H184h2C186.1,129.6,186.1,134.9,186.1,135.6z"/>
			<path class="st2" d="M215.7,175h-25.9l40.7-80.6l40.7,80.6h-26.4l-14.5-34.7L215.7,175z M222.4,158.5l7.9,15.1l7.8-15.1H222.4z"
				/>
			<path class="st2" d="M278,175V95l40.6,47.3L359.2,95v80h-21.6V149l-19,19l-19.1-19l0.1,26.1H278z"/>
			<path class="st2" d="M395.7,115.4v9.8h29.6v19h-29.6V156h29.6v19h-29.6h-22.8h-0.1V96.4h0.1h22.8h29.6v19H395.7z"/>
		</g>
		<g class="st1">
			<path class="st2" d="M547.5,135.6c0,22.3-18.1,40.5-40.5,40.5s-40.5-18.2-40.5-40.5c0-22.4,18.1-40.5,40.5-40.5
				S547.5,113.2,547.5,135.6z M524.4,135.6c0-10.5-8.2-18.5-17.4-18.5s-17.4,8.1-17.4,18.5c0,11,8.2,18.4,17.4,18.4
				S524.4,146.6,524.4,135.6z"/>
		</g>
		<g class="st1">
			<path class="st2" d="M598.9,96.4h26.4l-41,79.4l-40.9-79.4h26.4l14.5,33.4L598.9,96.4z"/>
			<path class="st2" d="M655.9,115.4v9.8h29.6v19h-29.6V156h29.6v19h-29.6h-22.8H633V96.4h0.1h22.8h29.6v19H655.9z"/>
			<path class="st2" d="M739.6,175l-14.5-28.7h-4V175h-22.9V96.4h22.7H737c0,0,23.2,0,23.2,25.1c0,12.8-6.1,19.1-12,22.1l16,31.5
				H739.6z M721,127.4h11c0,0,5.1,0,5.1-6.2c0-5.8-5.1-5.8-5.1-5.8h-11V127.4z"/>
		</g>
		<g>
			<defs>
				<path id="SVGID_1_" d="M82.6,1h727.6c42.8,0,77.6,34.7,77.6,77.6v452.9c0,42.8-34.7,77.6-77.6,77.6H82.6
					C39.7,609,5,574.3,5,531.4V78.6C5,35.7,39.7,1,82.6,1z"/>
			</defs>
			<clipPath id="SVGID_2_">
				<use xlink:href="#SVGID_1_"  style="overflow:visible;"/>
			</clipPath>
			<g class="st3">
				<path class="st4" d="M359.3,624.2c0.5-0.1,0.8-0.5,0.8-1c0-0.4-0.4-0.7-0.8-0.8c-0.5,0.1-0.8,0.5-0.8,1
					C358.6,623.8,358.9,624.2,359.3,624.2z"/>
				<path class="st5" d="M99.9,208.8c0,0.6-0.1,1.2-0.2,1.9c-0.4,1.7-1.5,3.3-3,4.3c-3.4,2.3-8,1.5-10.4-1.9
					c-2.3-3.4-1.5-8,1.9-10.4s8-1.5,10.4,1.9C99.4,205.8,99.9,207.3,99.9,208.8L99.9,208.8z"/>
				<path class="st6" d="M179,599.5c0,0,12.4,40,1.4,56s-18.2,26.2-18.2,30.2l-0.2,0.1l-0.2-0.1c0-4-7.3-14.2-18.2-30.2
					s1.4-56,1.4-56H179z"/>
				<path class="st6" d="M276.9,560.8c0,0,27.1,31.9,23.4,50.9c-3.7,19-6.4,31.2-4.8,34.9l-0.2,0.2h-0.2
					c-1.6-3.7-12.3-10.2-28.6-20.6s-20.7-52-20.7-52L276.9,560.8z"/>
				<path class="st6" d="M47.7,560.8c0,0-27.1,31.9-23.4,50.9s6.4,31.2,4.8,34.9l0.2,0.2h0.2c1.6-3.7,12.3-10.2,28.6-20.6
					s20.7-52,20.7-52L47.7,560.8z"/>
				<path class="st6" d="M179,599.5c0,0,12.4,40,1.4,56s-18.2,26.2-18.2,30.2l-0.2,0.1l-0.2-0.1c0-4-7.3-14.2-18.2-30.2
					s1.4-56,1.4-56H179z"/>
				<path class="st7" d="M272.7,562.2c0,0,20.2,23.8,17.5,38c-2.8,14.2-4.8,23.3-3.6,26l-0.1,0.2h-0.2c-1.2-2.7-9.2-7.6-21.3-15.3
					c-12.2-7.8-15.5-38.8-15.5-38.8L272.7,562.2z"/>
				<path class="st6" d="M47.7,560.8c0,0-27.1,31.9-23.4,50.9s6.4,31.2,4.8,34.9l0.2,0.2h0.2c1.6-3.7,12.3-10.2,28.6-20.6
					s20.7-52,20.7-52L47.7,560.8z"/>
				<path class="st7" d="M52.6,562.5c0,0-18.5,21.8-16,34.7s4.4,21.3,3.3,23.8l0.1,0.1h0.2c1.1-2.5,8.4-6.9,19.5-14
					s14.1-35.5,14.1-35.5L52.6,562.5z"/>
				<path class="st7" d="M174.1,600.6c0,0,8.9,28.6,1,40.1s-13,18.7-13,21.6l-0.1,0.1l-0.1-0.1c0-2.9-5.2-10.2-13-21.6
					s1-40.1,1-40.1H174.1z"/>
				<path class="st8" d="M89.3,361.2"/>
				<path class="st9" d="M214.6,326.3c-0.6-0.1-1.2-0.2-1.8-0.2h0.5c0.5,0,1,0,1.5,0.1l0.5-0.4c0.4,0.3,0.7,0.6,1,0.9l0,0l0.4,0.4
					C216,326.8,215.3,326.5,214.6,326.3z"/>
				<path class="st9" d="M218.6,345.6c-0.1,0.1-0.2,0.3-0.3,0.4c-1.4,1.2-3.2,1.8-5,1.9h-0.4C215,347.8,217,347,218.6,345.6z"/>
				<path class="st10" d="M69.1,305h24.3c2.5,0,4.4,2,4.4,4.5v35c0,2.5-2,4.5-4.4,4.5H69.1c-2.5,0-4.4-2-4.4-4.5v-35
					C64.7,307,66.7,305,69.1,305z"/>
				<path class="st11" d="M89.9,564.8c-4.7,11.3-20.1,15.6-33.4,7.2s-16.5-24.5-8.2-33.6s22.2-10.1,32-3.9
					C90.4,540.9,94.5,553.7,89.9,564.8z"/>
				<path class="st11" d="M276,538.4c8.2,9.1,5.1,25.2-8.2,33.6c-13.3,8.4-28.7,4.1-33.4-7.2c-4.5-11.1-0.5-23.9,9.7-30.4
					C253.8,528.3,267.8,529.2,276,538.4z"/>
				<path class="st11" d="M185.6,578.8c2,12.1-8.7,46.5-23.8,46.5s-25.7-34.5-23.7-46.5c1.8-13.1,13.9-22.3,27.1-20.5
					C175.8,559.7,184.2,568.1,185.6,578.8L185.6,578.8z"/>
				<path class="st12" d="M309.7,513.2c-66.3,81-185.7,93-266.7,26.7c-9.8-8-18.7-17-26.7-26.7c-3.7-4.5-4.7-10-2.3-11.8l48.2-36.8
					c2.4-1.8,6.1-0.8,8.4,2c41.7,51,116.8,58.6,167.8,16.9c6.2-5.1,11.9-10.7,16.9-16.9c2.3-2.8,6.1-3.8,8.5-2l48.2,36.8
					C314.4,503.3,313.5,508.7,309.7,513.2z"/>
				<path class="st13" d="M305.1,504.7c-8.2,20.4-78.6,86.8-174.2,68.9"/>
				<path class="st14" d="M352,467.7C302.8,523.2,232.9,551,163,551S23.2,523.2-26,467.7c-4.8-5.4-6-11.9-2.9-14.1
					c20.7-14.7,41.4-15.5,62.1-30.2c3.1-2.1,7.9-0.9,10.9,2.4c16.9,19.1,37.8,19.1,60.4,27.8c39.8,15.1,83.8,14.3,123-2.3
					c20.4-8.7,39.1-8,54.6-25.5c3-3.4,7.8-4.6,10.9-2.4c20.7,14.7,41.4,15.5,62,30.2C358,455.7,356.8,462.2,352,467.7z"/>
				<path class="st15" d="M70.7,534.2c-37.1-14-70.3-36.8-96.6-66.5c-4.8-5.4-6-11.9-2.9-14.1c20.7-14.7,41.4-15.5,62-30.2
					c3.1-2.1,7.9-0.9,10.9,2.4c16.9,19.1,37.8,19.1,60.4,27.8L70.7,534.2z"/>
				<path class="st15" d="M227.4,451.3c20.4-8.7,39.1-8,54.6-25.5c3-3.4,7.8-4.6,10.9-2.4c20.7,14.7,41.4,15.5,62,30.2
					c3.1,2.1,1.9,8.6-2.9,14.1c-25.7,29-58,51.5-94.2,65.5L227.4,451.3z"/>
				<path class="st16" d="M195.7,514.1c-3.7,0.1-7.2,1-10.5,2.7c-1.1,0.5-1.7,0.1-1.5-1.1c1.1-5.7,1.3-11.5,0.8-17.2
					c-0.1-1.2,0.5-1.7,1.4-1.2c2.8,1.5,5.9,2.3,9.1,2.3c0.8-0.1,1.4,0.5,1.5,1.2c0,0.1,0,0.1,0,0.2c-0.3,3.9-0.1,7.9,0.8,11.7
					C197.4,513.5,196.7,514.1,195.7,514.1z"/>
				<path class="st17" d="M131.8,498.2c2.5-0.3,4.9-0.9,7.3-1.9c2.9-1.2,4.5-0.1,4,3.2c-0.7,4.9-1,9.9-0.6,14.8
					c0.2,3.2-1.4,4.5-3.8,3.4c-2-0.8-4.1-1.4-6.3-1.6c-2.5-0.3-4.2-1.8-4.1-4c0.1-3.4-0.1-6.8-0.6-10.1
					C127.1,500,128.9,498.5,131.8,498.2z"/>
				<path class="st18" d="M172.6,516.9c-5.6,0.1-11.1,1.5-16,4.1c-1.6,0.8-2.6,0.2-2.2-1.7c1.7-8.6,2.1-17.4,1.1-26.2
					c-0.2-1.8,0.7-2.5,2.1-1.8c4.3,2.2,9,3.5,13.9,3.5c1.1-0.1,2.2,0.7,2.3,1.8c0,0.1,0,0.2,0,0.3c-0.5,6-0.1,12,1.1,17.8
					C175.3,516,174.2,516.9,172.6,516.9z"/>
				<path class="st19" d="M147.4,431.5"/>
				<path class="st19" d="M277.7,417.7"/>
				<path class="st20" d="M344,461.8c-0.4-0.1-8.5,10.6-28,26.5c-19.4,15.4-50.1,36-92.1,45.2"/>
				<path class="st21" d="M216.9,322.7c0.1,0.4,0.1,0.7,0.1,1.1l1-0.9l0.1-0.1C217.7,322.7,217.3,322.7,216.9,322.7z"/>
				<path class="st12" d="M307.5,417.3c4.6-1,6.9,6.1,8.4,9.8c1.5,3.7-0.8,8.2-5,10c-43.1,17.6-95.7,32.5-148.4,32.1
					S57.1,453.1,14,435.5c-4.2-1.7-6.4-6.3-5-10c1.2-2.7,3.1-5,5.4-6.8c0,0,63.9,11.2,146,11.7C206.4,430.7,258.2,427.8,307.5,417.3
					z"/>
				<path class="st19" d="M296.3,432.6c0,0-59.5,31.4-153.1,27"/>
				<path class="st22" d="M65.8,476.3l12.9,6.2c1.3,0.6,1.9,2.2,1.2,3.5l-8.9,18.6c-0.6,1.3-2.2,1.9-3.5,1.2l-12.9-6.2
					c-1.3-0.6-1.9-2.2-1.2-3.5l8.9-18.6C63,476.2,64.5,475.6,65.8,476.3z"/>
				<path class="st22" d="M64.3,319.7h8.1c0.8,0,1.5,0.7,1.5,1.5v10.9c0,0.8-0.7,1.5-1.5,1.5h-8.1c-0.8,0-1.5-0.7-1.5-1.5v-10.9
					C62.8,320.3,63.5,319.7,64.3,319.7z"/>
				<path class="st23" d="M256.2,335.7c0,23.1-9,45.3-25.2,61.9c-17.7,18.2-42,28.5-67.4,28.4c-51.1,0-92.6-40.5-92.6-90.3
					s41.4-90.3,92.6-90.3c31.1-0.1,60.1,15.3,77.5,41C251,300.9,256.2,318.1,256.2,335.7z"/>
				<path class="st24" d="M116.6,216.4c-0.5,2-1.3,3.9-2.4,5.7c-0.4-0.7-0.9-1.5-1.5-2.1c-0.6-0.7-1.2-1.3-1.9-1.9
					c-0.4-0.3-0.8-0.7-1.2-1c0.6-2,0.7-4.1,0.3-6.2c1.7,1,3.2,2.1,4.6,3.4c0.7,0.6,1.3,1.2,1.9,1.9L116.6,216.4z"/>
				<path class="st24" d="M108.3,209.9c-0.2,1.9-0.5,3.7-1,5.5c-0.8-0.5-1.6-0.9-2.4-1.3c-0.8-0.4-1.6-0.7-2.4-1s-1.4-0.5-2.2-0.8
					c1.2-1.4,1.8-3.1,1.8-4.9c1.4,0.4,2.7,0.9,3.9,1.4c0.7,0.3,1.3,0.6,1.9,0.9L108.3,209.9z"/>
				<path class="st24" d="M100.9,207l1.2,0.4c0,1.8-0.6,3.6-1.8,4.9l-1-0.3c-1.4-0.3-2.4-1.6-2.1-3c0.3-1.4,1.6-2.4,3-2.1
					C100.4,206.9,100.6,207,100.9,207L100.9,207z"/>
				<path class="st24" d="M110,210.8c0.4,2.1,0.3,4.2-0.3,6.2c-0.7-0.6-1.5-1.1-2.3-1.6c0.5-1.8,0.8-3.6,1-5.5
					C108.9,210.2,109.4,210.5,110,210.8z"/>
				<path class="st24" d="M121.2,225.3c0.1,0.3,0.1,0.6,0.1,0.9c0.1,0.9,0.2,1.8,0.1,2.7c0,0.1,0,0.1,0,0.2c-0.2,1-0.9,1.8-1.9,2.1
					l-0.2,0.1c-0.2,0-0.4,0-0.7,0c-0.8,0-1.5-0.4-2-1.1c-0.3-0.4-0.4-0.9-0.4-1.4v-0.1c0-1.5-0.2-3-0.8-4.4
					c-0.3-0.9-0.8-1.8-1.3-2.6c1.1-1.7,2-3.5,2.5-5.4c0.7,0.8,1.3,1.6,1.9,2.5C119.9,220.8,120.7,223,121.2,225.3z"/>
				<path class="st8" d="M262.8,374.8"/>
				<path class="st22" d="M67.3,302.7h16.2c1.6,0,3,1.3,3,3V329c0,1.6-1.3,3-3,3H67.3c-1.6,0-3-1.3-3-3v-23.3
					C64.4,304,65.7,302.7,67.3,302.7z"/>
				<path class="st22" d="M56.2,309h9.2c0.9,0,1.7,0.8,1.7,1.7v12.4c0,0.9-0.8,1.7-1.7,1.7h-9.2c-0.9,0-1.7-0.8-1.7-1.7v-12.4
					C54.5,309.8,55.3,309,56.2,309z"/>
				<path class="st2" d="M227.9,283.5c-18.3-24.9-62.3-21-85.4-8.3s-30.7,19-38.9,17.9c-4.6-0.6,0.6,3.8,7.8,5.5s-1,2.1-5.1,1.5
					c-2.5-0.4,3.1,3.8,10.8,3.5c7.5-0.3-28.2,50.7,18.7,94.9c25.4,24,82.2,14.5,83-3.6c0.1-2.3,1.9-4.1,1.9-6.4c0-0.4,0-0.8,0-1.2
					c0-0.2,0-0.4,0-0.5h3.7c-0.1-1.7-0.4-3.4-1-5.1c-0.1-0.3-0.2-0.6-0.4-0.9c-1.2-2.6-3.4-4.6-6.1-5.6l0,0
					c-1.2-0.4-2.4-0.7-3.6-0.9l0,0l-0.5-0.1l0,0c-12.8-1.5-32.4,7.2-39.1,2.8l0,0c-1.5-1-2.4-2.7-2.3-5.3c0-1.4,0.3-2.8,0.7-4.1
					c0.6-1.9,1.4-3.7,2.4-5.5c0.6-1.1,1.3-2.3,2.1-3.5c0.3-0.5,0.7-1.1,1.1-1.6l0.6-0.8c4.3-6.1,9-11.8,14-17.3l1.2-1.3
					c1-1,1.9-2,2.9-3l0.6-0.6c0.8-0.8,1.6-1.6,2.4-2.4c3.4-3.5,6.9-6.9,10.3-10.1c1.8-1.7,3.5-3.3,5.2-4.8l0.1,0l2.9-2.6l2.2-2
					l1.7-1.5c4.2-3.8,7.7-6.8,10-8.7l0.1-0.1c-0.5-0.1-1.1-0.2-1.7-0.2h-0.5c-4.1,0.3-7.5,3.4-9,7.7c-0.5-0.4-1.1-0.7-1.7-0.9
					c-0.3-0.1-0.7-0.1-1-0.1c-1,0-1.9,0.4-2.6,1c1.6-5.7,6.7-9.6,12.6-9.8c0.7,0,1.3,0.1,2,0.2c0.9,0.4,0.4,5.3,1.2,5.9l1.9-1.6
					c0,0,1.4-4.6,1.4-5.2C234.5,296,235.1,293.2,227.9,283.5z M185.2,335.9L185.2,335.9c-1.2,0.3-2.5,0.4-3.7,0.5
					c-1.4,0-2.7-0.2-4-0.5c-4-2.7-6.7-7-7.4-11.8c1.3,0.7,2.8,0.9,4.3,0.5c0.8-0.2,1.5-0.6,2.2-1.1c0.5,5.6,4.2,10.3,9.4,12.3
					C185.7,335.8,185.5,335.8,185.2,335.9L185.2,335.9z M177.6,315.4c-1.1-1.5-2.9-2.4-4.7-2.4c-0.3,0-0.5,0-0.8,0
					c2.1-3.9,5.7-6.8,9.9-8.1c2.1,0,4.2,0.5,6.2,1.5l0.4,0.2l0.1,0.1C183.6,307.3,179.4,310.6,177.6,315.4L177.6,315.4z"/>
				<path class="st25" d="M192.3,389.5c0,0-2.9,11.5,14.7,9.4c21.4-2.6,12.4-12.7,12.4-12.7L192.3,389.5z"/>
				<path class="st2" d="M215.3,345.9c0,0-2.9-2.1,4-5.8c10.9-5.9,20.6,30.8-0.9,39.1c-14.2,5.5-19.5-22-19.5-22L215.3,345.9z"/>
				<path class="st26" d="M210.2,361.9c1.5-0.4,3.1,0.6,3.5,2.1c0.1,0.2,0.1,0.4,0.1,0.7c0,4.2,2.3,11.2,14.6,11.2
					c15.3,0-37.5,22.2-55.5,5.9c-4.3-3.9-3.3-15.3-3.3-21.1c0-1.6,1.3-2.9,2.9-2.9c0.2,0,0.4,0,0.6,0.1
					C181.7,360,199.2,364.6,210.2,361.9z"/>
				<path class="st27" d="M171.1,366.4c11.1,16.9,45.2-3.5,46.7,15.1c0.6,9.1-18.5,4.5-30.2,4.4
					C169.9,385.9,165.3,362.2,171.1,366.4z"/>
				<path class="st28" d="M170.7,354.5c0-0.2-0.3-0.4-0.5-0.4c-0.2,0-0.3,0.2-0.4,0.4c-0.4,5-4.8,17.4,0.9,27.7
					c7.2,13.1,53.3,17.9,59.9-5.2c0.1-0.2-0.1-0.5-0.3-0.6c-0.1,0-0.3,0-0.4,0.1c-4.8,3.1-24.6,15.2-46,6.8
					c-9.6-3.8-10.8-5.9-12.7-11.7C170.5,369.4,171.7,359.5,170.7,354.5z"/>
				<path class="st25" d="M239.2,307.7c-1-4-2.1-6.7-5.6-9.5c-7.2-5.7-17.5-4.9-23.9,1.6c-6.1,6.1-11,3.2-11,3.2s-44.4-24.4-65.4,15
					c-16.9,31.7,2.6,0.8,8.9,2.6c7.6,2.2-8.9,13.8-10.1,24.2s3.2-1.3,9.5-5.2s-8.2,19.7-5.7,36.7s13-39.3,31-23.6l0.2,0.2
					c0.3,0.5,0.6,1,1.1,1.4l0.1,0.1c0.3,0.2,0.6,0.5,0.9,0.7c2,1.2,4.2,1.9,6.5,2c4.7,0.4,11.8-0.5,22.6-4.4l0,0
					c7.4-2.8,14.5-6.1,21.5-9.8l2-1.1c2.8-1.5,5.6,1,7.9-1C235.9,335.2,243.9,326.7,239.2,307.7z M231,301.2l-0.6,0.5
					c-0.5-0.1-1.1-0.2-1.6-0.2h-0.5c-4,0.3-7.4,3.4-8.9,7.7c-0.5-0.4-1.1-0.7-1.7-0.9c-0.3-0.1-0.7-0.1-1-0.1c-1,0-1.9,0.4-2.6,1
					c1.8-5.7,6.7-9.8,12.5-9.8c0.6,0,1.3,0.1,1.9,0.2C229.4,300.1,230.2,300.6,231,301.2z M165.3,319.4c0.6-7.7,6.7-13.8,14.4-14.5
					c2.6-0.2,5.2,0.3,7.6,1.4l0.4,0.2l0.1,0.1c1.4,0.7,2.6,1.6,3.7,2.7c5.4,5.3,6.3,13.7,2.2,20c-2,3.1-5,5.3-8.6,6.4
					c-0.2,0.1-0.5,0.1-0.7,0.2l0,0c-1.2,0.3-2.4,0.4-3.7,0.5c-1.4,0-2.7-0.2-4-0.5C169.5,333.8,164.7,326.9,165.3,319.4L165.3,319.4
					z M232.1,327.1c-1.7,0.9-3.6,1.3-5.5,1.3c-6.4,0-11.7-5-12.9-11.6l0.1,0c0.8,0.8,1.9,1.3,3,1.3c0.1,0,0.3,0,0.4,0
					c0.7-0.1,1.3-0.3,1.9-0.7c1.2,5,4.8,8.7,9.3,9h0.5c2.1,0,4.1-0.8,5.7-2.1C233.8,325.3,233,326.2,232.1,327.1L232.1,327.1z"/>
				<path class="st29" d="M194.6,337.2c-8.3,7.2-20.8,6.4-28.1-1.9c-7.2-8.3-6.4-20.8,1.9-28.1c5.9-5.2,14.4-6.4,21.5-3.1
					c-0.8-0.1-1.7-0.2-2.6-0.2c-1.8,0-3.6,0.3-5.4,0.9c-7.2,2.3-12,9-12,16.5c0,0.9,0.1,1.7,0.2,2.5c1.4,9.5,10.3,16,19.8,14.6
					c1.2-0.2,2.4-0.5,3.5-0.9C193.8,337.6,194.2,337.4,194.6,337.2z"/>
				<path class="st9" d="M186,335.7c-0.2,0.1-0.5,0.1-0.7,0.2l0,0c-1.2,0.3-2.5,0.4-3.7,0.5c-1.4,0-2.7-0.2-4-0.5
					c-4-2.7-6.7-7-7.4-11.8c1.3,0.7,2.8,0.9,4.3,0.5c0.8-0.2,1.5-0.6,2.2-1.1C177.1,329,180.7,333.7,186,335.7z"/>
				<path class="st9" d="M188.6,306.6c-5,0.7-9.3,4-11.1,8.8c-1.1-1.5-2.9-2.4-4.7-2.4c-0.3,0-0.5,0-0.8,0c2.1-3.9,5.7-6.8,9.9-8.1
					c2.1,0,4.2,0.5,6.2,1.5l0.4,0.2L188.6,306.6z"/>
				<path class="st9" d="M195.3,307.9c-1.8-0.9-3.8-1.3-5.8-1.4h-0.9l-0.4-0.2c-1.9-0.9-4-1.4-6.2-1.5c1.7-0.6,3.5-0.9,5.4-0.9
					c0.9,0,1.7,0.1,2.6,0.2c1.8,0.8,3.4,1.9,4.9,3.2L195.3,307.9z"/>
				<path class="st9" d="M198.1,333.2l-0.3,0.5c-0.9,1.3-2,2.5-3.2,3.5c-0.4,0.2-0.8,0.3-1.2,0.5c-5.3,2-11.2,1.3-15.9-1.9
					c1.3,0.3,2.6,0.5,4,0.5c1.3,0,2.5-0.2,3.7-0.5l0,0c1.2,0.3,2.5,0.5,3.7,0.5h0.6c2.6-0.1,5.1-0.9,7.3-2.2
					C197.3,333.8,197.7,333.5,198.1,333.2z"/>
				<path class="st30" d="M190,336h-0.5c-1.2,0-2.3-0.3-3.4-0.6c-5.1-1.9-8.7-6.6-9.2-12c-0.1-0.6-0.1-1.3-0.1-1.9
					c0-2,0.4-4.1,1.2-5.9c1.8-4.6,5.9-7.9,10.8-8.6c0.3,0,0.5,0,0.8-0.1h0.5c1.6,0,3.2,0.3,4.6,0.9c0.3,0.1,0.7,0.3,1,0.4
					c3.6,3.8,5.5,8.9,5.5,14.1c0,3.2-0.7,6.4-2.1,9.3c-0.2,0.5-0.5,1-0.8,1.5l-0.6,0.5c-0.5,0.3-0.9,0.7-1.4,0.9
					C194.3,335.5,192.2,336.1,190,336L190,336z"/>
				<path class="st30" d="M190,307.1c1.6,0,3.1,0.3,4.5,0.9c0.3,0.1,0.6,0.3,0.9,0.4c3.5,3.8,5.4,8.7,5.4,13.8
					c0,3.2-0.7,6.3-2.1,9.1c-0.2,0.5-0.5,1-0.8,1.4l-0.5,0.4c-0.4,0.3-0.9,0.6-1.4,0.9c-1.8,1-3.9,1.6-6,1.6h-0.4h-0.3l0,0
					c-1.1-0.1-2.2-0.3-3.2-0.6c-5-1.9-8.5-6.5-9-11.8c-0.1-0.6-0.1-1.3-0.1-1.9c0-2,0.4-4,1.1-5.8c1.7-4.5,5.8-7.8,10.6-8.4
					c0.2,0,0.5,0,0.8-0.1L190,307.1 M190,306.6h-0.6c-0.3,0-0.5,0-0.8,0.1c-5,0.7-9.3,4-11.1,8.8c-0.8,1.9-1.2,4-1.2,6.1
					c0,0.7,0,1.3,0.1,2c0.5,5.6,4.2,10.3,9.4,12.3c1.2,0.4,2.4,0.6,3.6,0.7h0.4c2.2,0,4.4-0.6,6.3-1.7c0.5-0.3,1-0.6,1.5-1
					c0.2-0.2,0.4-0.3,0.6-0.5c0.3-0.5,0.6-1,0.9-1.5c1.4-2.9,2.2-6.2,2.2-9.4c0-5.3-2-10.4-5.6-14.3c-0.3-0.2-0.7-0.3-1-0.5
					C193.3,306.8,191.7,306.5,190,306.6L190,306.6z"/>
				<path class="st9" d="M232.2,301.2l-0.6,0.5c-0.5-0.1-1.1-0.2-1.7-0.2h-0.5c-4.1,0.3-7.5,3.4-9,7.7c-0.5-0.4-1.1-0.7-1.7-0.9
					c-0.3-0.1-0.7-0.1-1-0.1c-1,0-1.9,0.4-2.6,1c1.6-5.7,6.7-9.6,12.6-9.8c0.7,0,1.3,0.1,2,0.2C230.7,300.1,231.5,300.6,232.2,301.2
					z"/>
				<path class="st29" d="M233.4,327.1c-2.7,2.6-6.3,4.1-10,4.1c-6.1-0.1-11.5-3.9-13.8-9.5c-1-2.2-1.4-4.6-1.4-7
					c0-9.1,6.8-16.5,15.2-16.5c2.2,0,4.4,0.5,6.4,1.5c-0.7-0.1-1.3-0.2-2-0.2c-5.9,0.1-11,4.1-12.6,9.8c-0.8,2.4-0.9,4.9-0.5,7.4
					v0.1c1.2,6.6,6.6,11.6,13.1,11.6C229.7,328.4,231.6,327.9,233.4,327.1z"/>
				<path class="st9" d="M231.5,301.8c-0.7-0.2-1.3-0.3-2-0.3h0.5c0.6,0,1.1,0.1,1.7,0.2l0.6-0.5c0.4,0.3,0.8,0.6,1.2,1l0,0l0.5,0.5
					C233.2,302.3,232.4,302,231.5,301.8z"/>
				<path class="st9" d="M235.7,324.2c-0.7,1-1.5,2-2.4,2.8c-1.7,0.9-3.6,1.3-5.6,1.3c-6.5,0-11.9-5-13.1-11.6l0.1,0
					c0.8,0.8,1.9,1.3,3.1,1.3c0.1,0,0.3,0,0.4,0c0.7-0.1,1.3-0.3,1.9-0.7c1.2,5,4.9,8.7,9.4,9h0.5
					C232.1,326.3,234.1,325.6,235.7,324.2z"/>
				<path class="st9" d="M217.6,313.9v0.2c0,1.3,0.2,2.6,0.6,3.9c-0.1,0-0.3,0-0.4,0c-1.2,0-2.3-0.5-3.1-1.3l-0.1,0v-0.1
					c-0.4-2.5-0.3-5,0.5-7.4c0.7-0.6,1.7-1,2.6-1c0.3,0,0.7,0,1,0.1C218,310.1,217.6,312,217.6,313.9z"/>
				<path class="st9" d="M236.1,323.7c-0.1,0.2-0.2,0.3-0.3,0.5c-1.6,1.3-3.6,2.1-5.7,2.1h-0.5C231.9,326.2,234.2,325.3,236.1,323.7
					z"/>
				<path class="st30" d="M229.6,326h-0.5c-4.3-0.3-8-3.8-9.1-8.8c-0.3-1.1-0.4-2.2-0.4-3.3c0-0.6,0-1.2,0.1-1.8
					c0.1-0.9,0.3-1.8,0.6-2.7c1.5-4.3,4.9-7.3,8.7-7.5h0.5c0.5,0,1.1,0.1,1.6,0.2c0.6,0.1,1.1,0.3,1.6,0.5h0.1
					c0.3,0.1,0.6,0.3,0.9,0.4c2.7,3.3,4.2,7.4,4.1,11.7c0,3.1-0.7,6.2-2.2,9l-0.5,0.4C233.5,325.3,231.6,326,229.6,326z"/>
				<path class="st30" d="M229.6,302.2c0.5,0,1,0.1,1.5,0.1c0.5,0.1,1,0.3,1.5,0.5l0,0h0.1c0.3,0.1,0.5,0.2,0.8,0.4
					c2.6,3.2,4.1,7.3,4,11.4c0,3-0.7,6-2.1,8.7l-0.5,0.4c-1.5,1.3-3.4,2-5.3,2h-0.5c-4.1-0.2-7.7-3.7-8.8-8.5
					c-0.2-1.1-0.4-2.2-0.4-3.2c0-0.6,0-1.2,0.1-1.8c0.1-0.9,0.3-1.8,0.6-2.6c1.4-4.2,4.7-7.1,8.4-7.3L229.6,302.2 M229.5,301.5H229
					c-4.1,0.3-7.5,3.4-9,7.7c-0.3,0.9-0.5,1.8-0.6,2.8c-0.1,0.6-0.1,1.2-0.1,1.9c0,1.1,0.1,2.3,0.4,3.4c1.2,5,4.9,8.7,9.4,9h0.5
					c2.1,0,4.1-0.8,5.7-2.1c0.2-0.2,0.4-0.3,0.6-0.5c1.5-2.8,2.3-5.9,2.3-9.1c0.1-4.3-1.4-8.6-4.2-11.9c-0.3-0.2-0.6-0.3-0.9-0.5
					l0,0c-0.6-0.2-1.1-0.4-1.8-0.5C230.7,301.6,230.1,301.5,229.5,301.5L229.5,301.5z"/>
				<path class="st29" d="M222.3,313.2c0,1.7-0.8,3.2-2.2,4.1c-0.6,0.4-1.2,0.6-1.9,0.7c-0.1,0-0.3,0-0.4,0c-1.2,0-2.3-0.5-3.1-1.3
					c0,0-0.1,0-0.1-0.1c-0.9-0.9-1.4-2.2-1.4-3.5c0-1.5,0.7-3,1.8-3.9c0.7-0.6,1.7-1,2.6-1c0.3,0,0.7,0,1,0.1
					c0.6,0.2,1.2,0.4,1.7,0.9c0.4,0.3,0.8,0.8,1.1,1.2C222,311.3,222.3,312.2,222.3,313.2z"/>
				<path class="st31" d="M169.8,355.3c-0.2-0.7,0.6-1.2,1.3-0.8c4.2,2.5,17.1,7.1,38.1-9.2c24.1-18.6,39.1,2.2,42.3,7.2
					c0.2,0.4,0.1,0.8-0.3,1c-0.1,0.1-0.3,0.1-0.4,0.1c-4.8,0.2-18.9,3.3-25.7,8.3C215.2,369.1,176.4,376.2,169.8,355.3z"/>
				<path class="st2" d="M212.4,406.2c0,0,8.5,3.7,8.5,15.1s-83.8,13.9-87.3,3.3s11-6.7,11.3-25.1S212.4,406.2,212.4,406.2z"/>
				<g class="st32">
					<path class="st29" d="M196.4,408.5c2.7-3.1,2.6-14.6,4.4-17.7c1.7-2.8,4.2-5.1,6.5-5.8c8.1-1.4,23.6-10.5,35.2-24.2
						c3-4.1,6.3-3.5,4.5,3.6c-0.8,3.1-3,6.7-4.2,10c-2.7,7.5-12.2,19.5-15.3,22.9c-7.3,8-27.7,22-34.1,18.7
						C192.1,414.8,193.8,411.3,196.4,408.5z"/>
				</g>
				<g class="st32">
					<path class="st29" d="M221.5,308.3c-4.1-1.1-8.4-1.6-12.6-1.3c-3.6,0.3-7-1.4-8.9-4.4c-5.1-11.5-17-22.7-36.3-27.1
						c-5.6-0.6-5.5-5.1,2.6-9.5c3.5-1.9,5.6-7.1,9.6-8.5c9-3.4,22.6,1.3,27.5,3.7c19,9.2,33.8,28.4,36.1,41.5
						C240,306.1,225.6,309.4,221.5,308.3z"/>
				</g>
				<g class="st32">
					<path class="st29" d="M221.5,308.3c-4.1-1.1-8.4-1.6-12.6-1.3c-3.6,0.3-7-1.4-8.9-4.4c-5.1-11.5-17-22.7-36.3-27.1
						c-5.6-0.6-5.5-5.1,2.6-9.5c3.5-1.9,5.6-7.1,9.6-8.5c9-3.4,22.6,1.3,27.5,3.7c19,9.2,33.8,28.4,36.1,41.5
						C240,306.1,225.6,309.4,221.5,308.3z"/>
				</g>
				<circle class="st29" cx="172.4" cy="318.6" r="7.3"/>
				<path class="st12" d="M244.9,284.9c-1.2,1.9-3.7,2.5-5.6,1.4c-0.5-0.3-0.9-0.7-1.2-1.2c-15.2-21.6-39.5-35.7-67-35.7
					c-46,0-83.3,39.3-83.3,87.8s37.3,87.8,83.3,87.8c23.9,0,45.4-10.6,60.6-27.6c5.2,6,16.6,22.4,5.6,33.4
					c-23.7,23.8-129.9,15.5-156.2,5.4c-80.1-30.9-59.8-166,8.7-198.2c73.7-34.7,128.3-1.7,147.7,21.4
					C248.4,272.3,247.8,280.2,244.9,284.9z"/>
				<path class="st33" d="M235.3,429c-43,12.5-75.8,10-112.3,4.9c-3.5-0.4-5.9-3.5-5.6-6.9c0,0,0,0,0-0.1l1.9-12.1
					c0.6-3.3,3.7-5.6,7.1-5.1c34.2,4.8,81.4,0.7,101.8-11c3.1-1.8,6.1-1.6,8.1,2.4c1.2,2.4,2.1,4.2,2.7,5.8c1,2.7,3.9,9.7,2.9,18
					C241.5,427.6,238.9,428.5,235.3,429z"/>
				<path class="st10" d="M59,314.9h34.3c3.5,0,6.3,2.8,6.3,6.3v37.3c0,3.5-2.8,6.3-6.3,6.3H59c-3.5,0-6.3-2.8-6.3-6.3v-37.3
					C52.8,317.7,55.6,314.9,59,314.9z"/>
				<path class="st22" d="M66,322.8h18.3c1.8,0,3.3,1.5,3.3,3.3v26.3c0,1.8-1.5,3.3-3.3,3.3H66c-1.8,0-3.3-1.5-3.3-3.3v-26.3
					C62.7,324.3,64.2,322.8,66,322.8z"/>
				<path class="st11" d="M45.7,351.8c-6.1-2.9-6.6-10.4,0-16.4s16.9-7.1,21.7-3s3.6,10.8-1.7,15.6S51.8,354.6,45.7,351.8z"/>
				<path class="st11" d="M35.2,365.7c-6.6-2.2-8.6-9.5-3.3-15.9s15-8.5,20.6-5.1s5.9,10.1,1.7,15.4S41.9,367.9,35.2,365.7z"/>
				<path class="st11" d="M27.7,380.4c-6.9-1.5-10.4-8.4-6.5-15.2s13.1-9.9,19.3-7.1s7.9,9.3,4.7,14.8S34.7,381.8,27.7,380.4z"/>
				<path class="st11" d="M23,395.5c-7.1-0.7-11.8-7.1-9.3-14.2s11-11,17.7-8.9s9.6,8.2,7.6,14S30.2,396.2,23,395.5z"/>
				<path class="st11" d="M21.2,411c-7.2,0.1-13.1-5.8-11.8-13s8.8-12,15.8-10.7s11.1,7.1,10.1,12.9S28.5,410.9,21.2,411z"/>
				<path class="st11" d="M22.3,426.4c-7.1,0.8-14-4.4-14.1-11.6s6.5-12.7,13.7-12.1s12.3,5.8,12.4,11.7S29.4,425.6,22.3,426.4z"/>
				<path class="st11" d="M26.2,441.6c-6.9,1.6-14.7-2.8-16.2-10s4.1-13.3,11.4-13.5s13.3,4.4,14.5,10.2S33.1,440,26.2,441.6z"/>
				<path class="st11" d="M33,456.3c-6.6,2.3-15.2-1.3-18-8.3s1.6-13.6,8.8-14.6s14,3,16.3,8.6S39.5,454,33,456.3z"/>
				<path class="st11" d="M42.6,470.3c-6.1,3-15.3,0.3-19.5-6.4s-1-13.7,5.9-15.4s14.4,1.5,17.8,6.9S48.7,467.3,42.6,470.3z"/>
				<path class="st11" d="M55,483.2c-5.4,3.6-15.3,1.9-20.8-4.4s-3.7-13.6,2.8-16s14.6,0,19.1,5S60.5,479.6,55,483.2z"/>
				<path class="st11" d="M70.3,495c-4.7,4.2-14.9,3.5-21.8-2.2S42,479.5,48,476.4s14.6-1.6,20.1,3S75,490.8,70.3,495z"/>
			</g>
		</g>
	</g>
</g>
</svg>
