<svg xmlns="http://www.w3.org/2000/svg" xmlns:xlink="http://www.w3.org/1999/xlink" viewBox="0 0 1351.91 682.29"><defs><style>.cls-1,.cls-20,.cls-26,.cls-27,.cls-58{fill:none;}.cls-2{stroke:#cd163f;stroke-width:2.4px;opacity:0.85;}.cls-13,.cls-14,.cls-2,.cls-20,.cls-26,.cls-27,.cls-35,.cls-38{stroke-miterlimit:10;}.cls-3{font-size:150.51px;font-family:RAINFALL-Black, RAINFALL;}.cls-3,.cls-31{fill:#cd163f;}.cls-4{font-size:134.63px;letter-spacing:0.12em;}.cls-5{font-size:116px;}.cls-22,.cls-5,.cls-8{fill:#00ffd2;}.cls-6{letter-spacing:-0.05em;}.cls-7{font-size:101.83px;}.cls-8{font-size:92px;}.cls-9{letter-spacing:0.32em;}.cls-10{clip-path:url(#clip-path);}.cls-11{fill:#fcb977;}.cls-12{fill:#c9c9c9;}.cls-13{fill:#ffba76;stroke:#fcb977;stroke-width:1.67px;}.cls-14,.cls-36{fill:#fff;}.cls-14{stroke:#ffef81;stroke-width:5.55px;}.cls-15{fill:#686868;}.cls-16{fill:#8de4ff;}.cls-17{fill:#e5e5e5;}.cls-18{fill:#999;}.cls-19{fill:#afafaf;}.cls-20{stroke:#bcbcbc;stroke-width:6.78px;}.cls-20,.cls-26,.cls-27,.cls-58{stroke-linecap:round;}.cls-21{fill:#0ae5bb;}.cls-23{fill:#ee3623;}.cls-24{fill:#f2ee63;}.cls-25{fill:#a8e500;}.cls-26{stroke:#999;stroke-width:11.13px;}.cls-27{stroke:#657eea;stroke-width:10.46px;}.cls-28{fill:#e82e2e;}.cls-29{fill:#b7b7b7;}.cls-30{fill:#1e1e1e;}.cls-32{fill:#4d4d4d;}.cls-33{fill:#fcd0d0;}.cls-34{fill:#ff9f9f;}.cls-35,.cls-38{fill:#ffb361;stroke:#ffb361;}.cls-35{stroke-width:0.7px;}.cls-37{fill:#1e1a1a;}.cls-38{stroke-width:0.75px;}.cls-39{opacity:0.36;}.cls-40{fill:#ddd;}.cls-41{fill:#56abb1;}.cls-42{fill:#8ee9f0;}.cls-43{fill:#e1f1ff;}.cls-44{fill:#c5fcff;}.cls-45{fill:#84f7fc;}.cls-46{fill:#71d9e0;}.cls-47{fill:#72e4ec;}.cls-48{fill:#c7f4f7;}.cls-48,.cls-51,.cls-54,.cls-59,.cls-62{opacity:0.34;}.cls-49{fill:#17a020;}.cls-50{fill:#7bc150;}.cls-51{fill:#a2d9a6;}.cls-52{fill:#d74565;}.cls-53{fill:#e1738c;}.cls-54{fill:#eba2b2;}.cls-55{fill:#ff7900;}.cls-56{fill:#ffa95c;}.cls-57{fill:#ff9433;}.cls-58{stroke:#ff9433;stroke-linejoin:round;stroke-width:16.59px;}.cls-59{fill:#ffcb9d;}.cls-60{fill:#ffce00;}.cls-61,.cls-62{fill:#ffeb99;}</style><clipPath id="clip-path"><rect class="cls-1" x="33.95" y="18.02" width="1264.58" height="608" rx="77.57" ry="77.57"/></clipPath></defs><title>frontScreen</title><g id="Layer_2" data-name="Layer 2"><g id="Welcome_Screen" data-name="Welcome Screen"><rect class="cls-2" x="33.95" y="18.02" width="1264.58" height="608" rx="77.57" ry="77.57"/><text class="cls-3" transform="translate(339.8 196.46)">CHARLIE<tspan class="cls-4" x="644.92" y="0"> </tspan><tspan class="cls-5"><tspan x="0" y="105.8">Destr</tspan><tspan class="cls-6" x="346.14" y="105.8">o</tspan><tspan x="429.2" y="105.8">yer</tspan><tspan class="cls-7" x="650.64" y="105.8"> </tspan></tspan><tspan class="cls-8"><tspan class="cls-9" x="0" y="179.59" xml:space="preserve">		</tspan><tspan x="112.51" y="179.59">of Worlds</tspan></tspan></text><g class="cls-10"><path class="cls-11" d="M416,580.48a.93.93,0,0,0,0-1.85.93.93,0,0,0,0,1.85Z"/><path class="cls-12" d="M139.23,137.31a7.71,7.71,0,0,1-.25,2,8,8,0,0,1-3.21,4.59,8,8,0,1,1,3.46-6.56Z"/><path class="cls-13" d="M223.6,554.07s13.19,42.67,1.55,59.74-19.4,27.92-19.4,32.18l-.23.13-.23-.12c0-4.27-7.76-15.13-19.4-32.2s1.55-59.74,1.55-59.74Z"/><path class="cls-13" d="M328.1,512.86s28.94,34,25,54.29-6.82,33.3-5.14,37.22l-.16.21-.26,0c-1.68-3.92-13.09-10.85-30.52-21.95s-22.12-55.52-22.12-55.52Z"/><path class="cls-13" d="M83.51,512.86s-28.94,34-25,54.29,6.82,33.3,5.14,37.22l.16.21.26,0c1.68-3.92,13.09-10.85,30.52-21.95s22.12-55.52,22.12-55.52Z"/><path class="cls-13" d="M223.6,554.07s13.19,42.67,1.55,59.74-19.4,27.92-19.4,32.18l-.23.13-.23-.12c0-4.27-7.76-15.13-19.4-32.2s1.55-59.74,1.55-59.74Z"/><path class="cls-14" d="M323.56,514.34s21.58,25.36,18.62,40.48-5.09,24.83-3.83,27.75l-.12.16H338c-1.25-2.92-9.76-8.09-22.75-16.36S298.78,525,298.78,525Z"/><path class="cls-13" d="M83.51,512.86s-28.94,34-25,54.29,6.82,33.3,5.14,37.22l.16.21.26,0c1.68-3.92,13.09-10.85,30.52-21.95s22.12-55.52,22.12-55.52Z"/><path class="cls-14" d="M88.78,514.61s-19.74,23.2-17,37,4.65,22.71,3.51,25.38l.11.15h.18c1.15-2.67,8.93-7.4,20.81-15s15.08-37.86,15.08-37.86Z"/><path class="cls-14" d="M218.45,555.25s9.44,30.53,1.11,42.74-13.88,20-13.88,23l-.17.09-.17-.08c0-3.05-5.55-10.82-13.88-23s1.11-42.74,1.11-42.74Z"/><path class="cls-15" d="M127.91,299.92"/><path class="cls-16" d="M261.63,262.66a9.9,9.9,0,0,0-1.92-.27h.5a8.27,8.27,0,0,1,1.57.15l.54-.45a12.59,12.59,0,0,1,1.11,1h0l.43.43A10,10,0,0,0,261.63,262.66Z"/><path class="cls-16" d="M265.89,283.25c-.1.15-.19.31-.3.46a8.52,8.52,0,0,1-5.39,2h-.44A10.26,10.26,0,0,0,265.89,283.25Z"/><rect class="cls-17" x="101.64" y="239.95" width="35.42" height="46.89" rx="4.45" ry="4.45"/><path class="cls-18" d="M128.62,517.15c-5.06,12-21.49,16.61-35.67,7.63S75.4,498.59,84.17,488.9s23.64-10.76,34.13-4.19A26.55,26.55,0,0,1,128.62,517.15Z"/><path class="cls-18" d="M327.1,488.9c8.76,9.69,5.39,26.91-8.79,35.88s-30.61,4.41-35.67-7.63A26.55,26.55,0,0,1,293,484.71C303.46,478.14,318.32,479.15,327.1,488.9Z"/><path class="cls-18" d="M230.69,532c2.09,12.89-9.24,49.61-25.41,49.58S177.81,544.83,180,531.94a25.63,25.63,0,0,1,50.74.09Z"/><path class="cls-19" d="M363.1,462.08a202.2,202.2,0,0,1-313,0c-4-4.84-5-10.63-2.44-12.53L99,410.26c2.55-1.91,6.54-.84,9,2.17a127.25,127.25,0,0,0,197.11,0c2.48-3,6.47-4.08,9-2.17l51.39,39.29C368.08,451.44,367.09,457.24,363.1,462.08Z"/><path class="cls-20" d="M358.17,452.94c-8.8,21.72-83.89,92.59-185.91,73.56"/><path class="cls-21" d="M408.21,413.47c-52.45,59.25-127,88.88-201.64,88.88S57.39,472.72,4.94,413.47c-5.14-5.8-6.42-12.74-3.14-15,22.07-15.69,44.13-16.58,66.2-32.27,3.28-2.28,8.42-1,11.62,2.6,18.06,20.4,40.28,20.43,64.4,29.67A175.84,175.84,0,0,0,275.28,396c21.74-9.33,41.75-8.52,58.26-27.18,3.2-3.6,8.34-4.88,11.62-2.6,22.07,15.69,44.13,16.58,66.2,32.27C414.63,400.73,413.36,407.67,408.21,413.47Z"/><path class="cls-22" d="M108.05,484.41A260.68,260.68,0,0,1,4.94,413.47c-5.14-5.8-6.42-12.74-3.14-15,22.07-15.69,44.13-16.58,66.2-32.27,3.28-2.28,8.42-1,11.62,2.6,18.06,20.4,40.28,20.43,64.4,29.67Z"/><path class="cls-22" d="M275.28,396c21.74-9.33,41.75-8.52,58.26-27.18,3.2-3.6,8.34-4.88,11.62-2.6,22.07,15.69,44.13,16.58,66.2,32.27,3.28,2.28,2,9.21-3.14,15A260.5,260.5,0,0,1,307.73,483.4Z"/><path class="cls-23" d="M241.53,463a25.28,25.28,0,0,0-11.45,2.93c-1.07.56-1.71.11-1.47-1.1a62.48,62.48,0,0,0,.81-18.65c-.13-1.19.48-1.68,1.4-1.19a22,22,0,0,0,10,2.55,1.36,1.36,0,0,1,1.52,1.41,42.32,42.32,0,0,0,.81,12.7C243.3,462.4,242.6,463,241.53,463Z"/><path class="cls-24" d="M173.23,446a30.43,30.43,0,0,0,7.75-2c3.06-1.3,4.83-.09,4.27,3.39a75.64,75.64,0,0,0-.69,15.8c.24,3.42-1.45,4.76-4.09,3.64a26.44,26.44,0,0,0-6.74-1.72c-2.62-.3-4.48-1.93-4.37-4.23a51.23,51.23,0,0,0-.69-10.76C168.24,447.91,170.18,446.38,173.23,446Z"/><path class="cls-25" d="M217,466a38.46,38.46,0,0,0-17.42,4.46c-1.63.85-2.6.17-2.23-1.67a95,95,0,0,0,1.24-28.37c-.2-1.8.72-2.55,2.13-1.82a33.43,33.43,0,0,0,15.14,3.88,2.07,2.07,0,0,1,2.31,2.15,64.38,64.38,0,0,0,1.24,19.31C219.69,465.11,218.63,466,217,466Z"/><path class="cls-26" d="M190,374.91"/><path class="cls-26" d="M328.91,360.1"/><path class="cls-27" d="M399.68,407.2c-.38-.1-9,11.36-29.85,28.32C349.18,452,316.36,474,271.59,483.76"/><path class="cls-28" d="M264,258.79c.05.37.1.78.15,1.18l1-1,.14-.13A8.32,8.32,0,0,0,264,258.79Z"/><path class="cls-19" d="M360.69,359.72c4.95-1.05,7.36,6.5,8.92,10.46s-.8,8.79-5.3,10.63c-46,18.83-102.18,34.71-158.35,34.29S93.62,398,47.6,379.14c-4.5-1.84-6.87-6.68-5.3-10.63a18.66,18.66,0,0,1,5.76-7.26s68.22,11.93,155.73,12.48C252.9,374,308.07,370.91,360.69,359.72Z"/><path class="cls-26" d="M348.79,376.05s-63.51,33.54-163.38,28.81"/><rect class="cls-29" x="93.42" y="424.57" width="20.79" height="27.52" rx="2.61" ry="2.61" transform="translate(199.37 -1.87) rotate(25.57)"/><rect class="cls-29" x="99.68" y="255.58" width="11.81" height="14.84" rx="1.48" ry="1.48"/><path class="cls-30" d="M306,272.62a94.8,94.8,0,0,1-26.85,66.06A99.58,99.58,0,0,1,207.26,369c-54.53,0-98.74-43.15-98.74-96.38s44.21-96.38,98.74-96.38a99.28,99.28,0,0,1,82.7,43.7A94.28,94.28,0,0,1,306,272.62Z"/><path class="cls-30" d="M157.11,145.33a20.16,20.16,0,0,1-2.56,6.06,17.08,17.08,0,0,0-1.62-2.26,19.52,19.52,0,0,0-2-2.07c-.41-.37-.83-.73-1.29-1.08a14.79,14.79,0,0,0,.31-6.58,29.16,29.16,0,0,1,4.93,3.63,24.39,24.39,0,0,1,2,2Z"/><path class="cls-30" d="M148.22,138.43a35.59,35.59,0,0,1-1,5.86,27.19,27.19,0,0,0-2.54-1.37c-.8-.39-1.66-.75-2.57-1.11-.75-.28-1.54-.57-2.38-.83a8,8,0,0,0,1.86-5.28c1.48.47,2.86,1,4.13,1.54.72.31,1.42.63,2.07,1Z"/><path class="cls-30" d="M140.25,135.31l1.33.4a8,8,0,0,1-1.86,5.28l-1-.3a2.8,2.8,0,1,1,1.56-5.37Z"/><path class="cls-30" d="M150,139.4a14.79,14.79,0,0,1-.31,6.58,22.86,22.86,0,0,0-2.46-1.69,35.59,35.59,0,0,0,1-5.86Q149.13,138.9,150,139.4Z"/><path class="cls-30" d="M161.94,154.92c.06.33.11.65.15.94a13.67,13.67,0,0,1,.15,2.9c0,.07,0,.14,0,.2a2.81,2.81,0,0,1-2,2.2l-.22.06a3.14,3.14,0,0,1-.7.05,2.73,2.73,0,0,1-2.14-1.18,2.48,2.48,0,0,1-.42-1.52v-.06a12,12,0,0,0-.84-4.65,14.68,14.68,0,0,0-1.37-2.76,19.25,19.25,0,0,0,2.64-5.78,20.71,20.71,0,0,1,2,2.69A19.81,19.81,0,0,1,161.94,154.92Z"/><path class="cls-15" d="M313.08,314.34"/><rect class="cls-29" x="101.36" y="237.46" width="23.57" height="31.2" rx="2.96" ry="2.96"/><rect class="cls-29" x="90.84" y="244.2" width="13.39" height="16.83" rx="1.68" ry="1.68"/><path class="cls-31" d="M275.83,217c-19.53-26.6-66.51-22.39-91.14-8.83s-32.79,20.24-41.49,19.13c-4.9-.62.68,4.07,8.36,5.88s-1,2.2-5.42,1.58c-2.71-.38,3.35,4.09,11.48,3.77,8-.31-30.07,54.12,19.94,101.28,27.15,25.6,87.7,15.43,88.57-3.87.11-2.43,2-4.34,2-6.79,0-.45,0-.88,0-1.31,0-.19,0-.38,0-.56l4,0a18.67,18.67,0,0,0-1.06-5.42,10.8,10.8,0,0,0-.41-1,11.1,11.1,0,0,0-6.52-6h0a17.19,17.19,0,0,0-3.82-.93h0l-.52-.06h0c-13.64-1.54-34.56,7.69-41.72,2.94h0c-1.61-1.08-2.52-2.85-2.5-5.61a15.21,15.21,0,0,1,.77-4.38A33.36,33.36,0,0,1,218.7,301c.65-1.21,1.38-2.46,2.2-3.74.36-.58.75-1.17,1.15-1.76l.59-.88a171.8,171.8,0,0,1,15.06-18.36l1.29-1.38q1.52-1.64,3.08-3.25l.62-.64q1.24-1.29,2.5-2.57c3.65-3.71,7.37-7.33,11-10.74,1.88-1.78,3.73-3.51,5.52-5.17l.06-.06,3.05-2.8,2.4-2.17,1.82-1.64c4.51-4,8.25-7.25,10.63-9.27l.16-.14a9.38,9.38,0,0,0-1.78-.17h-.57c-4.36.27-8,3.6-9.61,8.24a4.45,4.45,0,0,0-1.8-.9,4.14,4.14,0,0,0-1.06-.13,4.49,4.49,0,0,0-2.83,1c1.91-6.07,7.22-10.44,13.47-10.44a12.91,12.91,0,0,1,2.09.17c1,.47.43,5.66,1.27,6.32,1.31-1.11,2-1.72,2-1.72s1.47-4.94,1.52-5.53C282.84,230.3,283.45,227.35,275.83,217Zm-45.56,55.89h0a16.87,16.87,0,0,1-4,.48,16.66,16.66,0,0,1-4.28-.55,18.57,18.57,0,0,1-7.9-12.61,6.23,6.23,0,0,0,4.55.53,6.22,6.22,0,0,0,2.3-1.16,15.59,15.59,0,0,0,10.08,13.1C230.79,272.72,230.53,272.79,230.27,272.86ZM222.1,251a6.28,6.28,0,0,0-5-2.55,6.59,6.59,0,0,0-.84.06,18.58,18.58,0,0,1,10.53-8.7,16.38,16.38,0,0,1,6.59,1.54l.44.22a.52.52,0,0,1,.14.07A14.7,14.7,0,0,0,222.1,251Z"/><path class="cls-32" d="M237.85,330s-3.09,12.33,15.7,10.06c22.79-2.75,13.13-13.54,13.13-13.54Z"/><path class="cls-31" d="M262.35,283.55s-3.05-2.22,4.26-6.19c11.64-6.33,22,32.86-.9,41.76-15.17,5.89-20.78-23.51-20.78-23.51Z"/><path class="cls-33" d="M256.91,300.61a3.09,3.09,0,0,1,3.83,3c0,4.54,2.47,12,15.58,12,16.29,0-40,23.72-59.19,6.27-4.61-4.18-3.54-16.3-3.5-22.48a3.09,3.09,0,0,1,3.81-3C226.5,298.55,245.19,303.48,256.91,300.61Z"/><path class="cls-34" d="M215.19,305.43c11.89,18,48.25-3.72,49.84,16.13.59,9.76-19.72,4.74-32.23,4.73C213.95,326.27,209,301,215.19,305.43Z"/><path class="cls-35" d="M214.75,292.75a.47.47,0,0,0-.92,0c-.48,5.37-5.16,18.55,1,29.59,7.73,14,56.88,19.06,63.95-5.51a.47.47,0,0,0-.7-.53c-5.16,3.26-26.3,16.2-49.05,7.27-10.27-4-11.51-6.33-13.55-12.47C214.56,308.57,215.84,298.11,214.75,292.75Z"/><path class="cls-32" d="M287.89,242.76c-1-4.28-2.23-7.12-6-10.1a19.09,19.09,0,0,0-25.51,1.76c-6.55,6.55-11.78,3.37-11.78,3.37s-47.37-26.06-69.81,16c-18.07,33.86,2.8.86,9.45,2.8,8.07,2.34-9.45,14.68-10.8,25.87s3.38-1.4,10.13-5.59-8.78,21-6.08,39.15,13.84-41.94,33.08-25.17l.23.2a4.79,4.79,0,0,0,1.14,1.48l.14.13a8.3,8.3,0,0,0,.94.73,14.52,14.52,0,0,0,6.95,2.12c5,.43,12.59-.5,24.06-4.74h0A191.44,191.44,0,0,0,267,280.25l2.1-1.13c3-1.64,5.94,1.08,8.44-1.09C284.31,272.14,292.84,263.1,287.89,242.76Zm-8.77-6.87-.6.51a9.18,9.18,0,0,0-1.76-.17h-.56c-4.31.27-7.95,3.6-9.5,8.24a4.39,4.39,0,0,0-1.78-.9,4,4,0,0,0-1.05-.13,4.41,4.41,0,0,0-2.8,1C263,238.39,268.22,234,274.4,234a12.62,12.62,0,0,1,2.07.17A15.19,15.19,0,0,1,279.12,235.89ZM209,255.23a16.74,16.74,0,0,1,15.37-15.41,16.73,16.73,0,0,1,8.14,1.52l.44.22a.52.52,0,0,1,.14.07,16,16,0,0,1,3.95,2.84,16.9,16.9,0,0,1,2.35,21.34,16.66,16.66,0,0,1-9.14,6.84c-.26.08-.51.15-.77.22h0a16.5,16.5,0,0,1-3.93.48,16.3,16.3,0,0,1-4.23-.55A16.78,16.78,0,0,1,209,255.23Zm71.24,8.22a13,13,0,0,1-5.88,1.41c-6.82,0-12.53-5.33-13.81-12.4l.06-.06a4.47,4.47,0,0,0,3.23,1.41,3.36,3.36,0,0,0,.46,0,4.35,4.35,0,0,0,2-.73c1.24,5.33,5.16,9.3,9.88,9.59h.56a9.49,9.49,0,0,0,6-2.24A16.36,16.36,0,0,1,280.28,263.45Z"/><path class="cls-36" d="M240.24,274.32a21.22,21.22,0,1,1-5-35.23,18.47,18.47,0,0,0-2.73-.2,18.25,18.25,0,0,0-5.73.91,18.56,18.56,0,0,0-12.84,17.66,18.38,18.38,0,0,0,.2,2.72A18.56,18.56,0,0,0,239,274.84C239.42,274.68,239.83,274.51,240.24,274.32Z"/><path class="cls-16" d="M231.05,272.64c-.26.08-.52.15-.78.22h0a16.87,16.87,0,0,1-4,.48,16.66,16.66,0,0,1-4.28-.55,18.57,18.57,0,0,1-7.9-12.61,6.23,6.23,0,0,0,4.55.53,6.22,6.22,0,0,0,2.3-1.16A15.59,15.59,0,0,0,231.05,272.64Z"/><path class="cls-16" d="M233.92,241.62A14.7,14.7,0,0,0,222.1,251a6.28,6.28,0,0,0-5-2.55,6.59,6.59,0,0,0-.84.06,18.58,18.58,0,0,1,10.53-8.7,16.38,16.38,0,0,1,6.59,1.54l.44.22A.52.52,0,0,1,233.92,241.62Z"/><path class="cls-16" d="M241,243a15.62,15.62,0,0,0-6.2-1.49h-1l-.44-.22a16.38,16.38,0,0,0-6.59-1.54,18.25,18.25,0,0,1,5.73-.91,18.47,18.47,0,0,1,2.73.2,20.8,20.8,0,0,1,5.24,3.45Z"/><path class="cls-16" d="M244,270l-.36.52a20.2,20.2,0,0,1-3.4,3.76c-.41.19-.82.36-1.24.52a18.53,18.53,0,0,1-17-2.06,16.66,16.66,0,0,0,4.28.55,16.87,16.87,0,0,0,4-.48h0a15.9,15.9,0,0,0,4,.5h.69a15.82,15.82,0,0,0,7.76-2.4C243.14,270.66,243.58,270.35,244,270Z"/><path class="cls-37" d="M235.06,273h0l-.24,0h0a13,13,0,0,1-3.64-.68,15.27,15.27,0,0,1-9.86-12.82,15.64,15.64,0,0,1-.13-2.05,16.61,16.61,0,0,1,1.23-6.34A14.36,14.36,0,0,1,234,242c.28,0,.56-.05.85-.07h.58a12.87,12.87,0,0,1,4.93,1,10.18,10.18,0,0,1,1,.47,21.64,21.64,0,0,1,5.83,15,22.5,22.5,0,0,1-2.28,9.9c-.27.54-.56,1.07-.86,1.58l-.61.48a14,14,0,0,1-1.52,1,13.28,13.28,0,0,1-6.52,1.73h-.33Z"/><path class="cls-37" d="M235.38,242.21a12.54,12.54,0,0,1,4.82,1,9.89,9.89,0,0,1,.94.42,21.32,21.32,0,0,1,5.7,14.75,22.16,22.16,0,0,1-2.24,9.75c-.25.51-.53,1-.82,1.51l-.55.43a13.63,13.63,0,0,1-1.48,1,12.94,12.94,0,0,1-6.36,1.69H235l-.31,0,0,0a12.58,12.58,0,0,1-3.4-.66,14.94,14.94,0,0,1-9.63-12.56,15.29,15.29,0,0,1-.13-2,16.3,16.3,0,0,1,1.21-6.22A14,14,0,0,1,234,242.29c.27,0,.54-.05.81-.07h.57m0-.67h-.59c-.29,0-.58,0-.87.07A14.7,14.7,0,0,0,222.1,251a17,17,0,0,0-1.26,6.47,15.91,15.91,0,0,0,.13,2.09,15.59,15.59,0,0,0,10.08,13.1,13.17,13.17,0,0,0,3.86.71h.48a13.53,13.53,0,0,0,6.69-1.78,14.29,14.29,0,0,0,1.56-1c.22-.17.45-.34.66-.52q.48-.81.9-1.66a22.68,22.68,0,0,0,2.31-10,22.09,22.09,0,0,0-6-15.29,10.48,10.48,0,0,0-1.1-.5,13.23,13.23,0,0,0-5.06-1Z"/><path class="cls-16" d="M280.44,235.89l-.61.51a9.38,9.38,0,0,0-1.78-.17h-.57c-4.36.27-8,3.6-9.61,8.24a4.45,4.45,0,0,0-1.8-.9,4.14,4.14,0,0,0-1.06-.13,4.49,4.49,0,0,0-2.83,1c1.91-6.07,7.22-10.44,13.47-10.44a12.91,12.91,0,0,1,2.09.17A15.38,15.38,0,0,1,280.44,235.89Z"/><path class="cls-36" d="M281.61,263.45a15.49,15.49,0,0,1-10.7,4.35,16.24,16.24,0,0,1-14.74-10.17,18.64,18.64,0,0,1-1.53-7.45c0-9.73,7.29-17.62,16.27-17.62a15,15,0,0,1,6.84,1.64,12.91,12.91,0,0,0-2.09-.17c-6.25,0-11.56,4.37-13.47,10.44a16.59,16.59,0,0,0-.52,7.87l0,.13c1.3,7.07,7.07,12.4,14,12.4A13.29,13.29,0,0,0,281.61,263.45Z"/><path class="cls-16" d="M279.67,236.54a11.23,11.23,0,0,0-2.18-.3h.57a9.38,9.38,0,0,1,1.78.17l.61-.51A14.27,14.27,0,0,1,281.7,237h0l.49.49A11.38,11.38,0,0,0,279.67,236.54Z"/><path class="cls-16" d="M284.17,260.42a16.4,16.4,0,0,1-2.55,3,13.29,13.29,0,0,1-5.95,1.41c-6.9,0-12.67-5.33-14-12.4l.06-.06a4.54,4.54,0,0,0,3.26,1.41,3.44,3.44,0,0,0,.47,0,4.43,4.43,0,0,0,2-.73c1.26,5.33,5.22,9.3,10,9.59h.57A9.66,9.66,0,0,0,284.17,260.42Z"/><path class="cls-16" d="M264.82,249.45v.17a14.1,14.1,0,0,0,.68,4.17,3.44,3.44,0,0,1-.47,0,4.54,4.54,0,0,1-3.26-1.41l-.06.06,0-.13a16.59,16.59,0,0,1,.52-7.87,4.49,4.49,0,0,1,2.83-1,4.14,4.14,0,0,1,1.06.13A14,14,0,0,0,264.82,249.45Z"/><path class="cls-16" d="M284.5,259.9c-.11.17-.22.36-.34.52a9.66,9.66,0,0,1-6.11,2.24h-.5A11.63,11.63,0,0,0,284.5,259.9Z"/><path class="cls-37" d="M277.56,262.33H277c-4.54-.28-8.44-4-9.69-9.34a15.7,15.7,0,0,1-.4-3.54,15.14,15.14,0,0,1,.12-2,14.6,14.6,0,0,1,.66-2.9c1.56-4.61,5.21-7.76,9.31-8h.55a9.12,9.12,0,0,1,1.71.17,9.27,9.27,0,0,1,1.74.53l.07,0a8.31,8.31,0,0,1,.91.44,19,19,0,0,1,4.38,12.45,20,20,0,0,1-2.36,9.51c-.18.16-.36.32-.55.47A9.32,9.32,0,0,1,277.56,262.33Z"/><path class="cls-37" d="M277.56,236.89a8.74,8.74,0,0,1,1.65.16,8.93,8.93,0,0,1,1.62.48h0l.13.05a7.75,7.75,0,0,1,.82.4A18.68,18.68,0,0,1,286,250.18a19.62,19.62,0,0,1-2.29,9.3l-.5.42a9,9,0,0,1-5.69,2.1H277c-4.4-.27-8.17-3.92-9.38-9.08a15.37,15.37,0,0,1-.4-3.46,15,15,0,0,1,.12-1.92,14.37,14.37,0,0,1,.64-2.83c1.51-4.49,5.05-7.54,9-7.79h.54m0-.66H277c-4.36.27-8,3.6-9.61,8.24a15,15,0,0,0-.67,3,15.66,15.66,0,0,0-.13,2,16,16,0,0,0,.41,3.61c1.26,5.33,5.22,9.3,10,9.59h.57a9.66,9.66,0,0,0,6.11-2.24q.31-.25.61-.52a20.24,20.24,0,0,0,2.43-9.72,19.41,19.41,0,0,0-4.5-12.71,8.71,8.71,0,0,0-1-.49h0a9.62,9.62,0,0,0-1.87-.57,9.38,9.38,0,0,0-1.78-.17Z"/><path class="cls-36" d="M269.81,248.63a5.25,5.25,0,0,1-2.31,4.43,4.43,4.43,0,0,1-2,.73,3.44,3.44,0,0,1-.47,0,4.54,4.54,0,0,1-3.26-1.41.42.42,0,0,1-.08-.08,5.39,5.39,0,0,1-1.44-3.71,5.28,5.28,0,0,1,2-4.17,4.49,4.49,0,0,1,2.83-1,4.14,4.14,0,0,1,1.06.13,4.45,4.45,0,0,1,1.8.9,4.68,4.68,0,0,1,1.15,1.33A5.46,5.46,0,0,1,269.81,248.63Z"/><path class="cls-38" d="M213.79,293.55c-.23-.71.67-1.28,1.37-.87,4.53,2.65,18.2,7.55,40.69-9.82,25.67-19.82,41.77,2.33,45.15,7.73a.79.79,0,0,1-.73,1.18c-5.12.25-20.19,3.56-27.44,8.84C262.22,308.34,220.89,315.85,213.79,293.55Z"/><path class="cls-31" d="M259.24,347.94s9.1,4,9.1,16.07-89.35,14.83-93.13,3.5,11.71-7.17,12.08-26.81S259.24,347.94,259.24,347.94Z"/><g class="cls-39"><path class="cls-36" d="M242.14,350.31c2.92-3.26,2.8-15.61,4.73-18.87,1.81-3,4.5-5.43,7-6.16,8.64-1.44,25.18-11.19,37.55-25.8,3.23-4.37,6.74-3.71,4.84,3.84-.87,3.29-3.18,7.18-4.51,10.69-2.92,8.06-13,20.75-16.34,24.41-7.83,8.5-29.55,23.51-36.34,19.92C237.59,357,239.45,353.32,242.14,350.31Z"/></g><g class="cls-39"><path class="cls-36" d="M269,243.43A40.31,40.31,0,0,0,255.57,242a10.19,10.19,0,0,1-9.47-4.74c-5.43-12.21-18.17-24.2-38.72-28.87-5.94-.64-5.83-5.44,2.74-10.16,3.76-2,6-7.56,10.18-9,9.56-3.61,24.09,1.37,29.33,3.91,20.28,9.84,36.09,30.31,38.48,44.33C288.74,241.1,273.31,244.61,269,243.43Z"/></g><g class="cls-39"><path class="cls-36" d="M269,243.43A40.31,40.31,0,0,0,255.57,242a10.19,10.19,0,0,1-9.47-4.74c-5.43-12.21-18.17-24.2-38.72-28.87-5.94-.64-5.83-5.44,2.74-10.16,3.76-2,6-7.56,10.18-9,9.56-3.61,24.09,1.37,29.33,3.91,20.28,9.84,36.09,30.31,38.48,44.33C288.74,241.1,273.31,244.61,269,243.43Z"/></g><circle class="cls-36" cx="216.62" cy="254.44" r="7.76"/><path class="cls-19" d="M294,218.48a4.37,4.37,0,0,1-7.32.21c-16.18-23.1-42.19-38.08-71.52-38.08-49.06,0-88.83,41.92-88.83,93.64s39.77,93.64,88.83,93.64c25.5,0,48.48-11.32,64.68-29.46,5.55,6.4,17.68,23.94,6,35.65-25.29,25.39-138.64,16.58-166.63,5.78-85.41-32.93-63.78-177.09,9.3-211.48,78.59-37,136.84-1.85,157.6,22.87C297.68,205,297,213.51,294,218.48Z"/><path class="cls-40" d="M283.65,372.24c-45.9,13.35-80.88,10.7-119.84,5.19a6.71,6.71,0,0,1-5.92-7.5l2-12.9a6.69,6.69,0,0,1,7.53-5.49c36.54,5.16,86.9.72,108.64-11.79,3.33-1.92,6.55-1.71,8.67,2.52,1.26,2.51,2.2,4.51,2.85,6.19,1.11,2.9,4.12,10.35,3.06,19.16C290.31,370.72,287.49,371.7,283.65,372.24Z"/><rect class="cls-17" x="88.93" y="250.46" width="50.01" height="53.17" rx="6.28" ry="6.28"/><rect class="cls-29" x="99.52" y="258.94" width="26.61" height="35.22" rx="3.34" ry="3.34"/><path class="cls-18" d="M81.4,289.79c-6.49-3.07-7.08-11.1,0-17.44s18-7.54,23.14-3.25,3.86,11.56-1.82,16.69S87.92,292.88,81.4,289.79Z"/><path class="cls-18" d="M70.27,304.65c-7-2.33-9.21-10.1-3.58-17s16-9.12,22-5.46,6.27,10.82,1.76,16.38S77.32,307,70.27,304.65Z"/><path class="cls-18" d="M62.21,320.31c-7.39-1.55-11.06-8.93-6.88-16.22s14-10.52,20.55-7.57,8.41,9.89,5.06,15.78S69.64,321.87,62.21,320.31Z"/><path class="cls-18" d="M57.22,336.5c-7.62-.74-12.64-7.62-9.89-15.18s11.76-11.73,18.85-9.53,10.26,8.79,8.08,14.9S64.87,337.25,57.22,336.5Z"/><path class="cls-18" d="M55.29,353c-7.69.07-13.94-6.18-12.63-13.91s9.43-12.75,16.88-11.33,11.84,7.54,10.82,13.78S63,352.9,55.29,353Z"/><path class="cls-18" d="M56.41,369.43c-7.62.89-15-4.64-15.1-12.41s7-13.56,14.63-12.95,13.15,6.17,13.29,12.44S64.06,368.55,56.41,369.43Z"/><path class="cls-18" d="M60.58,385.64c-7.39,1.69-15.71-3-17.28-10.71s4.43-14.15,12.12-14.36,14.17,4.7,15.47,10.9S68,384,60.58,385.64Z"/><path class="cls-18" d="M67.81,401.33c-7,2.46-16.18-1.37-19.18-8.84S50.37,378,58,377s14.93,3.16,17.38,9.18S74.84,398.87,67.81,401.33Z"/><path class="cls-18" d="M78.07,416.23c-6.48,3.19-16.38.32-20.81-6.81S56.2,394.77,63.54,393s15.4,1.57,19,7.31S84.58,413,78.07,416.23Z"/><path class="cls-18" d="M91.37,430.07c-5.8,3.87-16.3,2-22.16-4.66s-4-14.51,3-17.1,15.6-.05,20.37,5.32S97.19,426.19,91.37,430.07Z"/><path class="cls-18" d="M107.7,442.59c-5,4.47-15.95,3.68-23.24-2.4s-7-14.13-.63-17.43,15.53-1.68,21.44,3.22S112.69,438.11,107.7,442.59Z"/><path class="cls-41" d="M1319.55,132.51a53,53,0,0,1-74.34,18.29,130.56,130.56,0,0,0,30.23-1.79C1293,146,1308.4,139.95,1319.55,132.51Z"/><path class="cls-42" d="M1326.61,106.07a52.57,52.57,0,0,1-.65,8.25c-12,8.94-29.75,16.27-50.12,19.79-17.38,3-33.86,2.75-47.22-.1a52.63,52.63,0,0,1-7.59-21.7,164.7,164.7,0,0,0,27.82,2.31c32.35,0,60.63-9,75.93-22.37A52.71,52.71,0,0,1,1326.61,106.07Z"/><path class="cls-43" d="M1292.62,56.6a46.87,46.87,0,0,1-6.12,3.79c-9.54,5-22.13,8.08-35.94,8.08-3,0-6-.15-8.92-.44-1.47-.14-2.92-.31-4.34-.51a53,53,0,0,1,55.32-10.92Z"/><path class="cls-44" d="M1302.05,61.35a43.37,43.37,0,0,1-15.12,10.75c-9.11,4.17-20.54,6.63-32.95,6.63-2.7,0-5.37-.12-8-.34a83.61,83.61,0,0,1-15.67-2.85A50.26,50.26,0,0,1,1234,70.9q1.56-1.77,3.28-3.38c1.42.21,2.87.38,4.34.51,2.91.29,5.88.44,8.92.44,13.81,0,26.4-3.06,35.94-8.08a46.87,46.87,0,0,0,6.12-3.79,51.93,51.93,0,0,1,9.14,4.58Z"/><path class="cls-45" d="M1310.68,68.22a18.6,18.6,0,0,1-2.8,5.81,29.48,29.48,0,0,1-6.82,6.66h0c-9.78,7.09-25.69,11.71-43.65,11.71A95.87,95.87,0,0,1,1235.54,90h0a72.14,72.14,0,0,1-10-3.06c-.38-.12-.72-.27-1.08-.43a52.89,52.89,0,0,1,5.95-10.94A83.61,83.61,0,0,0,1246,78.39c2.6.22,5.26.34,8,.34,12.41,0,23.84-2.46,32.95-6.63a43.37,43.37,0,0,0,15.12-10.75A53.08,53.08,0,0,1,1310.68,68.22Z"/><path class="cls-46" d="M1326,114.33a51.57,51.57,0,0,1-2.55,9.9c-11.57,8.48-28.44,15.42-47.82,18.76a127.34,127.34,0,0,1-38.93,1,52.28,52.28,0,0,1-8-10c13.36,2.85,29.84,3.11,47.22.1C1296.21,130.6,1313.92,123.27,1326,114.33Z"/><path class="cls-47" d="M1323.42,124.22a51.52,51.52,0,0,1-3.86,8.29C1308.4,139.95,1293,146,1275.45,149a130.56,130.56,0,0,1-30.23,1.79h0a53.54,53.54,0,0,1-8.51-6.78,127.34,127.34,0,0,0,38.93-1C1295,139.64,1311.85,132.7,1323.42,124.22Z"/><path class="cls-47" d="M1324.78,92.25c-15.3,13.38-43.58,22.37-75.93,22.37a164.7,164.7,0,0,1-27.82-2.31,50.14,50.14,0,0,1-.38-6.24,53,53,0,0,1,3.25-18.3c.15-.43.33-.87.5-1.3.36.15.7.31,1.08.43a72.14,72.14,0,0,0,10,3.06h0a95.87,95.87,0,0,0,21.86,2.44c18,0,33.87-4.61,43.65-11.71h0a29.48,29.48,0,0,0,6.82-6.66,18.6,18.6,0,0,0,2.8-5.81,53.1,53.1,0,0,1,7,8.39v0a52.31,52.31,0,0,1,7.11,15.62Z"/><path class="cls-48" d="M1304.88,86.42a74.65,74.65,0,0,1-11,39.49,62.63,62.63,0,0,1-16.63,18,52.24,52.24,0,0,1-26.22,9.84c-.39-.19-.79-.38-1.18-.58h0a46.88,46.88,0,0,1-4.14-2.36h0a53.54,53.54,0,0,1-8.51-6.78,51.56,51.56,0,0,1-7.14-8.61,1.61,1.61,0,0,1-.2-.31c-.24-.36-.48-.72-.7-1.08a52.28,52.28,0,0,1-6.56-15.84,55.19,55.19,0,0,1-1-5.86,50.14,50.14,0,0,1-.38-6.24,53.75,53.75,0,0,1,.73-8.84c0-.05,0-.09,0-.14a53.23,53.23,0,0,1,2.5-9.33c.15-.43.33-.87.5-1.3.29-.73.6-1.47.94-2.19s.73-1.57,1.13-2.34a52.89,52.89,0,0,1,3.88-6.41,50.26,50.26,0,0,1,3.67-4.63q1.56-1.77,3.28-3.38l.46-.43A53,53,0,0,1,1293.1,56.6a50.07,50.07,0,0,1,7.16,3.42,73.11,73.11,0,0,1,2.73,9.31A76.13,76.13,0,0,1,1304.76,82C1304.84,83.45,1304.88,84.93,1304.88,86.42Z"/><path class="cls-49" d="M1192,61.79a61.32,61.32,0,0,1-.76,9.63c-.1.66-.22,1.32-.36,2a57.11,57.11,0,0,1-2.61,9.59,58,58,0,0,1-4,8.83c-.14.28-.3.56-.46.84-.62,1.06-1.26,2.09-1.93,3.09v0a61.75,61.75,0,0,1-51.63,27.85,60.88,60.88,0,0,1-26.91-6.2c-.46-.22-.92-.44-1.38-.68h0A54.68,54.68,0,0,1,1097,114h0a62.45,62.45,0,0,1-9.93-7.91,60.14,60.14,0,0,1-8.33-10,1.88,1.88,0,0,1-.24-.36c-.28-.42-.56-.84-.82-1.26A61,61,0,0,1,1070,75.9a64.37,64.37,0,0,1-1.2-6.84,58.48,58.48,0,0,1-.44-7.28,62.7,62.7,0,0,1,.86-10.31c0-.06,0-.1,0-.16a62.08,62.08,0,0,1,2.91-10.88c.18-.5.38-1,.58-1.51.34-.86.7-1.71,1.1-2.55s.86-1.83,1.32-2.73a61.69,61.69,0,0,1,4.52-7.47,58.62,58.62,0,0,1,4.29-5.4q1.82-2.06,3.83-3.95l.54-.5a61.86,61.86,0,0,1,64-12.24,58.4,58.4,0,0,1,8.35,4,4,4,0,0,1,.5.28c.62.34,1.22.7,1.81,1.08.12.06.22.14.34.2a59.19,59.19,0,0,1,7.1,5.3c1,.86,2,1.77,3,2.71.8.78,1.57,1.57,2.31,2.39,1.36,1.48,2.65,3,3.85,4.6.7.92,1.36,1.83,2,2.79v0A61.6,61.6,0,0,1,1192,61.79Z"/><path class="cls-50" d="M1068.49,65.43c0-.68-.06-1.36-.08-2.05a1,1,0,0,1,.92,1A1,1,0,0,1,1068.49,65.43Z"/><path class="cls-50" d="M1070.26,73.47a1,1,0,0,1-.54,1c-.16-.64-.28-1.32-.38-2A.94.94,0,0,1,1070.26,73.47Z"/><path class="cls-50" d="M1071.6,61.27c-.22.74-.6,1.24-1.32,1.18s-.74-.52-.68-1a1,1,0,0,1,1.12-.92A.83.83,0,0,1,1071.6,61.27Z"/><path class="cls-50" d="M1068.49,58.6q.09-2.21.36-4.37c0-.38.1-.74.16-1.1a5.12,5.12,0,0,1,.12-.8c0-.3.08-.58.12-.86,0-.06,0-.1,0-.16a.07.07,0,0,1,0-.06c.06-.42.14-.84.22-1.24h0a3.4,3.4,0,0,1,3,.92c.74.88-.06,1.57-1.1,1.75l-.48,1a2.16,2.16,0,0,0,.2,1.81,2.61,2.61,0,0,1-.48,2.87C1070,59.1,1069.23,58.9,1068.49,58.6Z"/><path class="cls-50" d="M1070.86,79.09c-.26-.86-.48-1.71-.68-2.57a2.91,2.91,0,0,1,1.44-.46c.72-.08,1.06.56,1.1,1.36A2.05,2.05,0,0,1,1070.86,79.09Z"/><path class="cls-50" d="M1073.13,72.19a1,1,0,1,1-.94-1.16A1,1,0,0,1,1073.13,72.19Z"/><path class="cls-50" d="M1073.29,82.84c.26.78,1.71,1.69-.2,2.23a.44.44,0,0,1-.16,0c-.24-.58-.46-1.18-.7-1.77A1.74,1.74,0,0,1,1073.29,82.84Z"/><path class="cls-50" d="M1073.29,81.4c-1-.18-1.61-.64-1.14-1.73a.9.9,0,0,1,1.38-.42C1074.63,80,1073.55,80.7,1073.29,81.4Z"/><path class="cls-50" d="M1073.29,82.84V81.4c.72-.06,1.51-.68,2.11.18a1.27,1.27,0,0,1,0,1.08C1074.81,83.51,1074,82.88,1073.29,82.84Z"/><path class="cls-50" d="M1074.61,75.8a1,1,0,0,1,.92,1.16,1,1,0,0,1-1.12.94,1,1,0,0,1-1-1.14C1073.51,76.1,1073.93,75.8,1074.61,75.8Z"/><path class="cls-50" d="M1075.65,33.74a3.08,3.08,0,0,1-.46-.14c.28-.56.58-1.1.88-1.63a1,1,0,0,1,.46.86C1076.46,33.42,1076.2,33.82,1075.65,33.74Z"/><path class="cls-50" d="M1076.34,88.64c.52.72.7,1.48-.08,2.09a1.48,1.48,0,0,1-.52.28c-.6-1.08-1.16-2.17-1.65-3.29.38-.1.74-.44,1.12-.58Z"/><path class="cls-50" d="M1075.87,74.08a1,1,0,0,1-1-1,.79.79,0,0,1,.82-.94,1.23,1.23,0,0,1,1.14,1.22C1076.84,73.93,1076.36,74.1,1075.87,74.08Z"/><path class="cls-50" d="M1069,68.46a1,1,0,0,1-.22.08s0-.1,0-.14,0-.16,0-.24l-.12-1.14c2,.62,3.27-1.3,5.08-1.49-.22-.68-.92-.84-1.38-1.22s-.94-.9-.48-1.59a1.22,1.22,0,0,1,1.63-.6,3.93,3.93,0,0,0,2.09.24c.7-.06,1.42.2,1.38,1a37.67,37.67,0,0,1-.6,5.4.93.93,0,0,1-1.57.38c-1.22-1.2-2.31-1.46-3.75-.32C1070.46,69.22,1069.65,68.74,1069,68.46Z"/><path class="cls-50" d="M1077.44,85.81c.06.92-.54,1.22-1.32,1.3-.3,0-.62,0-.92,0,0-.3,0-.6,0-.9.08-.78.38-1.38,1.3-1.32A.92.92,0,0,1,1077.44,85.81Z"/><path class="cls-50" d="M1076.64,37.87c.54.56,1.79.82.94,2a.85.85,0,0,1-1.28.1C1075.41,39.12,1075.71,38.42,1076.64,37.87Z"/><path class="cls-50" d="M1074.27,56c-.66-.34-1.06-.8-.78-1.49.4-1,1.44-1.22,2.31-1.49a1.22,1.22,0,0,1,1.48.9,8.2,8.2,0,0,1,.32,1.73c-.92,1.42,1.44,1.73.76,3s-2.21,0-3,1-1.34,1.71-2.23.58c-.76-.94.3-1.42.92-2S1075.85,56.8,1074.27,56Z"/><path class="cls-50" d="M1077.82,29c.32-.5.64-1,1-1.48a1,1,0,1,1,0,2.07A1,1,0,0,1,1077.82,29Z"/><path class="cls-50" d="M1079.79,79c-.14,1,.82,2.75-1.18,2.67-1.24,0-2.69-1.22-2.37-2.45s1.22-2.83,2.59-2.85C1080.55,76.34,1079.67,78,1079.79,79Z"/><path class="cls-50" d="M1081.69,94.14c-.06,1.36-1.34,1-2.23,1.14-.4-.06-.88,0-1.28-.12-.18-.26-.34-.52-.5-.78s-.22-.34-.32-.52c.16-1.18,1.36-.94,2.21-1S1081.75,92.74,1081.69,94.14Z"/><path class="cls-50" d="M1081.61,51.44c-1.87,1.06-1.44,2-.38,3.31.38.5-.3,1.12-1.26,1.16-1.14-.8-1.49-2.31-2.31-3.47-.28-.38,2.47-2.57,3.11-2.47C1081.69,50.13,1082.16,51.12,1081.61,51.44Z"/><path class="cls-50" d="M1083.18,87.38a1,1,0,1,1-2.07,0,1,1,0,0,1,2.07,0Z"/><path class="cls-50" d="M1070.82,44.64c.2-.74.42-1.48.68-2.19a25.88,25.88,0,0,0,6.2,2.91c.46-.5.34-1.08.38-1.61.06-1,.14-2.11,1.52-1.87a1.91,1.91,0,0,1,1.69,2.23c-.1.86-.66,1.65.7,2.05a1,1,0,0,1,.46,1.71c-.58.68-1.32.5-1.79-.2s-1.14-1.53-1.87-.86-2.07,1.44-1.67,2.85c.2.74.44,1.38-.22,1.93-.84.72-1.48,0-2.15-.34-.76.18-1.24-.16-1.22-.9,0-1.1,1-.92,1.67-1.06.44-1.91,0-2.85-2.27-3.17C1072.1,46,1071.5,45.32,1070.82,44.64Z"/><path class="cls-50" d="M1079.23,26.84c.14-.22.3-.46.46-.68.28-.4.58-.82.88-1.22,0,.64.44,1.22,1.57,1.67a1,1,0,0,1,.34,1.61c-.48.6-1.1.48-1.67,0A9.4,9.4,0,0,1,1079.23,26.84Z"/><path class="cls-50" d="M1082.38,72.79c-.56-1.1-1.14-1.93-2.47-.78a2.24,2.24,0,0,1-2.05.16c-.74-.18-1.42-.54-1.36-1.4s.88-.94,1.46-.82c1.63.38,2.81-.82,4.23-1.08.92-.16,1.91-.76,2.67.14s0,1.61-.34,2.39a7.76,7.76,0,0,0-.24.92c.58.48,1.71,1,.42,1.67-1,.5-2.21,1.93-3.37.56C1080.55,73.65,1081.35,73,1082.38,72.79Z"/><path class="cls-50" d="M1074.09,35.89c.24-.54.48-1.08.76-1.59,1.91,1.1,4.45,1,6,2.87.26.3,2.45,1.4,2-1.3-.24-1.28.34-2.71-.5-4-.38-.62.08-1.26.7-1.55a1.19,1.19,0,0,1,1.63.54,6.17,6.17,0,0,1,.94,4.72,14.85,14.85,0,0,0-.36,2.81c-1.14,1.1-2,1.63-2.79,1.63a4.3,4.3,0,0,1-2.69-1.48c-1-.88-2.07-.52-3.13-.64C1076.32,36.49,1075.23,36.13,1074.09,35.89Z"/><path class="cls-50" d="M1085.49,95.29c-1.06,0-1.16-.92-1.16-1.75s.12-1.53,1-1.61c1.1-.1,1.22.78,1.3,1.59S1086.55,95.29,1085.49,95.29Z"/><path class="cls-50" d="M1087.41,81c-.1.78-.16,1.57-.24,2.35-1.65.16-2.65-.42-2.31-2.43-1,.56-1.85,1.55-2.61.38s.16-2.05.92-2.69c1.26-1.08,2.57,0,3.81.3C1087.89,79.07,1087.51,80.18,1087.41,81Z"/><path class="cls-50" d="M1085.07,39.5l.18-1.16c1.49-.62,2.55-.48,2.21,1.51-.14.84-.46,1.81-1.59,1.65C1084.58,41.34,1084.94,40.34,1085.07,39.5Z"/><path class="cls-50" d="M1087.49,55.37c1.22.92.3,1.79-.34,2.61-.34,1.3-.94,1.65-1.89.46-1.79.4-2.05,2.11-2.87,3.35-.86-.14-1.38-.52-1.38-1.1a1.58,1.58,0,0,1,.32-.88,5.24,5.24,0,0,0,.7-2.19C1082.64,54.05,1084.6,53.22,1087.49,55.37Z"/><path class="cls-50" d="M1085.37,26.78a6.2,6.2,0,0,1-.12-1.32c.1-.92-.16-2,1-2.21s1.3.82,1.46,1.67a2.52,2.52,0,0,0,.4,1.08c.5.7,1.28,1.3.6,2.25a1,1,0,0,1-1.28.32A2.84,2.84,0,0,1,1085.37,26.78Z"/><path class="cls-50" d="M1085.89,18.71c.56-.6,1.16-1.18,1.75-1.73a11,11,0,0,1,1.34-.88c.74-.4,1.34.14,1.4,1-.06.62-3.15,3.07-3.67,2.91C1086,19.77,1085.67,19.23,1085.89,18.71Z"/><path class="cls-50" d="M1088.12,84.75a1.44,1.44,0,0,1-1-1.44c.2-.42.4-.84.62-1.24.5-.88,1.18-1,1.91-.38s.58,1.34-.1,2C1089.14,84.11,1088.36,84,1088.12,84.75Z"/><path class="cls-50" d="M1089.42,91.13a.94.94,0,0,1,.94,1.12c-.06.68-.48,1-1.16,1a1,1,0,0,1,.22-2.07Z"/><path class="cls-50" d="M1090.84,59.71c-.06.68-.48,1-1.16,1a1,1,0,0,1-.92-1.14,1,1,0,0,1,1.14-.94A.94.94,0,0,1,1090.84,59.71Z"/><path class="cls-50" d="M1083.64,48.09a1,1,0,0,1,1.63-.28,5.16,5.16,0,0,0,3.27,1.12c1.71.22,2.17,1.77,2.45,3.09.2,1-1,1.34-1.73,1.69a1.13,1.13,0,0,1-1.44-.52c-.8-1.24.82-1.26,1.2-2.49-2.35,1.28-3.51-.56-5-1.18A.94.94,0,0,1,1083.64,48.09Z"/><path class="cls-50" d="M1091.19,25.57a1,1,0,0,1,1.12.94c0,.52-.16.94-.78.94a1.15,1.15,0,0,1-1.24-.84C1090.16,25.93,1090.58,25.61,1091.19,25.57Z"/><path class="cls-50" d="M1088.46,89.45c-1.49-.28-1.28-1.38-1-2.43.2-.76.46-1.51.68-2.27,1-.08,1.81.54,2.71.82,1.08.34,2.11.86,1.61,2.11C1091.75,89.39,1090.18,89.77,1088.46,89.45Z"/><path class="cls-50" d="M1091.51,29.34c-1.42,1.61,0,2.19,1.2,3,.66.44.74,1.22-.08,1.48-1.53.52-2.23-1.2-3.51-1.59-.64-.2-.54-1.1-.08-1.65a3.25,3.25,0,0,0,.66-1.73c.1-.58.56-.72,1.08-.56S1091.67,28.6,1091.51,29.34Z"/><path class="cls-50" d="M1093.19,75.08a2.32,2.32,0,0,1-1.93,2.33.9.9,0,0,1-1.06-1,2.66,2.66,0,0,1,1.67-2.49C1092.73,73.95,1093.27,74.36,1093.19,75.08Z"/><path class="cls-50" d="M1091.21,80.42c-.86-.06-2,0-1.93-1.2s1.12-1.16,2-1.16,2,0,1.93,1.2S1092.07,80.36,1091.21,80.42Z"/><path class="cls-50" d="M1093,31.29c-.46,0-1-.12-1.06-.66s.38-1,.94-1.1.82.28.88.82S1093.61,31.29,1093,31.29Z"/><path class="cls-50" d="M1087.35,100.6c-.72-.44-1.65-.84-1.46-1.93.18-.94.9-1,1.67-.84,1.71.22,1.12-1,.88-1.67-.44-1.4-.16-2.19,1.38-2.31a1.83,1.83,0,0,0,1.73-1.38,1.16,1.16,0,0,1,1.08-.88c1,.1,1.48.82.94,1.63-1.55,2.31-3,4.7-4.31,7.18C1088.84,101.15,1088,101,1087.35,100.6Z"/><path class="cls-50" d="M1089.82,43.79c.56-1,3.67-1.55,1.1-3.57-.76-.6-1.16-1.32-.32-2s1.51-.14,1.81.76a2.92,2.92,0,0,0,1.22,1.42,1.12,1.12,0,0,1,.24,1.83c-1.4,1.46-2.77,2.93-4.29,4.23-1,.86-2.23.32-3.13-.28s-1.46-1.61-2.55-2c-.46-.18-.52-.8-.3-1.28.32-.7,1-.7,2-.76.6,0,1.2.44,1.73,1.28S1089.12,45,1089.82,43.79Z"/><path class="cls-50" d="M1093.21,73.11c-.6-.1-1-.32-.94-.9a.84.84,0,0,1,1-.68.75.75,0,0,1,.72.76C1094,72.89,1093.59,73,1093.21,73.11Z"/><path class="cls-50" d="M1092.57,19.07c0-.66.28-1.12,1-1.08a1.18,1.18,0,0,1,1,1.14.83.83,0,0,1-.88.9A1,1,0,0,1,1092.57,19.07Z"/><path class="cls-50" d="M1082.38,61.79c2-1.46,3.67-.48,5.38.6a1.2,1.2,0,0,1,.56,1.61,3.19,3.19,0,0,0,.06,2.61c.4-.94,2.13-.28,1.26-2-.26-.54-.6-1,0-1.48a1,1,0,0,1,1.12-.14c.64.26.66.82.6,1.4s-.24,1,.28,1.44c.66-.62.32-2.53,2.05-1.81.66.28,1.73,3.77,1.36,4.33-.12.18-.42.48-.5.44-2.17-1.08-4.29,1.1-6.52,0-1.55-.78-2.33-1.38-1.79-3.41.6-2.25-1.2-2-2.71-1.77.84,2.13.3,2.81-3,4-.86.1-1.3,2-2.21.9-.64-.76.26-1.89,1.1-2.57a1.71,1.71,0,0,1,.66-.22C1082.28,65.27,1080.91,62.62,1082.38,61.79Z"/><path class="cls-50" d="M1094,51.9c.92-.06,1.22.54,1.3,1.3,0,.32,0,.6,0,.92-.3,0-.62,0-.92,0-.78-.08-1.38-.38-1.32-1.3A.92.92,0,0,1,1094,51.9Z"/><path class="cls-50" d="M1096.6,49.65a1,1,0,0,1-1.16,1,1,1,0,0,1,.2-2.07A1,1,0,0,1,1096.6,49.65Z"/><path class="cls-50" d="M1095.12,34.2a.94.94,0,0,1,1,1.1c0,.66-.44,1-1.1,1a1,1,0,0,1-1-1.1A.94.94,0,0,1,1095.12,34.2Z"/><path class="cls-50" d="M1091.57,99.2c1.14-.8,2.55-1.06,3.53-2.21.5-.56,1.32,0,1.49.82.06,1-3.73,4-4.66,3.79a1.32,1.32,0,0,1-1-1A1.27,1.27,0,0,1,1091.57,99.2Z"/><path class="cls-50" d="M1095.12,18c-.14-.7.26-1,.92-1a1,1,0,0,1,1,1.06.85.85,0,0,1-.82,1A1.08,1.08,0,0,1,1095.12,18Z"/><path class="cls-50" d="M1096.44,19.93a5.91,5.91,0,0,1,3.81,2.51c-1.3,1-2.37,2.43-3.69,2.71-1.47.32-1.87-1.55-2-2.71S1095.12,19.79,1096.44,19.93Z"/><path class="cls-50" d="M1096.91,64a1,1,0,0,1,.12-2.07c.66,0,1,.44,1,1.1A1,1,0,0,1,1096.91,64Z"/><path class="cls-50" d="M1098.65,75.18c-.66.5-1.32,1.36-2.11.28a.92.92,0,0,1,.36-1.42C1098,73.55,1098.47,74.16,1098.65,75.18Z"/><path class="cls-50" d="M1093.25,57.68c.66.16,1.08,1,2.21.76-1-1.44-.3-2.85-.16-4.31.54,0,1.1,0,1.65,0,2.21.14,2.43.6,1.36,2.59a20.7,20.7,0,0,0-1.4,2.73c-.34.9-.5,1.91-1.79,1.73a4.77,4.77,0,0,1-3.39-2,1,1,0,0,1,.18-1.3A1.3,1.3,0,0,1,1093.25,57.68Z"/><path class="cls-50" d="M1099.94,44.82c-.16,1.24-1.24,1.28-2.13,1.46s-1.51-.16-1.38-1.12c.16-1.24,1.32-1.2,2.21-1.38C1099.39,43.65,1099.86,44,1099.94,44.82Z"/><path class="cls-50" d="M1095.46,79.65c.82,2.19,3.19-.7,3.93,1.18.44,1.18-.74,1.32-1.48,1.75-2.39,1.36-3.39,1-3.47-1.57a4.42,4.42,0,0,1,.06-.56C1094.64,79.95,1095.4,79.51,1095.46,79.65Z"/><path class="cls-50" d="M1097.53,60.05a1.16,1.16,0,0,1,1-1.32c.54-.1.86.24.9.8a1,1,0,0,1-.88,1.14C1098.07,60.77,1097.59,60.59,1097.53,60.05Z"/><path class="cls-50" d="M1097.09,11.5a1.11,1.11,0,0,1,.12-1.51c.32-.34.9-.48.9-1,.72-.46,1.44-.88,2.17-1.28.46,1.51-.68,3.93-2.15,4.17A1,1,0,0,1,1097.09,11.5Z"/><path class="cls-50" d="M1096.22,89.47c-.22-.92.1-1.75-1.16-2.09-.6-.16-.72-.8-.48-1.4s.76-.84,1.14-.62c1.2.72,1.59.2,1.89-.92a1.19,1.19,0,0,1,1.65-.92c.76.26.74.94.7,1.79a7.85,7.85,0,0,0,.44,7.51.91.91,0,0,1-.52,1.2c-.56.3-1,.06-1.53-.26C1096.74,92.78,1096.58,91,1096.22,89.47Z"/><path class="cls-50" d="M1094.12,15.58c-.5-1.06.38-1.57,1.14-2a2.9,2.9,0,0,1,4.39,1.53,6.57,6.57,0,0,0,1.87,2.69c-.14,1-.46,1.85-1.63,1.46-.86-.28-2.05-.74-1.75-1.91.66-2.47-1-1.55-1.93-1.36C1095.4,16.12,1094.58,16.56,1094.12,15.58Z"/><path class="cls-50" d="M1100.56,52.7c-.74.26-1.46.56-2.19.78a1.08,1.08,0,0,1-1.4-.56,1,1,0,0,1,.44-1.44c.94-.46,1.81-1.51,3-.88C1101.32,51.1,1100.82,52,1100.56,52.7Z"/><path class="cls-50" d="M1098.81,71a1,1,0,0,1,1.14-.94c.66,0,1,.48.94,1.16a1,1,0,0,1-1.14.92A1,1,0,0,1,1098.81,71Z"/><path class="cls-50" d="M1100.38,40.42a.94.94,0,0,1,1,1.1c0,.66-.46,1-1.1,1a1,1,0,0,1-1-1.12A.94.94,0,0,1,1100.38,40.42Z"/><path class="cls-50" d="M1100.78,76.6A4.7,4.7,0,0,1,1098,79a1.19,1.19,0,0,1-1.49-.4,1.11,1.11,0,0,1-.18-1.32,1,1,0,0,1,1.22-.48c2.79,1.06,1.14-.86,1.12-1.65a1.27,1.27,0,0,1,.18-.16c.92-.52.82-2.85,2.41-1.89S1101.18,75.48,1100.78,76.6Z"/><path class="cls-50" d="M1096.74,110.58c-.48.64-1,1.28-1.46,1.91a1.77,1.77,0,0,1,0,.3.8.8,0,0,1-.3-.18q-.42-.27-.84-.6a1.28,1.28,0,0,1-.34-.26.47.47,0,0,1-.18-.12v0a1,1,0,0,1-.3-.22,2.73,2.73,0,0,1-.5-.38,49.85,49.85,0,0,1-4.48-3.77c1.24.28,1.75,0,2.41-1.2.9-1.61,3.09-1.4,4.52.24-.1-1.73,1-2,2.37-1.93v0c-.38-2.51,2.31-2.57,3.25-4,.16-.24.74.08,1,.42s.48,1.12.06,1.24c-1.53.48-2.15,2.63-4.29,2.39,1.22.88,1.2,3.09,3.33,3.07.48,0,.78.8.56,1.38-.34.82-.8,1.61-1.79,1.69S1097.75,110.56,1096.74,110.58Z"/><path class="cls-50" d="M1101.2,31.71c.46.74,1.12,1.49.36,2.31s-1.42.26-2.05-.28a2.7,2.7,0,0,0-1-.58c-.84-.24-1.85-.36-1.51-1.59.26-1,1.22-.82,1.63-.84C1099.86,30.67,1100.66,30.87,1101.2,31.71Z"/><path class="cls-50" d="M1101.84,37.11a1,1,0,0,1-2.07.08,1,1,0,0,1,.9-1.1C1101.42,36.11,1101.82,36.45,1101.84,37.11Z"/><path class="cls-50" d="M1102.48,66.57a2.1,2.1,0,0,0-.42.22c-.78.56-1.46,1.81-2.55.66-.68-.74-.14-1.46.6-2C1101.52,64.5,1102.1,65.31,1102.48,66.57Z"/><path class="cls-50" d="M1103.29,62.2c-.3,1.16-1.44,1.24-2.37,1.49-.6.18-.8-.42-.72-.92a2.08,2.08,0,0,1,1.91-1.81C1102.87,60.89,1103.27,61.33,1103.29,62.2Z"/><path class="cls-50" d="M1101.86,104a.94.94,0,0,1,.94,1.12c-.06.68-.48,1-1.16,1a1,1,0,0,1-.92-1.14A1,1,0,0,1,1101.86,104Z"/><path class="cls-50" d="M1102.16,95a1,1,0,1,1,2.07,0,1,1,0,1,1-2.07,0Z"/><path class="cls-50" d="M1103.09,43.77a1,1,0,0,1,1.14.92c0,.68-.28,1.12-1,1.16a1,1,0,0,1-.18-2.07Z"/><path class="cls-50" d="M1102,52c.64-.24,1.32-.24,1.61.48.54,1.3-.72,1.75-1.32,2.51-.3.38-1,.68-1.2.18a11,11,0,0,1-.58-2.45C1101,52.46,1101.52,52.18,1102,52Z"/><path class="cls-50" d="M1103.67,37.53a1,1,0,0,1,1,1.06,1,1,0,1,1-2.07,0A1,1,0,0,1,1103.67,37.53Z"/><path class="cls-50" d="M1104.71,77.31c0,.6-.24,1-.84,1a.82.82,0,0,1-.8-.94c0-.5.2-.94.8-.92S1104.59,76.94,1104.71,77.31Z"/><path class="cls-50" d="M1102.79,99.84c.12-.54.6-.68,1.12-.58a1,1,0,0,1,.82,1.2c-.14.58-.48.92-1,.8A1.11,1.11,0,0,1,1102.79,99.84Z"/><path class="cls-50" d="M1102.91,6.91a1.66,1.66,0,0,0-.52-.32c.92-.48,1.83-.92,2.77-1.32a5.42,5.42,0,0,1-.58,1.36A1.07,1.07,0,0,1,1102.91,6.91Z"/><path class="cls-50" d="M1104.19,49.67a1,1,0,0,1-1.08-1,1,1,0,0,1,.9-1.1c.76,0,1.16.36,1.18,1A1,1,0,0,1,1104.19,49.67Z"/><path class="cls-50" d="M1105.35,23.52c.16.56.26,1.36-.52,1.2-1.1-.24-2.37-.44-3-1.51a.89.89,0,0,1,.52-1.36c.84-.34,1.32.18,1.69.86A1.69,1.69,0,0,0,1105.35,23.52Z"/><path class="cls-50" d="M1105.49,26.47c0,.42-.38.62-.8.66s-1-.2-.9-.82a.71.71,0,0,1,.8-.66C1105.09,25.67,1105.53,25.87,1105.49,26.47Z"/><path class="cls-50" d="M1104.07,60.19a1,1,0,0,1,1-1.12,1,1,0,0,1,1.12.92c0,.68-.28,1.12-1,1.16A1,1,0,0,1,1104.07,60.19Z"/><path class="cls-50" d="M1101.36,82a1,1,0,0,1,1.67-.18,3.53,3.53,0,0,0,2.79,1,4.31,4.31,0,0,1,0,.72c-.16,1,.5,2.35-.76,2.73s-1.32-1.1-1.87-1.79a4.78,4.78,0,0,0-1.38-.88A1.07,1.07,0,0,1,1101.36,82Z"/><path class="cls-50" d="M1103.67,75.4a.94.94,0,0,1-.2-1.71c1-.76,1.57,0,2,.78s1.59.8,1.63,2c0,.14-.06.48-.22.54C1105.25,77.77,1104.95,75.66,1103.67,75.4Z"/><path class="cls-50" d="M1107.46,43.29a1,1,0,0,1,1.1.9c0,.74-.36,1.16-1,1.18a1,1,0,1,1-.08-2.07Z"/><path class="cls-50" d="M1108.5,116.32c-.28.86,0,2.23-1.12,2.65a.78.78,0,0,1-.36.08c-.3-.1-.58-.24-.88-.36q-1.47-.63-2.87-1.32l-.28-.14c-.36-.18-.74-.34-1.1-.54h0c-1.46-.74-2.89-1.53-4.27-2.41a1.33,1.33,0,0,1,1.18-.86,3.07,3.07,0,0,1,1.77.86c-.38-2.17.18-3.33,2.41-2.75,0-1.08.36-1.85,1.59-1.89.82,0,1.32-.38,1.38-1.26a1,1,0,0,1,1.1-1c.8,0,1.08.58,1.14,1.26a6.29,6.29,0,0,1-.66,3.89,23.18,23.18,0,0,0-1.18,2.81l.42.06C1107.48,115.49,1108.83,115.35,1108.5,116.32Z"/><path class="cls-50" d="M1102.48,66.57c.82-.08,1.18-.6,1.51-1.32.8-1.65,2.35-1.18,3.57-.92,1.51.32,1.49,1.89,1.38,3-.22,1.75-1.61.94-2.63.8-.82-.12-1.79-1.36-2.35.42-.12.42-.84.46-1.28.18C1101.76,68.08,1102.24,67.31,1102.48,66.57Z"/><path class="cls-50" d="M1106.36,83.89c-.16-.36-.36-.72-.54-1.06a3.76,3.76,0,0,0-.1-.46c-.18-1-2.23-1.83-.74-3,1.26-1,2.31,1,3.67.94.32,0,.48.6.4,1-.28,1.28-1.42.06-1.89.54-.16.5.08.68.36.88.44.34,1.42.1,1.26,1.08a1.14,1.14,0,0,1-1,.94C1107.06,84.95,1106.64,84.53,1106.36,83.89Z"/><path class="cls-50" d="M1105.35,23.52c-.72-1.85-.06-2.83,1.85-2.69a3.86,3.86,0,0,1,2.45,1.26c-.38.6-.74,1.2-1.14,1.77s-.22,2.11-1.44,1.73c-1.46-.46,0-1.53-.14-2.31C1106.3,23,1105.84,23.36,1105.35,23.52Z"/><path class="cls-50" d="M1107.4,74c-.62.12-1.2-.6-.92-1.08.72-1.2.9-2.93,2.55-3.35.6-.14.94.46,1,1.3C1109,71.71,1109.15,73.69,1107.4,74Z"/><path class="cls-50" d="M1110,30.93a1,1,0,1,1-2.07,0,1,1,0,1,1,2.07,0Z"/><path class="cls-50" d="M1109.49,27.64c0,.66-.44,1-1.1,1a1,1,0,0,1-1-1.12,1,1,0,0,1,2.07.12Z"/><path class="cls-50" d="M1108.2,36.35a1.14,1.14,0,0,1,1.49,1.14c.06,1.32-1.16,1.51-2,2-.9-.06-1.49-.48-1.46-1.32C1106.3,37,1107.32,36.59,1108.2,36.35Z"/><path class="cls-50" d="M1109.65,88.58c-.88-.08-1.83-.1-1.73-1.36a.89.89,0,0,1,1.14-.88C1110.51,86.7,1109.93,87.7,1109.65,88.58Z"/><path class="cls-50" d="M1108.38,9.48a1,1,0,0,1,.94-1.12,1,1,0,0,1,1.14.92c0,.68-.28,1.12-1,1.16A1,1,0,0,1,1108.38,9.48Z"/><path class="cls-50" d="M1110.93,112.22a1,1,0,0,1-.88,1.1c-.78,0-1.18-.36-1.2-1a1,1,0,0,1,1-1.08A.94.94,0,0,1,1110.93,112.22Z"/><path class="cls-50" d="M1109,58.54c-.14-.54.2-.86.76-.92a1,1,0,0,1,1.16.86c.1.52-.06,1-.6,1.08A1.13,1.13,0,0,1,1109,58.54Z"/><path class="cls-50" d="M1111.37,62.3c-.06.54-.52.76-1.26.78-1-.84-2.09-1.71-3.13-2.71-.26-.26-.06-.82.3-1a1,1,0,0,1,1.42.44C1109.27,61,1111.59,60.37,1111.37,62.3Z"/><path class="cls-50" d="M1111.8,108.59c0,.7-.44.94-1,.92s-.9-.32-.88-.88.44-.76.94-.82S1111.76,108,1111.8,108.59Z"/><path class="cls-50" d="M1111.88,24.67a1,1,0,1,1-2.07.08,1,1,0,0,1,2.07-.08Z"/><path class="cls-50" d="M1110.57,52.18l-.92,0c0-.3,0-.62,0-.92.08-.78.38-1.38,1.3-1.32a.92.92,0,0,1,.9.9C1111.94,51.8,1111.35,52.1,1110.57,52.18Z"/><path class="cls-50" d="M1106.3,50.66c1.14-.34,2.29-1,2.91.72a6.68,6.68,0,0,0,.44.84c0,.94-.12,1.91,1.32,2.05.88.08,1.2.78.8,1.57a1,1,0,0,1-1.61.36,2.63,2.63,0,0,0-2-.66c-2,.38-2.77-.64-3.07-2.53C1104.95,51.78,1105,51,1106.3,50.66Z"/><path class="cls-50" d="M1101.52,17.77a2.08,2.08,0,0,1,1-2A7,7,0,0,0,1105,13c.72-1.42,5.22-2,6.28-.86.5.52,1.91.94.88,2s-1.69.18-2.43-1.34c-.06,2.75-2.21,3-3.39,4.25C1105,18.47,1103.25,18.33,1101.52,17.77Z"/><path class="cls-50" d="M1113,98.62a9.15,9.15,0,0,1-.66,1.24.9.9,0,0,1-1.26.26,1.19,1.19,0,0,1-.34-.84.8.8,0,0,1,.86-.9A10.72,10.72,0,0,1,1113,98.62Z"/><path class="cls-50" d="M1111.43,6.41c-.3-.92-.6-1.87.66-2.37a3.52,3.52,0,0,1,.92-.14c0,.46.06.94.06,1.42,0,.72.7,1.63-.34,2.09C1112,7.77,1111.63,7,1111.43,6.41Z"/><path class="cls-50" d="M1114,43.13c.18,2.41-.84,3.63-3.07,3.71-.68,0-1.3,0-1.51-.78a1,1,0,0,1,.64-1.36c1-.34,1.36-.78.38-1.59-.62-.5-.92-1.18-.36-1.83s1.42-.38,2.13,0A5.38,5.38,0,0,1,1114,43.13Z"/><path class="cls-50" d="M1114.69,47.89c0,.68-.48.94-1,1.06s-.94-.1-1-.66a1,1,0,0,1,1.08-1.2A.87.87,0,0,1,1114.69,47.89Z"/><path class="cls-50" d="M1114.77,107a1,1,0,0,1-1.06,1,.94.94,0,0,1-1-1,1,1,0,0,1,1-1.06A1,1,0,0,1,1114.77,107Z"/><path class="cls-50" d="M1112.9,9.16c-.22-.52.18-.74.62-.72a1.28,1.28,0,0,1,1.22.94c0,.38-.1.68-.5.62A1.66,1.66,0,0,1,1112.9,9.16Z"/><path class="cls-50" d="M1115.27,50.56a1,1,0,0,1-1,1c-.64,0-1.1-.28-1-1s.6-.88,1.18-.92S1115.23,50,1115.27,50.56Z"/><path class="cls-50" d="M1114.58,58.12a1,1,0,0,1,1.14.94,1,1,0,0,1-.92,1.14c-.68,0-1.12-.28-1.16-1A.94.94,0,0,1,1114.58,58.12Z"/><path class="cls-50" d="M1110.13,68.24c-.44-1-.54-1.61.58-2,1.81,1.26,3.65,2.43,5.34,3.79a1.33,1.33,0,0,1-.26,1.93c-.7.52-1.18-.1-1.81-.42C1112.4,70.72,1110.91,70,1110.13,68.24Z"/><path class="cls-50" d="M1113.3,29.71c.22-1.48,1.06-2.83.78-4.41a1,1,0,0,1,.94-1.16,1,1,0,0,1,1.22.88c.18.86.34,1.69.54,2.69-.8,1.63-.94,3.57-1.57,5.32-.52,1.36-2.33,1.32-3.59,1.77-.36.14-.72-.3-.82-.72s0-1.16.48-1.2C1113.4,32.72,1113.12,31,1113.3,29.71Z"/><path class="cls-50" d="M1114.44,96.23c.08-.9-.2-2,1.14-2.25.48-.08,1,.16.94.76C1116.37,95.93,1115.41,96.11,1114.44,96.23Z"/><path class="cls-50" d="M1113,98.62c-1.42-1.93-.5-2.47,1.44-2.39a5.45,5.45,0,0,1,1.3,1c.64.92,2.07,1.87,1.26,3-.62.86-2.09,1.14-3.21,1.59-.2.08-.62-.12-.82-.3a.76.76,0,0,1,.06-1.08,12.41,12.41,0,0,1,1.42-1.06C1114.1,98.78,1113.52,98.76,1113,98.62Z"/><path class="cls-50" d="M1113.52,23.08a7.93,7.93,0,0,0-3.87-1c-.16-2.15.88-2.65,2.79-2.05,1,.32,2,1,3.19.32a1,1,0,0,1,1.42.5,1.27,1.27,0,0,1-.5,1.67C1115.65,23.26,1114.71,23.75,1113.52,23.08Z"/><path class="cls-50" d="M1117.78,76.62c-.46.28-1.24.5-1.34.88-.64,2.25-1.83,1.34-3.19.76.22,1.14-.22,2.93,2.09,1.57.72-.42,1.46-.36,1.75.52s-.2,1.4-1.08,1.44a2,2,0,0,0-2,1.91c-.16,1,.16,2.63-1.59,2.27a2.63,2.63,0,0,1-2.15-3.41c.36-1.42.82-2.87.16-4.17-.74-1.48-.24-2.51.52-3.71,1.06-1.63,3.13-2.11,4.27-.6C1116,75.1,1117.76,75,1117.78,76.62Z"/><path class="cls-50" d="M1119.34,122.62c-1.1-.18-2.19-.42-3.29-.66,0,0,0-.06,0-.1-.14-.74.44-1.12,1.36-1.1A4.38,4.38,0,0,1,1119.34,122.62Z"/><path class="cls-50" d="M1116.79,38.78l-.92,0c0-.3,0-.62.06-.92.08-.78.36-1.38,1.28-1.32a.92.92,0,0,1,.9.9C1118.16,38.41,1117.57,38.7,1116.79,38.78Z"/><path class="cls-50" d="M1113,3.9c.06-.7.06-1.48.8-1.69a1,1,0,0,1,.36-.06c.94-.06,1.06.76,1.36,1.4.64,1.36,1.06,2.85,2.25,3.89A1.21,1.21,0,0,1,1118,9a1,1,0,0,1-1.22.52c-.78-.2-.38-1.2-.5-1.28C1114.6,7.17,1114.81,4.76,1113,3.9Z"/><path class="cls-50" d="M1117.15,16a6.57,6.57,0,0,0,1.12.3c.2,1.24.3,2.61-1.48,2.43-.92-.08-2.17-.66-1.87-2S1116.11,15.5,1117.15,16Z"/><path class="cls-50" d="M1115.35,38.11c0,.26.34.48.52.72.22.88.12,1.89.32,2.79a2.38,2.38,0,0,0,2.05,2,1,1,0,0,1,.66,1.16c-.14.7-.76.76-1.32.76-.92,0-2,.34-2.47-.86-.26-.64-.14-1.48-1.16-1.49-.2-1.48-.36-3-.64-4.45-.18-.88-.54-1.81.7-2.07S1115.25,37.25,1115.35,38.11Z"/><path class="cls-50" d="M1117.47,5.18a1,1,0,0,1,.94-1.12,1,1,0,0,1,1.14.92c0,.68-.28,1.12-1,1.16A1,1,0,0,1,1117.47,5.18Z"/><path class="cls-50" d="M1117.47,108.33a1,1,0,1,1,2.07.2,1,1,0,1,1-2.07-.2Z"/><path class="cls-50" d="M1119.46,102.77a1,1,0,1,1,0-2.07,1,1,0,1,1,0,2.07Z"/><path class="cls-50" d="M1118.42,86.32a1,1,0,0,1,1.14-.94,1,1,0,0,1,1,1.1,1,1,0,0,1-1.16,1A1,1,0,0,1,1118.42,86.32Z"/><path class="cls-50" d="M1116,91.19c.06-.38.38-.84-.16-1a.77.77,0,0,0-1.08.64c-.44,1.91-2.37,2.13-3.59,3.15-.48.4-1.4.42-1.48-.06-.4-2.43-2.71-1.89-4.09-2.79-.72-.46-1.42-.9-.92-1.83s1.22-.68,1.87-.3a2.68,2.68,0,0,0,3.09-.38c.3.08.8.06.9.24,1.38,2.59,2.77.64,3.77-.2s1.4-1.22,2.37-.44a1.1,1.1,0,0,0,1.08.34c1-.36,2.11-.74,2.27.92.08,1-2.21,3.41-3,3.31S1115.89,92,1116,91.19Z"/><path class="cls-50" d="M1119.88,25.75a1,1,0,1,1,.12-2.07c.66,0,1,.44,1,1.1A1,1,0,0,1,1119.88,25.75Z"/><path class="cls-50" d="M1119.64,41.36a1,1,0,0,1,.88,1.16.78.78,0,0,1-.92.8c-.64-.22-1.12-.6-1-1.34C1118.64,41.43,1119.12,41.28,1119.64,41.36Z"/><path class="cls-50" d="M1117.78,76.62c1.75.24,1.63,2.31,3,3,.38.2,0,.88-.4,1.18s-.8.5-1.08.18a17.92,17.92,0,0,0-2-2.49C1116.69,78,1117.66,77.27,1117.78,76.62Z"/><path class="cls-50" d="M1118.9,28.44a1,1,0,0,1,1.14-.94,1,1,0,0,1,.94,1.16,1,1,0,0,1-2.07-.22Z"/><path class="cls-50" d="M1119.7,66.57c1.48.42,2.19,1.34,1.44,2.81s-2.13,1-3.35.84a1,1,0,0,1-.8-1,1,1,0,0,1,.78-1.06A2.73,2.73,0,0,0,1119.7,66.57Z"/><path class="cls-50" d="M1120.48,82.48a1.19,1.19,0,0,1,1.12-1.26c.58-.08.8.34.86.84a1,1,0,0,1-1,1.12C1121,83.21,1120.52,83.05,1120.48,82.48Z"/><path class="cls-50" d="M1122.53,105.36c0,.3,0,.62,0,.92l-.92,0c-.78-.08-1.38-.38-1.32-1.3a.92.92,0,0,1,.9-.9C1122.15,104,1122.45,104.58,1122.53,105.36Z"/><path class="cls-50" d="M1123.39,37.15c0,1.08-.36,1.65-1.1,1.51a3.16,3.16,0,0,1-2.41-2.33.9.9,0,0,1,1.06-1.18C1122.25,35.34,1122.71,36.53,1123.39,37.15Z"/><path class="cls-50" d="M1119.7,66.57c-.9-.16-1.67-.64-1.2-1.57.92-1.77,2.25.18,3.37-.18.06-.12.22-.28.2-.38-.18-.78-1.08-1.55-.12-2.35A1.25,1.25,0,0,1,1123,62c1,.62.52,1.57.38,2.37-.28,1.48-.42,3.35-2.75,1.73C1120.32,65.87,1120,66.25,1119.7,66.57Z"/><path class="cls-50" d="M1121.87,55.61c.74,0,1.55.1,1.65,1,.12,1.1-.76,1.24-1.55,1.32s-1.77-.08-1.79-1.16S1121.05,55.61,1121.87,55.61Z"/><path class="cls-50" d="M1120,75.32a1.7,1.7,0,0,0,.06-.46c-.14-1-.82-2.23.84-2.39,1.28-.1,2,.86,2.09,2.11a2.41,2.41,0,0,0,.14.68c.42.74,1.3,1.44.48,2.29s-1.79.28-2.67,0C1119.68,77.23,1119.64,76.36,1120,75.32Z"/><path class="cls-50" d="M1119.2,11.71c1-1.57,1.85-1.57,2.59.18.34.82.9,1,1.49,1.32a1,1,0,0,1,.48,1.42c-.26.62-1.06.92-1.36.52-1.4-1.89-2,0-2.91.5-.4.24-.82.46-1.24.7-1-1-1.65-2,0-3C1118.68,13,1118.88,12.25,1119.2,11.71Z"/><path class="cls-50" d="M1123.84,120.45a1,1,0,0,1-2.07-.12c0-.66.44-1,1.1-1A1,1,0,0,1,1123.84,120.45Z"/><path class="cls-50" d="M1120.22,1.31a4.16,4.16,0,0,0,0-.5c1.26-.22,2.53-.38,3.83-.52a2.94,2.94,0,0,0,0,.42c0,1.55-1.06,2-2.35,2.11C1120.63,2.88,1120.22,2.21,1120.22,1.31Z"/><path class="cls-50" d="M1122.49,30.75c.9,0,1.55.42,1.57,1.36s-.86.88-1.49,1c-.84,0-1.71-.1-1.73-1.16S1121.67,30.73,1122.49,30.75Z"/><path class="cls-50" d="M1122.87,27.64a1.19,1.19,0,0,1,1.32,1.06c.1.54-.26.84-.8.9a1,1,0,0,1-1.16-.9C1122.15,28.2,1122.33,27.72,1122.87,27.64Z"/><path class="cls-50" d="M1122.09,116.8c.78-.28,1.69-1.71,2.25.2a.9.9,0,0,1-.72,1.06C1122.61,118.28,1122.23,117.68,1122.09,116.8Z"/><path class="cls-50" d="M1123.7,54a1,1,0,0,1-1-1.1c0-.66.44-1,1.1-1a1,1,0,0,1,1,1.12A1,1,0,0,1,1123.7,54Z"/><path class="cls-50" d="M1121.53,45.8c.8-1.57,1.87-1.3,3-.72,1.3.7.72,1.51.14,2.53a9.75,9.75,0,0,1-2.77,3.13,2.33,2.33,0,0,1-2.87-.12c-.9-.56-.76-1.49-.64-2.37,0-.4.2-.78.46-.78C1121,48.53,1121.11,46.62,1121.53,45.8Z"/><path class="cls-50" d="M1124.76,96.85c.78,0,1,.58,1,1.26a2.14,2.14,0,0,1-2,1.81,1,1,0,0,1-1.1-1.42A2,2,0,0,1,1124.76,96.85Z"/><path class="cls-50" d="M1125.06,21c.06.54-.18.92-.76.92a1,1,0,0,1-1.12-1.16.87.87,0,0,1,.88-.88A1.15,1.15,0,0,1,1125.06,21Z"/><path class="cls-50" d="M1125.28,41.41c-.06,1.36-1.24,1.65-2.13,2.05-.84,0-1.42-.26-1.38-1,.08-1.34,1.18-1.77,2.25-2A.94.94,0,0,1,1125.28,41.41Z"/><path class="cls-50" d="M1122.85,94a5.55,5.55,0,0,1,3.07-1.12,2.57,2.57,0,0,1-2.49,3.23,1.12,1.12,0,0,1-.58-2.11Z"/><path class="cls-50" d="M1125.92,92.88l-.48-.92c-.66-.12-1.61.06-1.61-.94s.92-.9,1.59-1C1126.85,90.75,1128.11,91.51,1125.92,92.88Z"/><path class="cls-50" d="M1126.1,104.68a1,1,0,0,1,.12-2.07c.66,0,1,.44,1,1.1A1,1,0,0,1,1126.1,104.68Z"/><path class="cls-50" d="M1124.64,67.71a1,1,0,1,1,2.07.12c0,.66-.44,1-1.1,1A1,1,0,0,1,1124.64,67.71Z"/><path class="cls-50" d="M1122.57,106.28a7.8,7.8,0,0,1,3.43.6,1.09,1.09,0,0,1,.7,1.34,1.07,1.07,0,0,1-1.24.82C1123.74,108.91,1122.31,108.45,1122.57,106.28Z"/><path class="cls-50" d="M1126.73,31.43c0,.62-.34,1.06-1,.92s-.84-.66-.86-1.22.4-.78.92-.8A1,1,0,0,1,1126.73,31.43Z"/><path class="cls-50" d="M1125.8,20.19a.75.75,0,0,1,.84-.86c.5,0,.9.2.92.82s-.38,1-1,1S1125.84,20.64,1125.8,20.19Z"/><path class="cls-50" d="M1126.79,63.08q-1.17,0-1.2-1a1,1,0,1,1,2.07-.08A1,1,0,0,1,1126.79,63.08Z"/><path class="cls-50" d="M1127.59,41.83c.66,0,1,.4,1.06,1.06a1,1,0,0,1-1.06,1,.94.94,0,0,1-1-1A1,1,0,0,1,1127.59,41.83Z"/><path class="cls-50" d="M1127.47,83.63a1,1,0,0,1-.92-1.14,1,1,0,0,1,1.14-.94.94.94,0,0,1,.94,1.12C1128.57,83.35,1128.15,83.63,1127.47,83.63Z"/><path class="cls-50" d="M1126.42,24.31c2.47,1,3,1.83,2.37,4.46-3.33.66-4.39-.48-3.53-3.79C1125.44,24.35,1125.66,24,1126.42,24.31Z"/><path class="cls-50" d="M1127.57,56.26a.88.88,0,0,1,1-1,1,1,0,0,1,1.08,1c0,.64-.3,1.08-1,1.06A1,1,0,0,1,1127.57,56.26Z"/><path class="cls-50" d="M1129.6,49.11a1,1,0,0,1-1.06,1,1,1,0,1,1,0-2.07A1,1,0,0,1,1129.6,49.11Z"/><path class="cls-50" d="M1130,123.58c-1,0-2.09,0-3.11-.08l.42-.5c-.4-.88-1.67-1.51-.8-2.69a2,2,0,0,1,2.39-.48c2,.8.54,2.09.36,3.19C1129.56,123.42,1129.78,123.58,1130,123.58Z"/><path class="cls-50" d="M1127.49,5.69A8.58,8.58,0,0,0,1125,.21c1.06-.1,2.11-.16,3.19-.16,2.19,1.1.92,3.51,1.44,5.22a1,1,0,0,1-1,1.36A.94.94,0,0,1,1127.49,5.69Z"/><path class="cls-50" d="M1126.36,116.36c-.36-2.13-2.05-.82-3.07-1.16s-.9,1-1.2,1.59a27,27,0,0,1-4.17-.52c-1.67-.3-1.48-.92-1-2A20.47,20.47,0,0,0,1118,112a2.56,2.56,0,0,1,4.13-.9c1.22,1.26,2.39.52,3.43,0,2.35-1.24,2.47-1.24,2.77,1.4.86.08,1.87.1,1.73,1.32s-1.34,1-2.21,1.06l1.26.66a1.08,1.08,0,0,1,.6,1.55,1.21,1.21,0,0,1-1.77.66C1127.29,117.4,1126.48,117.14,1126.36,116.36Z"/><path class="cls-50" d="M1129,60.19a1,1,0,0,1-1-1.1,1,1,0,1,1,2.07.12A1,1,0,0,1,1129,60.19Z"/><path class="cls-50" d="M1128.79,11.08c-.28-.88-.86-1.87.6-2.23a.9.9,0,0,1,1.16.88C1130.62,11,1129.66,11,1128.79,11.08Z"/><path class="cls-50" d="M1130.52,103.09c.66,0,1,.44,1,1.1a1,1,0,0,1-1.12,1,1,1,0,0,1,.12-2.07Z"/><path class="cls-50" d="M1127.69,97c-.92-.44-.8-1.28-.64-2.07s0-1.63.56-2.27c.94-1.08,1.73-2.05.78-3.65a1.46,1.46,0,0,1,.86-2.15c1.24-.3,1.22.82,1.55,1.61.74,1.65,1.87,3.31-1.4,4a2.56,2.56,0,0,1,1.53,2.61c0,.84.54,1.81-.52,2.33A3.11,3.11,0,0,1,1127.69,97Z"/><path class="cls-50" d="M1128.47,22.88c-.52.1-1.08-.52-.78-.86,1-1.12.46-3.27,2.45-3.57.62-.1.92.5.88,1.34C1130,20.55,1130.2,22.5,1128.47,22.88Z"/><path class="cls-50" d="M1131.28,42.53a4.6,4.6,0,0,1,.38,1.08l-.9.2c-.58.12-1.12.08-1.32-.6a.89.89,0,0,1,.44-1.18A1.08,1.08,0,0,1,1131.28,42.53Z"/><path class="cls-50" d="M1128.79,28.78c.32,0,.64,0,.94,0,.92.08,2.21-.18,2.19,1.16,0,1.53-1.42,1.24-2.37,1.2C1127.35,31,1128.11,29.87,1128.79,28.78Z"/><path class="cls-50" d="M1130.38.83a1,1,0,0,1,.3-.82c.5,0,1,0,1.51,0a1.47,1.47,0,0,1,.28.72,1,1,0,0,1-1,1.08A1,1,0,0,1,1130.38.83Z"/><path class="cls-50" d="M1130.86,78.71a1,1,0,0,1,1.1-1,1,1,0,0,1,1,1.08,1,1,0,0,1-1.12,1A.94.94,0,0,1,1130.86,78.71Z"/><path class="cls-50" d="M1131.8,52.06A1,1,0,0,1,1132,50a1,1,0,1,1-.2,2.07Z"/><path class="cls-50" d="M1128.91,108.83c-.1-.78.34-1.73,1.1-1.38,1.34.6,2.85,1.48,3.31,2.91.36,1.08-1,1.06-1.83,1.16C1129.44,111.74,1129.09,110.32,1128.91,108.83Z"/><path class="cls-50" d="M1132.3,100.3a1,1,0,0,1,1-1.06,1,1,0,0,1,1.06,1.06,1,1,0,0,1-1.06,1A.94.94,0,0,1,1132.3,100.3Z"/><path class="cls-50" d="M1133.73,37.87a1,1,0,0,1,0,1.32,1,1,0,0,1-1.48-.16c-.9-1.67-2.51-2.07-4.09-2.55-.78-.24-1.32-.72-1.06-1.57s.94-.76,2.05-.56C1131.26,34.18,1132.63,35.83,1133.73,37.87Z"/><path class="cls-50" d="M1133.93,122.64a1.38,1.38,0,0,1,.22.8c-1.32.1-2.63.14-4,.14H1130c.5,0,.86-.76,1.28-1C1132.22,122.12,1133.15,121.33,1133.93,122.64Z"/><path class="cls-50" d="M1132.79,108a1,1,0,0,1-1-1.28c.28-1.08.72-2.17,2.05-2.23.76,0,1,.58,1,1.32C1134.45,106.81,1134.17,108,1132.79,108Z"/><path class="cls-50" d="M1133.75,32.45a1,1,0,1,1,.12-2.07c.66,0,1,.44,1,1.1A1,1,0,0,1,1133.75,32.45Z"/><path class="cls-50" d="M1131.3,59.1c.34-1.4.66-2.69,1-4a1,1,0,0,1,1.24-.82,1,1,0,0,1,.9,1.18c-.22,1.4-.52,2.79-.84,4.17a1.14,1.14,0,0,1-1.36,1C1131.28,60.49,1131.24,59.75,1131.3,59.1Z"/><path class="cls-50" d="M1124.6,8.49a1.88,1.88,0,0,1-.32-2,1,1,0,0,1,1-.52c.9.08,1.16.76,1.38,1.46a19,19,0,0,1,.84,3.21c.12,1.42.86.4,1.3.46,1.51,1.24,2.41,3.23,4.78,3.47,1,.1,1.61,1.22,1.77,2.33.1.66.1,1.34-.64,1.63a1,1,0,0,1-1.48-.74c-.24-1-1.08-1.14-1.83-1.24a2.75,2.75,0,0,1-2.55-2c-.28.9.08,2.17-1.34,2.09-1,0-1.28-1-1.32-1.73-.1-2-.66-3.53-2.73-4.23a.7.7,0,0,1-.4-1.14.8.8,0,0,1,1.1-.12c.46.3.84.68,1.44,1.16C1125.82,9.48,1125,9.08,1124.6,8.49Z"/><path class="cls-50" d="M1134.31,25.71a10.91,10.91,0,0,1-1-1.4,1.05,1.05,0,0,1,.36-1.46,1,1,0,0,1,1.34.08c.7.78,2,1.61,1.26,2.75a3.71,3.71,0,0,1-3.81,1.93,1,1,0,0,1-.66-1.34c.18-.6.62-.64,1.14-.44A1,1,0,0,0,1134.31,25.71Z"/><path class="cls-50" d="M1134.41,86a.91.91,0,0,1-1.14-1.12c.3-1.38,1.63-1.55,2.69-1.89.7-.24,1.2.22,1.32,1.12C1136.86,85.43,1135.58,85.73,1134.41,86Z"/><path class="cls-50" d="M1136.76,120.29c.3.16-.18,1.1-.84,1.14a3,3,0,0,1-2.83-2.17,3.44,3.44,0,0,1,.6-3.55c.14-.16.44-.16.6-.2,1.08.08,1.24,1,1.57,1.65C1136.36,118.12,1135.35,119.47,1136.76,120.29Z"/><path class="cls-50" d="M1137.76,112.74c0,.8-.3,1.48-1,1.38-1.42-.2-1.69-1.49-2-2.59a.92.92,0,0,1,1.12-1.16C1137.08,110.64,1137.36,111.8,1137.76,112.74Z"/><path class="cls-50" d="M1137.24,62.88a.9.9,0,0,1-1.12,1.12c-1.4-.3-1.55-1.63-1.89-2.71-.24-.7.24-1.18,1.1-1.32C1136.64,60.43,1137,61.71,1137.24,62.88Z"/><path class="cls-50" d="M1137.36,21.16c0,.3,0,.62,0,.92l-.92,0c-.78-.08-1.38-.38-1.32-1.3a.92.92,0,0,1,.9-.9C1137,19.79,1137.28,20.39,1137.36,21.16Z"/><path class="cls-50" d="M1137.58,32.92a1,1,0,0,1-1-1.1,1,1,0,0,1,2.07.12C1138.65,32.6,1138.24,32.9,1137.58,32.92Z"/><path class="cls-50" d="M1138.83,92.88c0,1.14-.46,2.37-1.67,1.91-1-.38-2.67-.64-2.89-2s1-2.13,2.07-2.53,1.77.46,1.32,1.46C1136.74,93.58,1138.32,92.64,1138.83,92.88Z"/><path class="cls-50" d="M1135.33,4.18c-1.38-1.3-.38-2.67-.1-4,1.36.12,2.67.26,4,.46a5.06,5.06,0,0,1-.18.94,9.1,9.1,0,0,0-.32,1.63c-.1.88.48,2.05-.84,2.41S1136.06,4.88,1135.33,4.18Z"/><path class="cls-50" d="M1139.65,64.34a1,1,0,1,1-.2,2.07,1,1,0,1,1,.2-2.07Z"/><path class="cls-50" d="M1132.2,7.63a1,1,0,0,1,1.63.34c.12.2.16.46.28.64,1.24,1.89,2.07,1.91,3.43.2A10.61,10.61,0,0,0,1138.59,7a1,1,0,0,1,1.24-.5c.54.14.78.54.78,1.22a1.66,1.66,0,0,1-.34.72c-1.28,1.16-1,2.19.2,3.21.36.32.66.76.38,1.26-.14.24-.5.32-.76.48-1-2-2.71-.32-4.11-.84-1.81-.66-2.47-2.25-3.81-3.23A1,1,0,0,1,1132.2,7.63Z"/><path class="cls-50" d="M1140.89,82.16c.54,0,.94.56,1,1.36a3.76,3.76,0,0,1-2.61,1.55c-.86.2-1.63-.52-1.28-1.2.78-1.48-2.21-2.35-.58-3.35C1138,80.18,1139.41,82.08,1140.89,82.16Z"/><path class="cls-50" d="M1141.27,119a1.14,1.14,0,0,1-1.42,1.22c-.9-.18-1.89-.6-2-1.71-.1-.82.5-1.28,1.38-1.4C1140.07,117.52,1141.23,117.74,1141.27,119Z"/><path class="cls-50" d="M1140.43,107.89a.9.9,0,0,1,1.12,1.14c-.3,1.18-.58,2.45-1.89,2.87-.9-.12-1.36-.64-1.12-1.32C1138.89,109.53,1139.05,108.17,1140.43,107.89Z"/><path class="cls-50" d="M1140.61,101.51c-.82.56-.86,1.48-1.24,2.23s-.86,1.22-1.67.86-.74-1.16-.28-1.77c1.42-1.85,1.16-3-1.26-3.55-.52-.1-.64-.66-.52-1.16a.81.81,0,0,1,1-.72c1.48.38,3,.76,2.49,3,1-.64,1.59-2,2.49-.88C1142.46,100.54,1141.27,101,1140.61,101.51Z"/><path class="cls-50" d="M1140.39,19.07a4,4,0,0,1,1.32-.34,11.42,11.42,0,0,1,.22,1.14.86.86,0,0,1-.86,1.12,1,1,0,0,1-1-.48A1,1,0,0,1,1140.39,19.07Z"/><path class="cls-50" d="M1141.36,9.36a1.23,1.23,0,0,1,1.06,1.14c0,.48-.2.8-.68.78a1.24,1.24,0,0,1-1.18-1A.67.67,0,0,1,1141.36,9.36Z"/><path class="cls-50" d="M1142.44,77.91c-.18.92-1.51,2.47-1.79,2.37-1.18-.48-1.73-1.87-2.07-3s.86-1.1,1.75-1C1141.17,76.64,1142.7,76.5,1142.44,77.91Z"/><path class="cls-50" d="M1142.42,55.41a1,1,0,1,1,0-2.07,1,1,0,1,1,0,2.07Z"/><path class="cls-50" d="M1138.83,92.88c-.4-2.07,1.48-2.81,2.51-3.91.74-.78,1.59-.14,1.69,1C1143.22,92.16,1142.18,92.88,1138.83,92.88Z"/><path class="cls-50" d="M1142,102a1.17,1.17,0,0,1,1.2-1.18c.6,0,.74.44.78.94a1,1,0,0,1-1.06,1C1142.42,102.81,1142,102.61,1142,102Z"/><path class="cls-50" d="M1143.46,112.77a3.74,3.74,0,0,1-2.15,2.45c-.92,0-1.49-.36-1.36-1.1a3.17,3.17,0,0,1,2.31-2.41A.91.91,0,0,1,1143.46,112.77Z"/><path class="cls-50" d="M1142.54,23.22c.3-.24.86.3.94.84a.8.8,0,0,1-.68,1c-.54.08-1.14-.16-1.53.4-.08.48.28.46.58.5.7.1,1.34.32,1,1.18s-1.06.64-1.65.38a6.29,6.29,0,0,1-3.77-5.46c.46,0,1.18-.1,1.38.16C1139.81,23.56,1140.79,24.53,1142.54,23.22Z"/><path class="cls-50" d="M1142.8,80.58a1,1,0,0,1,1.14.88c.1.52-.08,1-.62,1.06a1.13,1.13,0,0,1-1.3-1C1141.9,80.94,1142.24,80.62,1142.8,80.58Z"/><path class="cls-50" d="M1141.7,18.73a1.56,1.56,0,0,0-.22-.4c-.52-.74-1.63-1.32-.84-2.39.58-.8,1.38-.4,2.11,0a2.17,2.17,0,0,1,1.2,2.77C1143.32,20.45,1142.46,18.29,1141.7,18.73Z"/><path class="cls-50" d="M1144.12,31.71a1.08,1.08,0,0,1-.92,1.18.88.88,0,0,1-.88-.9c0-.64.24-1.1.9-1.12A.76.76,0,0,1,1144.12,31.71Z"/><path class="cls-50" d="M1128.79,46.8a1,1,0,0,1-.7-1.49.85.85,0,0,1,1.38-.42c2.11,1.81,1.75-.38,2.19-1.28a7,7,0,0,0,2.59-1.83A6,6,0,0,0,1136,39.3a.82.82,0,0,0-.3-.54c-.86-.5-1.12-1.16-.48-2a1.28,1.28,0,0,1,1.89-.2c.86.54,1.53,1,1.1,2.27-.6,1.77-.5,1.79,0,3.57,2.13-1.16,3.95-3.23,6.78-2.19-.12,2.81-3.11,2.51-4.43,4,.1.2.14.38.26.46.78.52,2.37.78,1.36,2.13-.84,1.16-1.48,0-2.21-.64-1.18-1-2-.26-2.59.88-.8,1.63-1.65,1.71-2.43.06-.56-1.18-1.36-1.32-2.29-.66C1131.44,47.37,1130.1,47,1128.79,46.8Z"/><path class="cls-50" d="M1144.42,37.75a1,1,0,1,1-.94-1.16A1,1,0,0,1,1144.42,37.75Z"/><path class="cls-50" d="M1144.89,121.31a1.1,1.1,0,0,1-.1.52q-.78.21-1.55.36a.91.91,0,0,1-.42-.8,1,1,0,0,1,.9-1.1C1144.45,120.31,1144.87,120.63,1144.89,121.31Z"/><path class="cls-50" d="M1143.42,8.43a15.21,15.21,0,0,1,1.63-.22,15.41,15.41,0,0,1-.22,1.63.8.8,0,0,1-1,.52,1.17,1.17,0,0,1-.92-1A.75.75,0,0,1,1143.42,8.43Z"/><path class="cls-50" d="M1145.07,40.26h0v0A0,0,0,0,1,1145.07,40.26Z"/><path class="cls-50" d="M1145.53,74.22a3.82,3.82,0,0,1-.38,1.08,1.28,1.28,0,0,1-1.61.56c-.54-.22-.54-.72-.36-1.18a1.12,1.12,0,0,1,1.48-.76A7.58,7.58,0,0,1,1145.53,74.22Z"/><path class="cls-50" d="M1145.35,84c.66,0,1,.44,1,1.1a1,1,0,0,1-1.12,1,1,1,0,0,1,.12-2.07Z"/><path class="cls-50" d="M1145.09,22a1.23,1.23,0,0,1,1.18.86.87.87,0,0,1-.82,1,1,1,0,0,1-1.2-.8C1144.14,22.4,1144.35,21.94,1145.09,22Z"/><path class="cls-50" d="M1141.4,62.11c.44-1.63,2.15-1.83,3.37-2.53.48-.26,1.18.32,1.06.94-.38,1.73-2.31,1.59-3.15,2.57C1141.84,63.06,1141.25,62.7,1141.4,62.11Z"/><path class="cls-50" d="M1144.93,111.2c-1.22-.32-1.2-1.69-1.67-2.47,0-.92.38-1.46,1.14-1.32,1.34.22,1.57,1.48,1.79,2.49A1.06,1.06,0,0,1,1144.93,111.2Z"/><path class="cls-50" d="M1144.85,32.6a.86.86,0,0,1,1-.84.64.64,0,0,1,.7.76c-.14.48-.34,1-.86,1S1144.83,33.1,1144.85,32.6Z"/><path class="cls-50" d="M1145.67,57.8a1,1,0,0,1-.94-1.14,1,1,0,1,1,2.07.2A1,1,0,0,1,1145.67,57.8Z"/><path class="cls-50" d="M1146,95.11c-.8,0-1.24-.28-1.28-1a1,1,0,0,1,2.07-.18A1,1,0,0,1,1146,95.11Z"/><path class="cls-50" d="M1146.83,20.33c0,.52-.2.94-.78.9s-1.24-.3-1.24-1.1c0-.58.46-.74,1-.8A1,1,0,0,1,1146.83,20.33Z"/><path class="cls-50" d="M1145.07,40.26c.6-.72,1.28-1.3,2.11-.34a.88.88,0,0,1-.12,1.28C1145.95,42,1145.69,40.68,1145.07,40.26Z"/><path class="cls-50" d="M1146.51,100.44c-.88-1-2.79-.88-3.19-2.59-.14-.62.42-1,1.06-1,.84,0,3.33,2.07,3.27,2.75S1147.21,100.38,1146.51,100.44Z"/><path class="cls-50" d="M1147.78,112.08c0,.7-.24,1.12-.88,1.22s-1-.08-1.06-.62a1.16,1.16,0,0,1,1-1.32A.74.74,0,0,1,1147.78,112.08Z"/><path class="cls-50" d="M1146.31,91.94c-1.22.06-1.73-1.12-1.83-2.11s.82-1.71,1.53-1.24c1,.66,2.91-.14,3.27,1.77C1148.72,91.73,1147.41,91.89,1146.31,91.94Z"/><path class="cls-50" d="M1148.6,12.13c-.24.64-.62,1.12-1.36,1-.54-.06-.7-.54-.6-1.06a1,1,0,0,1,1.14-.88A.8.8,0,0,1,1148.6,12.13Z"/><path class="cls-50" d="M1148.2,87.46a1,1,0,1,1-.08-2.07,1,1,0,0,1,1.1.88Q1149.19,87.43,1148.2,87.46Z"/><path class="cls-50" d="M1147.19,74.2c-.56,0-1.1,0-1.65,0a4.8,4.8,0,0,1,.38-1.57c.6-1,1.59-.9,2.53-.64a1,1,0,0,1,.72,1.3C1148.86,74.28,1148,74.16,1147.19,74.2Z"/><path class="cls-50" d="M1149.46,59.79c.06.72-.36,1-1,.88a.94.94,0,0,1-.84-1.16.84.84,0,0,1,.9-.86A1.15,1.15,0,0,1,1149.46,59.79Z"/><path class="cls-50" d="M1148.08,95.45a1,1,0,0,1,1.1-1c.66,0,1,.44,1,1.1a1,1,0,0,1-1.12,1A1,1,0,0,1,1148.08,95.45Z"/><path class="cls-50" d="M1144.89,30c1.75-1,4-.66,4.62.78a1.63,1.63,0,0,1-.06,1.79,1,1,0,0,1-1.08.36c-.68-.16-.84-.68-.8-1.3C1147.74,29.34,1145.27,31.39,1144.89,30Z"/><path class="cls-50" d="M1150.2,14.13a1,1,0,0,1-1,1.12c-.5.06-1-.12-1-.68a1.17,1.17,0,0,1,1.1-1.28C1149.9,13.21,1150.14,13.61,1150.2,14.13Z"/><path class="cls-50" d="M1150.12,54.93a1,1,0,0,1-1.08-1,1,1,0,0,1,.9-1.1c.74,0,1.16.36,1.18,1A1,1,0,0,1,1150.12,54.93Z"/><path class="cls-50" d="M1148.18,98.26a.84.84,0,0,1,1.1-.9c.82.16,1.93,0,2.15,1.1.16.84-.54,1.34-1.36,1.3A1.86,1.86,0,0,1,1148.18,98.26Z"/><path class="cls-50" d="M1151,40.42a1,1,0,0,1,1.14.92c0,.68-.3,1.1-1,1.16a1,1,0,1,1-.18-2.07Z"/><path class="cls-50" d="M1150.24,59.1a.73.73,0,0,1,.66-1,1,1,0,0,1,1.2,1.06.84.84,0,0,1-.74,1C1150.61,60.11,1150.36,59.65,1150.24,59.1Z"/><path class="cls-50" d="M1148.78,82.58a5.72,5.72,0,0,0-1.42-.78c-.92-.46-2.19-.8-2.11-2s1.16-2.31,1.91-3.41c.06-.1.28-.1.46-.14,1,.1,1.48.8,1,1.61s-.76,1.38.14,2.15,1.14-.14,1.69-.42c1.22-.66,1.91.12,1.89,1.18s-.92,1.81-1.73,2.41S1149.32,83.07,1148.78,82.58Z"/><path class="cls-50" d="M1151.55,105a.88.88,0,0,1,1,1.06c-.1,1-.18,2.09-1.22,2.47-1,0-1.42-.46-1.3-1.22C1150.18,106.36,1150.12,105.12,1151.55,105Z"/><path class="cls-50" d="M1154,33.6c-.24,1.81-.76,3.15-2.45,3.41-.78.12-1.32-.48-1.34-1.32s2.29-3.51,2.83-3.41A1.09,1.09,0,0,1,1154,33.6Z"/><path class="cls-50" d="M1154.62,99.1a6.4,6.4,0,0,1,0,3.07c-.12.72-.22,1.49-1.14,1.55s-1-.66-1.24-1.4C1151.63,100,1152,99.32,1154.62,99.1Z"/><path class="cls-50" d="M1154.94,87.74a1,1,0,0,1-1,1.16,1,1,0,1,1-.16-2.07A1,1,0,0,1,1154.94,87.74Z"/><path class="cls-50" d="M1152.61,65.27a4.16,4.16,0,0,1,2.49,1.3c.24,1.53.7,3-.94,4.29-1,.82,0,2.23.44,3.31.36.84.8,1.75-.34,2.21-1,.42-1.57-.38-1.71-1.18-.54-3-3.87-3.61-4.92-6.12-.2-.46-.72-.88-1-.18-.64,1.36-2.63,1.55-2.71,3.45,0,.88-4.58,2.89-5.5,2.67s-1.42-2.39-.48-3.25c.64-.58,1.69-1.36,2.25-1.18,3,1,3-1.79,3.67-3.09a28,28,0,0,0,1.59-3.61c.3-1.1,1.2-1.18,2.09-1.12.68,0,1.32.26,1.42,1,.14,1.12-.92,1.12-1.57,1.55a15.47,15.47,0,0,1,3.13,3.53,2.36,2.36,0,0,0,2,1.16c.58,0,.66-.62.74-1.08.2-1.12-.6-1.32-1.4-1.55A1.06,1.06,0,0,1,1151,66C1151.27,65.21,1151.93,65.15,1152.61,65.27Z"/><path class="cls-50" d="M1153.32,26.33c0-.7.24-1.12.88-1.24s1,.08,1.06.62a1.14,1.14,0,0,1-1,1.32A.72.72,0,0,1,1153.32,26.33Z"/><path class="cls-50" d="M1155.4,55.73c.66,0,1,.44,1,1.1a1,1,0,0,1-1.12,1,1,1,0,0,1,.12-2.07Z"/><path class="cls-50" d="M1141.19,4.34a.88.88,0,0,1,1.3-.64c1.22.48,1-1,1.93-1.24,1.34-.36,2.35-.8,2.49,1.14a4.2,4.2,0,0,0,1,2.13c.6.88,1.2,2,2.15.26.48-.9,1.59-.46,2.33-1a4.41,4.41,0,0,1,.88-.52c.9.34,1.75.72,2.61,1.12.26,1.12-.7,2.17-1.61,3-2.09,1.89-4.74,1-7.12,1.4-1.08.2-1.12-1.48-2.07-1.75-.4-.76-.12-1.55-.1-2.69-1.08,1.1-2.09,1.14-3.11.24C1141.4,5.36,1141,5,1141.19,4.34Z"/><path class="cls-50" d="M1156.33,115.29c.36,1.24-.74,1.36-1.87,1.87a2.66,2.66,0,0,1,1.71.68c-1.53.74-3.13,1.4-4.74,2A3.23,3.23,0,0,1,1151,118c0-.54.5-1,.28-1.59-.4,0-.78.06-1.16.12-.74.14-1.51.26-1.69-.7s.64-1.28,1.48-1.38h1.87a6,6,0,0,0,2.59.18C1155.1,114.43,1156,114.27,1156.33,115.29Z"/><path class="cls-50" d="M1157.09,27c.84.92-.14,1.36-.9,1.93-1,.7.24,1.49.34,2.27-.12.54-.26,1.12-1,1.14s-.8-.62-1-1.12c-.92-.12-1.71-.44-1.75-1.55,0-.92.62-1.2,1.34-1.42a4.08,4.08,0,0,0,.82-.46C1155.66,27.32,1156.2,26,1157.09,27Z"/><path class="cls-50" d="M1157.81,90.61c0,.68-.28,1.1-.94,1.16a1,1,0,0,1-1.14-1,1,1,0,0,1,1-1.12A1,1,0,0,1,1157.81,90.61Z"/><path class="cls-50" d="M1157.81,105a1,1,0,1,1-2.07.18,1,1,0,0,1,.94-1.14C1157.33,104,1157.77,104.32,1157.81,105Z"/><path class="cls-50" d="M1157.57,98a6.21,6.21,0,0,1-1.51,1.12h-1.44V99c0-.64.28-1.4-.6-1.73s-1.71-1-.92-1.89,1.51-.1,2.05.64a4.18,4.18,0,0,0,.6.46c.58-.72.86-2.35,2.15-1.24C1158.87,96,1158.15,97.17,1157.57,98Z"/><path class="cls-50" d="M1156.69,17.61a1,1,0,0,1,1-1.12,1,1,0,0,1,1.14.92c0,.68-.3,1.1-1,1.16A1,1,0,0,1,1156.69,17.61Z"/><path class="cls-50" d="M1157.53,59l.92,0c0,.3,0,.62,0,.92-.08.78-.38,1.38-1.3,1.32a.92.92,0,0,1-.9-.9C1156.16,59.33,1156.75,59,1157.53,59Z"/><path class="cls-50" d="M1156.69,6.43a1.3,1.3,0,0,1,.12-.42c.64.32,1.26.62,1.87.94a.93.93,0,0,1-1.06.62A1,1,0,0,1,1156.69,6.43Z"/><path class="cls-50" d="M1157.07,71.31c-1.16,0-.82-.6-.74-1.38.12-1.24.08-2.57-1.24-3.37.06-.82.08-1.67,1.16-1.77a2,2,0,0,1,1.89,1.22,9.51,9.51,0,0,1,.92,3.91C1159.13,71.33,1158,71.31,1157.07,71.31Z"/><path class="cls-50" d="M1157.65,86.84a1,1,0,0,1,1.1-1c.66,0,1,.44,1,1.1a1,1,0,0,1-1.12,1A.94.94,0,0,1,1157.65,86.84Z"/><path class="cls-50" d="M1157.91,101.23c-1.42.38-1.83-.44-1.83-1.67,0-.14,0-.3,0-.46l1.18-.08c.92-.06,2.21-.92,2.47.74C1159.88,100.91,1158.73,101,1157.91,101.23Z"/><path class="cls-50" d="M1159.84,38.09c.42.56.62,1.16.08,1.71s-1.14.4-1.71,0c-1.28-.88-2.35-1.12-2.75.88a1,1,0,0,1-1.24.84c-.92-.16-1-.92-1-1.65s0-1.75,1.06-1.83,1.59-.92,2.19-1.63c1-1.16,1.81-1.18,2.49.32A9.57,9.57,0,0,0,1159.84,38.09Z"/><path class="cls-50" d="M1159.36,58.88l-.92,0c0-.3,0-.62,0-.92.08-.78.38-1.38,1.3-1.32a.92.92,0,0,1,.9.9C1160.74,58.5,1160.14,58.8,1159.36,58.88Z"/><path class="cls-50" d="M1160.32,114.71a1.07,1.07,0,0,1,.92.5c-.52.32-1,.62-1.57.9a1,1,0,0,1-.12-.48C1159.52,115.13,1159.72,114.67,1160.32,114.71Z"/><path class="cls-50" d="M1162,52.36a3.58,3.58,0,0,1-2.83,1.85,1.1,1.1,0,0,1-1.24-1.38c.38-1.65,2.33-.34,2.89-1.48C1161.64,51.42,1162.26,51.76,1162,52.36Z"/><path class="cls-50" d="M1160.72,47.79c.34-.82.4-2.15,1.75-1.53,1.12.52.4,1.32.16,2.17a2.46,2.46,0,0,1-2,2.07c-1.69.38-2.57.12-2.69-1.83s-1.2-2.45-2.73-1.18a36.61,36.61,0,0,0-3.17,3.17c-1.16,1.24-2.37,2.13-4.17.52,0,.9,0,1.53,0,2.15a1.09,1.09,0,0,1-.8,1.08,1,1,0,0,1-1.36-.66c-.44-1.53-1.63-1.67-2.85-1.51-1.87.24-3.67-1.71-5.62-.18-.32.26-.92-.18-1.06-.7a1,1,0,0,1,.9-1.42,3.84,3.84,0,0,0,2.69-1.32c.42-.48,1-.34,1.53,0,2.67,1.51,4.8,1.24,6.92-.88,1.59-1.59,1.71-1.57,3.19.88a6.21,6.21,0,0,1,3.73-3.85,3.09,3.09,0,0,0,1.67-1.89,1,1,0,0,1,1.22-.52c.54.14.94.62.78,1C1158,45.5,1159.46,46.56,1160.72,47.79Z"/><path class="cls-50" d="M1160.7,20.57c-.06.4-.1.48-.1.56.08.82,1,1.55.26,2.43a.94.94,0,0,1-1.32.12,3.06,3.06,0,0,1-1-2.57c-.06-1.38,1-2.11,2-2.77.74-.48,1.34,0,1.75.72s.94,1.2.34,1.93S1161.42,20.82,1160.7,20.57Z"/><path class="cls-50" d="M1163.57,42.89a1,1,0,0,1-1.06,1,.94.94,0,0,1-1-1,1,1,0,0,1,1-1.06C1163.17,41.83,1163.51,42.23,1163.57,42.89Z"/><path class="cls-50" d="M1163,38.86a.9.9,0,0,1-1.06.78,1,1,0,0,1-.94-1.36.76.76,0,0,1,1.08-.58A1.1,1.1,0,0,1,1163,38.86Z"/><path class="cls-50" d="M1163.07,113.51a1,1,0,0,1,0,.6c-.2.14-.42.28-.62.4l-.14.08a1.14,1.14,0,0,1-1.12-1.06.71.71,0,0,1,.7-.9C1162.55,112.62,1163,112.87,1163.07,113.51Z"/><path class="cls-50" d="M1162.61,90.33a1,1,0,0,1-1.14-1,1,1,0,0,1,.94-1.14c.66,0,1.1.3,1.14,1A1,1,0,0,1,1162.61,90.33Z"/><path class="cls-50" d="M1163.09,74.38a1,1,0,1,1-.2,2.07,1,1,0,1,1,.2-2.07Z"/><path class="cls-50" d="M1158.11,9.46c.9-.38,1.73-1,2.57-1.4a4,4,0,0,1,.5.28c.62.34,1.22.7,1.81,1.08.12.06.22.14.34.2s.46.3.7.48c-1.69.12-3.19.44-3.43,2.63,0,.5-.64.7-1.16.58-1.12-.28-1.2-1.38-1.65-2.17A1.13,1.13,0,0,1,1158.11,9.46Z"/><path class="cls-50" d="M1160.32,63c.32-.92-.42-2.39,1.26-2.55a1.35,1.35,0,0,1,1.26,1,12.63,12.63,0,0,1,.54,2.07c.12.94,1.81,1.73.64,2.65s-2.19-.72-3.43-1C1159.5,65.08,1160,63.86,1160.32,63Z"/><path class="cls-50" d="M1160.46,28.66c1,.82,2.33.24,3.25,1.08.28.46.56.94.86,1.4a1.2,1.2,0,0,1-.08,1.53c-.72.88-4.64.28-5-.8a3.94,3.94,0,0,0-.66-1.48,1.17,1.17,0,0,1,.08-1.71A1.11,1.11,0,0,1,1160.46,28.66Z"/><path class="cls-50" d="M1164.37,57.7a1.16,1.16,0,0,1,1,1.18c0,.72-.5.94-1.14.84a1,1,0,0,1-.82-1.22A.85.85,0,0,1,1164.37,57.7Z"/><path class="cls-50" d="M1165.58,106.64c0,.8,0,1.71-1,1.83s-1.22-.78-1.3-1.61,0-1.71,1.06-1.81S1165.56,105.8,1165.58,106.64Z"/><path class="cls-50" d="M1165.62,93.36v.12a1.58,1.58,0,0,1-1.91,1.77c-.6,1.48.9,2.67.5,4.15-.22.84,0,1.93-1.3,1.89-1.08,0-1.12-1-1.1-1.81a7.68,7.68,0,0,0-1.38-4,2,2,0,0,1,.52-2.93c.6-.52,1.1-1.34,2-.86s.3,1.42.26,2.15C1164,93.34,1164.69,92.84,1165.62,93.36Z"/><path class="cls-50" d="M1163.75,28.82c.08-.78.38-1.38,1.3-1.32a.92.92,0,0,1,.9.9c.06.92-.54,1.22-1.32,1.3l-.92,0C1163.73,29.44,1163.73,29.12,1163.75,28.82Z"/><path class="cls-50" d="M1166.36,37.87c0,.82-.7.92-1.16,1.1-.6-.06-.88-.3-.74-.76a1.34,1.34,0,0,1,1.16-1A.61.61,0,0,1,1166.36,37.87Z"/><path class="cls-50" d="M1166.94,40.34c0,.8-.4,1.18-1,1.22s-1.1-.28-1-1,.6-.86,1.18-.92A.75.75,0,0,1,1166.94,40.34Z"/><path class="cls-50" d="M1168,58c-.66.3-1.32,1.16-2,.08-.32-.52-.26-1.12.44-1.32C1167.48,56.42,1167.88,57.06,1168,58Z"/><path class="cls-50" d="M1166.16,45.36c1.12,0,1.34,1,1.32,1.89,0,.78-.26,1.49-1.18,1.44-1.1-.06-1.06-1-1.14-1.69C1165.24,46.24,1165.15,45.32,1166.16,45.36Z"/><path class="cls-50" d="M1166.44,62.46c.68-.18,1.34,0,1.42.86.1,1.24-.92,1.3-1.73,1.51s-1.57-.26-1.61-1.06C1164.45,62.52,1165.66,62.68,1166.44,62.46Z"/><path class="cls-50" d="M1167.24,42.79a1,1,0,0,1,1.12,1c0,.54-.16,1-.74,1a1.11,1.11,0,0,1-1.28-1.1C1166.3,43.11,1166.7,42.81,1167.24,42.79Z"/><path class="cls-50" d="M1169.17,32.54c-.06.46-.3.78-.78.72a1.11,1.11,0,0,1-1-1.1.63.63,0,0,1,.76-.7A1.19,1.19,0,0,1,1169.17,32.54Z"/><path class="cls-50" d="M1169.25,77.61c.2,1.14-.74,1.65-2.09,1.77-.8.06-1.61-.36-1.36-1.16.4-1.24.26-3.13,2-3.33C1169.17,74.76,1169.17,76.12,1169.25,77.61Z"/><path class="cls-50" d="M1167.22,14.09a1,1,0,0,1,1.08-.94l1,.78a1.1,1.1,0,0,1,0,.38,1,1,0,0,1-1.14.92A1,1,0,0,1,1167.22,14.09Z"/><path class="cls-50" d="M1168.53,25.95l.92,0c0,.3,0,.62,0,.92-.08.78-.38,1.38-1.3,1.32a.92.92,0,0,1-.9-.9C1167.16,26.33,1167.76,26,1168.53,25.95Z"/><path class="cls-50" d="M1169.13,52.38a1,1,0,0,1,1.14.92c0,.68-.3,1.1-1,1.16a1,1,0,1,1-.18-2.07Z"/><path class="cls-50" d="M1165.52,18.73c-.58-.58-.28-1.34.22-1.93a1.72,1.72,0,0,1,1.87-.76c.74.24.86.86.7,1.57s-.6,1.36.54,1.61c.78.2,1.34.64,1,1.53a1.28,1.28,0,0,1-1.34.8c-.8,0-1.79.1-2-.9A3.05,3.05,0,0,0,1165.52,18.73Z"/><path class="cls-50" d="M1167.3,94.16c-.46.74-1.16-.38-1.67-.8a20.11,20.11,0,0,0,.16-2.41,8.28,8.28,0,0,0-2.19-6,2.51,2.51,0,0,0-2-.92,4.19,4.19,0,0,1-4.54-4c-.84-3.49-.68-3.91,1.71-4.39a6.13,6.13,0,0,1-.62-1.46,1,1,0,0,1,.88-1.18c.52-.1,1.06.08,1.14.58a16.88,16.88,0,0,0,1,2.37c.46,1.36-.48,1.57-1.59,1.55-.72,0-2.09-.16-.56,1.06.34,2.15,1.1,3.69,3.77,3a6.09,6.09,0,0,1,2.09.32c.64.08,1.49,0,1.56.8.12,1.28-1.34-.18-1.53.82a1.87,1.87,0,0,0,2.65.56c.82-.4,1.83-.2,1.83.8,0,1.79.72,3.35,1.1,5C1171,92.4,1168.23,92.64,1167.3,94.16Z"/><path class="cls-50" d="M1170.79,23.67a.92.92,0,0,1,.9.9c.06.92-.54,1.22-1.32,1.3l-.92,0c0-.3,0-.62,0-.92C1169.57,24.21,1169.87,23.61,1170.79,23.67Z"/><path class="cls-50" d="M1171.66,44.25c.66,0,1,.44,1,1.1a1,1,0,0,1-1.12,1,.94.94,0,0,1-1-1.1A1,1,0,0,1,1171.66,44.25Z"/><path class="cls-50" d="M1172.24,68.6a5.74,5.74,0,0,1-.88.36,7.86,7.86,0,0,1-.3-.9,1,1,0,0,1,.7-1.34c.48-.12,1-.06,1.2.5S1172.72,68.28,1172.24,68.6Z"/><path class="cls-50" d="M1172,38.5a.94.94,0,0,1,1.08,1,1,1,0,1,1-2.07.08A.94.94,0,0,1,1172,38.5Z"/><path class="cls-50" d="M1173.1,104.52a1.69,1.69,0,0,1,1.14.58c-.6.62-1.22,1.22-1.85,1.81a4.82,4.82,0,0,1-.38-1.22A.93.93,0,0,1,1173.1,104.52Z"/><path class="cls-50" d="M1174.79,49.67c0,1-.34,2.25-1.55,2.35-1.81.16-1.16-1.44-1.51-3-.08-.32-.3-1.4,1-1.34A2.08,2.08,0,0,1,1174.79,49.67Z"/><path class="cls-50" d="M1173.42,86.82a1,1,0,0,1,1.14.92c0,.68-.28,1.12-1,1.16a1,1,0,0,1-.18-2.07Z"/><path class="cls-50" d="M1172,17.91a.91.91,0,0,1,.74-.9c.22.2.44.4.66.62s.44.42.64.64a.93.93,0,0,1-1.1.78A1,1,0,0,1,1172,17.91Z"/><path class="cls-50" d="M1174,83.73c-.68.58-1.4,2-2.25,1.22-1-.88-2.53-1.36-3.07-2.71-.28-.7.32-1.16,1.28-1.18.18.14.6.32.76.62.54,1,1.1,1,1.85.22a1.12,1.12,0,0,1,1.69,0A1.22,1.22,0,0,1,1174,83.73Z"/><path class="cls-50" d="M1174.63,47.61a1.19,1.19,0,0,1-1.06-1.32c.08-.54.56-.72,1.06-.64a1,1,0,0,1,.9,1.16C1175.49,47.35,1175.17,47.71,1174.63,47.61Z"/><path class="cls-50" d="M1173.76,71.83a10,10,0,0,0,1.06.46c.88.26,1.53.74,1.06,1.67s-1.26.7-2,.16a5.6,5.6,0,0,0-1.16-.78c-.66-.3-1.48-.48-1-1.46S1173.08,71.43,1173.76,71.83Z"/><path class="cls-50" d="M1175.95,37.13a13,13,0,0,1-1.71.74c-.78-.06-1.65-.06-1.75-1.14-.08-.76.46-1.12,1.12-1.3.88-.22,1.83-.76,2.63.1A1,1,0,0,1,1175.95,37.13Z"/><path class="cls-50" d="M1174.27,38.78c0-.3,0-.62,0-.92l.92,0c.78.08,1.38.38,1.32,1.3a.92.92,0,0,1-.9.9C1174.65,40.16,1174.35,39.56,1174.27,38.78Z"/><path class="cls-50" d="M1173.76,71.83c-.1-.56-.3-1.34-.9-1.2a4.64,4.64,0,0,1-3.95-.48c-.78-.52-1.26.56-1.38,1.42-.08.64-.16,1.3-.94,1.49s-1.12-.3-1.49-.86c-1-1.42-2.69-1.83-4-2.73-.78-.52-1.4-1-.82-1.83a1.09,1.09,0,0,1,1.83,0c.84.9,2,.88,3,1.32,1.36.62,2.33.48,2.47-1.28.06-.66.26-1.32,1.06-1.38,1-.1,1.2.6,1.34,1.34a1.5,1.5,0,0,0,1.42,1.36.88.88,0,0,0,.74.46,1.84,1.84,0,0,0,.9-.36c1.08-.66,2.21-1.36,3.55-.7a.9.9,0,0,1,.34,1.26C1176.15,70.78,1175.35,71.87,1173.76,71.83Z"/><path class="cls-50" d="M1177,99.54c-.38.9-.18,2.29-1.65,2.23-1.1,0-1.12-1-.92-1.79s.18-2.27,1.71-2.11C1177.07,98,1177,98.8,1177,99.54Z"/><path class="cls-50" d="M1176,64.06c-.88,0-1.65-.14-1.59-1.06.08-1.42,1.38-1.32,2.33-1.53.74-.18,1.57,0,1.59.9C1178.38,64,1176.87,63.68,1176,64.06Z"/><path class="cls-50" d="M1174.75,24.37a7.56,7.56,0,0,0,2.87,1.53c.14-.48.28-1,.44-1.44s.36-.78.5-1.1c.36.42.68.84,1,1.26a2.75,2.75,0,0,1,.22.3l.06.08a.42.42,0,0,1,.08.12,1.47,1.47,0,0,1-1.38,1.26,1.49,1.49,0,0,0-1,1.44,1.94,1.94,0,0,1-.48,0c-1.48,0-2.41-1.36-3.73-1.81a.93.93,0,0,1-.26-1.44A1,1,0,0,1,1174.75,24.37Z"/><path class="cls-50" d="M1179.34,95.63a1,1,0,1,1-.94-1.16A1,1,0,0,1,1179.34,95.63Z"/><path class="cls-50" d="M1178.36,58.86c-3.19-1.91-5.44,1.22-8.23,1.32-2,.06-2.77-.16-2.11-2.21.58,0,.88-.26.68-.92-.24-.86-.2-1.69.92-1.79s1.16.82,1.24,1.63c0,.18.24.36.46.68,1.32-1.61,2.55-3.47,4.6-.86.54.7,1.12.14,1.2-.68-.46-.64-2.17-.56-1.38-1.85.56-.88,1.34-.24,1.83.44,1,.6.52,2,1.65,2.71C1179.86,57.72,1179,59.27,1178.36,58.86Z"/><path class="cls-50" d="M1177.3,28.46c.1-.2.2-.44.28-.64a4.15,4.15,0,0,1,1.34.38c.76.54,1.93,1.34,1.42,2.13s-2.07.9-3,.52C1176.13,30.35,1176.87,29.3,1177.3,28.46Z"/><path class="cls-50" d="M1181.39,44.11c0,.94-.08,1.87-1.14,1.89s-1.2-.86-1.2-1.69.14-1.71,1.24-1.67C1181.23,42.67,1181.29,43.49,1181.39,44.11Z"/><path class="cls-50" d="M1181.23,57.16a1,1,0,0,1,1,1.08,1,1,0,0,1-1.1,1,1,1,0,0,1-1-1.1A1,1,0,0,1,1181.23,57.16Z"/><path class="cls-50" d="M1178.62,78.39a2.08,2.08,0,0,1-.24-1.46c.06-.32.06-.48.1-.64.32-1.18.06-2.63,1.44-3.31.44-.22,1.16,0,1.18.44.06,1.63,3,2.69,1,4.72a2.27,2.27,0,0,0-.36.6c-.36.68-.5,1.61-1.55,1.53S1179,79.11,1178.62,78.39Z"/><path class="cls-50" d="M1181.29,29.59c-.8-1-1.36-1.57.7-1.48q1.14,1.73,2.15,3.53a1,1,0,0,1-1,.84,1.11,1.11,0,0,1-1.14-1.18A2.79,2.79,0,0,0,1181.29,29.59Z"/><path class="cls-50" d="M1183.56,51.58a.94.94,0,0,1-1-1,1,1,0,0,1,1-1.06,1,1,0,0,1,1.06,1.06A1,1,0,0,1,1183.56,51.58Z"/><path class="cls-50" d="M1184.24,84.39c-.8.6-1.48,1.18-1.4,2.27-.8,1.34-2.53,1.22-3.69,2.35,1,1,3.75,1.49,2.23,3.25-1.38,1.59-2.81-.76-4.29-1.26a1.52,1.52,0,0,0-.56,1.44c.3,2.09-.28,2.89-2.43,1.93-.76-.32-1,.2-.86.9a1.91,1.91,0,0,1-1,2,1.4,1.4,0,0,0-.68,1.63c.12.9.62,1.93-.66,2.41a1,1,0,0,1-1.34-.7c-.34-1.08-1.1-2.25.14-3.25.42-.34.94-.58,1.18-1.12-1.1-1.3-2.23-2.59.56-3.27.5-.12.54-.72.62-1.18.14-.78.8-1.3,1.34-1,1.77,1.14,2.11.06,2.67-1.3.8-2,3.09-2.35,4.39-3.83.56-1,1.87-1.38,2.21-2.67.18-.68,1-.76,1.57-.28A1,1,0,0,1,1184.24,84.39Z"/><path class="cls-50" d="M1185.86,88.62c-.36.76-.72,1.48-1.12,2.19a1.41,1.41,0,0,1-.28-1.26C1184.64,88.8,1185.24,88.7,1185.86,88.62Z"/><path class="cls-50" d="M1183.36,70.36c0-.3,0-.62,0-.92l.92,0c.78.08,1.38.38,1.32,1.3a.92.92,0,0,1-.9.9C1183.74,71.73,1183.44,71.13,1183.36,70.36Z"/><path class="cls-50" d="M1183.32,69.44c-.3,0-.62.06-.94.06-1,0-2.35,1-3-.3-.78-1.48,1-1.42,1.59-2.09s1.28-1.53.82-2.55c-.74-1.69.38-2.29,1.55-2.89.5-.26,1.08-.66,1.53-.18s-.1,1-.42,1.38c-.8,1.08.22,1.32.82,1.75,1,.78,1.47,1.87-.08,2.23S1183.48,68.26,1183.32,69.44Z"/><path class="cls-50" d="M1184.8,42.69l.92,0c0,.3,0,.62,0,.92-.08.78-.38,1.38-1.3,1.32a.93.93,0,0,1-.9-.9C1183.42,43.07,1184,42.77,1184.8,42.69Z"/><path class="cls-50" d="M1184.92,74.4a1,1,0,0,1,1.1-1c.66,0,1,.44,1,1.1a1,1,0,0,1-1.12,1A1,1,0,0,1,1184.92,74.4Z"/><path class="cls-50" d="M1188.23,45a.75.75,0,0,1-.84.86,1,1,0,0,1-1.06-1c0-.62.26-1.08.94-1S1188.13,44.42,1188.23,45Z"/><path class="cls-50" d="M1187.77,84.17c-.06.18-.12.36-.2.54-.26.68-.54,1.34-.86,2a4.13,4.13,0,0,1-.78-3,.91.91,0,0,1,1.26-.74C1187.87,83.17,1187.93,83.61,1187.77,84.17Z"/><path class="cls-50" d="M1185.88,47.61c0-.66.44-1,1.1-1a1,1,0,0,1,1,1.12,1,1,0,0,1-2.07-.12Z"/><path class="cls-50" d="M1188.49,51.78c-.2,1.26-.32,1.87-.42,2.51s-.36,1.28-1.14,1.3a1,1,0,0,1-1.06-.8c-.16-.64-.3-1.46.42-1.67,1.08-.36,1.48-.56.3-1.38-.3-.2,0-.64.3-.74a1.45,1.45,0,0,1,.92,0A1.07,1.07,0,0,1,1188.49,51.78Z"/><path class="cls-50" d="M1185.54,34.34c.84,1.65,1.59,3.37,2.27,5.1.14.38.28.74.4,1.12a7,7,0,0,0-.32,1.18c-.14,1.14-1.34.84-2.17.92-.08-1.24.6-2.53-.72-3.65-.66-.56.32-1.44.46-2.33-.88.16-1.81-.44-2.47.7-.26.42-3.79-.44-4-.92a.67.67,0,0,1,.42-1c.86-.42,1.3-1.59,2.65-1.12A4.06,4.06,0,0,0,1185.54,34.34Z"/><path class="cls-50" d="M1188.29,69.76a1,1,0,0,1-1-1.1c0-.66.44-1,1.1-1a1,1,0,0,1,1,1.12A1,1,0,0,1,1188.29,69.76Z"/><path class="cls-50" d="M1189,44.13a.7.7,0,0,1,.24-.68c.18.6.36,1.2.52,1.79C1189.22,45.12,1189,44.64,1189,44.13Z"/><path class="cls-50" d="M1189.22,79l.3.06q-.42,1.52-1,3c-.18-.56-.3-1.16-.52-1.65A1.07,1.07,0,0,1,1189.22,79Z"/><path class="cls-50" d="M1189.46,74.56a.91.91,0,0,1,.32,1.26,14.7,14.7,0,0,1-5,4c-.6,0-1-.12-1.22-.64a1,1,0,0,1,.56-1.4,9.73,9.73,0,0,0,3.87-3A1,1,0,0,1,1189.46,74.56Z"/><path class="cls-50" d="M1188.89,56.68c.7-.14,1.16.58,1,1.28-.28,1.08-.78,2.41-2.05,2.17a6.48,6.48,0,0,1-3.17-1.87c-.66-.68-.14-1.46,1.06-1.65C1186.65,57.72,1187.73,56.94,1188.89,56.68Z"/><path class="cls-50" d="M1190.26,52.36a1.24,1.24,0,0,1,1.1.72c.12.78.22,1.57.3,2.37a.92.92,0,0,1-1,.42c-1.26-.14-1.22-1.3-1.42-2.19A1,1,0,0,1,1190.26,52.36Z"/><path class="cls-50" d="M1192,63.36c0,1.16-.1,2.29-.2,3.43-1.77-1-4.09-1.3-4.7-3.75-.2-.74-.52-1.44.26-1.91s1.4-.06,1.83.6A2.82,2.82,0,0,0,1192,63.36Z"/><path class="cls-51" d="M1167.4,38.87a87.07,87.07,0,0,1-12.82,46.07,73,73,0,0,1-19.39,21,60.94,60.94,0,0,1-30.58,11.48c-.46-.22-.92-.44-1.38-.68h0a54.68,54.68,0,0,1-4.82-2.75h0a62.45,62.45,0,0,1-9.93-7.91,60.14,60.14,0,0,1-8.33-10,1.88,1.88,0,0,1-.24-.36c-.28-.42-.56-.84-.82-1.26a61,61,0,0,1-7.65-18.48,64.37,64.37,0,0,1-1.2-6.84,58.48,58.48,0,0,1-.44-7.28,62.7,62.7,0,0,1,.86-10.31c0-.06,0-.1,0-.16a62.08,62.08,0,0,1,2.91-10.88c.18-.5.38-1,.58-1.51.34-.86.7-1.71,1.1-2.55s.86-1.83,1.32-2.73a61.69,61.69,0,0,1,4.52-7.47,58.62,58.62,0,0,1,4.29-5.4q1.82-2.06,3.83-3.95l.54-.5a61.86,61.86,0,0,1,64-12.24,58.4,58.4,0,0,1,8.35,4,85.27,85.27,0,0,1,3.19,10.86,88.8,88.8,0,0,1,2.05,14.75C1167.36,35.4,1167.4,37.14,1167.4,38.87Z"/><path class="cls-31" d="M1172.3,205.34c-1.1.71-2.21,1.39-3.35,2-7.13,4-15,6.32-23.29,1.53l-.56-.32a23,23,0,0,0-14.69-2.54,31.57,31.57,0,0,1,32.65-6.25,29.8,29.8,0,0,1,4.26,2,2,2,0,0,1,.25.14c.32.17.62.36.93.55l.17.1A30.2,30.2,0,0,1,1172.3,205.34Z"/><path class="cls-31" d="M1127.29,246.46c-.59.07-1.19.16-1.78.25a1,1,0,0,1-.12-.18Z"/><path class="cls-31" d="M1134.61,246.19l-7.3.26A39,39,0,0,1,1134.61,246.19Z"/><path class="cls-52" d="M1182.73,235.17a29.15,29.15,0,0,1-1.33,4.89,29.62,29.62,0,0,1-2.06,4.51c-.07.14-.15.28-.23.43-.32.54-.64,1.07-1,1.58h0c-7.55,1.73-11.67,8.27-24.47,5.19a50.5,50.5,0,0,1-9-3.18,28.71,28.71,0,0,0-10-2.39,39,39,0,0,0-7.3.26h0l-1.9.07c-.14-.21-.28-.43-.42-.64a31.12,31.12,0,0,1-3.91-9.43c7.68-1.94,16.11-2.42,23.58.94,8.74,3.93,14.46,4.49,18.89,3.67,5.88-1.07,9.46-4.55,14.68-5.71A15.37,15.37,0,0,1,1182.73,235.17Z"/><path class="cls-31" d="M1134.61,246.19l-7.3.26A39,39,0,0,1,1134.61,246.19Z"/><path class="cls-31" d="M1178.11,246.58a31.51,31.51,0,0,1-26.35,14.21,31.07,31.07,0,0,1-13.73-3.16l-.7-.35h0a27.9,27.9,0,0,1-2.46-1.4h0a31.87,31.87,0,0,1-5.07-4,30.69,30.69,0,0,1-4.25-5.13c.59-.09,1.19-.18,1.78-.25h0l7.3-.26a28.71,28.71,0,0,1,10,2.39,50.5,50.5,0,0,0,9,3.18C1166.45,254.85,1170.57,248.31,1178.11,246.58Z"/><path class="cls-31" d="M1134.61,246.19l-7.3.26A39,39,0,0,1,1134.61,246.19Z"/><path class="cls-53" d="M1177,210.3c-2.22,1.57-4.54,3.18-7,4.62-7.4,4.39-15.67,7.16-24.34,2.14l-.56-.32c-7.68-4.18-15.48-3.16-22.08-.45.21-.47.44-.94.67-1.39a31.48,31.48,0,0,1,2.31-3.81,29.92,29.92,0,0,1,2.19-2.76q.93-1.05,2-2l.27-.25a23,23,0,0,1,14.69,2.54l.56.32c8.27,4.79,16.16,2.5,23.29-1.53,1.14-.65,2.25-1.33,3.35-2,.52.44,1,.91,1.52,1.38s.8.8,1.18,1.22C1175.69,208.7,1176.35,209.48,1177,210.3Z"/><path class="cls-31" d="M1183.3,229.26a31.29,31.29,0,0,1-.39,4.91c-.05.34-.11.67-.18,1a15.37,15.37,0,0,0-4.52.19c-5.22,1.16-8.8,4.64-14.68,5.71-4.43.81-10.15.25-18.89-3.67-7.47-3.36-15.9-2.88-23.58-.94a32.85,32.85,0,0,1-.61-3.49,29.85,29.85,0,0,1-.22-3.71,32,32,0,0,1,.44-5.26s0-.05,0-.08a31.68,31.68,0,0,1,1.49-5.55c.09-.25.19-.52.3-.77.17-.44.36-.87.56-1.3,6.6-2.72,14.4-3.73,22.08.45l.56.32c8.68,5,16.95,2.26,24.34-2.14,2.42-1.43,4.74-3.05,7-4.62.36.47.69.94,1,1.42h0a31.44,31.44,0,0,1,5.32,17.53Z"/><path class="cls-54" d="M1170.08,217.56a44.44,44.44,0,0,1-6.54,23.51,37.28,37.28,0,0,1-9.9,10.7,31.1,31.1,0,0,1-15.6,5.86l-.7-.35h0a27.9,27.9,0,0,1-2.46-1.4h0a31.87,31.87,0,0,1-5.07-4,30.69,30.69,0,0,1-4.25-5.13,1,1,0,0,1-.12-.18c-.14-.21-.28-.43-.42-.64a31.12,31.12,0,0,1-3.91-9.43,32.85,32.85,0,0,1-.61-3.49,29.85,29.85,0,0,1-.22-3.71,32,32,0,0,1,.44-5.26s0-.05,0-.08a31.68,31.68,0,0,1,1.49-5.55c.09-.25.19-.52.3-.77.17-.44.36-.87.56-1.3s.44-.94.67-1.39a31.48,31.48,0,0,1,2.31-3.81,29.92,29.92,0,0,1,2.19-2.76q.93-1.05,2-2l.27-.25a31.57,31.57,0,0,1,32.65-6.25,29.8,29.8,0,0,1,4.26,2,43.52,43.52,0,0,1,1.63,5.54,45.31,45.31,0,0,1,1,7.53C1170.06,215.79,1170.08,216.67,1170.08,217.56Z"/><path class="cls-55" d="M998.07,439,970,454.92A124.82,124.82,0,0,1,998.07,439Z"/><path class="cls-56" d="M1171.75,552.35l-5.82,3.3h0l-121.71,68.92a2.33,2.33,0,0,0-.65.45c-.24.16-.45.33-.65.49a1.1,1.1,0,0,0-.33.29l-.33.33a6,6,0,0,0-.9,1.18,4.8,4.8,0,0,0-.45.77v0a9.44,9.44,0,0,0-.65,1.79,7.92,7.92,0,0,0,.86,5.95,8.24,8.24,0,0,0,7.21,4.2h.16a8.53,8.53,0,0,0,3.91-1.06l63.54-36a8.38,8.38,0,0,1,7.29,4.24,8.24,8.24,0,0,1,.16,7.78l-6.39,3.63a8,8,0,0,0-3.3,3.5,8.24,8.24,0,0,0,.16,7.78,8.36,8.36,0,0,0,7.25,4.2h.12a6.76,6.76,0,0,0,2-.29,8.88,8.88,0,0,0,2-.77l24.32-13.77h0l7.74-4.4c-.69,1.38-1.47,2.77-2.24,4.11-.33.53-.65,1.1-1,1.63-1.38,2.36-2.85,4.68-4.44,6.92l0,0A121.73,121.73,0,0,1,1138,642l-63.58,36a10,10,0,0,0-1.79,1.38,124.69,124.69,0,0,1-26.35,2.93h-.73a125.72,125.72,0,0,1-67.74-19.67h-.08a127.64,127.64,0,0,1-20.28-16.17,125.77,125.77,0,0,1-37.27-75.56,119.44,119.44,0,0,1-.9-14.87A126.25,126.25,0,0,1,927,512.4c.37-1,.77-2.08,1.18-3.1a126,126,0,0,1,14.17-26.07,111.76,111.76,0,0,1,7.25-9.29,9.31,9.31,0,0,0,.69,1.63,8.36,8.36,0,0,0,7.25,4.2h.16a8.53,8.53,0,0,0,3.91-1.06l63.5-36a8.39,8.39,0,0,1,7.33,4.24,8.28,8.28,0,0,1,.2,7.74l-6.44,3.63a8.29,8.29,0,0,0,4.07,15.52h.16a8.45,8.45,0,0,0,3.91-1.1l59.22-33.48h0a116.45,116.45,0,0,1,12.67,6c.86.49,1.71,1,2.57,1.51l-3.42,2L983.73,517.69a7.52,7.52,0,0,0-1.79,1.38,3.54,3.54,0,0,0-.53.61,4.61,4.61,0,0,0-.41.53,5.5,5.5,0,0,0-.61,1.06,3.46,3.46,0,0,0-.37.9,5.77,5.77,0,0,0-.29.9,7.92,7.92,0,0,0,.86,5.95,8.24,8.24,0,0,0,7.21,4.2h.08a8,8,0,0,0,4-1.1l63.46-35.93a8.33,8.33,0,0,1,7.37,4.2,8.24,8.24,0,0,1,.16,7.78l-6.39,3.63a8,8,0,0,0-3.34,3.54,8.3,8.3,0,0,0,7.45,12h.08a8,8,0,0,0,4-1.1L1128,490.28h.08l13.2-7.45a8,8,0,0,0,3.75-4.52c2,2.44,3.75,4.93,5.5,7.49v0q3,4.46,5.62,9.16a8.14,8.14,0,0,0-7.9.12l-12.59,7.13L1014,571.13a6.15,6.15,0,0,0-1.06.73,2.6,2.6,0,0,0-.61.53,3.52,3.52,0,0,0-.53.57,4.45,4.45,0,0,0-.53.69,5.5,5.5,0,0,0-.61,1.06,8.19,8.19,0,0,0,.2,7.7,8.31,8.31,0,0,0,7.25,4.24h.08a8.09,8.09,0,0,0,4-1.1l63.42-35.93a8.24,8.24,0,0,1,7.58,12l-6.39,3.63a8,8,0,0,0-3.34,3.54,8.16,8.16,0,0,0,.2,7.74,8.24,8.24,0,0,0,7.21,4.2h.16a8.4,8.4,0,0,0,3.91-1.06l63.38-35.93h.08l12.06-6.8A120.77,120.77,0,0,1,1171.75,552.35Z"/><path class="cls-57" d="M1032.69,454.72a8.27,8.27,0,0,0-.2-7.74,8.39,8.39,0,0,0-7.33-4.24l22.89-13a120.61,120.61,0,0,1,23.79,2.73Z"/><path class="cls-57" d="M1166.82,520.79a8.34,8.34,0,0,0-3.46,1.06l-70.22,39.75a8.24,8.24,0,0,0-7.58-12l70.83-40.08a8.19,8.19,0,0,0,4.11-5.91q1.47,3.3,2.81,6.72C1164.62,513.78,1165.8,517.24,1166.82,520.79Z"/><path class="cls-57" d="M1135.54,467.51a8.07,8.07,0,0,0-2.44.9l-70.22,39.75a8.24,8.24,0,0,0-.16-7.78,8.34,8.34,0,0,0-7.37-4.2l68.84-38.94a120.17,120.17,0,0,1,9.69,8.55C1134.44,466.37,1135,466.94,1135.54,467.51Z"/><path class="cls-57" d="M1170.77,572c-.12,1.26-.29,2.49-.49,3.71a114.46,114.46,0,0,1-3.22,14.58v0L1123.36,615a8.24,8.24,0,0,0-.16-7.78,8.38,8.38,0,0,0-7.29-4.24Z"/><path class="cls-58" d="M1067.78,391.71"/><path class="cls-57" d="M1106.33,445.31a8.36,8.36,0,0,1-4.24,7L980.39,521.28l-12.54,7.09a8.22,8.22,0,0,1-4.07,1.06,8.27,8.27,0,0,1-4.11-15.48l70.83-40.08a8.45,8.45,0,0,0,3.91-1.1l59.22-33.48h0A116.44,116.44,0,0,1,1106.33,445.31Z"/><path class="cls-57" d="M994,582.86a8.29,8.29,0,0,1-4.09-15.51l134.28-76a8.29,8.29,0,0,1,8.17,14.43l-134.28,76A8.23,8.23,0,0,1,994,582.86Z"/><path class="cls-57" d="M1024.24,636.3a8.29,8.29,0,0,1-4.09-15.51l134.28-76a8.29,8.29,0,1,1,8.17,14.43l-134.28,76A8.23,8.23,0,0,1,1024.24,636.3Z"/><path class="cls-58" d="M1149.55,627.59"/><path class="cls-57" d="M1154,620.66c-1.39,2.36-2.85,4.68-4.44,6.92l0,0A121.74,121.74,0,0,1,1138,642c-1.14,1.22-2.32,2.44-3.5,3.63l-57.88,32.79c-1.3.33-2.65.65-4,.94a124.71,124.71,0,0,1-26.35,2.93,8.15,8.15,0,0,1,4.11-8.06l70.79-40.08,24.24-13.73a8,8,0,0,1,4-1.1h0A8,8,0,0,1,1154,620.66Z"/><line class="cls-1" x1="948.62" y1="494.42" x2="1025.25" y2="451.05"/><path class="cls-57" d="M1025.15,442.75l-63.5,36a8.54,8.54,0,0,1-3.91,1.06l63.42-35.93A8,8,0,0,1,1025.15,442.75Z"/><path class="cls-57" d="M1032.69,454.72a8,8,0,0,1-3.34,3.54l-6.43,3.63a8.21,8.21,0,0,1,3.34-3.54Z"/><line class="cls-1" x1="978.87" y1="547.86" x2="1055.5" y2="504.48"/><path class="cls-57" d="M1055.34,496.19l-63.46,35.93a8,8,0,0,1-4,1.1l63.54-35.93A8.45,8.45,0,0,1,1055.34,496.19Z"/><path class="cls-57" d="M1062.87,508.16a8.12,8.12,0,0,1-3.3,3.54l-6.44,3.63a8,8,0,0,1,3.34-3.54Z"/><line class="cls-1" x1="1009.11" y1="601.29" x2="1085.74" y2="557.91"/><path class="cls-57" d="M1085.56,549.63l-63.42,35.93a8.09,8.09,0,0,1-4,1.1l63.5-36A8.54,8.54,0,0,1,1085.56,549.63Z"/><path class="cls-57" d="M1093.13,561.6a8.11,8.11,0,0,1-3.3,3.54l-6.44,3.63a8,8,0,0,1,3.34-3.54Z"/><line class="cls-1" x1="1039.35" y1="654.72" x2="1115.98" y2="611.34"/><path class="cls-57" d="M1115.9,603l-63.54,36a8.53,8.53,0,0,1-3.91,1.06l63.46-35.93A7.87,7.87,0,0,1,1115.9,603Z"/><path class="cls-57" d="M1123.36,615a8,8,0,0,1-3.3,3.5l-6.39,3.63a8,8,0,0,1,3.3-3.5Z"/><path class="cls-55" d="M1138,642c-1.14,1.22-2.32,2.44-3.5,3.63a125.72,125.72,0,0,1-57.88,32.79c-1.3.33-2.65.65-4,.94a10,10,0,0,1,1.79-1.39Z"/><line class="cls-1" x1="1182.56" y1="555.77" x2="1048.28" y2="631.77"/><path class="cls-55" d="M1171.83,556c0,2,0,4-.12,5.91-.16,3.38-.49,6.76-.94,10.06l-54.87,31-63.54,36a8.53,8.53,0,0,1-3.91,1.06h-.16a8.28,8.28,0,0,1-4.11-15.48l127.57-72.22C1171.83,553.58,1171.83,554.8,1171.83,556Z"/><line class="cls-1" x1="1152.32" y1="502.34" x2="1018.04" y2="578.34"/><path class="cls-55" d="M1160.51,503.64a8.19,8.19,0,0,1-4.11,5.91l-70.83,40.08-63.42,35.93a8.09,8.09,0,0,1-4,1.1h-.08a8.3,8.3,0,0,1-4.11-15.52l134.29-76a8.14,8.14,0,0,1,7.9-.12C1157.69,497.81,1159.16,500.71,1160.51,503.64Z"/><line class="cls-1" x1="1122.08" y1="448.91" x2="987.8" y2="524.91"/><path class="cls-55" d="M1124.17,457.25l-68.84,38.94-63.46,35.93a8,8,0,0,1-4,1.1h-.08a8.29,8.29,0,0,1-4.07-15.52l125.17-70.87c1.26.69,2.49,1.43,3.71,2.2.24.12.45.29.69.41,1.22.77,2.4,1.55,3.58,2.44C1119.37,453.5,1121.81,455.33,1124.17,457.25Z"/><line class="cls-1" x1="1091.83" y1="395.48" x2="957.55" y2="471.48"/><path class="cls-55" d="M1048,429.79l-22.89,13-63.5,36a8.54,8.54,0,0,1-3.91,1.06h-.16a8.36,8.36,0,0,1-7.25-4.2,9.3,9.3,0,0,1-.69-1.63c.49-.57,1-1.18,1.51-1.75q3.73-4.22,7.82-8.06a112.4,112.4,0,0,1,11-9.21L998.07,439l.12,0a128.08,128.08,0,0,1,47.37-9.21C1046.37,429.75,1047.23,429.75,1048,429.79Z"/><line class="cls-1" x1="1163.11" y1="602.09" x2="1121.04" y2="625.88"/><path class="cls-55" d="M1167.06,590.32c-.81,3.05-1.75,6-2.85,9-.33.94-.69,1.83-1.1,2.77v0a107,107,0,0,1-5.87,12.83l-32.1,18.17a8.36,8.36,0,0,1-11.32-3.14,8.24,8.24,0,0,1-.16-7.78,8,8,0,0,1,3.3-3.5l6.4-3.63Z"/><line class="cls-1" x1="1167.44" y1="529.06" x2="1090.81" y2="572.43"/><path class="cls-55" d="M1170.4,536.88v0l-75.52,42.73a8.12,8.12,0,0,1-4.07,1.06,8.25,8.25,0,0,1-7.21-4.2,8.16,8.16,0,0,1-.2-7.74,8,8,0,0,1,3.34-3.54l6.4-3.63,70.22-39.75a8.34,8.34,0,0,1,3.46-1.06c.24.73.45,1.51.65,2.28A127.87,127.87,0,0,1,1170.4,536.88Z"/><line class="cls-1" x1="1137.2" y1="475.63" x2="1060.57" y2="519"/><path class="cls-55" d="M1145,478.3a8,8,0,0,1-3.75,4.52l-76.62,43.38a8.29,8.29,0,0,1-11.53-10.88,8,8,0,0,1,3.34-3.54l6.39-3.63,70.22-39.75a8.07,8.07,0,0,1,2.44-.9A107.71,107.71,0,0,1,1145,478.3Z"/><path class="cls-55" d="M1093.62,439.28l-59.22,33.48a8.28,8.28,0,0,1-8.15-14.42l6.43-3.63,39.14-22.2h0c3.91.81,7.74,1.83,11.49,3q3.79,1.16,7.45,2.57C1091.75,438.47,1092.69,438.83,1093.62,439.28Z"/><path class="cls-59" d="M1119,509.18c0,35.15-9.69,67.66-26.19,94.13a149.26,149.26,0,0,1-39.63,42.85,124.52,124.52,0,0,1-62.48,23.46c-.94-.45-1.87-.9-2.81-1.38h-.08a111.73,111.73,0,0,1-9.86-5.62h-.08a127.61,127.61,0,0,1-20.28-16.17,122.89,122.89,0,0,1-17-20.53,3.85,3.85,0,0,1-.49-.73c-.57-.86-1.14-1.71-1.67-2.57a124.61,124.61,0,0,1-15.64-37.76,131.54,131.54,0,0,1-2.44-14,119.51,119.51,0,0,1-.9-14.87A128.12,128.12,0,0,1,921.2,535c0-.12,0-.2,0-.33a126.86,126.86,0,0,1,5.95-22.24c.37-1,.77-2.08,1.18-3.1.69-1.75,1.43-3.5,2.24-5.21.86-1.87,1.75-3.75,2.69-5.58a126.05,126.05,0,0,1,9.25-15.27,119.79,119.79,0,0,1,8.76-11q3.73-4.22,7.82-8.06c.37-.33.73-.69,1.1-1a126.42,126.42,0,0,1,130.75-25,119.34,119.34,0,0,1,17.07,8.15,174.25,174.25,0,0,1,6.52,22.2,181.45,181.45,0,0,1,4.2,30.14C1119,502.09,1119,505.64,1119,509.18Z"/><path class="cls-31" d="M1171,387.12c-1.69.2-3.41.47-5.11.73a2.76,2.76,0,0,1-.35-.53Z"/><path class="cls-60" d="M1329.51,317.62c-14,10-47,23.26-86.58,34.06-36.4,10-69.12,15.27-87.42,14.89a76.48,76.48,0,0,1-2.34-8.14c-.67-2.89-1.2-5.87-1.61-8.87-.06-.38-.09-.76-.15-1.14s-.12-.85-.15-1.28a83,83,0,0,1-.5-9.37,91.81,91.81,0,0,1,1.25-15.09c0-.09,0-.15,0-.23a90.91,90.91,0,0,1,4.26-15.94c.26-.73.56-1.49.85-2.22.5-1.26,1-2.51,1.61-3.74s1.25-2.69,1.93-4a90.33,90.33,0,0,1,6.63-10.95,85.84,85.84,0,0,1,6.28-7.91q2.67-3,5.6-5.78c.26-.23.53-.5.79-.73a90.59,90.59,0,0,1,93.7-17.92,85.52,85.52,0,0,1,12.23,5.84,5.87,5.87,0,0,1,.73.41c.9.5,1.78,1,2.66,1.58.18.09.32.2.5.29a86.67,86.67,0,0,1,10.39,7.76c1.49,1.25,2.95,2.6,4.35,4,1.17,1.14,2.31,2.31,3.39,3.5,2,2.16,3.88,4.41,5.63,6.74,1,1.34,2,2.69,2.92,4.09v0a88.08,88.08,0,0,1,7.76,14.22h0l.79,1.93c.2.47.41.93.58,1.43a89.62,89.62,0,0,1,3,9.11C1329,315.28,1329.25,316.45,1329.51,317.62Z"/><path class="cls-60" d="M1331.76,337.76a89.79,89.79,0,0,1-1.11,14.1c-.15,1-.32,1.93-.53,2.86a83.63,83.63,0,0,1-3.82,14,85,85,0,0,1-5.92,12.93c-.2.41-.44.82-.67,1.23-.91,1.55-1.84,3.07-2.83,4.52v0a90.43,90.43,0,0,1-75.6,40.78,89.15,89.15,0,0,1-39.41-9.08c-.67-.32-1.34-.64-2-1h-.06a80.07,80.07,0,0,1-7.06-4h-.06a73.57,73.57,0,0,1-6.07-4.32,83,83,0,0,1-8.46-7.27,88.06,88.06,0,0,1-12.2-14.71,2.76,2.76,0,0,1-.35-.53c-.41-.61-.82-1.23-1.2-1.84-1.23-2-2.36-4-3.44-6-.38-.79-.79-1.61-1.17-2.39a82.35,82.35,0,0,1-4.26-10.51c18.3.38,51-4.93,87.42-14.89,39.58-10.8,72.59-24.11,86.58-34.06a87.77,87.77,0,0,1,2,13.37C1331.67,333.21,1331.76,335.48,1331.76,337.76Z"/><circle class="cls-61" cx="1206.25" cy="282.3" r="11.68" transform="translate(-9.93 46.4) rotate(-2.19)"/><circle class="cls-61" cx="1241.27" cy="320.25" r="21.76" transform="translate(-11.35 47.77) rotate(-2.19)"/><path class="cls-61" d="M1198.8,389.45a21.69,21.69,0,0,1-12.2,20.37,83,83,0,0,1-8.46-7.27,88.06,88.06,0,0,1-12.2-14.71,2.76,2.76,0,0,1-.35-.53c-.41-.61-.82-1.23-1.2-1.84a84,84,0,0,1-4.61-8.41,21.76,21.76,0,0,1,39,12.38Z"/><circle class="cls-61" cx="1314.25" cy="372.79" r="8.19" transform="matrix(1, -0.04, 0.04, 1, -13.31, 50.6)"/><circle class="cls-61" cx="1296.73" cy="317.33" r="5.5" transform="translate(-11.2 49.89) rotate(-2.19)"/><path class="cls-61" d="M1331.5,331c-19.24,11.21-50.47,23.56-86.66,33.42-32.2,8.79-62,13.92-83.89,15.06-20.67,1.05-34.21-1.46-36-7.82s8.23-15,25.83-24.4l.47-.12c0,.44.09.85.15,1.28s.09.76.15,1.14c-8,4.87-12.23,9.14-11.38,12.26s6.36,4.58,15.32,4.76c18.3.38,51-4.93,87.42-14.89,39.58-10.8,72.59-24.11,86.58-34.06,5.17-3.71,7.73-7,7.06-9.46s-4.79-4.06-11.5-4.55l-.79-1.93c15.82,0,25.95,2.6,27.44,8S1345.57,322.81,1331.5,331Z"/><path class="cls-62" d="M1294.79,304.19A127.51,127.51,0,0,1,1276,371.65a107,107,0,0,1-28.4,30.71,89.23,89.23,0,0,1-44.78,16.81c-.67-.32-1.34-.64-2-1h-.06a80.07,80.07,0,0,1-7.06-4h-.06a91.45,91.45,0,0,1-14.54-11.59,88.06,88.06,0,0,1-12.2-14.71,2.76,2.76,0,0,1-.35-.53c-.41-.61-.82-1.23-1.2-1.84a89.3,89.3,0,0,1-11.21-27.06,94.27,94.27,0,0,1-1.75-10,85.64,85.64,0,0,1-.64-10.65,91.81,91.81,0,0,1,1.25-15.09c0-.09,0-.15,0-.23a90.91,90.91,0,0,1,4.26-15.94c.26-.73.56-1.49.85-2.22.5-1.26,1-2.51,1.61-3.74s1.25-2.69,1.93-4a90.33,90.33,0,0,1,6.63-10.95,85.84,85.84,0,0,1,6.28-7.91q2.67-3,5.6-5.78c.26-.23.53-.5.79-.73a90.59,90.59,0,0,1,93.7-17.92,85.52,85.52,0,0,1,12.23,5.84,124.87,124.87,0,0,1,4.67,15.91,130,130,0,0,1,3,21.6C1294.74,299.11,1294.79,301.65,1294.79,304.19Z"/></g></g></g></svg>