<svg xmlns="http://www.w3.org/2000/svg" viewBox="0 0 1890.74 204.27"><defs><style>.cls-1{isolation:isolate;}.cls-2{fill:#ffc67a;}.cls-3{mix-blend-mode:lighten;}.cls-4{fill:#d13135;}</style></defs><title>land</title><g class="cls-1"><g id="Layer_2" data-name="Layer 2"><g id="Welcome_Screen" data-name="Welcome Screen"><path class="cls-2" d="M1890.74,136.61v40c0,15.22-11.1,27.67-24.68,27.67H1128.68c-13,0-25.32-7.53-31.82-20.19-18.39-35.78-79.25-62-151.49-62s-133.1,26.27-151.49,62c-6.5,12.66-18.78,20.19-31.82,20.19H24.69C11.11,204.27,0,191.82,0,176.6v-40c0-15.22,11.11-27.67,24.69-27.67H1866.06C1879.64,108.94,1890.74,121.39,1890.74,136.61Z"/><g class="cls-3"><path class="cls-4" d="M803.87,76l50,2,163-37,54,41h47l20-11h107l22-25h62l127-9,55-37,140,35,98,16,49.5,41.5,58.86,2.12,15,18.51,6.24,4.33s-332.38-11.36-426.6-8.46c-65,2-160,2-160,2l-185,10-79-6-59.43.75h0l-49.6.63h0l-51.94.66-118,10-222-10-120,4-29-4h-76l-92.5.5-85.5-8.5-81.5,14.5-34-9S14.65,110,23.82,104c20.66-13.55,56-34.85,67.05-30,16,7,48-3,48-3s0-1,4-1,89-5,89-5,20,31,24,28,73-28,73-28,43-34,46-37,79-4,79-4c64,39,67,39,67,39s0,1,14-3a139.89,139.89,0,0,0,22-8l20,23,31,10,20-3,51.42-23.16L796.87,44"/></g></g></g></g></svg>