<svg xmlns="http://www.w3.org/2000/svg" xmlns:xlink="http://www.w3.org/1999/xlink" viewBox="0 0 1239.96 686.64"><defs><style>.cls-1,.cls-15,.cls-21,.cls-22{fill:none;}.cls-2{stroke:#cd163f;stroke-width:2px;opacity:0.85;}.cls-15,.cls-2,.cls-21,.cls-22,.cls-31,.cls-34,.cls-8,.cls-9{stroke-miterlimit:10;}.cls-3{font-size:112.4px;font-family:RAINFALL-Black, RAINFALL;}.cls-27,.cls-3{fill:#cd163f;}.cls-4{font-family:MyriadPro-Regular, Myriad Pro;}.cls-5{clip-path:url(#clip-path);}.cls-6{fill:#fcb977;}.cls-7{fill:#c9c9c9;}.cls-8{fill:#ffba76;stroke:#fcb977;stroke-width:1.56px;}.cls-32,.cls-9{fill:#fff;}.cls-9{stroke:#ffef81;stroke-width:5.2px;}.cls-10{fill:#686868;}.cls-11{fill:#8de4ff;}.cls-12{fill:#e5e5e5;}.cls-13{fill:#999;}.cls-14{fill:#afafaf;}.cls-15{stroke:#bcbcbc;stroke-width:6.36px;}.cls-15,.cls-21,.cls-22{stroke-linecap:round;}.cls-16{fill:#0ae5bb;}.cls-17{fill:#00ffd2;}.cls-18{fill:#ee3623;}.cls-19{fill:#f2ee63;}.cls-20{fill:#a8e500;}.cls-21{stroke:#999;stroke-width:10.43px;}.cls-22{stroke:#657eea;stroke-width:9.8px;}.cls-23{fill:#e82e2e;}.cls-24{fill:#b7b7b7;}.cls-25{fill:#1e1e1e;}.cls-26{fill:#73737b;}.cls-28{fill:#4d4d4d;}.cls-29{fill:#fcd0d0;}.cls-30{fill:#ff9f9f;}.cls-31,.cls-34{fill:#ffb361;stroke:#ffb361;}.cls-31{stroke-width:0.66px;}.cls-33{fill:#1e1a1a;}.cls-34{stroke-width:0.7px;}.cls-35{opacity:0.36;}.cls-36{fill:#ddd;}</style><clipPath id="clip-path"><rect class="cls-1" x="35.61" y="1" width="882.78" height="608" rx="77.57" ry="77.57"/></clipPath></defs><title>levelCompleteScreen</title><g id="Layer_2" data-name="Layer 2"><g id="Welcome_Screen" data-name="Welcome Screen"><rect class="cls-2" x="31.61" y="1" width="1207.35" height="608" rx="77.57" ry="77.57"/><text class="cls-3" transform="translate(130.49 175.04)">level complete<tspan class="cls-4" x="960.03" y="0">!</tspan></text><g class="cls-5"><path class="cls-6" d="M389.91,624.21a.87.87,0,0,0,0-1.73.87.87,0,0,0,0,1.73Z"/><path class="cls-7" d="M130.51,208.82a7.23,7.23,0,0,1-.24,1.85,7.47,7.47,0,0,1-3,4.3,7.46,7.46,0,1,1,3.24-6.15Z"/><path class="cls-8" d="M209.58,599.46s12.36,40,1.45,56-18.18,26.17-18.18,30.17l-.22.12-.22-.11c0-4-7.27-14.18-18.18-30.18s1.45-56,1.45-56Z"/><path class="cls-8" d="M307.53,560.84s27.13,31.89,23.41,50.89-6.4,31.21-4.82,34.89l-.15.2-.24,0c-1.58-3.68-12.27-10.17-28.6-20.57s-20.73-52-20.73-52Z"/><path class="cls-8" d="M78.28,560.84s-27.13,31.89-23.41,50.89,6.4,31.21,4.82,34.89l.15.2.24,0c1.58-3.68,12.27-10.17,28.6-20.57s20.73-52,20.73-52Z"/><path class="cls-8" d="M209.58,599.46s12.36,40,1.45,56-18.18,26.17-18.18,30.17l-.22.12-.22-.11c0-4-7.27-14.18-18.18-30.18s1.45-56,1.45-56Z"/><path class="cls-9" d="M303.27,562.22S323.5,586,320.73,600.17s-4.77,23.27-3.59,26l-.11.15h-.18c-1.18-2.74-9.15-7.58-21.33-15.34s-15.46-38.8-15.46-38.8Z"/><path class="cls-8" d="M78.28,560.84s-27.13,31.89-23.41,50.89,6.4,31.21,4.82,34.89l.15.2.24,0c1.58-3.68,12.27-10.17,28.6-20.57s20.73-52,20.73-52Z"/><path class="cls-9" d="M83.22,562.48s-18.5,21.75-16,34.7,4.36,21.29,3.29,23.79l.1.14h.17c1.07-2.51,8.37-6.93,19.51-14s14.14-35.49,14.14-35.49Z"/><path class="cls-9" d="M204.76,600.57s8.85,28.62,1,40.06-13,18.72-13,21.58l-.15.09-.15-.08c0-2.86-5.2-10.15-13-21.59s1-40.06,1-40.06Z"/><path class="cls-10" d="M119.9,361.25"/><path class="cls-11" d="M245.23,326.32a9.28,9.28,0,0,0-1.8-.25h.47a7.75,7.75,0,0,1,1.47.14l.5-.42a11.8,11.8,0,0,1,1,.9h0l.4.4A9.4,9.4,0,0,0,245.23,326.32Z"/><path class="cls-11" d="M249.22,345.62c-.09.14-.18.29-.28.43a8,8,0,0,1-5,1.85h-.42A9.61,9.61,0,0,0,249.22,345.62Z"/><rect class="cls-12" x="95.27" y="305.03" width="33.2" height="43.95" rx="4.45" ry="4.45"/><path class="cls-13" d="M120.56,564.85c-4.74,11.28-20.14,15.57-33.43,7.15s-16.45-24.55-8.23-33.63,22.16-10.08,32-3.92A24.89,24.89,0,0,1,120.56,564.85Z"/><path class="cls-13" d="M306.6,538.38c8.22,9.08,5.06,25.22-8.23,33.63s-28.69,4.13-33.43-7.15a24.89,24.89,0,0,1,9.67-30.4C284.44,528.29,298.37,529.24,306.6,538.38Z"/><path class="cls-13" d="M216.23,578.8c2,12.08-8.66,46.5-23.82,46.47s-25.74-34.47-23.74-46.55a24,24,0,0,1,47.56.08Z"/><path class="cls-14" d="M340.34,513.24a189.53,189.53,0,0,1-293.43,0c-3.74-4.54-4.67-10-2.28-11.75L92.8,464.66c2.39-1.79,6.13-.78,8.45,2a119.27,119.27,0,0,0,184.75,0c2.32-2.82,6.07-3.82,8.45-2l48.17,36.83C345,503.27,344.08,508.7,340.34,513.24Z"/><path class="cls-15" d="M335.72,504.67c-8.25,20.36-78.63,86.79-174.25,68.95"/><path class="cls-16" d="M382.63,467.68C333.46,523.21,263.55,551,193.63,551s-139.83-27.77-189-83.31c-4.82-5.44-6-11.94-2.94-14.07,20.68-14.7,41.37-15.54,62.05-30.25,3.08-2.14,7.89-.94,10.89,2.44,16.93,19.12,37.76,19.15,60.36,27.81a164.82,164.82,0,0,0,123-2.34c20.38-8.74,39.13-8,54.61-25.48,3-3.37,7.81-4.58,10.89-2.44,20.68,14.7,41.37,15.54,62.05,30.25C388.64,455.74,387.44,462.24,382.63,467.68Z"/><path class="cls-17" d="M101.28,534.17A244.34,244.34,0,0,1,4.63,467.68c-4.82-5.44-6-11.94-2.94-14.07,20.68-14.7,41.37-15.54,62.05-30.25,3.08-2.14,7.89-.94,10.89,2.44,16.93,19.12,37.76,19.15,60.36,27.81Z"/><path class="cls-17" d="M258,451.27c20.38-8.74,39.13-8,54.61-25.48,3-3.37,7.81-4.58,10.89-2.44,20.68,14.7,41.37,15.54,62.05,30.25,3.07,2.13,1.88,8.64-2.94,14.07a244.17,244.17,0,0,1-94.18,65.54Z"/><path class="cls-18" d="M226.27,514.07a23.69,23.69,0,0,0-10.49,2.69c-1.07.55-1.71.1-1.47-1.1a58.55,58.55,0,0,0,.75-17.21c-.13-1.19.48-1.68,1.41-1.2a20.59,20.59,0,0,0,9.12,2.34A1.37,1.37,0,0,1,227.1,501a39.67,39.67,0,0,0,.75,11.72C228,513.5,227.34,514.06,226.27,514.07Z"/><path class="cls-19" d="M162.37,498.2a28.52,28.52,0,0,0,7.26-1.86c2.87-1.22,4.53-.09,4,3.18a70.9,70.9,0,0,0-.65,14.81c.23,3.21-1.36,4.46-3.83,3.41a24.78,24.78,0,0,0-6.31-1.62c-2.46-.29-4.2-1.81-4.09-4a48,48,0,0,0-.65-10.08C157.7,500,159.52,498.53,162.37,498.2Z"/><path class="cls-20" d="M203.22,516.88a36,36,0,0,0-16,4.09c-1.63.84-2.6.16-2.24-1.68a89.06,89.06,0,0,0,1.14-26.18c-.2-1.8.73-2.55,2.14-1.82a31.31,31.31,0,0,0,13.87,3.55,2.08,2.08,0,0,1,2.31,2.15,60.31,60.31,0,0,0,1.14,17.82C205.91,516,204.84,516.87,203.22,516.88Z"/><path class="cls-21" d="M178,431.53"/><path class="cls-21" d="M308.29,417.66"/><path class="cls-22" d="M374.62,461.8c-.35-.09-8.47,10.65-28,26.54-19.35,15.44-50.11,36-92.07,45.22"/><path class="cls-23" d="M247.48,322.7c.05.35.09.73.14,1.1l1-.9.13-.12A7.8,7.8,0,0,0,247.48,322.7Z"/><path class="cls-14" d="M338.08,417.29c4.64-1,6.9,6.1,8.36,9.8s-.75,8.24-5,10C298.34,454.71,245.69,469.59,193,469.2S87.75,453.14,44.62,435.49c-4.22-1.73-6.44-6.26-5-10a17.49,17.49,0,0,1,5.4-6.8s63.94,11.19,146,11.7C237,430.71,288.76,427.78,338.08,417.29Z"/><path class="cls-21" d="M326.93,432.61s-59.53,31.43-153.14,27"/><rect class="cls-24" x="87.56" y="478.08" width="19.48" height="25.79" rx="2.61" ry="2.61" transform="translate(221.46 6.09) rotate(25.57)"/><rect class="cls-24" x="93.43" y="319.68" width="11.07" height="13.91" rx="1.48" ry="1.48"/><path class="cls-25" d="M286.83,335.66a88.85,88.85,0,0,1-25.17,61.92A93.34,93.34,0,0,1,194.27,426c-51.11,0-92.55-40.45-92.55-90.34s41.44-90.34,92.55-90.34a93.06,93.06,0,0,1,77.52,41A88.37,88.37,0,0,1,286.83,335.66Z"/><path class="cls-26" d="M147.26,216.35a18.89,18.89,0,0,1-2.4,5.68,16,16,0,0,0-1.51-2.12,18.3,18.3,0,0,0-1.86-1.94c-.38-.34-.78-.68-1.21-1a13.86,13.86,0,0,0,.29-6.17,27.33,27.33,0,0,1,4.62,3.4,22.86,22.86,0,0,1,1.88,1.92Z"/><path class="cls-26" d="M138.93,209.88a33.36,33.36,0,0,1-1,5.5,25.49,25.49,0,0,0-2.38-1.28c-.75-.36-1.56-.7-2.41-1s-1.45-.53-2.23-.78a7.47,7.47,0,0,0,1.75-4.95c1.39.44,2.68.93,3.87,1.44.68.29,1.33.59,1.94.9Z"/><path class="cls-26" d="M131.46,207l1.25.37a7.47,7.47,0,0,1-1.75,4.95l-1-.29a2.62,2.62,0,1,1,1.46-5Z"/><path class="cls-26" d="M140.57,210.79a13.86,13.86,0,0,1-.29,6.17,21.43,21.43,0,0,0-2.31-1.58,33.36,33.36,0,0,0,1-5.5Q139.78,210.32,140.57,210.79Z"/><path class="cls-26" d="M151.79,225.34c.06.31.11.61.14.88a12.81,12.81,0,0,1,.14,2.72c0,.07,0,.13,0,.19a2.63,2.63,0,0,1-1.92,2.07l-.21.05a2.94,2.94,0,0,1-.66,0,2.56,2.56,0,0,1-2-1.1,2.33,2.33,0,0,1-.4-1.42v-.06a11.21,11.21,0,0,0-.79-4.36,13.76,13.76,0,0,0-1.28-2.58,18,18,0,0,0,2.47-5.42,19.41,19.41,0,0,1,1.91,2.52A18.57,18.57,0,0,1,151.79,225.34Z"/><path class="cls-10" d="M293.46,374.76"/><rect class="cls-24" x="95" y="302.7" width="22.1" height="29.25" rx="2.96" ry="2.96"/><rect class="cls-24" x="85.14" y="309.02" width="12.55" height="15.78" rx="1.68" ry="1.68"/><path class="cls-27" d="M258.54,283.49c-18.3-24.93-62.34-21-85.43-8.28s-30.74,19-38.89,17.93c-4.59-.58.64,3.81,7.84,5.51s-1,2.06-5.08,1.48c-2.54-.35,3.14,3.84,10.76,3.53,7.46-.29-28.18,50.73,18.69,94.93,25.44,24,82.2,14.46,83-3.63.1-2.28,1.85-4.07,1.85-6.36,0-.42,0-.83,0-1.23,0-.18,0-.35,0-.52l3.74,0a17.5,17.5,0,0,0-1-5.08,10.12,10.12,0,0,0-.38-.94,10.41,10.41,0,0,0-6.11-5.58h0a16.12,16.12,0,0,0-3.58-.87h0l-.49-.06h0c-12.78-1.45-32.4,7.21-39.11,2.75h0c-1.51-1-2.36-2.67-2.34-5.26a14.26,14.26,0,0,1,.72-4.11,31.27,31.27,0,0,1,2.36-5.45c.61-1.13,1.3-2.31,2.06-3.51.34-.54.7-1.09,1.07-1.65l.56-.83A161,161,0,0,1,222.8,339l1.21-1.3q1.43-1.53,2.89-3l.58-.6q1.16-1.21,2.35-2.4c3.42-3.47,6.91-6.87,10.29-10.07,1.76-1.67,3.5-3.29,5.18-4.84l.06-.05,2.86-2.62,2.25-2,1.71-1.53c4.23-3.77,7.73-6.79,10-8.69l.15-.13a8.79,8.79,0,0,0-1.66-.16h-.53c-4.08.26-7.54,3.37-9,7.73a4.17,4.17,0,0,0-1.68-.85,3.88,3.88,0,0,0-1-.12,4.21,4.21,0,0,0-2.65,1,13.48,13.48,0,0,1,12.63-9.78,12.1,12.1,0,0,1,2,.16c.89.44.4,5.31,1.19,5.92l1.91-1.61s1.38-4.63,1.42-5.18C265.11,296,265.69,293.22,258.54,283.49Zm-42.7,52.38h0a15.81,15.81,0,0,1-3.72.45,15.61,15.61,0,0,1-4-.52A17.4,17.4,0,0,1,200.7,324a5.84,5.84,0,0,0,4.27.5,5.83,5.83,0,0,0,2.16-1.09,14.62,14.62,0,0,0,9.45,12.28C216.32,335.75,216.08,335.82,215.84,335.88Zm-7.67-20.5a5.89,5.89,0,0,0-4.72-2.39,6.17,6.17,0,0,0-.79.05,17.41,17.41,0,0,1,9.87-8.15,15.35,15.35,0,0,1,6.17,1.45l.41.2.13.07A13.78,13.78,0,0,0,208.17,315.37Z"/><path class="cls-28" d="M222.94,389.46S220,401,237.65,398.9C259,396.32,250,386.2,250,386.2Z"/><path class="cls-27" d="M245.9,345.9s-2.86-2.08,4-5.8c10.91-5.93,20.64,30.8-.85,39.14-14.22,5.52-19.48-22-19.48-22Z"/><path class="cls-29" d="M240.81,361.89a2.89,2.89,0,0,1,3.59,2.78c0,4.25,2.32,11.25,14.6,11.25,15.26,0-37.46,22.23-55.48,5.88-4.32-3.92-3.32-15.28-3.28-21.07a2.9,2.9,0,0,1,3.57-2.8C212.31,360,229.82,364.58,240.81,361.89Z"/><path class="cls-30" d="M201.71,366.41c11.14,16.91,45.22-3.48,46.72,15.12.55,9.15-18.49,4.45-30.21,4.43C200.54,385.94,195.89,362.25,201.71,366.41Z"/><path class="cls-31" d="M201.28,354.52a.44.44,0,0,0-.87,0c-.45,5-4.84,17.39.89,27.74,7.25,13.08,53.32,17.87,59.94-5.17a.44.44,0,0,0-.66-.5c-4.84,3.06-24.65,15.19-46,6.82-9.63-3.78-10.79-5.93-12.7-11.69C201.11,369.35,202.31,359.55,201.28,354.52Z"/><path class="cls-28" d="M269.85,307.67c-1-4-2.09-6.68-5.58-9.46a17.9,17.9,0,0,0-23.91,1.65c-6.14,6.14-11,3.16-11,3.16s-44.4-24.43-65.43,15c-16.94,31.74,2.63.81,8.86,2.62,7.56,2.2-8.86,13.76-10.12,24.24s3.16-1.31,9.49-5.24-8.23,19.66-5.69,36.69,13-39.32,31-23.59l.22.18a4.49,4.49,0,0,0,1.07,1.39l.13.12a7.78,7.78,0,0,0,.88.68,13.61,13.61,0,0,0,6.51,2c4.68.41,11.8-.47,22.55-4.44h0a179,179,0,0,0,21.46-9.8l2-1.06c2.78-1.54,5.57,1,7.91-1C266.49,335.21,274.49,326.73,269.85,307.67Zm-8.22-6.44-.56.48a8.6,8.6,0,0,0-1.65-.16h-.52c-4,.26-7.45,3.37-8.9,7.73a4.11,4.11,0,0,0-1.67-.85,3.79,3.79,0,0,0-1-.12,4.14,4.14,0,0,0-2.62,1c1.77-5.69,6.69-9.78,12.49-9.78a11.83,11.83,0,0,1,1.94.16A14.23,14.23,0,0,1,261.63,301.23Zm-65.69,18.13a15.69,15.69,0,0,1,14.4-14.45,15.68,15.68,0,0,1,7.63,1.42l.41.2.13.07a15,15,0,0,1,3.7,2.66,15.84,15.84,0,0,1,2.2,20,15.62,15.62,0,0,1-8.57,6.41c-.24.08-.48.14-.72.2h0a15.47,15.47,0,0,1-3.68.45,15.27,15.27,0,0,1-4-.52A15.73,15.73,0,0,1,195.94,319.36Zm66.77,7.71a12.21,12.21,0,0,1-5.51,1.32c-6.39,0-11.74-5-12.95-11.62l.06-.05a4.19,4.19,0,0,0,3,1.32,3.15,3.15,0,0,0,.43,0,4.08,4.08,0,0,0,1.86-.68c1.17,5,4.84,8.71,9.26,9h.52a8.89,8.89,0,0,0,5.66-2.1A15.33,15.33,0,0,1,262.71,327.06Z"/><path class="cls-32" d="M225.18,337.25a19.89,19.89,0,1,1-4.71-33,17.31,17.31,0,0,0-2.56-.19,17.11,17.11,0,0,0-5.37.85,17.4,17.4,0,0,0-12,16.55,17.23,17.23,0,0,0,.19,2.55A17.39,17.39,0,0,0,224,337.73C224.41,337.59,224.8,337.42,225.18,337.25Z"/><path class="cls-11" d="M216.57,335.67c-.24.08-.48.14-.73.2h0a15.81,15.81,0,0,1-3.72.45,15.61,15.61,0,0,1-4-.52A17.4,17.4,0,0,1,200.7,324a5.84,5.84,0,0,0,4.27.5,5.83,5.83,0,0,0,2.16-1.09A14.62,14.62,0,0,0,216.57,335.67Z"/><path class="cls-11" d="M219.26,306.6a13.78,13.78,0,0,0-11.09,8.77,5.89,5.89,0,0,0-4.72-2.39,6.17,6.17,0,0,0-.79.05,17.41,17.41,0,0,1,9.87-8.15,15.35,15.35,0,0,1,6.17,1.45l.41.2Z"/><path class="cls-11" d="M225.89,307.93a14.64,14.64,0,0,0-5.81-1.4h-.94l-.41-.2a15.35,15.35,0,0,0-6.17-1.45,17.11,17.11,0,0,1,5.37-.85,17.31,17.31,0,0,1,2.56.19,19.5,19.5,0,0,1,4.91,3.24Z"/><path class="cls-11" d="M228.7,333.23l-.34.49a18.93,18.93,0,0,1-3.18,3.53c-.38.18-.77.34-1.17.48a17.37,17.37,0,0,1-15.91-1.93,15.61,15.61,0,0,0,4,.52,15.81,15.81,0,0,0,3.72-.45h0a14.91,14.91,0,0,0,3.73.47h.64a14.83,14.83,0,0,0,7.27-2.25C227.9,333.82,228.31,333.53,228.7,333.23Z"/><path class="cls-33" d="M220.6,336h-.52a12,12,0,0,1-3.42-.64,14.31,14.31,0,0,1-9.24-12,14.47,14.47,0,0,1-.12-1.92,15.57,15.57,0,0,1,1.16-5.94,13.46,13.46,0,0,1,10.83-8.58c.26,0,.53-.05.79-.06h.54a12,12,0,0,1,4.62.91,9.56,9.56,0,0,1,1,.43,20.29,20.29,0,0,1,5.47,14.08,21.08,21.08,0,0,1-2.14,9.28c-.25.51-.52,1-.81,1.49l-.57.45a13.08,13.08,0,0,1-1.43.94,12.44,12.44,0,0,1-6.12,1.62Z"/><path class="cls-33" d="M220.63,307.15a11.75,11.75,0,0,1,4.52.89,9.28,9.28,0,0,1,.88.4,20,20,0,0,1,5.35,13.82,20.76,20.76,0,0,1-2.1,9.14c-.24.48-.5,1-.77,1.42l-.52.41a12.73,12.73,0,0,1-1.39.92,12.13,12.13,0,0,1-6,1.58h-.37l-.29,0,0,0a11.8,11.8,0,0,1-3.19-.62,14,14,0,0,1-9-11.77,14.36,14.36,0,0,1-.12-1.88,15.28,15.28,0,0,1,1.13-5.83,13.15,13.15,0,0,1,10.58-8.39c.25,0,.51,0,.76-.06h.53m0-.63h-.56c-.28,0-.54,0-.81.07a13.78,13.78,0,0,0-11.09,8.77,16,16,0,0,0-1.18,6.06,14.9,14.9,0,0,0,.12,2,14.62,14.62,0,0,0,9.45,12.28,12.35,12.35,0,0,0,3.62.66h.45a12.68,12.68,0,0,0,6.27-1.66,13.34,13.34,0,0,0,1.46-1c.21-.16.42-.32.62-.49q.45-.76.85-1.55a21.26,21.26,0,0,0,2.17-9.42,20.7,20.7,0,0,0-5.59-14.33,9.82,9.82,0,0,0-1-.47,12.4,12.4,0,0,0-4.74-.94Z"/><path class="cls-11" d="M262.86,301.23l-.57.48a8.79,8.79,0,0,0-1.66-.16h-.53c-4.08.26-7.54,3.37-9,7.73a4.17,4.17,0,0,0-1.68-.85,3.88,3.88,0,0,0-1-.12,4.21,4.21,0,0,0-2.65,1,13.48,13.48,0,0,1,12.63-9.78,12.1,12.1,0,0,1,2,.16A14.42,14.42,0,0,1,262.86,301.23Z"/><path class="cls-32" d="M264,327.06a14.52,14.52,0,0,1-10,4.08,15.23,15.23,0,0,1-13.82-9.53,17.47,17.47,0,0,1-1.44-7c0-9.12,6.83-16.52,15.25-16.52a14.09,14.09,0,0,1,6.41,1.53,12.1,12.1,0,0,0-2-.16,13.48,13.48,0,0,0-12.63,9.78,15.55,15.55,0,0,0-.48,7.38l0,.12c1.22,6.62,6.62,11.62,13.09,11.62A12.46,12.46,0,0,0,264,327.06Z"/><path class="cls-11" d="M262.14,301.84a10.52,10.52,0,0,0-2-.28h.53a8.79,8.79,0,0,1,1.66.16l.57-.48a13.38,13.38,0,0,1,1.18,1h0l.46.46A10.66,10.66,0,0,0,262.14,301.84Z"/><path class="cls-11" d="M266.35,324.22a15.38,15.38,0,0,1-2.39,2.84,12.46,12.46,0,0,1-5.58,1.32c-6.47,0-11.87-5-13.09-11.62l.06-.05a4.26,4.26,0,0,0,3.06,1.32,3.22,3.22,0,0,0,.44,0,4.15,4.15,0,0,0,1.88-.68c1.18,5,4.89,8.71,9.36,9h.53A9.05,9.05,0,0,0,266.35,324.22Z"/><path class="cls-11" d="M248.22,313.93v.16a13.22,13.22,0,0,0,.64,3.91,3.22,3.22,0,0,1-.44,0,4.26,4.26,0,0,1-3.06-1.32l-.06.05,0-.12a15.55,15.55,0,0,1,.48-7.38,4.21,4.21,0,0,1,2.65-1,3.88,3.88,0,0,1,1,.12A13.08,13.08,0,0,0,248.22,313.93Z"/><path class="cls-11" d="M266.67,323.73c-.1.16-.2.33-.31.49a9.05,9.05,0,0,1-5.73,2.1h-.47A10.9,10.9,0,0,0,266.67,323.73Z"/><path class="cls-33" d="M260.16,326h-.46c-4.31-.26-8-3.78-9.13-8.75a14.76,14.76,0,0,1-.26-5.15,13.89,13.89,0,0,1,.62-2.72c1.46-4.32,4.88-7.27,8.73-7.51h.51a8.59,8.59,0,0,1,1.61.16,8.71,8.71,0,0,1,1.63.5l.07,0a7.64,7.64,0,0,1,.85.42,17.8,17.8,0,0,1,4.11,11.67,18.67,18.67,0,0,1-2.24,9l-.49.4A8.74,8.74,0,0,1,260.16,326Z"/><path class="cls-33" d="M260.16,302.16a8.2,8.2,0,0,1,1.55.15,8.37,8.37,0,0,1,1.52.45h0l.12,0a7.31,7.31,0,0,1,.77.37,17.51,17.51,0,0,1,4,11.42,18.39,18.39,0,0,1-2.15,8.72l-.47.4a8.43,8.43,0,0,1-5.34,2h-.49c-4.12-.25-7.66-3.67-8.8-8.51a14.4,14.4,0,0,1-.37-3.25,14.1,14.1,0,0,1,.11-1.8,13.46,13.46,0,0,1,.6-2.65c1.42-4.2,4.74-7.07,8.44-7.3h.51m0-.62h-.53c-4.08.26-7.54,3.37-9,7.73a14.05,14.05,0,0,0-.63,2.78,14.69,14.69,0,0,0-.12,1.87,15,15,0,0,0,.39,3.39c1.18,5,4.89,8.71,9.36,9h.53a9.05,9.05,0,0,0,5.73-2.1q.29-.24.57-.49a19,19,0,0,0,2.27-9.11,18.2,18.2,0,0,0-4.22-11.91,8.18,8.18,0,0,0-.93-.46h0a9,9,0,0,0-1.75-.54,8.78,8.78,0,0,0-1.66-.16Z"/><path class="cls-32" d="M252.9,313.17a4.92,4.92,0,0,1-2.17,4.15,4.15,4.15,0,0,1-1.88.68,3.22,3.22,0,0,1-.44,0,4.26,4.26,0,0,1-3.06-1.32.39.39,0,0,1-.08-.07,5.05,5.05,0,0,1-1.35-3.47,5,5,0,0,1,1.83-3.91,4.21,4.21,0,0,1,2.65-1,3.88,3.88,0,0,1,1,.12,4.17,4.17,0,0,1,1.68.85,4.39,4.39,0,0,1,1.08,1.24A5.11,5.11,0,0,1,252.9,313.17Z"/><path class="cls-34" d="M200.38,355.28c-.21-.67.63-1.2,1.29-.82,4.24,2.48,17.06,7.08,38.14-9.21,24.06-18.58,39.15,2.19,42.32,7.24a.74.74,0,0,1-.69,1.1c-4.8.24-18.92,3.34-25.72,8.29C245.79,369.13,207,376.18,200.38,355.28Z"/><path class="cls-27" d="M243,406.25s8.53,3.73,8.53,15.06-83.75,13.9-87.29,3.28,11-6.72,11.33-25.13S243,406.25,243,406.25Z"/><g class="cls-35"><path class="cls-32" d="M227,408.47c2.74-3.06,2.63-14.63,4.43-17.69,1.69-2.84,4.22-5.09,6.53-5.77,8.1-1.35,23.6-10.49,35.2-24.18,3-4.1,6.31-3.47,4.54,3.6-.82,3.09-3,6.73-4.23,10-2.74,7.55-12.16,19.45-15.31,22.88-7.34,8-27.69,22-34.07,18.67C222.69,414.75,224.44,411.29,227,408.47Z"/></g><g class="cls-35"><path class="cls-32" d="M252.15,308.29A37.79,37.79,0,0,0,239.55,307a9.55,9.55,0,0,1-8.88-4.44c-5.09-11.45-17-22.69-36.29-27.06-5.56-.6-5.46-5.1,2.56-9.52,3.52-1.86,5.62-7.09,9.55-8.48,9-3.38,22.58,1.28,27.5,3.66,19,9.22,33.83,28.41,36.06,41.55C270.64,306.11,256.18,309.4,252.15,308.29Z"/></g><g class="cls-35"><path class="cls-32" d="M252.15,308.29A37.79,37.79,0,0,0,239.55,307a9.55,9.55,0,0,1-8.88-4.44c-5.09-11.45-17-22.69-36.29-27.06-5.56-.6-5.46-5.1,2.56-9.52,3.52-1.86,5.62-7.09,9.55-8.48,9-3.38,22.58,1.28,27.5,3.66,19,9.22,33.83,28.41,36.06,41.55C270.64,306.11,256.18,309.4,252.15,308.29Z"/></g><circle class="cls-32" cx="203.04" cy="318.61" r="7.27"/><path class="cls-14" d="M275.54,284.91a4.1,4.1,0,0,1-6.87.2c-15.16-21.65-39.54-35.7-67-35.7-46,0-83.26,39.29-83.26,87.77s37.28,87.77,83.26,87.77c23.9,0,45.44-10.61,60.63-27.61,5.2,6,16.57,22.44,5.64,33.41-23.7,23.8-129.95,15.54-156.18,5.42-80.06-30.86-59.78-166,8.72-198.22,73.66-34.67,128.26-1.73,147.72,21.43C279,272.31,278.38,280.25,275.54,284.91Z"/><path class="cls-36" d="M265.87,429c-43,12.51-75.81,10-112.33,4.87a6.29,6.29,0,0,1-5.55-7l1.91-12.09a6.27,6.27,0,0,1,7.06-5.14c34.25,4.84,81.45.68,101.83-11.05,3.12-1.8,6.14-1.61,8.13,2.36,1.18,2.35,2.07,4.22,2.67,5.8,1,2.72,3.86,9.7,2.87,18C272.11,427.6,269.47,428.52,265.87,429Z"/><rect class="cls-12" x="83.36" y="314.88" width="46.87" height="49.84" rx="6.28" ry="6.28"/><rect class="cls-24" x="93.28" y="322.83" width="24.94" height="33.01" rx="3.34" ry="3.34"/><path class="cls-13" d="M76.3,351.75c-6.08-2.88-6.63-10.41,0-16.35s16.88-7.07,21.69-3,3.62,10.84-1.71,15.65S82.41,354.64,76.3,351.75Z"/><path class="cls-13" d="M65.86,365.68c-6.58-2.18-8.63-9.47-3.35-15.91s15-8.54,20.6-5.12S89,354.79,84.76,360,72.47,367.87,65.86,365.68Z"/><path class="cls-13" d="M58.31,380.35c-6.93-1.45-10.37-8.37-6.45-15.2S65,355.3,71.13,358.06s7.88,9.27,4.74,14.79S65.27,381.81,58.31,380.35Z"/><path class="cls-13" d="M53.63,395.53c-7.14-.7-11.84-7.14-9.27-14.23s11-11,17.67-8.93,9.62,8.24,7.57,14S60.8,396.24,53.63,395.53Z"/><path class="cls-13" d="M51.82,411c-7.21.07-13.06-5.79-11.84-13S48.82,386,55.8,387.31s11.1,7.07,10.14,12.92S59.06,410.9,51.82,411Z"/><path class="cls-13" d="M52.87,426.4c-7.14.83-14-4.35-14.15-11.63s6.55-12.71,13.71-12.14,12.32,5.78,12.45,11.66S60,425.57,52.87,426.4Z"/><path class="cls-13" d="M56.79,441.59c-6.92,1.58-14.72-2.84-16.19-10S44.74,418.29,52,418.1s13.29,4.41,14.5,10.22S63.74,440,56.79,441.59Z"/><path class="cls-13" d="M63.56,456.3C57,458.6,48.39,455,45.57,448s1.64-13.61,8.75-14.56,14,3,16.29,8.61S70.15,454,63.56,456.3Z"/><path class="cls-13" d="M73.17,470.26c-6.07,3-15.35.3-19.51-6.38s-1-13.72,5.89-15.42,14.44,1.47,17.82,6.86S79.27,467.27,73.17,470.26Z"/><path class="cls-13" d="M85.64,483.23c-5.43,3.62-15.28,1.88-20.77-4.37s-3.72-13.6,2.77-16,14.63-.05,19.09,5S91.1,479.6,85.64,483.23Z"/><path class="cls-13" d="M100.95,495c-4.65,4.19-14.95,3.45-21.78-2.25s-6.57-13.24-.6-16.34,14.56-1.57,20.1,3S105.63,490.77,100.95,495Z"/></g></g></g></svg>