<svg id="Welcome_Screen" data-name="Welcome Screen" xmlns="http://www.w3.org/2000/svg" viewBox="0 0 116.7 174.42"><defs><style>.cls-1{fill:#fcb977;}.cls-2{fill:#c9c9c9;}.cls-3{fill:#ffba76;stroke:#fcb977;stroke-width:0.43px;}.cls-15,.cls-17,.cls-24,.cls-27,.cls-3,.cls-4,.cls-9{stroke-miterlimit:10;}.cls-25,.cls-4{fill:#fff;}.cls-4{stroke:#ffef81;stroke-width:1.43px;}.cls-5{fill:#8de4ff;}.cls-6{fill:#e5e5e5;}.cls-7{fill:#999;}.cls-8{fill:#afafaf;}.cls-15,.cls-17,.cls-9{fill:none;stroke-linecap:round;}.cls-9{stroke:#bcbcbc;stroke-width:1.75px;}.cls-10{fill:#0ae5bb;}.cls-11{fill:#00ffd2;}.cls-12{fill:#ee3623;}.cls-13{fill:#f2ee63;}.cls-14{fill:#a8e500;}.cls-15{stroke:#657eea;stroke-width:2.7px;}.cls-16{fill:#e82e2e;}.cls-17{stroke:#999;stroke-width:2.87px;}.cls-18{fill:#b7b7b7;}.cls-19{fill:#1e1e1e;}.cls-20{fill:#cd163f;}.cls-21{fill:#4d4d4d;}.cls-22{fill:#fcd0d0;}.cls-23{fill:#ff9f9f;}.cls-24,.cls-27{fill:#ffb361;stroke:#ffb361;}.cls-24{stroke-width:0.18px;}.cls-26{fill:#1e1a1a;}.cls-27{stroke-width:0.19px;}.cls-28{opacity:0.36;}.cls-29{fill:#ddd;}.cls-30{opacity:0.76;}.cls-31{fill:#45444f;}</style></defs><title>workinglayout</title><path class="cls-1" d="M112,117.51a.24.24,0,0,0,0-.48.24.24,0,0,0,0,.48Z"/><path class="cls-2" d="M40.62,3.25a2,2,0,0,1-.06.51,2.06,2.06,0,0,1-.83,1.18,2.05,2.05,0,1,1,.89-1.69Z"/><path class="cls-3" d="M62.37,110.7s3.4,11,.4,15.4-5,7.2-5,8.3l-.06,0-.06,0c0-1.1-2-3.9-5-8.3s.4-15.4.4-15.4Z"/><path class="cls-3" d="M89.32,100.07s7.46,8.77,6.44,14-1.76,8.59-1.33,9.6l0,.05h-.07c-.43-1-3.38-2.8-7.87-5.66s-5.7-14.31-5.7-14.31Z"/><path class="cls-3" d="M26.26,100.07s-7.46,8.77-6.44,14,1.76,8.59,1.33,9.6l0,.05h.07c.43-1,3.38-2.8,7.87-5.66s5.7-14.31,5.7-14.31Z"/><path class="cls-3" d="M62.37,110.7s3.4,11,.4,15.4-5,7.2-5,8.3l-.06,0-.06,0c0-1.1-2-3.9-5-8.3s.4-15.4.4-15.4Z"/><path class="cls-4" d="M88.14,100.45s5.56,6.54,4.8,10.44-1.31,6.4-1,7.16l0,0h0c-.32-.75-2.52-2.09-5.87-4.22s-4.25-10.67-4.25-10.67Z"/><path class="cls-3" d="M26.26,100.07s-7.46,8.77-6.44,14,1.76,8.59,1.33,9.6l0,.05h.07c.43-1,3.38-2.8,7.87-5.66s5.7-14.31,5.7-14.31Z"/><path class="cls-4" d="M27.61,100.52s-5.09,6-4.39,9.55,1.2,5.85.9,6.54l0,0h0c.3-.69,2.3-1.91,5.37-3.86S33.46,103,33.46,103Z"/><path class="cls-4" d="M61,111s2.43,7.87.29,11-3.58,5.15-3.58,5.94l0,0,0,0c0-.79-1.43-2.79-3.58-5.94s.29-11,.29-11Z"/><path class="cls-5" d="M72.18,35.56a2.55,2.55,0,0,0-.5-.07h.13a2.13,2.13,0,0,1,.4,0l.14-.12.29.25h0l.11.11A2.59,2.59,0,0,0,72.18,35.56Z"/><path class="cls-5" d="M73.28,40.87,73.2,41a2.2,2.2,0,0,1-1.39.51H71.7A2.64,2.64,0,0,0,73.28,40.87Z"/><rect class="cls-6" x="30.93" y="29.71" width="9.13" height="12.09" rx="4.45" ry="4.45"/><path class="cls-7" d="M37.89,101.18c-1.3,3.1-5.54,4.28-9.2,2s-4.52-6.75-2.27-9.25a7,7,0,0,1,8.8-1.08A6.85,6.85,0,0,1,37.89,101.18Z"/><path class="cls-7" d="M89.06,93.89c2.26,2.5,1.39,6.94-2.27,9.25s-7.89,1.14-9.2-2a6.85,6.85,0,0,1,2.66-8.36A7,7,0,0,1,89.06,93.89Z"/><path class="cls-7" d="M64.2,105c.54,3.32-2.38,12.79-6.55,12.78s-7.08-9.48-6.53-12.8a6.61,6.61,0,0,1,13.08,0Z"/><path class="cls-8" d="M98.34,87a52.13,52.13,0,0,1-80.71,0c-1-1.25-1.28-2.74-.63-3.23L30.25,73.62a1.77,1.77,0,0,1,2.33.56,32.81,32.81,0,0,0,50.82,0,1.77,1.77,0,0,1,2.33-.56L99,83.75C99.62,84.24,99.37,85.73,98.34,87Z"/><path class="cls-9" d="M97.07,84.62c-2.27,5.6-21.63,23.87-47.93,19"/><path class="cls-10" d="M110,74.45C96.45,89.72,77.22,97.36,58,97.36S19.52,89.72,6,74.45c-1.33-1.5-1.65-3.28-.81-3.87,5.69-4,11.38-4.28,17.07-8.32a2.38,2.38,0,0,1,3,.67c4.66,5.26,10.39,5.27,16.6,7.65a45.34,45.34,0,0,0,33.84-.64c5.61-2.4,10.76-2.2,15-7a2.38,2.38,0,0,1,3-.67c5.69,4,11.38,4.28,17.07,8.32C111.63,71.16,111.3,73,110,74.45Z"/><path class="cls-11" d="M32.58,92.74A67.21,67.21,0,0,1,6,74.45c-1.33-1.5-1.65-3.28-.81-3.87,5.69-4,11.38-4.28,17.07-8.32a2.38,2.38,0,0,1,3,.67c4.66,5.26,10.39,5.27,16.6,7.65Z"/><path class="cls-11" d="M75.7,69.94c5.61-2.4,10.76-2.2,15-7a2.38,2.38,0,0,1,3-.67c5.69,4,11.38,4.28,17.07,8.32.84.59.52,2.38-.81,3.87a67.16,67.16,0,0,1-25.91,18Z"/><path class="cls-12" d="M65.57,87.39l-.1,0c-1.11.34-1.72-.06-1.57-1.33A15.9,15.9,0,0,0,64,84.45c0-1.25.56-1.7,1.51-1.4l.09,0c.94.24,1.59.79,1.59,1.61a10.76,10.76,0,0,0,.07,1.12C67.35,86.6,66.67,87.11,65.57,87.39Z"/><path class="cls-13" d="M49.39,82.84a7.84,7.84,0,0,0,2-.51c.79-.33,1.25,0,1.1.87a19.5,19.5,0,0,0-.18,4.07c.06.88-.37,1.23-1.05.94a6.82,6.82,0,0,0-1.74-.44c-.68-.08-1.15-.5-1.13-1.09a13.21,13.21,0,0,0-.18-2.77C48.1,83.33,48.6,82.93,49.39,82.84Z"/><path class="cls-14" d="M58.51,88.25l-.16,0c-1.68.52-2.62-.09-2.39-2a24.52,24.52,0,0,0,.11-2.49c0-1.91.85-2.59,2.3-2.14l.13,0c1.43.36,2.42,1.2,2.42,2.45a16.53,16.53,0,0,0,.11,1.7C61.21,87.06,60.17,87.84,58.51,88.25Z"/><path class="cls-15" d="M107.77,72.83c.08-.84-9.66,13.9-33,19.74"/><path class="cls-16" d="M72.8,34.57c0,.1,0,.2,0,.3l.27-.25,0,0Z"/><path class="cls-8" d="M97.72,60.59c1.28-.27,1.9,1.68,2.3,2.7A2.21,2.21,0,0,1,98.65,66C86.79,70.88,72.3,75,57.82,74.87S28.86,70.45,17,65.6a2.21,2.21,0,0,1-1.37-2.74A4.81,4.81,0,0,1,17.12,61,268.74,268.74,0,0,0,57.27,64.2C69.93,64.28,84.15,63.47,97.72,60.59Z"/><path class="cls-17" d="M94.65,64.8s-16.38,8.65-42.12,7.43"/><rect class="cls-18" x="28.81" y="77.31" width="5.36" height="7.09" rx="2.61" ry="2.61" transform="translate(37.99 -5.67) rotate(25.57)"/><rect class="cls-18" x="30.42" y="33.74" width="3.04" height="3.83" rx="1.48" ry="1.48"/><path class="cls-19" d="M83.62,38.13a24.44,24.44,0,0,1-6.92,17A25.68,25.68,0,0,1,58.16,63C44.1,63,32.7,51.86,32.7,38.13S44.1,13.28,58.16,13.28A25.6,25.6,0,0,1,79.48,24.55,24.31,24.31,0,0,1,83.62,38.13Z"/><path class="cls-19" d="M45.23,5.32a5.2,5.2,0,0,1-.66,1.56,4.4,4.4,0,0,0-.42-.58,5,5,0,0,0-.51-.53l-.33-.28a3.81,3.81,0,0,0,.08-1.7,7.52,7.52,0,0,1,1.27.94,6.29,6.29,0,0,1,.52.53Z"/><path class="cls-19" d="M42.94,3.54A9.18,9.18,0,0,1,42.67,5,7,7,0,0,0,42,4.69c-.21-.1-.43-.19-.66-.29l-.61-.21a2.06,2.06,0,0,0,.48-1.36c.38.12.74.26,1.07.4l.53.25Z"/><path class="cls-19" d="M40.88,2.73l.34.1a2.06,2.06,0,0,1-.48,1.36l-.26-.08a.72.72,0,1,1,.4-1.39Z"/><path class="cls-19" d="M43.39,3.79a3.81,3.81,0,0,1-.08,1.7A5.89,5.89,0,0,0,42.67,5a9.18,9.18,0,0,0,.26-1.51Z"/><path class="cls-19" d="M46.48,7.79c0,.09,0,.17,0,.24a3.52,3.52,0,0,1,0,.75v.05A.72.72,0,0,1,46,9.4h-.24a.7.7,0,0,1-.55-.3.64.64,0,0,1-.11-.39v0a3.08,3.08,0,0,0-.22-1.2,3.79,3.79,0,0,0-.35-.71,5,5,0,0,0,.68-1.49,5.34,5.34,0,0,1,.53.69A5.11,5.11,0,0,1,46.48,7.79Z"/><rect class="cls-18" x="30.86" y="29.07" width="6.08" height="8.05" rx="2.96" ry="2.96"/><rect class="cls-18" x="28.14" y="30.81" width="3.45" height="4.34" rx="1.68" ry="1.68"/><path class="cls-20" d="M75.84,23.79c-5-6.86-17.15-5.77-23.5-2.28s-8.45,5.22-10.7,4.93c-1.26-.16.17,1,2.16,1.52s-.26.57-1.4.41c-.7-.1.86,1.05,3,1s-7.75,14,5.14,26.11c7,6.6,22.61,4,22.83-1,0-.63.51-1.12.51-1.75,0-.12,0-.23,0-.34s0-.1,0-.14h1a4.81,4.81,0,0,0-.27-1.4,2.78,2.78,0,0,0-.1-.26A2.86,2.86,0,0,0,72.8,49h0a4.43,4.43,0,0,0-1-.24h0l-.14,0h0c-3.52-.4-8.91,2-10.76.76h0a1.58,1.58,0,0,1-.64-1.45,3.92,3.92,0,0,1,.2-1.13,8.6,8.6,0,0,1,.65-1.5c.17-.31.36-.63.57-1L62,44l.15-.23A44.29,44.29,0,0,1,66,39.06l.33-.36.79-.84.16-.17.65-.66c.94-1,1.9-1.89,2.83-2.77l1.42-1.33h0L73,32.2l.62-.56.47-.42c1.16-1,2.13-1.87,2.74-2.39l0,0a2.42,2.42,0,0,0-.46,0h-.15a2.93,2.93,0,0,0-2.48,2.12,1.15,1.15,0,0,0-.46-.23,1.07,1.07,0,0,0-.27,0,1.16,1.16,0,0,0-.73.26,3.71,3.71,0,0,1,3.47-2.69,3.33,3.33,0,0,1,.54,0c.25.12.11,1.46.33,1.63l.53-.44s.38-1.27.39-1.43C77.65,27.22,77.81,26.46,75.84,23.79ZM64.09,38.19h0a4.35,4.35,0,0,1-1,.12,4.29,4.29,0,0,1-1.1-.14,4.79,4.79,0,0,1-2-3.25,1.61,1.61,0,0,0,1.17.14,1.6,1.6,0,0,0,.59-.3,4,4,0,0,0,2.6,3.38ZM62,32.55a1.62,1.62,0,0,0-1.3-.66h-.22a4.79,4.79,0,0,1,2.72-2.24,4.22,4.22,0,0,1,1.7.4l.11.06,0,0A3.79,3.79,0,0,0,62,32.55Z"/><path class="cls-21" d="M66,52.93s-.8,3.18,4,2.59C76,54.82,73.48,52,73.48,52Z"/><path class="cls-20" d="M72.36,41s-.79-.57,1.1-1.6c3-1.63,5.68,8.47-.23,10.77-3.91,1.52-5.36-6.06-5.36-6.06Z"/><path class="cls-22" d="M71,45.35a.8.8,0,0,1,1,.77c0,1.17.64,3.09,4,3.09,4.2,0-10.31,6.12-15.26,1.62-1.19-1.08-.91-4.2-.9-5.8a.8.8,0,0,1,1-.77C63.12,44.82,67.94,46.09,71,45.35Z"/><path class="cls-23" d="M60.21,46.59c3.06,4.65,12.44-1,12.85,4.16C73.21,53.27,68,52,64.75,52,59.88,52,58.61,45.45,60.21,46.59Z"/><path class="cls-24" d="M60.09,43.32a.12.12,0,0,0-.24,0c-.12,1.38-1.33,4.78.25,7.63,2,3.6,14.67,4.91,16.49-1.42a.12.12,0,0,0-.18-.14c-1.33.84-6.78,4.18-12.65,1.88-2.65-1-3-1.63-3.49-3.22C60,47.4,60.37,44.71,60.09,43.32Z"/><path class="cls-21" d="M78.95,30.43a4.12,4.12,0,0,0-1.53-2.6,4.92,4.92,0,0,0-6.58.45c-1.69,1.69-3,.87-3,.87s-12.21-6.72-18,4.12c-4.66,8.73.72.22,2.44.72,2.08.6-2.44,3.78-2.78,6.67s.87-.36,2.61-1.44S49.8,44.63,50.5,49.31,54.06,38.5,59,42.82l.06.05a1.24,1.24,0,0,0,.29.38l0,0,.24.19a3.74,3.74,0,0,0,1.79.55,14.9,14.9,0,0,0,6.2-1.22h0a49.36,49.36,0,0,0,5.9-2.69l.54-.29c.77-.42,1.53.28,2.18-.28C78,38,80.23,35.68,78.95,30.43Zm-2.26-1.77-.16.13a2.37,2.37,0,0,0-.45,0h-.14a2.9,2.9,0,0,0-2.45,2.12,1.13,1.13,0,0,0-.46-.23,1,1,0,0,0-.27,0,1.14,1.14,0,0,0-.72.26,3.67,3.67,0,0,1,3.43-2.69,3.25,3.25,0,0,1,.53,0A3.92,3.92,0,0,1,76.69,28.66Zm-18.07,5a4.32,4.32,0,0,1,4-4H63a4.14,4.14,0,0,1,1.68.4l.11.06,0,0a4.13,4.13,0,0,1,1,.73,4.36,4.36,0,0,1,.61,5.5,4.3,4.3,0,0,1-2.36,1.76l-.2.06h0a4.26,4.26,0,0,1-1,.12,4.2,4.2,0,0,1-1.09-.14A4.33,4.33,0,0,1,58.62,33.65ZM77,35.77a3.36,3.36,0,0,1-1.52.36,3.74,3.74,0,0,1-3.56-3.2h0a1.15,1.15,0,0,0,.83.36h.12a1.12,1.12,0,0,0,.51-.19,3,3,0,0,0,2.55,2.47h.14A2.45,2.45,0,0,0,77.64,35,4.22,4.22,0,0,1,77,35.77Z"/><path class="cls-25" d="M66.66,38.57a5.47,5.47,0,1,1-1.3-9.08,4.76,4.76,0,0,0-.7-.05,4.71,4.71,0,0,0-1.48.23,4.79,4.79,0,0,0-3.31,4.55,4.74,4.74,0,0,0,.05.7,4.78,4.78,0,0,0,6.41,3.78Z"/><path class="cls-5" d="M64.29,38.14l-.2.06h0a4.35,4.35,0,0,1-1,.12,4.29,4.29,0,0,1-1.1-.14,4.79,4.79,0,0,1-2-3.25,1.61,1.61,0,0,0,1.17.14,1.6,1.6,0,0,0,.59-.3A4,4,0,0,0,64.29,38.14Z"/><path class="cls-5" d="M65,30.14a3.79,3.79,0,0,0-3,2.41,1.62,1.62,0,0,0-1.3-.66h-.22a4.79,4.79,0,0,1,2.72-2.24,4.22,4.22,0,0,1,1.7.4l.11.06Z"/><path class="cls-5" d="M66.86,30.51a4,4,0,0,0-1.6-.38H65l-.11-.06a4.22,4.22,0,0,0-1.7-.4,4.71,4.71,0,0,1,1.48-.23,4.76,4.76,0,0,1,.7.05,5.36,5.36,0,0,1,1.35.89Z"/><path class="cls-5" d="M67.63,37.47l-.09.14a5.21,5.21,0,0,1-.88,1l-.32.13A4.78,4.78,0,0,1,62,38.17a4.29,4.29,0,0,0,1.1.14,4.35,4.35,0,0,0,1-.12h0a4.1,4.1,0,0,0,1,.13h.18a4.08,4.08,0,0,0,2-.62Z"/><path class="cls-26" d="M65.3,38.23a3.38,3.38,0,0,1-1-.18,4.15,4.15,0,0,1-2.57-3.83,4.29,4.29,0,0,1,.32-1.63,3.7,3.7,0,0,1,3-2.36l.22,0h.15a3.33,3.33,0,0,1,1.27.25l.28.13a5.59,5.59,0,0,1,1.49,3.87A5.8,5.8,0,0,1,67.87,37q-.11.22-.23.42l-.15.11a3.61,3.61,0,0,1-.39.26,3.41,3.41,0,0,1-1.68.45H65.3Z"/><path class="cls-26" d="M65.41,30.29a3.23,3.23,0,0,1,1.24.25l.24.11a5.5,5.5,0,0,1,1.47,3.8A5.71,5.71,0,0,1,67.79,37q-.1.2-.21.39l-.14.11a3.52,3.52,0,0,1-.38.25,3.33,3.33,0,0,1-1.64.44h-.19a3.25,3.25,0,0,1-.87-.17,3.85,3.85,0,0,1-2.48-3.24,3.94,3.94,0,0,1,0-.52,4.2,4.2,0,0,1,.31-1.6,3.62,3.62,0,0,1,2.91-2.31l.21,0h.14m0-.17h-.15l-.22,0a3.79,3.79,0,0,0-3,2.41,4.39,4.39,0,0,0-.32,1.67,4.1,4.1,0,0,0,0,.54,4,4,0,0,0,2.6,3.38,3.4,3.4,0,0,0,1,.18h.12a3.49,3.49,0,0,0,1.72-.46,3.68,3.68,0,0,0,.4-.26l.17-.14q.12-.21.23-.43a5.85,5.85,0,0,0,.6-2.59A5.69,5.69,0,0,0,67,30.51l-.28-.13a3.41,3.41,0,0,0-1.3-.26Z"/><path class="cls-5" d="M77,28.66l-.16.13a2.42,2.42,0,0,0-.46,0h-.15a2.93,2.93,0,0,0-2.48,2.12,1.15,1.15,0,0,0-.46-.23,1.07,1.07,0,0,0-.27,0,1.16,1.16,0,0,0-.73.26,3.71,3.71,0,0,1,3.47-2.69,3.33,3.33,0,0,1,.54,0A4,4,0,0,1,77,28.66Z"/><path class="cls-25" d="M77.33,35.77a4,4,0,0,1-2.76,1.12,4.19,4.19,0,0,1-3.8-2.62,4.81,4.81,0,0,1-.39-1.92,4.38,4.38,0,0,1,4.2-4.54,3.88,3.88,0,0,1,1.76.42,3.33,3.33,0,0,0-.54,0,3.71,3.71,0,0,0-3.47,2.69,4.28,4.28,0,0,0-.13,2v0a3.76,3.76,0,0,0,3.6,3.2A3.43,3.43,0,0,0,77.33,35.77Z"/><path class="cls-5" d="M76.83,28.83a2.89,2.89,0,0,0-.56-.08h.15a2.42,2.42,0,0,1,.46,0l.16-.13a3.68,3.68,0,0,1,.32.28h0l.13.13A2.93,2.93,0,0,0,76.83,28.83Z"/><path class="cls-5" d="M78,35a4.23,4.23,0,0,1-.66.78,3.43,3.43,0,0,1-1.53.36,3.76,3.76,0,0,1-3.6-3.2h0a1.17,1.17,0,0,0,.84.36h.12a1.14,1.14,0,0,0,.52-.19,3,3,0,0,0,2.58,2.47h.15A2.49,2.49,0,0,0,78,35Z"/><path class="cls-5" d="M73,32.16v0a3.64,3.64,0,0,0,.17,1.08h-.12a1.17,1.17,0,0,1-.84-.36h0v0a4.28,4.28,0,0,1,.13-2,1.16,1.16,0,0,1,.73-.26,1.07,1.07,0,0,1,.27,0A3.6,3.6,0,0,0,73,32.16Z"/><path class="cls-5" d="M78.08,34.85,78,35a2.49,2.49,0,0,1-1.58.58h-.13A3,3,0,0,0,78.08,34.85Z"/><path class="cls-26" d="M76.16,35.48a2.91,2.91,0,0,1-2.52-2.41,4,4,0,0,1-.1-.91,4.08,4.08,0,0,1,.2-1.25,2.85,2.85,0,0,1,2.4-2.07h.14a2.35,2.35,0,0,1,.91.19l.25.12a4.92,4.92,0,0,1,1.12,3.2,5.14,5.14,0,0,1-.62,2.46l-.14.11a2.4,2.4,0,0,1-1.52.56Z"/><path class="cls-26" d="M76.29,28.92a2.25,2.25,0,0,1,.43,0,2.31,2.31,0,0,1,.41.12h0l.21.1a4.82,4.82,0,0,1,1.1,3.14,5.06,5.06,0,0,1-.59,2.4l-.13.11a2.32,2.32,0,0,1-1.47.54h-.14a2.83,2.83,0,0,1-2.42-2.34,4,4,0,0,1-.1-.89,3.87,3.87,0,0,1,0-.49,3.7,3.7,0,0,1,.17-.73,2.76,2.76,0,0,1,2.32-2h.14m0-.17h-.15a2.93,2.93,0,0,0-2.48,2.13,3.86,3.86,0,0,0-.17.76,4,4,0,0,0,0,.52,4.14,4.14,0,0,0,.11.93,3,3,0,0,0,2.58,2.47h.15A2.49,2.49,0,0,0,77.86,35l.16-.14a5.22,5.22,0,0,0,.63-2.51,5,5,0,0,0-1.16-3.28l-.26-.13h0a2.48,2.48,0,0,0-.48-.15,2.41,2.41,0,0,0-.46,0Z"/><path class="cls-25" d="M74.29,31.95a1.35,1.35,0,0,1-.6,1.14,1.14,1.14,0,0,1-.52.19h-.12a1.17,1.17,0,0,1-.84-.36l0,0a1.39,1.39,0,0,1-.37-1,1.36,1.36,0,0,1,.5-1.07,1.16,1.16,0,0,1,.73-.26,1.07,1.07,0,0,1,.27,0,1.15,1.15,0,0,1,.46.23,1.21,1.21,0,0,1,.3.34A1.41,1.41,0,0,1,74.29,31.95Z"/><path class="cls-27" d="M59.84,43.53c-.06-.18.17-.33.35-.22,1.17.68,4.69,1.95,10.49-2.53,6.62-5.11,10.77.6,11.64,2a.2.2,0,0,1-.19.3c-1.32.06-5.2.92-7.08,2.28C72.33,47.34,61.68,49.28,59.84,43.53Z"/><path class="cls-20" d="M71.56,57.55a4.43,4.43,0,0,1,2.35,4.14c0,3.12-23,3.82-24,.9s3-1.85,3.12-6.91S71.56,57.55,71.56,57.55Z"/><g class="cls-28"><path class="cls-25" d="M67.15,58.16c.75-.84.72-4,1.22-4.86a3.52,3.52,0,0,1,1.8-1.59c2.23-.37,6.49-2.89,9.68-6.65.83-1.13,1.74-1,1.25,1-.22.85-.82,1.85-1.16,2.76a26.23,26.23,0,0,1-4.21,6.29c-2,2.19-7.62,6.06-9.37,5.14C66,59.89,66.46,58.94,67.15,58.16Z"/></g><g class="cls-28"><path class="cls-25" d="M74.08,30.61a10.39,10.39,0,0,0-3.46-.37A2.63,2.63,0,0,1,68.17,29c-1.4-3.15-4.68-6.24-10-7.44-1.53-.17-1.5-1.4.71-2.62,1-.51,1.55-2,2.63-2.33,2.46-.93,6.21.35,7.56,1,5.23,2.54,9.3,7.81,9.92,11.43C79.17,30,75.19,30.91,74.08,30.61Z"/></g><g class="cls-28"><path class="cls-25" d="M74.08,30.61a10.39,10.39,0,0,0-3.46-.37A2.63,2.63,0,0,1,68.17,29c-1.4-3.15-4.68-6.24-10-7.44-1.53-.17-1.5-1.4.71-2.62,1-.51,1.55-2,2.63-2.33,2.46-.93,6.21.35,7.56,1,5.23,2.54,9.3,7.81,9.92,11.43C79.17,30,75.19,30.91,74.08,30.61Z"/></g><circle class="cls-25" cx="60.57" cy="33.44" r="2"/><path class="cls-8" d="M80.51,24.17a1.13,1.13,0,0,1-1.89.05,22.52,22.52,0,0,0-18.44-9.82c-12.65,0-22.9,10.81-22.9,24.14s10.25,24.14,22.9,24.14A22.31,22.31,0,0,0,76.86,55.1c1.43,1.65,4.56,6.17,1.55,9.19-6.52,6.55-35.74,4.27-43,1.49-22-8.49-16.44-45.66,2.4-54.52,20.26-9.54,35.28-.48,40.63,5.9C81.47,20.71,81.3,22.89,80.51,24.17Z"/><path class="cls-29" d="M77.86,63.82C66,67.26,57,66.57,47,65.16a1.73,1.73,0,0,1-1.53-1.93L46,59.9a1.72,1.72,0,0,1,1.94-1.42c9.42,1.33,22.4.19,28-3a1.42,1.42,0,0,1,2.24.65c.32.65.57,1.16.73,1.6a10.21,10.21,0,0,1,.79,4.94C79.57,63.42,78.84,63.68,77.86,63.82Z"/><rect class="cls-6" x="27.65" y="32.42" width="12.89" height="13.71" rx="6.28" ry="6.28"/><rect class="cls-18" x="30.38" y="34.61" width="6.86" height="9.08" rx="3.34" ry="3.34"/><path class="cls-7" d="M25.71,42.56c-1.67-.79-1.82-2.86,0-4.5s4.64-1.94,6-.84,1,3-.47,4.3A5.32,5.32,0,0,1,25.71,42.56Z"/><path class="cls-7" d="M22.84,46.39c-1.81-.6-2.37-2.6-.92-4.38s4.14-2.35,5.67-1.41,1.62,2.79.45,4.22A5,5,0,0,1,22.84,46.39Z"/><path class="cls-7" d="M20.76,50.43A2.69,2.69,0,0,1,19,46.25a4.45,4.45,0,0,1,5.3-2,2.77,2.77,0,0,1,1.3,4.07A4.64,4.64,0,0,1,20.76,50.43Z"/><path class="cls-7" d="M19.48,54.6a2.87,2.87,0,0,1-2.55-3.91,4.1,4.1,0,0,1,4.86-2.46,2.94,2.94,0,0,1,2.08,3.84A4.25,4.25,0,0,1,19.48,54.6Z"/><path class="cls-7" d="M19,58.85a3.12,3.12,0,0,1-3.26-3.59,3.75,3.75,0,0,1,4.35-2.92,3.19,3.19,0,0,1,2.79,3.55A3.86,3.86,0,0,1,19,58.85Z"/><path class="cls-7" d="M19.27,63.09a3.31,3.31,0,1,1-.12-6.54,3.27,3.27,0,1,1,.12,6.54Z"/><path class="cls-7" d="M20.34,67.27a3.75,3.75,0,0,1-4.45-2.76A3.12,3.12,0,0,1,19,60.81a3.86,3.86,0,0,1,4,2.81A3.19,3.19,0,0,1,20.34,67.27Z"/><path class="cls-7" d="M22.21,71.32A4.1,4.1,0,0,1,17.26,69a2.87,2.87,0,0,1,2.41-4,4.25,4.25,0,0,1,4.48,2.37A2.94,2.94,0,0,1,22.21,71.32Z"/><path class="cls-7" d="M24.85,75.16a4.45,4.45,0,0,1-5.37-1.76,2.69,2.69,0,0,1,1.62-4.24A4.64,4.64,0,0,1,26,71,2.77,2.77,0,0,1,24.85,75.16Z"/><path class="cls-7" d="M28.28,78.73c-1.49,1-4.2.52-5.71-1.2s-1-3.74.76-4.41a5,5,0,0,1,5.25,1.37C29.79,75.88,29.78,77.73,28.28,78.73Z"/><path class="cls-7" d="M32.49,82c-1.28,1.15-4.11.95-6-.62s-1.81-3.64-.16-4.49a5.32,5.32,0,0,1,5.53.83C33.38,78.94,33.78,80.8,32.49,82Z"/><g class="cls-30"><ellipse class="cls-31" cx="57.17" cy="163.96" rx="22.91" ry="2.23"/></g></svg>