<svg id="Welcome_Screen" data-name="Welcome Screen" xmlns="http://www.w3.org/2000/svg" viewBox="0 0 55 55"><defs><style>.cls-1{fill:#56abb1;}.cls-2{fill:#8ee9f0;}.cls-3{fill:#e1f1ff;}.cls-4{fill:#c5fcff;}.cls-5{fill:#84f7fc;}.cls-6{fill:#71d9e0;}.cls-7{fill:#72e4ec;}.cls-8{fill:#c7f4f7;opacity:0.34;}</style></defs><title>workinglayout</title><path class="cls-1" d="M46.88,38.66a22.37,22.37,0,0,1-31.37,7.72,55.1,55.1,0,0,0,12.76-.76A49.29,49.29,0,0,0,46.88,38.66Z"/><path class="cls-2" d="M49.86,27.5A22.18,22.18,0,0,1,49.58,31C44.5,34.75,37,37.85,28.43,39.33a53.68,53.68,0,0,1-19.93,0,22.21,22.21,0,0,1-3.2-9.16,69.5,69.5,0,0,0,11.74,1c13.65,0,25.59-3.79,32-9.44A22.24,22.24,0,0,1,49.86,27.5Z"/><path class="cls-3" d="M35.51,6.62a19.78,19.78,0,0,1-2.58,1.6,33,33,0,0,1-15.17,3.41c-1.28,0-2.54-.06-3.76-.19-.62-.06-1.23-.13-1.83-.22A22.38,22.38,0,0,1,35.51,6.62Z"/><path class="cls-4" d="M39.49,8.63a18.3,18.3,0,0,1-6.38,4.54A33.81,33.81,0,0,1,19.21,16c-1.14,0-2.26-.05-3.36-.14a35.28,35.28,0,0,1-6.61-1.2,21.21,21.21,0,0,1,1.55-2q.66-.75,1.38-1.43c.6.09,1.21.16,1.83.22,1.23.12,2.48.19,3.76.19A33,33,0,0,0,32.93,8.22a19.78,19.78,0,0,0,2.58-1.6,21.91,21.91,0,0,1,3.86,1.93Z"/><path class="cls-5" d="M43.13,11.53A7.85,7.85,0,0,1,42,14a12.44,12.44,0,0,1-2.88,2.81h0c-4.13,3-10.84,4.94-18.42,4.94a40.46,40.46,0,0,1-9.22-1h0a30.44,30.44,0,0,1-4.24-1.29c-.16-.05-.3-.12-.45-.18a22.32,22.32,0,0,1,2.51-4.62,35.28,35.28,0,0,0,6.61,1.2c1.1.09,2.22.14,3.36.14a33.81,33.81,0,0,0,13.9-2.8,18.3,18.3,0,0,0,6.38-4.54A22.4,22.4,0,0,1,43.13,11.53Z"/><path class="cls-6" d="M49.58,31a21.76,21.76,0,0,1-1.07,4.18c-4.88,3.58-12,6.5-20.18,7.92a53.74,53.74,0,0,1-16.43.43,22.06,22.06,0,0,1-3.4-4.22,53.68,53.68,0,0,0,19.93,0C37,37.85,44.5,34.75,49.58,31Z"/><path class="cls-7" d="M48.51,35.16a21.74,21.74,0,0,1-1.63,3.5,49.29,49.29,0,0,1-18.61,7,55.1,55.1,0,0,1-12.76.76h0a22.59,22.59,0,0,1-3.59-2.86,53.74,53.74,0,0,0,16.43-.43C36.51,41.66,43.63,38.74,48.51,35.16Z"/><path class="cls-7" d="M49.08,21.67c-6.45,5.65-18.39,9.44-32,9.44a69.5,69.5,0,0,1-11.74-1,21.16,21.16,0,0,1-.16-2.63,22.35,22.35,0,0,1,1.37-7.72c.06-.18.14-.37.21-.55.15.06.3.13.45.18a30.44,30.44,0,0,0,4.24,1.29h0a40.46,40.46,0,0,0,9.22,1c7.58,0,14.29-1.95,18.42-4.94h0A12.44,12.44,0,0,0,42,14a7.85,7.85,0,0,0,1.18-2.45,22.41,22.41,0,0,1,2.95,3.54h0a22.08,22.08,0,0,1,3,6.59Z"/><path class="cls-8" d="M40.68,19.21A31.5,31.5,0,0,1,36,35.87a26.43,26.43,0,0,1-7,7.59A22,22,0,0,1,18,47.61l-.5-.25h0a19.78,19.78,0,0,1-1.75-1h0a22.59,22.59,0,0,1-3.59-2.86,21.76,21.76,0,0,1-3-3.63A.68.68,0,0,1,9,39.75l-.3-.45a22.06,22.06,0,0,1-2.77-6.69,23.29,23.29,0,0,1-.43-2.47,21.16,21.16,0,0,1-.16-2.63,22.68,22.68,0,0,1,.31-3.73s0,0,0-.06a22.46,22.46,0,0,1,1.05-3.94c.06-.18.14-.37.21-.55s.25-.62.4-.92.31-.66.48-1a22.32,22.32,0,0,1,1.64-2.7,21.21,21.21,0,0,1,1.55-2q.66-.75,1.38-1.43l.19-.18A22.38,22.38,0,0,1,35.72,6.62a21.13,21.13,0,0,1,3,1.44A30.85,30.85,0,0,1,39.89,12a32.13,32.13,0,0,1,.74,5.34C40.67,18,40.68,18.58,40.68,19.21Z"/></svg>