<svg id="Welcome_Screen" data-name="Welcome Screen" xmlns="http://www.w3.org/2000/svg" viewBox="0 0 55 55"><defs><style>.cls-1{fill:#17a020;}.cls-2{fill:#7bc150;}.cls-3{fill:#a2d9a6;opacity:0.34;}</style></defs><title>workinglayout</title><path class="cls-1" d="M49.86,27.5A22.18,22.18,0,0,1,49.58,31c0,.24-.08.48-.13.71a20.66,20.66,0,0,1-.94,3.47A21,21,0,0,1,47,38.35l-.17.3c-.22.38-.45.76-.7,1.12h0A22.34,22.34,0,0,1,27.5,49.86a22,22,0,0,1-9.74-2.24l-.5-.25h0a19.78,19.78,0,0,1-1.75-1h0a22.59,22.59,0,0,1-3.59-2.86,21.76,21.76,0,0,1-3-3.63.68.68,0,0,1-.09-.13l-.3-.45a22.06,22.06,0,0,1-2.77-6.69,23.29,23.29,0,0,1-.43-2.47,21.16,21.16,0,0,1-.16-2.63,22.68,22.68,0,0,1,.31-3.73s0,0,0-.06a22.46,22.46,0,0,1,1.05-3.94c.06-.18.14-.37.21-.55s.25-.62.4-.92.31-.66.48-1a22.32,22.32,0,0,1,1.64-2.7,21.21,21.21,0,0,1,1.55-2q.66-.75,1.38-1.43l.19-.18A22.38,22.38,0,0,1,35.51,6.62a21.13,21.13,0,0,1,3,1.44l.18.1.66.39.12.07a21.41,21.41,0,0,1,2.57,1.92c.37.31.73.64,1.07,1s.57.57.84.87c.49.53,1,1.09,1.39,1.67.25.33.49.66.72,1h0A22.29,22.29,0,0,1,49.86,27.5Z"/><path class="cls-2" d="M5.18,28.82c0-.25,0-.49,0-.74a.36.36,0,0,1,.33.38A.36.36,0,0,1,5.18,28.82Z"/><path class="cls-2" d="M5.82,31.72a.34.34,0,0,1-.19.35c-.06-.23-.1-.48-.14-.71A.34.34,0,0,1,5.82,31.72Z"/><path class="cls-2" d="M6.3,27.31c-.08.27-.22.45-.48.43s-.27-.19-.25-.37A.36.36,0,0,1,6,27,.3.3,0,0,1,6.3,27.31Z"/><path class="cls-2" d="M5.18,26.34q0-.8.13-1.58c0-.14,0-.27.06-.4a1.85,1.85,0,0,1,0-.29c0-.11,0-.21,0-.31s0,0,0-.06a0,0,0,0,1,0,0c0-.15.05-.3.08-.45h0a1.23,1.23,0,0,1,1.07.33c.27.32,0,.57-.4.63l-.17.35a.78.78,0,0,0,.07.66,1,1,0,0,1-.17,1C5.73,26.52,5.45,26.45,5.18,26.34Z"/><path class="cls-2" d="M6,33.76c-.09-.31-.17-.62-.25-.93a1.05,1.05,0,0,1,.52-.17c.26,0,.38.2.4.49A.74.74,0,0,1,6,33.76Z"/><path class="cls-2" d="M6.86,31.26a.38.38,0,1,1-.34-.42A.35.35,0,0,1,6.86,31.26Z"/><path class="cls-2" d="M6.92,35.11c.09.28.62.61-.07.81H6.79c-.09-.21-.17-.43-.25-.64A.63.63,0,0,1,6.92,35.11Z"/><path class="cls-2" d="M6.92,34.59c-.36-.06-.58-.23-.41-.63a.33.33,0,0,1,.5-.15C7.4,34.1,7,34.34,6.92,34.59Z"/><path class="cls-2" d="M6.92,35.11v-.52c.26,0,.55-.25.76.06a.46.46,0,0,1,0,.39C7.47,35.36,7.18,35.13,6.92,35.11Z"/><path class="cls-2" d="M7.39,32.57a.36.36,0,0,1,.33.42.34.34,0,0,1-.4.34A.35.35,0,0,1,7,32.91C7,32.68,7.15,32.57,7.39,32.57Z"/><path class="cls-2" d="M7.77,17.35,7.6,17.3c.1-.2.21-.4.32-.59a.35.35,0,0,1,.17.31C8.06,17.24,8,17.38,7.77,17.35Z"/><path class="cls-2" d="M8,37.21c.19.26.25.53,0,.76a.53.53,0,0,1-.19.1c-.22-.39-.42-.79-.6-1.19.14,0,.27-.16.4-.21Z"/><path class="cls-2" d="M7.85,31.95a.35.35,0,0,1-.36-.38.29.29,0,0,1,.3-.34.45.45,0,0,1,.41.44C8.2,31.89,8,32,7.85,31.95Z"/><path class="cls-2" d="M5.36,29.91l-.08,0s0,0,0-.05,0-.06,0-.09l0-.41c.73.22,1.18-.47,1.84-.54-.08-.25-.33-.3-.5-.44s-.34-.32-.17-.58A.44.44,0,0,1,7,27.62a1.42,1.42,0,0,0,.76.09c.25,0,.51.07.5.35A13.63,13.63,0,0,1,8,30a.34.34,0,0,1-.57.14A.89.89,0,0,0,6.1,30C5.89,30.19,5.6,30,5.36,29.91Z"/><path class="cls-2" d="M8.42,36.19c0,.33-.19.44-.48.47H7.61c0-.11,0-.22,0-.32,0-.28.14-.5.47-.48A.33.33,0,0,1,8.42,36.19Z"/><path class="cls-2" d="M8.13,18.84c.19.2.65.3.34.71a.31.31,0,0,1-.46,0C7.68,19.3,7.79,19,8.13,18.84Z"/><path class="cls-2" d="M7.27,25.4c-.24-.12-.38-.29-.28-.54s.52-.44.84-.54a.44.44,0,0,1,.53.32,3,3,0,0,1,.12.63c-.33.51.52.63.27,1.09s-.8,0-1.07.36-.48.62-.81.21.11-.51.33-.74S7.84,25.69,7.27,25.4Z"/><path class="cls-2" d="M8.56,15.63c.12-.18.23-.36.35-.53a.38.38,0,1,1,0,.75A.34.34,0,0,1,8.56,15.63Z"/><path class="cls-2" d="M9.27,33.72c-.05.37.3,1-.43,1-.45,0-1-.44-.86-.89s.44-1,.94-1S9.23,33.37,9.27,33.72Z"/><path class="cls-2" d="M10,39.2c0,.49-.48.37-.81.41-.14,0-.32,0-.46,0l-.18-.28-.12-.19c.06-.43.49-.34.8-.35S10,38.7,10,39.2Z"/><path class="cls-2" d="M9.93,23.76c-.68.38-.52.71-.14,1.2.14.18-.11.4-.45.42-.41-.29-.54-.84-.84-1.25-.1-.14.89-.93,1.13-.89S10.13,23.64,9.93,23.76Z"/><path class="cls-2" d="M10.49,36.76a.38.38,0,1,1-.75,0,.38.38,0,0,1,.75,0Z"/><path class="cls-2" d="M6,21.3c.07-.27.15-.53.25-.79a9.36,9.36,0,0,0,2.24,1.05c.17-.18.12-.39.14-.58,0-.36.05-.76.55-.68a.69.69,0,0,1,.61.81c0,.31-.24.6.25.74a.36.36,0,0,1,.17.62c-.21.25-.48.18-.65-.07s-.41-.56-.68-.31-.75.52-.61,1c.07.27.16.5-.08.7s-.53,0-.78-.12c-.27.06-.45-.06-.44-.32S7.35,23,7.6,23c.16-.69,0-1-.82-1.15C6.49,21.8,6.27,21.54,6,21.3Z"/><path class="cls-2" d="M9.07,14.86l.17-.25.32-.44c0,.23.16.44.57.61a.36.36,0,0,1,.12.58c-.17.22-.4.17-.61,0A3.4,3.4,0,0,1,9.07,14.86Z"/><path class="cls-2" d="M10.21,31.48c-.2-.4-.41-.7-.89-.28a.81.81,0,0,1-.74.06c-.27-.06-.51-.19-.49-.5s.32-.34.53-.3c.59.14,1-.3,1.53-.39.33-.06.69-.27,1,.05s0,.58-.12.87a2.81,2.81,0,0,0-.09.33c.21.17.62.37.15.61s-.8.7-1.22.2C9.54,31.79,9.83,31.55,10.21,31.48Z"/><path class="cls-2" d="M7.21,18.13c.09-.19.17-.39.27-.58.69.4,1.61.35,2.19,1,.09.11.89.5.71-.47-.09-.46.12-1-.18-1.46-.14-.22,0-.45.25-.56a.43.43,0,0,1,.59.19A2.23,2.23,0,0,1,11.37,18a5.37,5.37,0,0,0-.13,1c-.41.4-.71.59-1,.59a1.56,1.56,0,0,1-1-.53c-.35-.32-.75-.19-1.13-.23C8,18.35,7.62,18.22,7.21,18.13Z"/><path class="cls-2" d="M11.33,39.62c-.38,0-.42-.33-.42-.63s0-.56.38-.58.44.28.47.58S11.71,39.62,11.33,39.62Z"/><path class="cls-2" d="M12,34.44c0,.28-.06.57-.09.85-.6.06-1-.15-.84-.88-.35.2-.67.56-.94.14s.06-.74.33-1c.45-.39.93,0,1.38.11S12.06,34.15,12,34.44Z"/><path class="cls-2" d="M11.18,19.44l.06-.42c.54-.22.92-.17.8.55-.05.3-.17.66-.58.6S11.13,19.74,11.18,19.44Z"/><path class="cls-2" d="M12.05,25.18c.44.33.11.65-.12.94-.12.47-.34.6-.69.17-.65.14-.74.76-1,1.21-.31-.05-.5-.19-.5-.4a.57.57,0,0,1,.12-.32,1.9,1.9,0,0,0,.25-.79C10.3,24.7,11,24.4,12.05,25.18Z"/><path class="cls-2" d="M11.29,14.83a2.24,2.24,0,0,1,0-.48c0-.33-.06-.72.35-.8s.47.3.53.61a.91.91,0,0,0,.14.39c.18.25.46.47.22.81a.37.37,0,0,1-.46.12A1,1,0,0,1,11.29,14.83Z"/><path class="cls-2" d="M11.48,11.91c.2-.22.42-.43.63-.63a4,4,0,0,1,.48-.32c.27-.14.48.05.5.35a3,3,0,0,1-1.33,1.05C11.5,12.3,11.4,12.1,11.48,11.91Z"/><path class="cls-2" d="M12.28,35.81a.52.52,0,0,1-.35-.52c.07-.15.14-.3.22-.45.18-.32.43-.38.69-.14s.21.48,0,.72S12.37,35.55,12.28,35.81Z"/><path class="cls-2" d="M12.75,38.11a.34.34,0,0,1,.34.4c0,.25-.17.35-.42.35a.38.38,0,0,1,.08-.75Z"/><path class="cls-2" d="M13.26,26.75c0,.25-.17.35-.42.35a.35.35,0,0,1-.33-.41.35.35,0,0,1,.41-.34A.34.34,0,0,1,13.26,26.75Z"/><path class="cls-2" d="M10.66,22.54a.37.37,0,0,1,.59-.1,1.87,1.87,0,0,0,1.18.4c.62.08.79.64.89,1.12s-.35.48-.63.61a.41.41,0,0,1-.52-.19c-.29-.45.3-.45.43-.9-.85.46-1.27-.2-1.82-.43A.34.34,0,0,1,10.66,22.54Z"/><path class="cls-2" d="M13.39,14.39a.36.36,0,0,1,.4.34c0,.19-.06.34-.28.34a.42.42,0,0,1-.45-.3C13,14.52,13.17,14.41,13.39,14.39Z"/><path class="cls-2" d="M12.41,37.51c-.54-.1-.46-.5-.37-.88s.17-.55.25-.82a2.58,2.58,0,0,1,1,.3c.39.12.76.31.58.76A1.17,1.17,0,0,1,12.41,37.51Z"/><path class="cls-2" d="M13.51,15.76c-.51.58,0,.79.43,1.07.24.16.27.44,0,.53-.56.19-.81-.43-1.27-.58-.23-.07-.19-.4,0-.6a1.18,1.18,0,0,0,.24-.63c0-.21.2-.26.39-.2S13.57,15.49,13.51,15.76Z"/><path class="cls-2" d="M14.12,32.31a.84.84,0,0,1-.7.84.32.32,0,0,1-.38-.36,1,1,0,0,1,.61-.9C13.95,31.9,14.14,32,14.12,32.31Z"/><path class="cls-2" d="M13.4,34.24c-.31,0-.71,0-.7-.43s.4-.42.71-.42.71,0,.7.43S13.71,34.22,13.4,34.24Z"/><path class="cls-2" d="M14,16.46c-.17,0-.35,0-.38-.24s.14-.36.34-.4.3.1.32.3S14.27,16.46,14,16.46Z"/><path class="cls-2" d="M12,41.54c-.26-.16-.6-.3-.53-.7s.32-.35.61-.3c.62.08.4-.35.32-.61-.16-.5-.06-.79.5-.84a.66.66,0,0,0,.63-.5.42.42,0,0,1,.39-.32c.37,0,.53.3.34.59-.56.84-1.07,1.7-1.56,2.6C12.54,41.74,12.24,41.68,12,41.54Z"/><path class="cls-2" d="M12.9,21c.2-.38,1.33-.56.4-1.29-.27-.22-.42-.48-.12-.71s.55-.05.66.27a1.05,1.05,0,0,0,.44.51.4.4,0,0,1,.09.66c-.5.53-1,1.06-1.55,1.53a.92.92,0,0,1-1.13-.1c-.32-.21-.53-.58-.92-.73-.17-.06-.19-.29-.11-.46s.36-.25.74-.27c.22,0,.43.16.63.46S12.64,21.44,12.9,21Z"/><path class="cls-2" d="M14.12,31.59c-.22,0-.37-.12-.34-.32a.3.3,0,0,1,.38-.25.27.27,0,0,1,.26.27C14.43,31.51,14.26,31.56,14.12,31.59Z"/><path class="cls-2" d="M13.89,12c0-.24.1-.4.35-.39a.43.43,0,0,1,.38.41.3.3,0,0,1-.32.32A.36.36,0,0,1,13.89,12Z"/><path class="cls-2" d="M10.21,27.5c.71-.53,1.33-.17,1.95.22a.43.43,0,0,1,.2.58,1.16,1.16,0,0,0,0,.94c.14-.34.77-.1.45-.74-.09-.19-.22-.35,0-.53a.37.37,0,0,1,.4-.05c.23.09.24.3.22.5s-.09.35.1.52c.24-.22.12-.92.74-.66a2.38,2.38,0,0,1,.49,1.56c0,.06-.15.17-.18.16-.79-.39-1.55.4-2.36,0-.56-.28-.84-.5-.65-1.23s-.43-.74-1-.64c.3.77.11,1-1.1,1.44-.31,0-.47.73-.8.32s.09-.69.4-.93a.62.62,0,0,1,.24-.08C10.17,28.76,9.67,27.8,10.21,27.5Z"/><path class="cls-2" d="M14.4,23.92c.33,0,.44.19.47.47,0,.12,0,.22,0,.33h-.33c-.28,0-.5-.14-.48-.47A.33.33,0,0,1,14.4,23.92Z"/><path class="cls-2" d="M15.35,23.11a.36.36,0,0,1-.42.35.38.38,0,0,1,.07-.75A.36.36,0,0,1,15.35,23.11Z"/><path class="cls-2" d="M14.81,17.52a.34.34,0,0,1,.35.4c0,.24-.16.35-.4.35a.35.35,0,0,1-.35-.4A.34.34,0,0,1,14.81,17.52Z"/><path class="cls-2" d="M13.53,41c.41-.29.92-.38,1.28-.8.18-.2.48,0,.54.3S14,42,13.66,41.9a.48.48,0,0,1-.35-.35A.46.46,0,0,1,13.53,41Z"/><path class="cls-2" d="M14.81,11.65c-.05-.25.09-.38.33-.38a.35.35,0,0,1,.38.38.31.31,0,0,1-.3.35A.39.39,0,0,1,14.81,11.65Z"/><path class="cls-2" d="M15.29,12.35a2.14,2.14,0,0,1,1.38.91c-.47.36-.86.88-1.33,1s-.68-.56-.74-1S14.81,12.3,15.29,12.35Z"/><path class="cls-2" d="M15.46,28.31a.38.38,0,0,1,0-.75c.24,0,.35.16.36.4A.35.35,0,0,1,15.46,28.31Z"/><path class="cls-2" d="M16.09,32.34c-.24.18-.48.49-.76.1a.33.33,0,0,1,.13-.51C15.85,31.75,16,32,16.09,32.34Z"/><path class="cls-2" d="M14.14,26c.24.06.39.35.8.27-.36-.52-.11-1-.06-1.56h.6c.8.05.88.22.49.94a7.49,7.49,0,0,0-.5,1c-.12.32-.18.69-.65.63a1.72,1.72,0,0,1-1.23-.71.37.37,0,0,1,.06-.47A.47.47,0,0,1,14.14,26Z"/><path class="cls-2" d="M16.56,21.36c-.06.45-.45.46-.77.53s-.55-.06-.5-.4.48-.43.8-.5S16.53,21.07,16.56,21.36Z"/><path class="cls-2" d="M14.94,34c.3.79,1.15-.25,1.42.43.16.43-.27.48-.53.63-.87.49-1.23.35-1.25-.57a1.6,1.6,0,0,1,0-.2C14.64,34.07,14.92,33.91,14.94,34Z"/><path class="cls-2" d="M15.69,26.87a.42.42,0,0,1,.38-.48c.19,0,.31.09.32.29a.35.35,0,0,1-.32.41C15.88,27.13,15.71,27.07,15.69,26.87Z"/><path class="cls-2" d="M15.53,9.3a.4.4,0,0,1,0-.55c.12-.12.32-.17.32-.36.26-.17.52-.32.79-.46a1.31,1.31,0,0,1-.78,1.51A.37.37,0,0,1,15.53,9.3Z"/><path class="cls-2" d="M15.21,37.51c-.08-.33,0-.63-.42-.76-.22-.06-.26-.29-.17-.5s.27-.3.41-.22c.43.26.58.07.69-.33a.43.43,0,0,1,.6-.33c.27.09.27.34.25.65a2.84,2.84,0,0,0,.16,2.72.33.33,0,0,1-.19.43c-.2.11-.37,0-.56-.09C15.4,38.71,15.34,38.06,15.21,37.51Z"/><path class="cls-2" d="M14.45,10.78c-.18-.38.14-.57.41-.74a1,1,0,0,1,1.59.56,2.38,2.38,0,0,0,.68,1c-.05.35-.17.67-.59.53s-.74-.27-.63-.69c.24-.89-.35-.56-.7-.49S14.62,11.13,14.45,10.78Z"/><path class="cls-2" d="M16.78,24.21c-.27.09-.53.2-.79.28a.39.39,0,0,1-.5-.2.38.38,0,0,1,.16-.52c.34-.17.66-.55,1.08-.32S16.88,23.95,16.78,24.21Z"/><path class="cls-2" d="M16.15,30.84a.35.35,0,0,1,.41-.34c.24,0,.35.17.34.42a.35.35,0,0,1-.41.33A.35.35,0,0,1,16.15,30.84Z"/><path class="cls-2" d="M16.72,19.77a.34.34,0,0,1,.35.4c0,.24-.17.35-.4.36a.35.35,0,0,1-.35-.4A.34.34,0,0,1,16.72,19.77Z"/><path class="cls-2" d="M16.86,32.86a1.7,1.7,0,0,1-1,.88.43.43,0,0,1-.54-.14.4.4,0,0,1-.06-.48.34.34,0,0,1,.44-.17c1,.38.41-.31.4-.6l.06-.06c.33-.19.3-1,.87-.69S17,32.45,16.86,32.86Z"/><path class="cls-2" d="M15.4,45.15l-.53.69a.64.64,0,0,1,0,.11.29.29,0,0,1-.11-.06l-.3-.22a.46.46,0,0,1-.12-.09l-.06,0h0a.35.35,0,0,1-.11-.08,1,1,0,0,1-.18-.14,18,18,0,0,1-1.62-1.36c.45.1.63,0,.87-.43.32-.58,1.12-.5,1.64.09,0-.63.36-.73.86-.7h0c-.14-.91.84-.93,1.18-1.46.06-.09.27,0,.36.15s.17.4,0,.45c-.56.17-.78,1-1.55.87.44.32.43,1.12,1.2,1.11.17,0,.28.29.2.5s-.29.58-.65.61S15.77,45.14,15.4,45.15Z"/><path class="cls-2" d="M17,16.62c.17.27.4.54.13.84s-.51.09-.74-.1a1,1,0,0,0-.37-.21c-.3-.09-.67-.13-.55-.58s.44-.3.59-.3C16.53,16.24,16.82,16.31,17,16.62Z"/><path class="cls-2" d="M17.25,18.57a.38.38,0,0,1-.75,0,.36.36,0,0,1,.32-.4C17.09,18.21,17.24,18.33,17.25,18.57Z"/><path class="cls-2" d="M17.48,29.23l-.15.08c-.28.2-.53.66-.92.24-.25-.27-.05-.53.22-.71C17.13,28.48,17.34,28.77,17.48,29.23Z"/><path class="cls-2" d="M17.77,27.65c-.11.42-.52.45-.86.54s-.29-.15-.26-.33a.75.75,0,0,1,.69-.66C17.62,27.17,17.76,27.33,17.77,27.65Z"/><path class="cls-2" d="M17.25,42.79a.34.34,0,0,1,.34.4c0,.25-.17.35-.42.35a.35.35,0,0,1-.33-.41A.35.35,0,0,1,17.25,42.79Z"/><path class="cls-2" d="M17.36,39.53a.38.38,0,1,1,.75,0,.38.38,0,1,1-.75,0Z"/><path class="cls-2" d="M17.7,21a.35.35,0,0,1,.41.33c0,.25-.1.4-.35.42A.38.38,0,0,1,17.7,21Z"/><path class="cls-2" d="M17.32,23.95c.23-.09.48-.09.58.17.19.47-.26.63-.48.91s-.35.25-.43.06a4,4,0,0,1-.21-.89C17,24.12,17.13,24,17.32,23.95Z"/><path class="cls-2" d="M17.91,18.72a.36.36,0,0,1,.38.38.38.38,0,0,1-.75,0A.36.36,0,0,1,17.91,18.72Z"/><path class="cls-2" d="M18.28,33.12c0,.22-.09.37-.3.35a.3.3,0,0,1-.29-.34c0-.18.07-.34.29-.33S18.24,33,18.28,33.12Z"/><path class="cls-2" d="M17.59,41.26c0-.19.22-.25.4-.21a.37.37,0,0,1,.3.43c-.05.21-.17.33-.37.29A.4.4,0,0,1,17.59,41.26Z"/><path class="cls-2" d="M17.63,7.64a.6.6,0,0,0-.19-.12c.33-.17.66-.33,1-.48a2,2,0,0,1-.21.49A.39.39,0,0,1,17.63,7.64Z"/><path class="cls-2" d="M18.1,23.11a.35.35,0,0,1-.39-.36.36.36,0,0,1,.32-.4c.27,0,.42.13.43.37A.35.35,0,0,1,18.1,23.11Z"/><path class="cls-2" d="M18.51,13.65c.06.2.09.49-.19.43a1.56,1.56,0,0,1-1.1-.55.32.32,0,0,1,.19-.49c.3-.12.48.06.61.31A.61.61,0,0,0,18.51,13.65Z"/><path class="cls-2" d="M18.56,14.72c0,.15-.14.22-.29.24s-.35-.07-.32-.3a.26.26,0,0,1,.29-.24C18.42,14.43,18.58,14.5,18.56,14.72Z"/><path class="cls-2" d="M18.05,26.92a.35.35,0,0,1,.35-.4.35.35,0,0,1,.4.33c0,.25-.1.4-.35.42A.34.34,0,0,1,18.05,26.92Z"/><path class="cls-2" d="M17.07,34.81a.38.38,0,0,1,.61-.06,1.28,1.28,0,0,0,1,.37,1.56,1.56,0,0,1,0,.26c-.06.35.18.85-.27,1s-.48-.4-.68-.65a1.73,1.73,0,0,0-.5-.32A.39.39,0,0,1,17.07,34.81Z"/><path class="cls-2" d="M17.91,32.42a.34.34,0,0,1-.07-.62c.35-.27.57,0,.74.28s.58.29.59.71c0,.05,0,.17-.08.19C18.48,33.28,18.37,32.52,17.91,32.42Z"/><path class="cls-2" d="M19.28,20.81a.36.36,0,0,1,.4.32c0,.27-.13.42-.37.43a.38.38,0,1,1,0-.75Z"/><path class="cls-2" d="M19.65,47.23c-.1.31,0,.81-.4,1a.28.28,0,0,1-.13,0l-.32-.13q-.53-.23-1-.48l-.1-.05-.4-.19h0c-.53-.27-1-.56-1.54-.87a.48.48,0,0,1,.43-.31,1.11,1.11,0,0,1,.64.31c-.14-.79.06-1.2.87-1,0-.39.13-.67.58-.69.3,0,.48-.14.5-.45a.35.35,0,0,1,.4-.36c.29,0,.39.21.41.45a2.27,2.27,0,0,1-.24,1.41,8.39,8.39,0,0,0-.43,1l.15,0C19.29,46.93,19.78,46.88,19.65,47.23Z"/><path class="cls-2" d="M17.48,29.23c.3,0,.43-.22.55-.48.29-.6.85-.43,1.29-.33s.54.69.5,1.07c-.08.63-.58.34-1,.29s-.65-.49-.85.15c0,.15-.3.17-.46.06C17.22,29.78,17.39,29.5,17.48,29.23Z"/><path class="cls-2" d="M18.88,35.5c-.06-.13-.13-.26-.19-.38a1.36,1.36,0,0,0,0-.17c-.06-.37-.81-.66-.27-1.08s.84.36,1.33.34c.12,0,.17.22.14.37-.1.46-.51,0-.69.19s0,.25.13.32.51,0,.45.39a.41.41,0,0,1-.35.34C19.13,35.88,19,35.73,18.88,35.5Z"/><path class="cls-2" d="M18.51,13.65c-.26-.67,0-1,.67-1a1.4,1.4,0,0,1,.89.45c-.14.22-.27.43-.41.64s-.08.76-.52.63,0-.56-.05-.84C18.86,13.46,18.69,13.59,18.51,13.65Z"/><path class="cls-2" d="M19.26,31.93c-.22,0-.43-.22-.33-.39.26-.43.32-1.06.92-1.21.22-.05.34.17.35.47C19.83,31.09,19.89,31.8,19.26,31.93Z"/><path class="cls-2" d="M20.19,16.33a.38.38,0,1,1-.75,0,.38.38,0,1,1,.75,0Z"/><path class="cls-2" d="M20,15.14c0,.24-.16.35-.4.36a.35.35,0,0,1-.35-.4.38.38,0,0,1,.75,0Z"/><path class="cls-2" d="M19.55,18.3a.41.41,0,0,1,.54.41c0,.48-.42.55-.71.71-.32,0-.54-.17-.53-.48S19.23,18.38,19.55,18.3Z"/><path class="cls-2" d="M20.07,37.19c-.32,0-.66,0-.63-.49a.32.32,0,0,1,.41-.32C20.38,36.51,20.17,36.87,20.07,37.19Z"/><path class="cls-2" d="M19.61,8.57a.34.34,0,0,1,.34-.4.35.35,0,0,1,.41.33c0,.25-.1.4-.35.42A.35.35,0,0,1,19.61,8.57Z"/><path class="cls-2" d="M20.53,45.74a.36.36,0,0,1-.32.4c-.28,0-.43-.13-.43-.37a.34.34,0,0,1,.36-.39A.34.34,0,0,1,20.53,45.74Z"/><path class="cls-2" d="M19.84,26.32c-.05-.19.07-.31.27-.33a.36.36,0,0,1,.42.31c0,.19,0,.36-.22.39A.41.41,0,0,1,19.84,26.32Z"/><path class="cls-2" d="M20.69,27.69c0,.19-.19.27-.45.28-.35-.3-.76-.62-1.13-1-.09-.09,0-.3.11-.38a.35.35,0,0,1,.51.16C19.94,27.21,20.77,27,20.69,27.69Z"/><path class="cls-2" d="M20.85,44.43c0,.25-.16.34-.38.33s-.32-.12-.32-.32.16-.27.34-.3S20.84,44.23,20.85,44.43Z"/><path class="cls-2" d="M20.88,14.07a.38.38,0,1,1-.75,0,.38.38,0,0,1,.75,0Z"/><path class="cls-2" d="M20.4,24h-.33c0-.11,0-.22,0-.33,0-.28.14-.5.47-.48a.33.33,0,0,1,.32.32C20.9,23.88,20.69,24,20.4,24Z"/><path class="cls-2" d="M18.86,23.47c.41-.12.83-.37,1.05.26a2.42,2.42,0,0,0,.16.3c0,.34,0,.69.48.74.32,0,.43.28.29.57a.37.37,0,0,1-.58.13,1,1,0,0,0-.71-.24c-.74.14-1-.23-1.11-.92C18.37,23.88,18.39,23.61,18.86,23.47Z"/><path class="cls-2" d="M17.13,11.57a.75.75,0,0,1,.38-.71,2.54,2.54,0,0,0,.89-1,2.06,2.06,0,0,1,2.27-.31c.18.19.69.34.32.72s-.61.06-.88-.48c0,1-.8,1.09-1.23,1.54A1.55,1.55,0,0,1,17.13,11.57Z"/><path class="cls-2" d="M21.28,40.82a3.31,3.31,0,0,1-.24.45.33.33,0,0,1-.45.09.43.43,0,0,1-.12-.3.29.29,0,0,1,.31-.32A3.88,3.88,0,0,1,21.28,40.82Z"/><path class="cls-2" d="M20.71,7.46c-.11-.33-.22-.68.24-.86a1.27,1.27,0,0,1,.33-.05c0,.17,0,.34,0,.51s.25.59-.12.76S20.79,7.69,20.71,7.46Z"/><path class="cls-2" d="M21.63,20.75c.06.87-.3,1.31-1.11,1.34-.25,0-.47,0-.55-.28a.37.37,0,0,1,.23-.49c.36-.12.49-.28.14-.58s-.33-.43-.13-.66.51-.14.77,0A1.94,1.94,0,0,1,21.63,20.75Z"/><path class="cls-2" d="M21.9,22.47c0,.25-.17.34-.38.38s-.34,0-.36-.24a.36.36,0,0,1,.39-.43A.32.32,0,0,1,21.9,22.47Z"/><path class="cls-2" d="M21.93,43.85a.36.36,0,0,1-.38.38.34.34,0,0,1-.38-.38.35.35,0,0,1,.38-.38A.37.37,0,0,1,21.93,43.85Z"/><path class="cls-2" d="M21.25,8.46c-.08-.19.06-.27.22-.26a.46.46,0,0,1,.44.34c0,.14,0,.25-.18.22A.6.6,0,0,1,21.25,8.46Z"/><path class="cls-2" d="M22.11,23.44a.36.36,0,0,1-.37.38c-.23,0-.4-.1-.37-.35s.22-.32.43-.33S22.09,23.24,22.11,23.44Z"/><path class="cls-2" d="M21.85,26.17a.35.35,0,0,1,.41.34.35.35,0,0,1-.33.41c-.25,0-.4-.1-.42-.35A.34.34,0,0,1,21.85,26.17Z"/><path class="cls-2" d="M20.25,29.83c-.16-.35-.19-.58.21-.73.66.45,1.32.88,1.93,1.37a.48.48,0,0,1-.09.7c-.25.19-.43,0-.66-.15A2.63,2.63,0,0,1,20.25,29.83Z"/><path class="cls-2" d="M21.39,15.89a4.78,4.78,0,0,0,.28-1.59.35.35,0,0,1,.34-.42.37.37,0,0,1,.44.32c.06.31.12.61.19,1a19.93,19.93,0,0,0-.57,1.93c-.19.49-.84.48-1.3.64-.13.05-.26-.11-.3-.26s0-.42.17-.43C21.43,17,21.33,16.36,21.39,15.89Z"/><path class="cls-2" d="M21.8,40c0-.32-.07-.73.41-.82.17,0,.37.06.34.27C22.5,39.85,22.16,39.92,21.8,40Z"/><path class="cls-2" d="M21.28,40.82c-.51-.7-.18-.89.52-.87a2,2,0,0,1,.47.36c.23.33.75.68.45,1.09s-.76.41-1.16.58c-.07,0-.22,0-.3-.11a.27.27,0,0,1,0-.39,4.49,4.49,0,0,1,.51-.38C21.68,40.88,21.47,40.88,21.28,40.82Z"/><path class="cls-2" d="M21.47,13.49a2.87,2.87,0,0,0-1.4-.36c-.06-.78.32-1,1-.74.37.12.73.35,1.15.12a.37.37,0,0,1,.51.18.46.46,0,0,1-.18.61A.89.89,0,0,1,21.47,13.49Z"/><path class="cls-2" d="M23,32.86c-.17.1-.45.18-.48.32-.23.81-.66.48-1.15.27.08.41-.08,1.06.76.57.26-.15.53-.13.63.19s-.07.5-.39.52a.71.71,0,0,0-.74.69c-.06.38.06,1-.58.82A1,1,0,0,1,20.29,35a2.14,2.14,0,0,0,.06-1.51,1.22,1.22,0,0,1,.19-1.34.93.93,0,0,1,1.54-.22C22.36,32.32,23,32.26,23,32.86Z"/><path class="cls-2" d="M23.58,49.51c-.4-.06-.79-.15-1.19-.24,0,0,0,0,0,0-.05-.27.16-.4.49-.4A1.59,1.59,0,0,1,23.58,49.51Z"/><path class="cls-2" d="M22.65,19.18h-.33c0-.11,0-.22,0-.33,0-.28.13-.5.46-.48a.33.33,0,0,1,.32.32C23.15,19,22.93,19.15,22.65,19.18Z"/><path class="cls-2" d="M21.28,6.56c0-.25,0-.53.29-.61l.13,0c.34,0,.38.27.49.5A3.83,3.83,0,0,0,23,7.83a.44.44,0,0,1,.08.56.36.36,0,0,1-.44.19c-.28-.07-.14-.43-.18-.46C21.86,7.74,21.94,6.87,21.28,6.56Z"/><path class="cls-2" d="M22.78,10.95a2.38,2.38,0,0,0,.4.11c.07.45.11.94-.53.88-.33,0-.79-.24-.68-.71S22.41,10.75,22.78,10.95Z"/><path class="cls-2" d="M22.13,18.93c0,.09.12.17.19.26.08.32,0,.69.12,1a.86.86,0,0,0,.74.71.36.36,0,0,1,.24.42c-.05.25-.27.27-.48.27s-.73.12-.89-.31c-.09-.23-.05-.53-.42-.54-.07-.53-.13-1.07-.23-1.61-.06-.32-.19-.66.25-.75S22.1,18.62,22.13,18.93Z"/><path class="cls-2" d="M22.9,7a.34.34,0,0,1,.34-.4.35.35,0,0,1,.41.33c0,.25-.1.4-.35.42A.34.34,0,0,1,22.9,7Z"/><path class="cls-2" d="M22.9,44.34a.38.38,0,1,1,.75.07.38.38,0,1,1-.75-.07Z"/><path class="cls-2" d="M23.62,42.33a.38.38,0,1,1,0-.75.38.38,0,1,1,0,.75Z"/><path class="cls-2" d="M23.25,36.38a.35.35,0,0,1,.41-.34.36.36,0,0,1,.35.4.37.37,0,0,1-.42.35A.35.35,0,0,1,23.25,36.38Z"/><path class="cls-2" d="M22.37,38.14c0-.14.14-.3-.06-.38a.28.28,0,0,0-.39.23c-.16.69-.86.77-1.3,1.14-.17.14-.5.15-.53,0-.14-.88-1-.69-1.48-1-.26-.17-.51-.32-.33-.66s.44-.25.68-.11a1,1,0,0,0,1.12-.14c.11,0,.29,0,.32.09.5.94,1,.23,1.36-.07s.5-.44.86-.16a.4.4,0,0,0,.39.12c.37-.13.76-.27.82.33,0,.35-.8,1.23-1.1,1.2S22.33,38.42,22.37,38.14Z"/><path class="cls-2" d="M23.77,14.46a.38.38,0,1,1,0-.75c.24,0,.35.16.36.4A.35.35,0,0,1,23.77,14.46Z"/><path class="cls-2" d="M23.69,20.11a.36.36,0,0,1,.32.42.28.28,0,0,1-.33.29c-.23-.08-.4-.22-.37-.48S23.5,20.08,23.69,20.11Z"/><path class="cls-2" d="M23,32.86c.63.09.59.84,1.07,1.1.14.07,0,.32-.14.43s-.29.18-.39.06a6.48,6.48,0,0,0-.72-.9C22.62,33.36,23,33.1,23,32.86Z"/><path class="cls-2" d="M23.42,15.43a.35.35,0,0,1,.41-.34.35.35,0,0,1,.34.42.38.38,0,0,1-.75-.08Z"/><path class="cls-2" d="M23.71,29.23c.53.15.79.48.52,1s-.77.37-1.21.3a.35.35,0,0,1-.29-.38.37.37,0,0,1,.28-.38A1,1,0,0,0,23.71,29.23Z"/><path class="cls-2" d="M24,35a.43.43,0,0,1,.4-.45c.21,0,.29.12.31.3a.37.37,0,0,1-.35.4C24.17,35.25,24,35.19,24,35Z"/><path class="cls-2" d="M24.73,43.26c0,.11,0,.22,0,.33h-.33c-.28,0-.5-.14-.48-.47a.33.33,0,0,1,.32-.32C24.59,42.76,24.7,43,24.73,43.26Z"/><path class="cls-2" d="M25,18.58c0,.39-.13.6-.4.55a1.14,1.14,0,0,1-.87-.84.33.33,0,0,1,.38-.43C24.63,17.93,24.8,18.36,25,18.58Z"/><path class="cls-2" d="M23.71,29.23c-.32-.06-.61-.23-.43-.57.33-.64.81.06,1.22-.06,0,0,.08-.1.07-.14-.06-.28-.39-.56,0-.85a.45.45,0,0,1,.4,0c.36.22.19.57.14.86-.1.53-.15,1.21-1,.63C23.93,29,23.8,29.11,23.71,29.23Z"/><path class="cls-2" d="M24.49,25.26c.27,0,.56,0,.6.37s-.27.45-.56.48-.64,0-.65-.42S24.2,25.26,24.49,25.26Z"/><path class="cls-2" d="M23.81,32.39a.61.61,0,0,0,0-.17c-.05-.35-.3-.81.3-.87s.71.31.76.76a.87.87,0,0,0,.05.25c.15.27.47.52.17.83s-.65.1-1,0S23.69,32.77,23.81,32.39Z"/><path class="cls-2" d="M23.53,9.38c.36-.57.67-.57.94.06.12.3.32.35.54.48a.37.37,0,0,1,.17.51c-.09.22-.38.33-.49.19-.5-.69-.73,0-1.05.18l-.45.25c-.38-.36-.6-.71,0-1.1C23.34,9.84,23.41,9.58,23.53,9.38Z"/><path class="cls-2" d="M25.21,48.72a.38.38,0,0,1-.75,0c0-.24.16-.35.4-.36A.35.35,0,0,1,25.21,48.72Z"/><path class="cls-2" d="M23.89,5.62a1.51,1.51,0,0,0,0-.18c.45-.08.92-.14,1.38-.19a1.07,1.07,0,0,0,0,.15c0,.56-.38.74-.85.76S23.89,5.94,23.89,5.62Z"/><path class="cls-2" d="M24.72,16.27c.32,0,.56.15.57.49s-.31.32-.54.35-.62,0-.63-.42S24.42,16.26,24.72,16.27Z"/><path class="cls-2" d="M24.85,15.14a.43.43,0,0,1,.48.38c0,.19-.09.3-.29.32a.37.37,0,0,1-.42-.32C24.59,15.35,24.66,15.17,24.85,15.14Z"/><path class="cls-2" d="M24.57,47.4c.28-.1.61-.62.82.07a.32.32,0,0,1-.26.38C24.76,47.94,24.62,47.72,24.57,47.4Z"/><path class="cls-2" d="M25.16,24.67a.35.35,0,0,1-.35-.4c0-.24.16-.35.4-.36a.35.35,0,0,1,.35.4A.34.34,0,0,1,25.16,24.67Z"/><path class="cls-2" d="M24.37,21.71c.29-.57.68-.47,1.07-.26s.26.55.05.92a3.53,3.53,0,0,1-1,1.13.84.84,0,0,1-1,0c-.32-.2-.27-.54-.23-.86,0-.14.07-.28.17-.28C24.17,22.7,24.22,22,24.37,21.71Z"/><path class="cls-2" d="M25.54,40.18c.28,0,.38.21.38.45a.77.77,0,0,1-.71.66.37.37,0,0,1-.4-.51A.71.71,0,0,1,25.54,40.18Z"/><path class="cls-2" d="M25.65,12.75c0,.19-.06.33-.27.33a.36.36,0,0,1-.4-.42.32.32,0,0,1,.32-.32A.42.42,0,0,1,25.65,12.75Z"/><path class="cls-2" d="M25.73,20.13c0,.49-.45.6-.77.74s-.51-.09-.5-.37c0-.48.43-.64.81-.74A.34.34,0,0,1,25.73,20.13Z"/><path class="cls-2" d="M24.85,39.15a2,2,0,0,1,1.11-.4.93.93,0,0,1-.9,1.17.4.4,0,0,1-.21-.76Z"/><path class="cls-2" d="M26,38.75l-.17-.33c-.24,0-.58,0-.58-.34s.33-.32.58-.36C26.3,38,26.75,38.25,26,38.75Z"/><path class="cls-2" d="M26,43a.38.38,0,0,1,0-.75c.24,0,.35.16.36.4A.35.35,0,0,1,26,43Z"/><path class="cls-2" d="M25.5,29.64a.38.38,0,0,1,.75,0c0,.24-.16.35-.4.35A.35.35,0,0,1,25.5,29.64Z"/><path class="cls-2" d="M24.75,43.59a2.82,2.82,0,0,1,1.24.22.4.4,0,0,1,.25.48.39.39,0,0,1-.45.3C25.17,44.55,24.65,44.38,24.75,43.59Z"/><path class="cls-2" d="M26.25,16.51c0,.22-.12.38-.37.33s-.3-.24-.31-.44.14-.28.33-.29A.36.36,0,0,1,26.25,16.51Z"/><path class="cls-2" d="M25.91,12.45a.27.27,0,0,1,.3-.31c.18,0,.32.07.33.3s-.14.37-.36.37S25.93,12.61,25.91,12.45Z"/><path class="cls-2" d="M26.27,28q-.42,0-.43-.37a.38.38,0,1,1,.75,0A.36.36,0,0,1,26.27,28Z"/><path class="cls-2" d="M26.56,20.28c.24,0,.36.14.38.38a.36.36,0,0,1-.38.38.34.34,0,0,1-.38-.38A.35.35,0,0,1,26.56,20.28Z"/><path class="cls-2" d="M26.52,35.4a.35.35,0,0,1-.33-.41.35.35,0,0,1,.41-.34.34.34,0,0,1,.34.4C26.92,35.3,26.76,35.4,26.52,35.4Z"/><path class="cls-2" d="M26.14,13.94c.89.35,1.07.66.86,1.62-1.2.24-1.59-.17-1.28-1.37C25.78,14,25.86,13.83,26.14,13.94Z"/><path class="cls-2" d="M26.56,25.5a.32.32,0,0,1,.35-.38.36.36,0,0,1,.39.35c0,.23-.11.39-.35.38A.37.37,0,0,1,26.56,25.5Z"/><path class="cls-2" d="M27.29,22.91a.36.36,0,0,1-.38.37.37.37,0,1,1,0-.75A.35.35,0,0,1,27.29,22.91Z"/><path class="cls-2" d="M27.44,49.85l-1.12,0,.15-.18c-.14-.32-.61-.55-.29-1A.71.71,0,0,1,27,48.5c.71.29.19.76.13,1.15C27.28,49.8,27.36,49.85,27.44,49.85Z"/><path class="cls-2" d="M26.53,7.2a3.1,3.1,0,0,0-.91-2c.38,0,.76-.06,1.15-.06.79.4.33,1.27.52,1.89a.37.37,0,0,1-.35.49A.34.34,0,0,1,26.53,7.2Z"/><path class="cls-2" d="M26.12,47.24c-.13-.77-.74-.3-1.11-.42s-.32.35-.43.58a9.78,9.78,0,0,1-1.51-.19c-.61-.11-.53-.33-.37-.71a7.4,7.4,0,0,0,.39-.84.93.93,0,0,1,1.49-.32c.44.45.87.19,1.24,0,.85-.45.89-.45,1,.5.31,0,.68,0,.63.48s-.48.35-.8.38l.45.24a.39.39,0,0,1,.22.56.44.44,0,0,1-.64.24C26.45,47.62,26.16,47.52,26.12,47.24Z"/><path class="cls-2" d="M27.06,26.92a.35.35,0,0,1-.35-.4.38.38,0,1,1,.75,0A.34.34,0,0,1,27.06,26.92Z"/><path class="cls-2" d="M27,9.15c-.1-.32-.31-.68.22-.81a.33.33,0,0,1,.42.32C27.66,9.12,27.31,9.12,27,9.15Z"/><path class="cls-2" d="M27.62,42.44c.24,0,.35.16.36.4a.35.35,0,0,1-.4.35.38.38,0,0,1,0-.75Z"/><path class="cls-2" d="M26.6,40.25c-.33-.16-.29-.46-.23-.75s0-.59.2-.82c.34-.39.63-.74.28-1.32a.53.53,0,0,1,.31-.78c.45-.11.44.3.56.58.27.6.68,1.2-.5,1.44a.93.93,0,0,1,.56.94c0,.3.19.66-.19.84A1.12,1.12,0,0,1,26.6,40.25Z"/><path class="cls-2" d="M26.88,13.42c-.19,0-.39-.19-.28-.31.35-.4.17-1.18.89-1.29.22,0,.33.18.32.48C27.43,12.58,27.51,13.28,26.88,13.42Z"/><path class="cls-2" d="M27.9,20.53a1.66,1.66,0,0,1,.14.39l-.32.07c-.21,0-.4,0-.48-.22a.32.32,0,0,1,.16-.43A.39.39,0,0,1,27.9,20.53Z"/><path class="cls-2" d="M27,15.56h.34c.33,0,.8-.06.79.42s-.51.45-.86.43C26.48,16.37,26.75,16,27,15.56Z"/><path class="cls-2" d="M27.57,5.44a.36.36,0,0,1,.11-.3h.55a.53.53,0,0,1,.1.26.35.35,0,0,1-.37.39A.35.35,0,0,1,27.57,5.44Z"/><path class="cls-2" d="M27.75,33.62a.34.34,0,0,1,.4-.35.35.35,0,0,1,.36.39.36.36,0,0,1-.4.36A.34.34,0,0,1,27.75,33.62Z"/><path class="cls-2" d="M28.08,24a.38.38,0,0,1,.07-.75.38.38,0,1,1-.07.75Z"/><path class="cls-2" d="M27,44.52c0-.28.12-.63.4-.5a2,2,0,0,1,1.2,1.05c.13.39-.37.38-.66.42C27.23,45.57,27.1,45.06,27,44.52Z"/><path class="cls-2" d="M28.26,41.43a.35.35,0,0,1,.38-.38.37.37,0,0,1,.38.38.36.36,0,0,1-.38.37A.34.34,0,0,1,28.26,41.43Z"/><path class="cls-2" d="M28.78,18.84a.37.37,0,0,1,0,.48.35.35,0,0,1-.53-.06,2.13,2.13,0,0,0-1.48-.92c-.28-.09-.48-.26-.38-.57s.34-.27.74-.2C27.89,17.51,28.39,18.11,28.78,18.84Z"/><path class="cls-2" d="M28.86,49.51a.5.5,0,0,1,.08.29c-.48,0-1,.05-1.44.05h-.06c.18,0,.31-.27.46-.35C28.24,49.33,28.57,49,28.86,49.51Z"/><path class="cls-2" d="M28.44,44.23a.34.34,0,0,1-.35-.46c.1-.39.26-.79.74-.81.27,0,.37.21.38.48C29,43.79,28.94,44.21,28.44,44.23Z"/><path class="cls-2" d="M28.79,16.88a.38.38,0,0,1,0-.75c.24,0,.35.16.36.4A.35.35,0,0,1,28.79,16.88Z"/><path class="cls-2" d="M27.9,26.52l.35-1.44a.36.36,0,0,1,.45-.3.35.35,0,0,1,.32.43c-.08.5-.19,1-.3,1.51a.41.41,0,0,1-.49.37C27.9,27,27.88,26.76,27.9,26.52Z"/><path class="cls-2" d="M25.48,8.21a.68.68,0,0,1-.12-.73.35.35,0,0,1,.36-.19c.32,0,.42.27.5.53A6.89,6.89,0,0,1,26.53,9c0,.51.31.14.47.17.55.45.87,1.17,1.73,1.25.38,0,.58.44.64.84,0,.24,0,.48-.23.59a.36.36,0,0,1-.53-.27c-.09-.37-.39-.41-.66-.45a1,1,0,0,1-.92-.71c-.1.32,0,.79-.48.76s-.46-.35-.48-.63a1.46,1.46,0,0,0-1-1.53.25.25,0,0,1-.14-.41.29.29,0,0,1,.4,0c.17.11.3.25.52.42C25.92,8.57,25.62,8.43,25.48,8.21Z"/><path class="cls-2" d="M29,14.44a4,4,0,0,1-.35-.5.38.38,0,0,1,.13-.53.37.37,0,0,1,.48,0c.25.28.74.58.45,1a1.34,1.34,0,0,1-1.38.7.35.35,0,0,1-.24-.48c.06-.22.22-.23.41-.16A.37.37,0,0,0,29,14.44Z"/><path class="cls-2" d="M29,36.27a.33.33,0,0,1-.41-.4c.11-.5.59-.56,1-.69s.43.08.48.4C29.92,36.05,29.45,36.16,29,36.27Z"/><path class="cls-2" d="M29.88,48.66c.11.06-.06.4-.3.41a1.08,1.08,0,0,1-1-.79A1.24,1.24,0,0,1,28.77,47c.05-.06.16-.06.22-.07.39,0,.45.35.57.6S29.37,48.37,29.88,48.66Z"/><path class="cls-2" d="M30.24,45.93c0,.29-.11.53-.38.5-.51-.07-.61-.54-.72-.94a.33.33,0,0,1,.4-.42C30,45.17,30.1,45.59,30.24,45.93Z"/><path class="cls-2" d="M30.05,27.89a.33.33,0,0,1-.4.4c-.5-.11-.56-.59-.69-1s.09-.43.4-.48C29.84,27,30,27.47,30.05,27.89Z"/><path class="cls-2" d="M30.1,12.8c0,.11,0,.22,0,.33h-.33c-.28,0-.5-.14-.48-.47a.33.33,0,0,1,.32-.32C30,12.3,30.07,12.52,30.1,12.8Z"/><path class="cls-2" d="M30.18,17.06a.35.35,0,0,1-.35-.4.38.38,0,1,1,.75,0C30.56,16.94,30.41,17,30.18,17.06Z"/><path class="cls-2" d="M30.63,38.75c0,.41-.17.86-.61.69s-1-.23-1-.73.38-.77.75-.92.64.17.48.53C29.87,39,30.44,38.66,30.63,38.75Z"/><path class="cls-2" d="M29.36,6.66c-.5-.47-.14-1,0-1.44.49,0,1,.09,1.44.17a1.83,1.83,0,0,1-.06.34,3.29,3.29,0,0,0-.12.59c0,.32.17.74-.3.87S29.63,6.91,29.36,6.66Z"/><path class="cls-2" d="M30.93,28.42a.38.38,0,1,1-.07.75.38.38,0,1,1,.07-.75Z"/><path class="cls-2" d="M28.23,7.9a.38.38,0,0,1,.59.12c0,.07.06.17.1.23.45.69.75.69,1.24.07a3.84,3.84,0,0,0,.38-.66A.38.38,0,0,1,31,7.49c.19.05.28.19.28.44a.6.6,0,0,1-.12.26c-.46.42-.35.79.07,1.16.13.12.24.27.14.45s-.18.12-.27.17c-.35-.71-1-.12-1.49-.3-.66-.24-.89-.82-1.38-1.17A.36.36,0,0,1,28.23,7.9Z"/><path class="cls-2" d="M31.37,34.87c.19,0,.34.2.38.49a1.36,1.36,0,0,1-.94.56c-.31.07-.59-.19-.46-.43.28-.53-.8-.85-.21-1.21C30.34,34.15,30.84,34.84,31.37,34.87Z"/><path class="cls-2" d="M31.51,48.2a.41.41,0,0,1-.51.44c-.32-.06-.69-.22-.73-.62s.18-.46.5-.5C31.08,47.66,31.5,47.74,31.51,48.2Z"/><path class="cls-2" d="M31.21,44.18a.33.33,0,0,1,.4.41c-.11.43-.21.89-.69,1-.32,0-.49-.23-.4-.48S30.71,44.28,31.21,44.18Z"/><path class="cls-2" d="M31.27,41.87c-.3.2-.31.53-.45.81s-.31.44-.61.31-.27-.42-.1-.64c.51-.67.42-1.1-.45-1.28-.19,0-.23-.24-.19-.42a.29.29,0,0,1,.38-.26c.53.14,1.08.27.9,1.1.35-.23.58-.73.9-.32S31.51,41.7,31.27,41.87Z"/><path class="cls-2" d="M31.19,12a1.44,1.44,0,0,1,.48-.12,4.13,4.13,0,0,1,.08.41.31.31,0,0,1-.31.4.34.34,0,0,1-.35-.17A.36.36,0,0,1,31.19,12Z"/><path class="cls-2" d="M31.55,8.53a.45.45,0,0,1,.38.41c0,.17-.07.29-.25.28a.45.45,0,0,1-.43-.37A.24.24,0,0,1,31.55,8.53Z"/><path class="cls-2" d="M31.94,33.33c-.06.33-.55.89-.65.86a1.59,1.59,0,0,1-.75-1.08c-.11-.35.31-.4.63-.37S32,32.82,31.94,33.33Z"/><path class="cls-2" d="M31.93,25.19a.38.38,0,0,1,0-.75.38.38,0,1,1,0,.75Z"/><path class="cls-2" d="M30.63,38.75c-.14-.75.53-1,.91-1.41s.58-.05.61.36C32.22,38.49,31.84,38.75,30.63,38.75Z"/><path class="cls-2" d="M31.78,42.05a.42.42,0,0,1,.43-.43c.22,0,.27.16.28.34a.37.37,0,0,1-.38.37C31.93,42.34,31.76,42.27,31.78,42.05Z"/><path class="cls-2" d="M32.3,45.95a1.35,1.35,0,0,1-.78.89c-.33,0-.54-.13-.49-.4a1.15,1.15,0,0,1,.84-.87A.33.33,0,0,1,32.3,45.95Z"/><path class="cls-2" d="M32,13.54c.11-.09.31.11.34.3a.29.29,0,0,1-.25.37c-.19,0-.41-.06-.56.14s.1.17.21.18.48.12.35.43-.38.23-.6.14a2.28,2.28,0,0,1-1.36-2c.17,0,.43,0,.5.06C31,13.67,31.34,14,32,13.54Z"/><path class="cls-2" d="M32.07,34.3a.35.35,0,0,1,.41.32c0,.19,0,.36-.22.38a.41.41,0,0,1-.47-.37C31.74,34.43,31.86,34.31,32.07,34.3Z"/><path class="cls-2" d="M31.67,11.92a.56.56,0,0,0-.08-.14c-.19-.27-.59-.48-.3-.87s.5-.14.76,0a.79.79,0,0,1,.43,1C32.25,12.54,31.94,11.76,31.67,11.92Z"/><path class="cls-2" d="M32.54,16.62a.39.39,0,0,1-.33.43.32.32,0,0,1-.32-.32c0-.23.09-.4.32-.4A.27.27,0,0,1,32.54,16.62Z"/><path class="cls-2" d="M27,22.07a.36.36,0,0,1-.25-.54.31.31,0,0,1,.5-.15c.76.66.63-.14.79-.46a2.53,2.53,0,0,0,.94-.66,2.17,2.17,0,0,0,.65-.89.3.3,0,0,0-.11-.19c-.31-.18-.4-.42-.17-.71a.46.46,0,0,1,.69-.07c.31.19.56.37.4.82a1.45,1.45,0,0,0,0,1.29c.77-.42,1.43-1.17,2.45-.79,0,1-1.13.91-1.6,1.45,0,.07.05.14.09.17.28.19.86.28.49.77s-.53,0-.8-.23c-.43-.38-.74-.09-.94.32-.29.59-.6.62-.88,0-.2-.43-.49-.48-.83-.24A1.75,1.75,0,0,1,27,22.07Z"/><path class="cls-2" d="M32.65,18.8a.38.38,0,1,1-.34-.42A.35.35,0,0,1,32.65,18.8Z"/><path class="cls-2" d="M32.82,49a.4.4,0,0,1,0,.19l-.56.13a.33.33,0,0,1-.15-.29.36.36,0,0,1,.32-.4C32.66,48.67,32.82,48.79,32.82,49Z"/><path class="cls-2" d="M32.29,8.19a5.5,5.5,0,0,1,.59-.08,5.58,5.58,0,0,1-.08.59.29.29,0,0,1-.35.19.42.42,0,0,1-.33-.35A.27.27,0,0,1,32.29,8.19Z"/><path class="cls-2" d="M32.89,19.71h0Z"/><path class="cls-2" d="M33.05,32a1.38,1.38,0,0,1-.14.39.46.46,0,0,1-.58.2c-.19-.08-.19-.26-.13-.43a.4.4,0,0,1,.53-.27A2.74,2.74,0,0,1,33.05,32Z"/><path class="cls-2" d="M33,35.52c.24,0,.35.16.36.4a.35.35,0,0,1-.4.35.38.38,0,0,1,0-.75Z"/><path class="cls-2" d="M32.89,13.1a.44.44,0,0,1,.43.31.32.32,0,0,1-.3.36.35.35,0,0,1-.43-.29C32.55,13.25,32.63,13.08,32.89,13.1Z"/><path class="cls-2" d="M31.56,27.61c.16-.59.78-.66,1.22-.92.17-.09.43.12.38.34-.14.63-.84.58-1.14.93C31.72,28,31.5,27.83,31.56,27.61Z"/><path class="cls-2" d="M32.84,45.38c-.44-.12-.43-.61-.61-.89,0-.33.14-.53.41-.48.48.08.57.53.65.9A.38.38,0,0,1,32.84,45.38Z"/><path class="cls-2" d="M32.81,16.94a.31.31,0,0,1,.35-.3.23.23,0,0,1,.25.27c-.05.17-.12.35-.31.37S32.8,17.12,32.81,16.94Z"/><path class="cls-2" d="M33.1,26.06a.35.35,0,0,1-.34-.41.38.38,0,1,1,.75.07A.35.35,0,0,1,33.1,26.06Z"/><path class="cls-2" d="M33.23,39.56c-.29,0-.45-.1-.46-.35a.38.38,0,0,1,.75-.06A.36.36,0,0,1,33.23,39.56Z"/><path class="cls-2" d="M33.52,12.5c0,.19-.07.34-.28.32s-.45-.11-.45-.4.17-.27.35-.29A.36.36,0,0,1,33.52,12.5Z"/><path class="cls-2" d="M32.89,19.71c.22-.26.46-.47.76-.12a.32.32,0,0,1,0,.46C33.2,20.34,33.11,19.86,32.89,19.71Z"/><path class="cls-2" d="M33.41,41.48c-.32-.36-1-.32-1.15-.94-.05-.22.15-.35.38-.36s1.2.75,1.18,1S33.66,41.46,33.41,41.48Z"/><path class="cls-2" d="M33.87,45.69c0,.25-.09.4-.32.44s-.36,0-.38-.22a.42.42,0,0,1,.38-.48A.27.27,0,0,1,33.87,45.69Z"/><path class="cls-2" d="M33.33,38.41c-.44,0-.63-.4-.66-.76s.3-.62.56-.45,1.05-.05,1.18.64A1.07,1.07,0,0,1,33.33,38.41Z"/><path class="cls-2" d="M34.16,9.53c-.09.23-.22.4-.49.37s-.25-.19-.22-.38a.35.35,0,0,1,.41-.32A.29.29,0,0,1,34.16,9.53Z"/><path class="cls-2" d="M34,36.79A.38.38,0,0,1,34,36a.36.36,0,0,1,.4.32Q34.38,36.78,34,36.79Z"/><path class="cls-2" d="M33.65,32c-.2,0-.4,0-.6,0a1.74,1.74,0,0,1,.14-.57c.22-.35.58-.32.92-.23a.35.35,0,0,1,.26.47C34.26,32,33.93,32,33.65,32Z"/><path class="cls-2" d="M34.47,26.78c0,.26-.13.36-.37.32a.34.34,0,0,1-.3-.42.3.3,0,0,1,.32-.31A.42.42,0,0,1,34.47,26.78Z"/><path class="cls-2" d="M34,39.68a.34.34,0,0,1,.4-.35c.24,0,.35.16.36.4a.36.36,0,0,1-.4.35A.34.34,0,0,1,34,39.68Z"/><path class="cls-2" d="M32.82,16a1.19,1.19,0,0,1,1.67.28.59.59,0,0,1,0,.65.37.37,0,0,1-.39.13c-.25-.06-.3-.25-.29-.47C33.85,15.76,33,16.5,32.82,16Z"/><path class="cls-2" d="M34.74,10.25a.37.37,0,0,1-.35.4c-.18,0-.35,0-.37-.25a.42.42,0,0,1,.4-.46C34.63,9.92,34.72,10.07,34.74,10.25Z"/><path class="cls-2" d="M34.71,25a.35.35,0,0,1-.39-.36.36.36,0,0,1,.32-.4c.27,0,.42.13.43.37A.35.35,0,0,1,34.71,25Z"/><path class="cls-2" d="M34,40.7a.3.3,0,0,1,.4-.32c.3.06.7,0,.78.4s-.19.48-.49.47A.67.67,0,0,1,34,40.7Z"/><path class="cls-2" d="M35,19.77a.36.36,0,0,1,.41.33c0,.25-.11.4-.35.42a.38.38,0,1,1-.06-.75Z"/><path class="cls-2" d="M34.75,26.52a.26.26,0,0,1,.24-.36.36.36,0,0,1,.43.38.31.31,0,0,1-.27.35C34.89,26.89,34.8,26.73,34.75,26.52Z"/><path class="cls-2" d="M34.23,35a2.07,2.07,0,0,0-.51-.28c-.33-.17-.79-.29-.76-.71a2.75,2.75,0,0,1,.69-1.23s.1,0,.17-.05c.38,0,.53.29.35.58s-.27.5.05.78.41-.05.61-.15c.44-.24.69,0,.69.43s-.33.66-.63.87S34.42,35.2,34.23,35Z"/><path class="cls-2" d="M35.23,43.13a.32.32,0,0,1,.35.38c0,.37-.06.76-.44.89s-.51-.17-.47-.44S34.71,43.18,35.23,43.13Z"/><path class="cls-2" d="M36.13,17.3c-.09.66-.27,1.14-.89,1.23-.28,0-.48-.17-.48-.48s.83-1.27,1-1.23A.4.4,0,0,1,36.13,17.3Z"/><path class="cls-2" d="M36.34,41a2.32,2.32,0,0,1,0,1.11c0,.26-.08.54-.41.56s-.37-.24-.45-.5C35.26,41.31,35.4,41.08,36.34,41Z"/><path class="cls-2" d="M36.46,36.89a.35.35,0,0,1-.35.42.38.38,0,1,1-.06-.75A.35.35,0,0,1,36.46,36.89Z"/><path class="cls-2" d="M35.61,28.76a1.51,1.51,0,0,1,.9.47c.09.56.25,1.07-.34,1.55-.36.3,0,.81.16,1.2s.29.63-.12.8-.57-.14-.62-.43c-.19-1.07-1.4-1.31-1.78-2.21-.07-.17-.26-.32-.38-.06-.23.49-1,.56-1,1.25,0,.32-1.66,1-2,1s-.51-.87-.17-1.18.61-.49.81-.43c1.09.37,1.1-.65,1.33-1.12A10.14,10.14,0,0,0,33,28.26c.11-.4.43-.43.76-.4s.48.09.51.38-.33.4-.57.56a5.6,5.6,0,0,1,1.13,1.28.86.86,0,0,0,.72.42c.21,0,.24-.22.27-.39.07-.4-.22-.48-.5-.56A.38.38,0,0,1,35,29C35.13,28.74,35.37,28.72,35.61,28.76Z"/><path class="cls-2" d="M35.87,14.67c0-.25.09-.4.32-.45s.36,0,.38.22a.41.41,0,0,1-.38.48A.26.26,0,0,1,35.87,14.67Z"/><path class="cls-2" d="M36.62,25.31c.24,0,.35.16.36.4a.36.36,0,0,1-.4.35.38.38,0,0,1,0-.75Z"/><path class="cls-2" d="M31.48,6.71a.32.32,0,0,1,.47-.23c.44.17.38-.37.7-.45.48-.13.85-.29.9.41a1.52,1.52,0,0,0,.35.77c.22.32.43.71.78.09.17-.32.58-.17.84-.37a1.6,1.6,0,0,1,.32-.19c.32.12.63.26.94.4.09.4-.25.79-.58,1.08-.76.69-1.72.35-2.57.5-.39.07-.4-.53-.75-.63-.14-.27,0-.56,0-1a.72.72,0,0,1-1.12.09C31.56,7.08,31.42,6.94,31.48,6.71Z"/><path class="cls-2" d="M37,46.85c.13.45-.27.49-.68.68a1,1,0,0,1,.62.25c-.56.27-1.13.5-1.72.72a1.17,1.17,0,0,1-.17-.67c0-.19.18-.37.1-.58l-.42,0c-.27.05-.55.09-.61-.25s.23-.46.53-.5h.68a2.16,2.16,0,0,0,.94.06C36.51,46.54,36.85,46.49,37,46.85Z"/><path class="cls-2" d="M37.24,14.9c.3.33-.05.49-.32.7s.09.54.12.82-.09.4-.35.41-.29-.22-.36-.4c-.33,0-.62-.16-.63-.56s.22-.43.48-.51a1.48,1.48,0,0,0,.3-.17C36.72,15,36.91,14.55,37.24,14.9Z"/><path class="cls-2" d="M37.5,37.93c0,.25-.1.4-.34.42a.35.35,0,0,1-.41-.35.34.34,0,0,1,.35-.4A.35.35,0,0,1,37.5,37.93Z"/><path class="cls-2" d="M37.5,43.13a.38.38,0,1,1-.75.06.36.36,0,0,1,.34-.41C37.32,42.78,37.48,42.89,37.5,43.13Z"/><path class="cls-2" d="M37.41,40.59a2.25,2.25,0,0,1-.55.4h-.52v0c0-.23.1-.5-.22-.63s-.62-.35-.33-.69.55,0,.74.23a1.51,1.51,0,0,0,.22.17c.21-.26.31-.85.78-.45S37.62,40.3,37.41,40.59Z"/><path class="cls-2" d="M37.09,11.52a.35.35,0,0,1,.35-.4.36.36,0,0,1,.41.33c0,.25-.11.4-.35.42A.35.35,0,0,1,37.09,11.52Z"/><path class="cls-2" d="M37.39,26.47h.33c0,.11,0,.22,0,.33,0,.28-.14.5-.47.48a.33.33,0,0,1-.32-.32C36.9,26.61,37.11,26.5,37.39,26.47Z"/><path class="cls-2" d="M37.09,7.47a.47.47,0,0,1,0-.15l.68.34a.33.33,0,0,1-.38.22A.35.35,0,0,1,37.09,7.47Z"/><path class="cls-2" d="M37.23,30.95c-.42,0-.3-.22-.27-.5a1.14,1.14,0,0,0-.45-1.22c0-.3,0-.61.42-.64a.71.71,0,0,1,.69.44,3.44,3.44,0,0,1,.33,1.41C38,31,37.58,30.95,37.23,30.95Z"/><path class="cls-2" d="M37.44,36.56a.34.34,0,0,1,.4-.35c.24,0,.35.16.36.4a.36.36,0,0,1-.4.35A.34.34,0,0,1,37.44,36.56Z"/><path class="cls-2" d="M37.53,41.77c-.51.14-.66-.16-.66-.61,0-.05,0-.11,0-.17l.43,0c.33,0,.8-.33.89.27C38.25,41.65,37.83,41.7,37.53,41.77Z"/><path class="cls-2" d="M38.23,18.92c.15.2.22.42,0,.62s-.41.14-.62,0c-.46-.32-.85-.4-1,.32a.36.36,0,0,1-.45.3c-.33-.06-.35-.33-.37-.6s0-.63.38-.66.58-.33.79-.59c.35-.42.66-.43.9.12A3.46,3.46,0,0,0,38.23,18.92Z"/><path class="cls-2" d="M38.06,26.45h-.33c0-.11,0-.22,0-.33,0-.28.14-.5.47-.48a.33.33,0,0,1,.32.32C38.56,26.31,38.34,26.42,38.06,26.45Z"/><path class="cls-2" d="M38.4,46.64a.39.39,0,0,1,.33.18l-.57.32a.34.34,0,0,1,0-.17C38.12,46.8,38.19,46.63,38.4,46.64Z"/><path class="cls-2" d="M39,24.09a1.3,1.3,0,0,1-1,.67.4.4,0,0,1-.45-.5c.14-.6.84-.12,1-.53C38.88,23.75,39.1,23.87,39,24.09Z"/><path class="cls-2" d="M38.55,22.44c.12-.3.14-.78.63-.56s.14.48.06.79a.89.89,0,0,1-.73.75c-.61.14-.93,0-1-.66s-.43-.89-1-.43a13.25,13.25,0,0,0-1.15,1.15c-.42.45-.86.77-1.51.19,0,.32,0,.56,0,.78a.39.39,0,0,1-.29.39.37.37,0,0,1-.49-.24c-.16-.56-.59-.61-1-.55-.68.09-1.33-.62-2-.06-.12.09-.33-.06-.38-.25a.38.38,0,0,1,.32-.51,1.39,1.39,0,0,0,1-.48c.15-.17.35-.12.56,0a1.85,1.85,0,0,0,2.5-.32c.58-.58.62-.57,1.15.32a2.25,2.25,0,0,1,1.35-1.39,1.12,1.12,0,0,0,.61-.69.35.35,0,0,1,.44-.19c.19.05.34.22.28.38C37.57,21.61,38.09,22,38.55,22.44Z"/><path class="cls-2" d="M38.54,12.58c0,.14,0,.17,0,.2,0,.3.38.56.09.88a.34.34,0,0,1-.48,0,1.11,1.11,0,0,1-.35-.93c0-.5.36-.76.72-1s.48,0,.63.26.34.43.12.7S38.8,12.68,38.54,12.58Z"/><path class="cls-2" d="M39.58,20.66a.36.36,0,0,1-.38.38.34.34,0,0,1-.38-.38.35.35,0,0,1,.38-.38C39.44,20.28,39.56,20.42,39.58,20.66Z"/><path class="cls-2" d="M39.38,19.2a.33.33,0,0,1-.38.28.36.36,0,0,1-.34-.49.27.27,0,0,1,.39-.21A.4.4,0,0,1,39.38,19.2Z"/><path class="cls-2" d="M39.4,46.21a.36.36,0,0,1,0,.22l-.22.14-.05,0a.41.41,0,0,1-.4-.38.26.26,0,0,1,.25-.32C39.21,45.89,39.36,46,39.4,46.21Z"/><path class="cls-2" d="M39.23,37.82a.35.35,0,0,1-.41-.35.36.36,0,0,1,.34-.41c.24,0,.4.11.41.35A.35.35,0,0,1,39.23,37.82Z"/><path class="cls-2" d="M39.41,32.06a.38.38,0,1,1-.07.75.38.38,0,1,1,.07-.75Z"/><path class="cls-2" d="M37.6,8.57c.32-.14.63-.37.93-.5l.18.1.66.39.12.07.25.17c-.61,0-1.15.16-1.24,1,0,.18-.23.25-.42.21-.4-.1-.43-.5-.6-.79A.41.41,0,0,1,37.6,8.57Z"/><path class="cls-2" d="M38.4,28c.12-.33-.15-.87.45-.92a.49.49,0,0,1,.45.37,4.57,4.57,0,0,1,.19.75c0,.34.66.63.23,1s-.79-.26-1.24-.35S38.3,28.25,38.4,28Z"/><path class="cls-2" d="M38.45,15.51c.35.3.84.09,1.18.39.1.17.2.34.31.5a.43.43,0,0,1,0,.56c-.26.32-1.68.1-1.8-.29a1.43,1.43,0,0,0-.24-.53.42.42,0,0,1,0-.62A.4.4,0,0,1,38.45,15.51Z"/><path class="cls-2" d="M39.87,26a.42.42,0,0,1,.35.43c0,.26-.18.34-.41.3a.36.36,0,0,1-.3-.44A.31.31,0,0,1,39.87,26Z"/><path class="cls-2" d="M40.31,43.72c0,.29,0,.62-.38.66s-.44-.28-.47-.58,0-.62.38-.66S40.3,43.42,40.31,43.72Z"/><path class="cls-2" d="M40.32,38.92v0a.57.57,0,0,1-.69.64c-.22.53.32,1,.18,1.5-.08.3,0,.7-.47.69s-.4-.37-.4-.66a2.78,2.78,0,0,0-.5-1.45.74.74,0,0,1,.19-1.06c.22-.19.4-.48.73-.31s.11.51.09.78C39.72,38.91,40,38.73,40.32,38.92Z"/><path class="cls-2" d="M39.64,15.57c0-.28.14-.5.47-.48a.33.33,0,0,1,.32.32c0,.33-.19.44-.48.47h-.33C39.64,15.79,39.64,15.68,39.64,15.57Z"/><path class="cls-2" d="M40.59,18.84c0,.3-.25.33-.42.4s-.32-.11-.27-.27a.48.48,0,0,1,.42-.37A.22.22,0,0,1,40.59,18.84Z"/><path class="cls-2" d="M40.8,19.74c0,.29-.14.43-.37.44s-.4-.1-.37-.35.22-.31.43-.33A.27.27,0,0,1,40.8,19.74Z"/><path class="cls-2" d="M41.19,26.11c-.24.11-.48.42-.72,0-.12-.19-.09-.4.16-.48S41.14,25.79,41.19,26.11Z"/><path class="cls-2" d="M40.52,21.56c.4,0,.48.35.48.69s-.09.54-.43.52-.38-.35-.41-.61S40.15,21.54,40.52,21.56Z"/><path class="cls-2" d="M40.62,27.74c.25-.06.48,0,.51.31s-.33.47-.63.55-.57-.09-.58-.38C39.9,27.76,40.34,27.82,40.62,27.74Z"/><path class="cls-2" d="M40.91,20.63a.36.36,0,0,1,.4.35c0,.19-.06.35-.27.37a.4.4,0,0,1-.46-.4C40.57,20.74,40.71,20.63,40.91,20.63Z"/><path class="cls-2" d="M41.61,16.92c0,.17-.11.28-.28.26a.4.4,0,0,1-.38-.4.23.23,0,0,1,.27-.25A.43.43,0,0,1,41.61,16.92Z"/><path class="cls-2" d="M41.63,33.22c.07.41-.27.6-.76.64-.29,0-.58-.13-.49-.42.14-.45.09-1.13.73-1.2S41.61,32.68,41.63,33.22Z"/><path class="cls-2" d="M40.9,10.24a.34.34,0,0,1,.39-.34l.35.28a.4.4,0,0,1,0,.14.35.35,0,0,1-.41.33A.35.35,0,0,1,40.9,10.24Z"/><path class="cls-2" d="M41.38,14.53h.33c0,.11,0,.22,0,.33,0,.28-.14.5-.47.48A.33.33,0,0,1,40.9,15C40.88,14.67,41.09,14.56,41.38,14.53Z"/><path class="cls-2" d="M41.59,24.09a.36.36,0,0,1,.41.33c0,.25-.11.4-.35.42a.38.38,0,1,1-.06-.75Z"/><path class="cls-2" d="M40.29,11.92c-.21-.21-.1-.48.08-.7a.62.62,0,0,1,.68-.27c.27.09.31.31.25.57s-.22.49.19.58.48.23.38.56a.46.46,0,0,1-.48.29c-.29,0-.65,0-.71-.32A1.1,1.1,0,0,0,40.29,11.92Z"/><path class="cls-2" d="M40.93,39.21c-.17.27-.42-.14-.61-.29a7.27,7.27,0,0,0,.06-.87,3,3,0,0,0-.79-2.19.91.91,0,0,0-.74-.33,1.51,1.51,0,0,1-1.64-1.46c-.3-1.26-.25-1.41.62-1.59A2.22,2.22,0,0,1,37.6,32a.34.34,0,0,1,.32-.43c.19,0,.38,0,.41.21a6.11,6.11,0,0,0,.35.86c.17.49-.17.57-.58.56s-.76-.06-.2.38c.12.78.4,1.33,1.36,1.1a2.2,2.2,0,0,1,.76.12c.23,0,.54,0,.56.29,0,.46-.48-.06-.56.3a.68.68,0,0,0,1,.2c.3-.14.66-.07.66.29a7.7,7.7,0,0,0,.4,1.82C42.26,38.57,41.27,38.66,40.93,39.21Z"/><path class="cls-2" d="M42.19,13.71a.33.33,0,0,1,.32.32c0,.33-.19.44-.48.47h-.33c0-.11,0-.22,0-.33C41.75,13.9,41.86,13.69,42.19,13.71Z"/><path class="cls-2" d="M42.51,21.15c.24,0,.35.16.36.4a.36.36,0,0,1-.4.35.34.34,0,0,1-.35-.4A.34.34,0,0,1,42.51,21.15Z"/><path class="cls-2" d="M42.72,30a2.08,2.08,0,0,1-.32.13,2.84,2.84,0,0,1-.11-.32.37.37,0,0,1,.25-.48c.17,0,.37,0,.43.18S42.89,29.85,42.72,30Z"/><path class="cls-2" d="M42.64,19.07a.34.34,0,0,1,.39.36.38.38,0,1,1-.75,0A.34.34,0,0,1,42.64,19.07Z"/><path class="cls-2" d="M43,43a.61.61,0,0,1,.41.21c-.22.22-.44.44-.67.66a1.75,1.75,0,0,1-.14-.44A.34.34,0,0,1,43,43Z"/><path class="cls-2" d="M43.64,23.11c0,.35-.12.82-.56.85-.66.06-.42-.52-.55-1.07,0-.12-.11-.5.37-.48A.75.75,0,0,1,43.64,23.11Z"/><path class="cls-2" d="M43.14,36.56a.35.35,0,0,1,.41.33c0,.25-.1.4-.35.42a.38.38,0,0,1-.06-.75Z"/><path class="cls-2" d="M42.63,11.63a.33.33,0,0,1,.27-.32l.24.22.23.23A.34.34,0,0,1,43,12,.35.35,0,0,1,42.63,11.63Z"/><path class="cls-2" d="M43.36,35.44c-.25.21-.5.71-.82.44s-.92-.49-1.11-1c-.1-.25.12-.42.46-.43.06.05.22.12.27.22.19.35.4.35.67.08a.4.4,0,0,1,.61,0A.44.44,0,0,1,43.36,35.44Z"/><path class="cls-2" d="M43.58,22.37a.43.43,0,0,1-.38-.48c0-.19.2-.26.38-.23a.36.36,0,0,1,.32.42C43.89,22.28,43.78,22.41,43.58,22.37Z"/><path class="cls-2" d="M43.26,31.13a3.61,3.61,0,0,0,.38.17c.32.09.56.27.38.61s-.45.25-.71.06a2,2,0,0,0-.42-.28c-.24-.11-.53-.17-.35-.53S43,31,43.26,31.13Z"/><path class="cls-2" d="M44.06,18.58a4.72,4.72,0,0,1-.62.27c-.28,0-.6,0-.63-.41s.17-.4.4-.47.66-.27,1,0A.35.35,0,0,1,44.06,18.58Z"/><path class="cls-2" d="M43.45,19.18c0-.11,0-.22,0-.33h.33c.28,0,.5.14.48.47a.33.33,0,0,1-.32.32C43.59,19.67,43.48,19.46,43.45,19.18Z"/><path class="cls-2" d="M43.26,31.13c0-.2-.11-.48-.32-.43a1.68,1.68,0,0,1-1.43-.17c-.28-.19-.45.2-.5.51s-.06.47-.34.54-.4-.11-.54-.31c-.36-.51-1-.66-1.46-1-.28-.19-.5-.35-.3-.66a.39.39,0,0,1,.66,0c.3.32.73.32,1.09.48s.84.17.89-.46c0-.24.09-.48.38-.5s.43.22.48.48a.54.54,0,0,0,.51.49.32.32,0,0,0,.27.17.67.67,0,0,0,.32-.13,1.27,1.27,0,0,1,1.28-.25.33.33,0,0,1,.12.45C44.13,30.75,43.84,31.15,43.26,31.13Z"/><path class="cls-2" d="M44.43,41.16c-.14.32-.06.83-.6.81s-.4-.36-.33-.65.06-.82.62-.76C44.46,40.59,44.45,40.89,44.43,41.16Z"/><path class="cls-2" d="M44.08,28.32c-.32,0-.6-.05-.58-.38,0-.51.5-.48.84-.56s.57,0,.58.32C44.94,28.3,44.39,28.18,44.08,28.32Z"/><path class="cls-2" d="M43.63,14a2.74,2.74,0,0,0,1,.56c.05-.17.1-.35.16-.52l.18-.4c.13.15.25.3.36.45l.08.11,0,0,0,0a.53.53,0,0,1-.5.45.54.54,0,0,0-.35.52h-.17c-.53,0-.87-.49-1.35-.66A.34.34,0,0,1,43,14,.37.37,0,0,1,43.63,14Z"/><path class="cls-2" d="M45.28,39.74a.38.38,0,1,1-.34-.42A.35.35,0,0,1,45.28,39.74Z"/><path class="cls-2" d="M44.93,26.44c-1.15-.69-2,.44-3,.48-.71,0-1-.06-.76-.8.21,0,.32-.09.25-.33s-.07-.61.33-.65.42.3.45.59c0,.06.09.13.17.25.48-.58.92-1.25,1.67-.31.19.25.4.05.43-.25-.17-.23-.79-.2-.5-.67.2-.32.48-.09.66.16.35.22.19.73.6,1C45.47,26,45.18,26.59,44.93,26.44Z"/><path class="cls-2" d="M44.55,15.44l.1-.23a1.5,1.5,0,0,1,.48.14c.27.19.7.48.51.77a1,1,0,0,1-1.07.19C44.12,16.13,44.39,15.74,44.55,15.44Z"/><path class="cls-2" d="M46,21.1c0,.34,0,.68-.41.69s-.43-.31-.43-.61.05-.62.45-.61S46,20.88,46,21.1Z"/><path class="cls-2" d="M46,25.82a.35.35,0,0,1,.36.39.36.36,0,0,1-.4.36.34.34,0,0,1-.36-.4A.35.35,0,0,1,46,25.82Z"/><path class="cls-2" d="M45,33.51a.75.75,0,0,1-.09-.53c0-.12,0-.17,0-.23.12-.43,0-1,.52-1.2.16-.08.42,0,.43.16,0,.59,1.07,1,.35,1.71a.82.82,0,0,0-.13.22c-.13.25-.18.58-.56.56S45.17,33.76,45,33.51Z"/><path class="cls-2" d="M46,15.85c-.29-.35-.49-.57.25-.53q.41.63.78,1.28a.36.36,0,0,1-.37.3.4.4,0,0,1-.41-.43A1,1,0,0,0,46,15.85Z"/><path class="cls-2" d="M46.81,23.81a.34.34,0,0,1-.38-.38.35.35,0,0,1,.38-.38.37.37,0,0,1,.38.38A.36.36,0,0,1,46.81,23.81Z"/><path class="cls-2" d="M47.06,35.68c-.29.22-.53.43-.5.82-.29.48-.92.44-1.33.85.37.36,1.36.54.81,1.18s-1-.27-1.55-.45a.55.55,0,0,0-.2.52c.11.76-.1,1-.88.7-.27-.12-.36.07-.31.32a.69.69,0,0,1-.37.71.51.51,0,0,0-.25.59c0,.32.22.7-.24.87a.36.36,0,0,1-.48-.25c-.12-.39-.4-.81.05-1.18.15-.12.34-.21.43-.4-.4-.47-.81-.94.2-1.18.18,0,.19-.26.22-.43s.29-.47.48-.35c.64.41.76,0,1-.47.29-.71,1.12-.85,1.59-1.38.2-.38.68-.5.8-1,.06-.25.36-.27.57-.1A.36.36,0,0,1,47.06,35.68Z"/><path class="cls-2" d="M47.64,37.2c-.13.27-.26.53-.4.79a.51.51,0,0,1-.1-.45C47.2,37.27,47.42,37.23,47.64,37.2Z"/><path class="cls-2" d="M46.74,30.6c0-.11,0-.22,0-.33h.33c.28,0,.5.14.48.47a.33.33,0,0,1-.32.32C46.88,31.1,46.77,30.88,46.74,30.6Z"/><path class="cls-2" d="M46.73,30.27l-.34,0c-.38,0-.85.37-1.1-.11s.36-.51.58-.76.46-.56.3-.92c-.27-.61.14-.83.56-1,.18-.09.39-.24.56-.06s0,.35-.15.5c-.29.39.08.48.3.63.38.28.53.68,0,.81S46.78,29.84,46.73,30.27Z"/><path class="cls-2" d="M47.26,20.59h.33c0,.11,0,.22,0,.33,0,.28-.14.5-.47.48a.34.34,0,0,1-.32-.32C46.76,20.73,47,20.62,47.26,20.59Z"/><path class="cls-2" d="M47.3,32.06a.34.34,0,0,1,.4-.35c.24,0,.35.16.36.4a.36.36,0,0,1-.4.35A.34.34,0,0,1,47.3,32.06Z"/><path class="cls-2" d="M48.5,21.43a.27.27,0,0,1-.3.31.35.35,0,0,1-.38-.36c0-.22.09-.39.34-.37S48.46,21.22,48.5,21.43Z"/><path class="cls-2" d="M48.33,35.6c0,.06,0,.13-.07.19-.09.25-.19.48-.31.72a1.5,1.5,0,0,1-.28-1.07.33.33,0,0,1,.45-.27C48.37,35.24,48.39,35.39,48.33,35.6Z"/><path class="cls-2" d="M47.65,22.37c0-.24.16-.35.4-.36a.35.35,0,0,1,.35.4.38.38,0,0,1-.75,0Z"/><path class="cls-2" d="M48.59,23.88c-.07.45-.12.68-.15.91s-.13.46-.41.47a.35.35,0,0,1-.38-.29c-.06-.23-.11-.53.15-.61s.53-.2.11-.5c-.11-.07,0-.23.11-.27a.52.52,0,0,1,.33,0A.39.39,0,0,1,48.59,23.88Z"/><path class="cls-2" d="M47.53,17.57c.3.6.58,1.22.82,1.85.05.14.1.27.14.4a2.52,2.52,0,0,0-.12.43c-.05.41-.48.3-.79.33,0-.45.22-.92-.26-1.32-.24-.2.12-.52.17-.84-.32.06-.66-.16-.89.25-.09.15-1.37-.16-1.46-.33A.24.24,0,0,1,45.3,18c.31-.15.47-.58,1-.4A1.47,1.47,0,0,0,47.53,17.57Z"/><path class="cls-2" d="M48.52,30.38a.35.35,0,0,1-.35-.4c0-.24.16-.35.4-.36a.35.35,0,0,1,.35.4A.34.34,0,0,1,48.52,30.38Z"/><path class="cls-2" d="M48.77,21.11a.25.25,0,0,1,.09-.25c.06.22.13.43.19.65C48.86,21.47,48.79,21.3,48.77,21.11Z"/><path class="cls-2" d="M48.86,33.71l.11,0q-.15.55-.35,1.08c-.06-.2-.11-.42-.19-.6A.39.39,0,0,1,48.86,33.71Z"/><path class="cls-2" d="M48.95,32.12a.33.33,0,0,1,.12.45A5.32,5.32,0,0,1,47.25,34c-.22,0-.38,0-.44-.23a.38.38,0,0,1,.2-.5,3.52,3.52,0,0,0,1.4-1.1A.37.37,0,0,1,48.95,32.12Z"/><path class="cls-2" d="M48.74,25.65c.25-.05.42.21.35.46s-.28.87-.74.79a2.35,2.35,0,0,1-1.15-.68c-.24-.25-.05-.53.38-.6C47.93,26,48.32,25.75,48.74,25.65Z"/><path class="cls-2" d="M49.24,24.09a.45.45,0,0,1,.4.26c0,.28.08.57.11.86a.33.33,0,0,1-.36.15c-.45-.05-.44-.47-.51-.79A.37.37,0,0,1,49.24,24.09Z"/><path class="cls-2" d="M49.85,28.07c0,.42,0,.83-.07,1.24-.64-.35-1.48-.47-1.7-1.36-.07-.27-.19-.52.09-.69s.5,0,.66.22A1,1,0,0,0,49.85,28.07Z"/><path class="cls-3" d="M41,19.21a31.5,31.5,0,0,1-4.64,16.67,26.43,26.43,0,0,1-7,7.59,22,22,0,0,1-11.06,4.15l-.5-.25h0a19.78,19.78,0,0,1-1.75-1h0a22.59,22.59,0,0,1-3.59-2.86,21.76,21.76,0,0,1-3-3.63.68.68,0,0,1-.09-.13L9,39.29a22.06,22.06,0,0,1-2.77-6.69,23.29,23.29,0,0,1-.43-2.47,21.16,21.16,0,0,1-.16-2.63,22.68,22.68,0,0,1,.31-3.73s0,0,0-.06A22.46,22.46,0,0,1,7,19.78c.06-.18.14-.37.21-.55s.25-.62.4-.92.31-.66.48-1a22.32,22.32,0,0,1,1.64-2.7,21.21,21.21,0,0,1,1.55-2q.66-.75,1.38-1.43l.19-.18A22.38,22.38,0,0,1,36,6.62a21.13,21.13,0,0,1,3,1.44A30.85,30.85,0,0,1,40.17,12a32.13,32.13,0,0,1,.74,5.34C40.95,18,41,18.58,41,19.21Z"/></svg>