<svg id="Welcome_Screen" data-name="Welcome Screen" xmlns="http://www.w3.org/2000/svg" viewBox="0 0 118 207.06"><defs><style>.cls-1,.cls-5{fill:#fdff00;}.cls-2{fill:#e300ff;}.cls-3{fill:#afafaf;}.cls-4{fill:#00ffd2;}.cls-5{stroke:#00ffd2;stroke-miterlimit:10;stroke-width:1.15px;}</style></defs><title>workinglayout</title><ellipse class="cls-1" cx="59" cy="153.64" rx="55" ry="32.82"/><ellipse class="cls-2" cx="18.7" cy="153.64" rx="9.89" ry="8.63"/><ellipse class="cls-2" cx="99.3" cy="153.64" rx="9.89" ry="8.63"/><path class="cls-3" d="M79.78,165.74,64,199c-1.76,3.72-7.82,3.65-9.48-.1L39.62,165.09a57,57,0,0,1-4.55-29.57l11.55-87a22.58,22.58,0,0,0-3.19-14.78L39.6,27.47c-2.87-4.7,1-10.37,7.14-10.37H73.35c6.1,0,10,5.67,7.14,10.37l-3.82,6.26a22.58,22.58,0,0,0-3.2,14.82L85,134.68A57.07,57.07,0,0,1,79.78,165.74Z"/><path class="cls-4" d="M81.41,14.19H37.65c-2.81,0,2.21-2,2.21-4.46h0c0-2.45,2.3-4.46,5.11-4.46l4.2,1.18A38.38,38.38,0,0,0,70,6.38l3.9-1.12c2.81,0,5.11,2,5.11,4.46h0C79,12.18,84.22,14.19,81.41,14.19Z"/><path class="cls-4" d="M76.61,91.73H43.47a4.42,4.42,0,0,1-4.59-4.23h0a4.42,4.42,0,0,1,4.59-4.23H76.61A4.42,4.42,0,0,1,81.2,87.5h0A4.42,4.42,0,0,1,76.61,91.73Z"/><path class="cls-4" d="M76,80.17H44.09a4.33,4.33,0,0,1-4.42-4.23h0a4.33,4.33,0,0,1,4.42-4.23H76a4.33,4.33,0,0,1,4.42,4.23h0A4.33,4.33,0,0,1,76,80.17Z"/><path class="cls-4" d="M74.21,68.27H45.87A4.09,4.09,0,0,1,41.94,64h0a4.09,4.09,0,0,1,3.92-4.23H74.21A4.09,4.09,0,0,1,78.14,64h0A4.09,4.09,0,0,1,74.21,68.27Z"/><path class="cls-4" d="M72.43,57H47.65c-1.9,0-3.43-1.9-3.43-4.23h0c0-2.34,1.54-4.23,3.43-4.23H72.43c1.9,0,3.43,1.9,3.43,4.23h0C75.87,55.15,74.33,57,72.43,57Z"/><path class="cls-4" d="M72.14,46H47.94c-1.85,0-3.35-1.9-3.35-4.23h0c0-2.34,1.5-4.23,3.35-4.23h24.2c1.85,0,3.35,1.9,3.35,4.23h0C75.49,44.09,74,46,72.14,46Z"/><path class="cls-4" d="M78.07,34.74h-34a4.49,4.49,0,0,1-4.7-4.23h0a4.49,4.49,0,0,1,4.7-4.23h34a4.49,4.49,0,0,1,4.7,4.23h0A4.49,4.49,0,0,1,78.07,34.74Z"/><path class="cls-4" d="M71.2,197.56H48.88c-1.71,0-3.09-1.9-3.09-4.23h0c0-2.34,1.38-4.23,3.09-4.23H71.2c1.71,0,3.09,1.9,3.09,4.23h0C74.29,195.66,72.9,197.56,71.2,197.56Z"/><path class="cls-4" d="M77.55,103.47h-35c-2.68,0-4.85-1.9-4.85-4.23h0c0-2.34,2.17-4.23,4.85-4.23h35c2.68,0,4.85,1.9,4.85,4.23h0C82.41,101.57,80.23,103.47,77.55,103.47Z"/><path class="cls-4" d="M75.12,185.94H45a4.2,4.2,0,0,1-4.18-4.23h0A4.2,4.2,0,0,1,45,177.48H75.12a4.2,4.2,0,0,1,4.18,4.23h0A4.2,4.2,0,0,1,75.12,185.94Z"/><path class="cls-4" d="M79,115.21H41.07c-2.9,0-5.25-1.9-5.25-4.23h0c0-2.34,2.35-4.23,5.25-4.23H79c2.9,0,5.25,1.9,5.25,4.23h0C84.27,113.31,81.91,115.21,79,115.21Z"/><path class="cls-4" d="M79,162.34H41.07c-2.9,0-5.25-1.9-5.25-4.23h0c0-2.34,2.35-4.23,5.25-4.23H79c2.9,0,5.25,1.9,5.25,4.23h0C84.27,160.44,81.91,162.34,79,162.34Z"/><path class="cls-4" d="M81.69,126.95H38.39c-3.31,0-6-1.9-6-4.23h0c0-2.34,2.68-4.23,6-4.23h43.3c3.31,0,6,1.9,6,4.23h0C87.69,125.05,85,126.95,81.69,126.95Z"/><path class="cls-4" d="M81.69,150.33H38.39c-3.31,0-6-1.9-6-4.23h0c0-2.34,2.68-4.23,6-4.23h43.3c3.31,0,6,1.9,6,4.23h0C87.69,148.43,85,150.33,81.69,150.33Z"/><path class="cls-4" d="M82.77,138.69H37.31c-3.48,0-6.29-1.9-6.29-4.23h0c0-2.34,2.82-4.23,6.29-4.23H82.77c3.48,0,6.29,1.9,6.29,4.23h0C89.06,136.79,86.24,138.69,82.77,138.69Z"/><path class="cls-4" d="M77.55,173.91h-35c-2.68,0-4.85-1.9-4.85-4.23h0c0-2.34,2.17-4.23,4.85-4.23h35c2.68,0,4.85,1.9,4.85,4.23h0C82.41,172,80.23,173.91,77.55,173.91Z"/><rect class="cls-1" x="34.13" y="16.54" width="51.82" height="5.02" rx="2.05" ry="2.05"/><path class="cls-4" d="M83.9,17.12a1.47,1.47,0,0,1,1.47,1.47v.92A1.47,1.47,0,0,1,83.9,21H36.18a1.47,1.47,0,0,1-1.47-1.47v-.92a1.47,1.47,0,0,1,1.47-1.47H83.9m0-1.15H36.18a2.63,2.63,0,0,0-2.62,2.62v.92a2.63,2.63,0,0,0,2.62,2.62H83.9a2.63,2.63,0,0,0,2.62-2.62v-.92A2.63,2.63,0,0,0,83.9,16Z"/><rect class="cls-5" x="34.71" y="13.23" width="50.67" height="3.87" rx="1.47" ry="1.47"/></svg>