<svg id="Welcome_Screen" data-name="Welcome Screen" xmlns="http://www.w3.org/2000/svg" viewBox="0 0 55 55"><defs><style>.cls-1{fill:#cd163f;}.cls-2{fill:#ffce00;}.cls-3,.cls-4{fill:#ffeb99;}.cls-4{opacity:0.34;}</style></defs><title>workinglayout</title><path class="cls-1" d="M10.87,39.69l-1.26.18a.68.68,0,0,1-.09-.13Z"/><path class="cls-2" d="M50,22.52C46.57,25,38.41,28.27,28.63,30.94c-9,2.46-17.08,3.77-21.6,3.68a18.9,18.9,0,0,1-.58-2c-.17-.71-.3-1.45-.4-2.19,0-.09,0-.19,0-.28s0-.21,0-.32a20.5,20.5,0,0,1-.12-2.31,22.68,22.68,0,0,1,.31-3.73s0,0,0-.06a22.46,22.46,0,0,1,1.05-3.94c.06-.18.14-.37.21-.55s.25-.62.4-.92.31-.66.48-1A22.32,22.32,0,0,1,10,14.61a21.21,21.21,0,0,1,1.55-2q.66-.75,1.38-1.43l.19-.18A22.38,22.38,0,0,1,36.23,6.62a21.13,21.13,0,0,1,3,1.44l.18.1.66.39.12.07a21.41,21.41,0,0,1,2.57,1.92c.37.31.73.64,1.07,1s.57.57.84.87c.49.53,1,1.09,1.39,1.67.25.33.49.66.72,1h0a21.76,21.76,0,0,1,1.92,3.51h0l.19.48c.05.12.1.23.14.35a22.14,22.14,0,0,1,.74,2.25C49.88,21.95,50,22.24,50,22.52Z"/><path class="cls-2" d="M50.58,27.5A22.18,22.18,0,0,1,50.3,31c0,.24-.08.48-.13.71a20.66,20.66,0,0,1-.94,3.47,21,21,0,0,1-1.46,3.19l-.17.3c-.22.38-.45.76-.7,1.12h0A22.34,22.34,0,0,1,28.22,49.86a22,22,0,0,1-9.74-2.24l-.5-.25h0a19.78,19.78,0,0,1-1.75-1h0a18.18,18.18,0,0,1-1.5-1.07,20.51,20.51,0,0,1-2.09-1.8,21.76,21.76,0,0,1-3-3.63.68.68,0,0,1-.09-.13l-.3-.45c-.3-.48-.58-1-.85-1.49l-.29-.59A20.35,20.35,0,0,1,7,34.62c4.52.09,12.61-1.22,21.6-3.68,9.78-2.67,17.94-6,21.39-8.42a21.68,21.68,0,0,1,.49,3.3C50.56,26.37,50.58,26.94,50.58,27.5Z"/><circle class="cls-3" cx="19.57" cy="13.8" r="2.88" transform="translate(-0.51 0.76) rotate(-2.19)"/><circle class="cls-3" cx="28.22" cy="23.17" r="5.38" transform="translate(-0.87 1.1) rotate(-2.19)"/><path class="cls-3" d="M17.73,40.27a5.36,5.36,0,0,1-3,5,20.51,20.51,0,0,1-2.09-1.8,21.76,21.76,0,0,1-3-3.63.68.68,0,0,1-.09-.13l-.3-.45a20.74,20.74,0,0,1-1.14-2.08,5.38,5.38,0,0,1,9.64,3.06Z"/><circle class="cls-3" cx="46.25" cy="36.15" r="2.02" transform="translate(-1.35 1.8) rotate(-2.19)"/><circle class="cls-3" cx="41.92" cy="22.45" r="1.36" transform="translate(-0.83 1.62) rotate(-2.19)"/><path class="cls-3" d="M50.51,25.83C45.76,28.6,38,31.65,29.1,34.08A104.13,104.13,0,0,1,8.37,37.81c-5.11.26-8.45-.36-8.88-1.93s2-3.71,6.38-6l.12,0c0,.11,0,.21,0,.32s0,.19,0,.28c-2,1.2-3,2.26-2.81,3S4.82,34.57,7,34.62c4.52.09,12.61-1.22,21.6-3.68,9.78-2.67,17.94-6,21.39-8.42,1.28-.92,1.91-1.72,1.75-2.34s-1.18-1-2.84-1.12l-.19-.48c3.91,0,6.41.64,6.78,2S54,23.81,50.51,25.83Z"/><path class="cls-4" d="M41.44,19.21a31.5,31.5,0,0,1-4.64,16.67,26.43,26.43,0,0,1-7,7.59,22,22,0,0,1-11.06,4.15l-.5-.25h0a19.78,19.78,0,0,1-1.75-1h0a22.59,22.59,0,0,1-3.59-2.86,21.76,21.76,0,0,1-3-3.63.68.68,0,0,1-.09-.13l-.3-.45A22.06,22.06,0,0,1,6.7,32.61a23.29,23.29,0,0,1-.43-2.47,21.16,21.16,0,0,1-.16-2.63,22.68,22.68,0,0,1,.31-3.73s0,0,0-.06a22.46,22.46,0,0,1,1.05-3.94c.06-.18.14-.37.21-.55s.25-.62.4-.92.31-.66.48-1a22.32,22.32,0,0,1,1.64-2.7,21.21,21.21,0,0,1,1.55-2q.66-.75,1.38-1.43l.19-.18A22.38,22.38,0,0,1,36.48,6.62a21.13,21.13,0,0,1,3,1.44A30.85,30.85,0,0,1,40.65,12a32.13,32.13,0,0,1,.74,5.34C41.43,18,41.44,18.58,41.44,19.21Z"/></svg>