<svg id="Welcome_Screen" data-name="Welcome Screen" xmlns="http://www.w3.org/2000/svg" viewBox="0 0 55 55"><defs><style>.cls-1{fill:#ff7900;}.cls-2{fill:#ffa95c;}.cls-3{fill:#ff9433;}.cls-4{fill:none;}.cls-5{fill:#ffcb9d;opacity:0.34;}</style></defs><title>workinglayout</title><path class="cls-1" d="M19.09,6.78l-5,2.82A22.1,22.1,0,0,1,19.09,6.78Z"/><path class="cls-2" d="M49.84,26.85l-1,.58h0L27.25,39.64a.41.41,0,0,0-.12.08L27,39.8l-.06.05-.06.06a1.07,1.07,0,0,0-.16.21.85.85,0,0,0-.08.14h0a1.67,1.67,0,0,0-.12.32,1.4,1.4,0,0,0,.15,1.05,1.46,1.46,0,0,0,1.28.74h0a1.51,1.51,0,0,0,.69-.19L40,35.82a1.48,1.48,0,0,1,1.29.75,1.46,1.46,0,0,1,0,1.38l-1.13.64a1.42,1.42,0,0,0-.58.62,1.46,1.46,0,0,0,0,1.38,1.48,1.48,0,0,0,1.28.74h0a1.2,1.2,0,0,0,.35-.05,1.57,1.57,0,0,0,.35-.14l4.31-2.44h0l1.37-.78c-.12.25-.26.49-.4.73s-.12.19-.18.29c-.25.42-.5.83-.79,1.23h0a21.55,21.55,0,0,1-2,2.55L32.61,49.09a1.77,1.77,0,0,0-.32.25,22.08,22.08,0,0,1-4.67.52H27.5a22.26,22.26,0,0,1-12-3.48h0a22.6,22.6,0,0,1-3.59-2.86A22.27,22.27,0,0,1,5.3,30.13a21.15,21.15,0,0,1-.16-2.63,22.35,22.35,0,0,1,1.37-7.72c.06-.18.14-.37.21-.55a22.31,22.31,0,0,1,2.51-4.62A19.79,19.79,0,0,1,10.52,13a1.65,1.65,0,0,0,.12.29,1.48,1.48,0,0,0,1.28.74h0a1.51,1.51,0,0,0,.69-.19L23.89,7.44a1.49,1.49,0,0,1,1.3.75,1.47,1.47,0,0,1,0,1.37l-1.14.64A1.47,1.47,0,0,0,24.8,13h0a1.5,1.5,0,0,0,.69-.19L36,6.83h0A20.62,20.62,0,0,1,38.26,7.9l.45.27-.61.35L16.55,20.71a1.33,1.33,0,0,0-.32.25.63.63,0,0,0-.09.11l-.07.09a1,1,0,0,0-.11.19.61.61,0,0,0-.06.16,1,1,0,0,0-.05.16A1.4,1.4,0,0,0,16,22.72a1.46,1.46,0,0,0,1.28.74h0a1.41,1.41,0,0,0,.71-.19l11.24-6.36a1.48,1.48,0,0,1,1.31.74,1.46,1.46,0,0,1,0,1.38l-1.13.64a1.42,1.42,0,0,0-.59.63,1.47,1.47,0,0,0,1.32,2.12h0a1.41,1.41,0,0,0,.71-.19L42.1,15.86h0l2.34-1.32a1.42,1.42,0,0,0,.66-.8c.35.43.66.87,1,1.33h0q.53.79,1,1.62a1.44,1.44,0,0,0-1.4,0L43.45,18,21.9,30.18a1.09,1.09,0,0,0-.19.13.46.46,0,0,0-.11.09l-.09.1a.79.79,0,0,0-.09.12,1,1,0,0,0-.11.19,1.45,1.45,0,0,0,0,1.36,1.47,1.47,0,0,0,1.28.75h0a1.43,1.43,0,0,0,.71-.19l11.23-6.36a1.46,1.46,0,0,1,1.34,2.12l-1.13.64a1.42,1.42,0,0,0-.59.63,1.45,1.45,0,0,0,0,1.37,1.46,1.46,0,0,0,1.28.74h0a1.49,1.49,0,0,0,.69-.19l11.22-6.36h0l2.13-1.2A21.38,21.38,0,0,1,49.84,26.85Z"/><path class="cls-3" d="M25.22,9.56a1.47,1.47,0,0,0,0-1.37,1.49,1.49,0,0,0-1.3-.75l4.05-2.29a21.35,21.35,0,0,1,4.21.48Z"/><path class="cls-3" d="M49,21.26a1.48,1.48,0,0,0-.61.19l-12.43,7a1.46,1.46,0,0,0-1.34-2.12l12.54-7.1a1.45,1.45,0,0,0,.73-1q.26.58.5,1.19C48.58,20,48.79,20.63,49,21.26Z"/><path class="cls-3" d="M43.43,11.83A1.43,1.43,0,0,0,43,12L30.56,19a1.46,1.46,0,0,0,0-1.38,1.48,1.48,0,0,0-1.31-.74L41.42,10a21.28,21.28,0,0,1,1.72,1.51Z"/><path class="cls-3" d="M49.67,30.33c0,.22-.05.44-.09.66A20.27,20.27,0,0,1,49,33.56h0l-7.74,4.38a1.46,1.46,0,0,0,0-1.38A1.48,1.48,0,0,0,40,35.82Z"/><path class="cls-3" d="M38.26,7.9a1.48,1.48,0,0,1-.75,1.25L16,21.35,13.74,22.6a1.46,1.46,0,0,1-.72.19,1.46,1.46,0,0,1-.73-2.74L24.83,13a1.5,1.5,0,0,0,.69-.19L36,6.83h0A20.62,20.62,0,0,1,38.26,7.9Z"/><path class="cls-3" d="M18.37,32.25a1.47,1.47,0,0,1-.72-2.75L41.42,16.05a1.47,1.47,0,1,1,1.45,2.56L19.09,32.06A1.46,1.46,0,0,1,18.37,32.25Z"/><path class="cls-3" d="M23.73,41.71A1.47,1.47,0,0,1,23,39L46.77,25.51a1.47,1.47,0,1,1,1.45,2.56L24.45,41.52A1.46,1.46,0,0,1,23.73,41.71Z"/><path class="cls-3" d="M46.7,38.94c-.25.42-.5.83-.79,1.23h0a21.56,21.56,0,0,1-2,2.55l-.62.64L33,49.17l-.71.17a22.08,22.08,0,0,1-4.67.52,1.44,1.44,0,0,1,.73-1.43l12.53-7.1,4.29-2.43a1.42,1.42,0,0,1,.71-.19h0A1.42,1.42,0,0,1,46.7,38.94Z"/><line class="cls-4" x1="10.34" y1="16.59" x2="23.9" y2="8.91"/><path class="cls-3" d="M23.89,7.44,12.64,13.81A1.51,1.51,0,0,1,12,14L23.18,7.64A1.41,1.41,0,0,1,23.89,7.44Z"/><path class="cls-3" d="M25.22,9.56a1.42,1.42,0,0,1-.59.63l-1.14.64a1.45,1.45,0,0,1,.59-.63Z"/><line class="cls-4" x1="15.69" y1="26.05" x2="29.26" y2="18.37"/><path class="cls-3" d="M29.23,16.91,18,23.27a1.41,1.41,0,0,1-.71.19L28.54,17.1A1.5,1.5,0,0,1,29.23,16.91Z"/><path class="cls-3" d="M30.56,19a1.44,1.44,0,0,1-.58.63l-1.14.64a1.42,1.42,0,0,1,.59-.63Z"/><line class="cls-4" x1="21.05" y1="35.51" x2="34.61" y2="27.83"/><path class="cls-3" d="M34.58,26.37,23.35,32.73a1.43,1.43,0,0,1-.71.19l11.24-6.37A1.51,1.51,0,0,1,34.58,26.37Z"/><path class="cls-3" d="M35.92,28.49a1.44,1.44,0,0,1-.58.63l-1.14.64a1.42,1.42,0,0,1,.59-.63Z"/><line class="cls-4" x1="26.4" y1="44.97" x2="39.97" y2="37.29"/><path class="cls-3" d="M40,35.82,28.7,42.19a1.51,1.51,0,0,1-.69.19L39.25,36A1.39,1.39,0,0,1,40,35.82Z"/><path class="cls-3" d="M41.27,37.95a1.42,1.42,0,0,1-.58.62l-1.13.64a1.42,1.42,0,0,1,.58-.62Z"/><path class="cls-1" d="M43.87,42.72l-.62.64A22.26,22.26,0,0,1,33,49.17l-.71.17a1.77,1.77,0,0,1,.32-.25Z"/><path class="cls-1" d="M49.86,27.5c0,.35,0,.7,0,1,0,.6-.09,1.2-.17,1.78L40,35.82,28.7,42.19a1.51,1.51,0,0,1-.69.19h0a1.47,1.47,0,0,1-.73-2.74L49.84,26.85C49.86,27.07,49.86,27.28,49.86,27.5Z"/><line class="cls-4" x1="46.4" y1="18" x2="22.63" y2="31.45"/><path class="cls-1" d="M47.85,18.23a1.45,1.45,0,0,1-.73,1l-12.54,7.1L23.35,32.73a1.43,1.43,0,0,1-.71.19h0a1.47,1.47,0,0,1-.73-2.75L45.68,16.72a1.44,1.44,0,0,1,1.4,0C47.35,17.19,47.61,17.71,47.85,18.23Z"/><path class="cls-1" d="M41.42,10,29.23,16.91,18,23.27a1.41,1.41,0,0,1-.71.19h0a1.47,1.47,0,0,1-.72-2.75L38.71,8.17c.22.12.44.25.66.39l.12.07c.22.14.43.27.63.43C40.57,9.35,41,9.67,41.42,10Z"/><path class="cls-1" d="M27.94,5.15,23.89,7.44,12.64,13.81A1.51,1.51,0,0,1,12,14h0a1.48,1.48,0,0,1-1.28-.74,1.65,1.65,0,0,1-.12-.29l.27-.31q.66-.75,1.38-1.43A19.9,19.9,0,0,1,14.12,9.6l5-2.82h0A22.68,22.68,0,0,1,27.5,5.14Z"/><line class="cls-4" x1="48.31" y1="35.66" x2="40.86" y2="39.87"/><path class="cls-1" d="M49,33.57c-.14.54-.31,1.07-.5,1.59-.06.17-.12.32-.19.49h0a19,19,0,0,1-1,2.27l-5.68,3.22a1.48,1.48,0,0,1-2-.56,1.46,1.46,0,0,1,0-1.38,1.42,1.42,0,0,1,.58-.62l1.13-.64Z"/><line class="cls-4" x1="49.08" y1="22.73" x2="35.51" y2="30.41"/><path class="cls-1" d="M49.6,24.11h0L36.23,31.68a1.44,1.44,0,0,1-.72.19,1.46,1.46,0,0,1-1.28-.74,1.45,1.45,0,0,1,0-1.37,1.42,1.42,0,0,1,.59-.63l1.13-.64,12.43-7a1.48,1.48,0,0,1,.61-.19c0,.13.08.27.12.4A22.64,22.64,0,0,1,49.6,24.11Z"/><line class="cls-4" x1="43.72" y1="13.27" x2="30.16" y2="20.95"/><path class="cls-1" d="M45.11,13.74a1.42,1.42,0,0,1-.66.8L30.88,22.22a1.47,1.47,0,0,1-2-1.93,1.42,1.42,0,0,1,.59-.63L30.56,19,43,12a1.43,1.43,0,0,1,.43-.16A19.07,19.07,0,0,1,45.11,13.74Z"/><path class="cls-1" d="M36,6.83,25.52,12.76a1.47,1.47,0,0,1-1.44-2.55l1.14-.64,6.93-3.93h0c.69.14,1.37.32,2,.53q.67.21,1.32.45Z"/><path class="cls-5" d="M40.51,19.21a31.5,31.5,0,0,1-4.64,16.67,26.43,26.43,0,0,1-7,7.59,22,22,0,0,1-11.06,4.15l-.5-.25h0a19.78,19.78,0,0,1-1.75-1h0a22.59,22.59,0,0,1-3.59-2.86,21.76,21.76,0,0,1-3-3.63.68.68,0,0,1-.09-.13l-.3-.45a22.06,22.06,0,0,1-2.77-6.69,23.29,23.29,0,0,1-.43-2.47,21.16,21.16,0,0,1-.16-2.63,22.68,22.68,0,0,1,.31-3.73s0,0,0-.06a22.46,22.46,0,0,1,1.05-3.94c.06-.18.14-.37.21-.55s.25-.62.4-.92.31-.66.48-1a22.32,22.32,0,0,1,1.64-2.7,21.21,21.21,0,0,1,1.55-2q.66-.75,1.38-1.43l.19-.18A22.38,22.38,0,0,1,35.54,6.62a21.13,21.13,0,0,1,3,1.44A30.85,30.85,0,0,1,39.72,12a32.13,32.13,0,0,1,.74,5.34C40.5,18,40.51,18.58,40.51,19.21Z"/></svg>