<svg id="Welcome_Screen" data-name="Welcome Screen" xmlns="http://www.w3.org/2000/svg" viewBox="0 0 55 55"><defs><style>.cls-1{fill:#cd163f;}.cls-2{fill:#d74565;}.cls-3{fill:#e1738c;}.cls-4{fill:#eba2b2;opacity:0.34;}</style></defs><title>workinglayout</title><path class="cls-1" d="M42.06,10.55c-.78.5-1.56,1-2.37,1.45C34.63,14.85,29,16.47,23.17,13.08l-.4-.22a16.31,16.31,0,0,0-10.41-1.8A22.38,22.38,0,0,1,35.51,6.62a21.13,21.13,0,0,1,3,1.44l.18.1.66.39.12.07A21.41,21.41,0,0,1,42.06,10.55Z"/><path class="cls-1" d="M10.15,39.69l-1.26.18a.68.68,0,0,1-.09-.13Z"/><path class="cls-1" d="M15.33,39.51l-5.18.19A27.64,27.64,0,0,1,15.33,39.51Z"/><path class="cls-2" d="M49.45,31.69a20.66,20.66,0,0,1-.94,3.47A21,21,0,0,1,47,38.35l-.17.3c-.22.38-.45.76-.7,1.12h0c-5.35,1.23-8.27,5.86-17.35,3.68a35.8,35.8,0,0,1-6.38-2.26,20.35,20.35,0,0,0-7.12-1.69,27.64,27.64,0,0,0-5.18.19h0l-1.35.05-.3-.45a22.06,22.06,0,0,1-2.77-6.69c5.44-1.38,11.42-1.72,16.72.66,6.19,2.78,10.25,3.18,13.39,2.6,4.17-.76,6.71-3.22,10.41-4A10.89,10.89,0,0,1,49.45,31.69Z"/><path class="cls-1" d="M15.33,39.51l-5.18.19A27.64,27.64,0,0,1,15.33,39.51Z"/><path class="cls-1" d="M46.18,39.78A22.34,22.34,0,0,1,27.5,49.86a22,22,0,0,1-9.74-2.24l-.5-.25h0a19.78,19.78,0,0,1-1.75-1h0a22.59,22.59,0,0,1-3.59-2.86,21.76,21.76,0,0,1-3-3.63l1.26-.18h0l5.18-.19a20.35,20.35,0,0,1,7.12,1.69,35.8,35.8,0,0,0,6.38,2.26C37.91,45.64,40.83,41,46.18,39.78Z"/><path class="cls-1" d="M15.33,39.51l-5.18.19A27.64,27.64,0,0,1,15.33,39.51Z"/><path class="cls-3" d="M45.36,14.06c-1.57,1.11-3.22,2.26-4.93,3.27-5.24,3.12-11.11,5.08-17.26,1.51l-.4-.22c-5.44-3-11-2.24-15.66-.32.15-.33.31-.66.48-1a22.32,22.32,0,0,1,1.64-2.7,21.21,21.21,0,0,1,1.55-2q.66-.75,1.38-1.43l.19-.18a16.31,16.31,0,0,1,10.41,1.8l.4.22C29,16.47,34.63,14.85,39.69,12c.81-.46,1.59-.94,2.37-1.45.37.31.73.64,1.07,1s.57.57.84.87C44.46,12.93,44.93,13.48,45.36,14.06Z"/><path class="cls-1" d="M49.86,27.5A22.18,22.18,0,0,1,49.58,31c0,.24-.08.48-.13.71a10.89,10.89,0,0,0-3.2.14c-3.7.82-6.24,3.29-10.41,4-3.14.58-7.2.18-13.39-2.6-5.29-2.38-11.27-2-16.72-.66a23.29,23.29,0,0,1-.43-2.47,21.16,21.16,0,0,1-.16-2.63,22.68,22.68,0,0,1,.31-3.73s0,0,0-.06a22.46,22.46,0,0,1,1.05-3.94c.06-.18.14-.37.21-.55s.25-.62.4-.92c4.68-1.93,10.21-2.65,15.66.32l.4.22c6.15,3.56,12,1.6,17.26-1.51,1.72-1,3.36-2.16,4.93-3.27.25.33.49.66.72,1h0A22.29,22.29,0,0,1,49.86,27.5Z"/><path class="cls-4" d="M40.48,19.21a31.5,31.5,0,0,1-4.64,16.67,26.43,26.43,0,0,1-7,7.59,22,22,0,0,1-11.06,4.15l-.5-.25h0a19.78,19.78,0,0,1-1.75-1h0a22.59,22.59,0,0,1-3.59-2.86,21.76,21.76,0,0,1-3-3.63.68.68,0,0,1-.09-.13l-.3-.45a22.06,22.06,0,0,1-2.77-6.69,23.29,23.29,0,0,1-.43-2.47,21.16,21.16,0,0,1-.16-2.63,22.68,22.68,0,0,1,.31-3.73s0,0,0-.06a22.46,22.46,0,0,1,1.05-3.94c.06-.18.14-.37.21-.55s.25-.62.4-.92.31-.66.48-1a22.32,22.32,0,0,1,1.64-2.7,21.21,21.21,0,0,1,1.55-2q.66-.75,1.38-1.43l.19-.18A22.38,22.38,0,0,1,35.51,6.62a21.13,21.13,0,0,1,3,1.44A30.85,30.85,0,0,1,39.69,12a32.13,32.13,0,0,1,.74,5.34C40.47,18,40.48,18.58,40.48,19.21Z"/></svg>